<?xml version="1.0" encoding="utf-8"?>
<!DOCTYPE svg PUBLIC "-//W3C//DTD SVG 1.1//EN" "http://www.w3.org/Graphics/SVG/1.1/DTD/svg11.dtd">
<svg version="1.1" baseProfile="full"
 xmlns="http://www.w3.org/2000/svg"
 xmlns:xlink="http://www.w3.org/1999/xlink"
 xmlns:ev="http://www.w3.org/2001/xml-events" 
  height="57px" 
  width="56px" 
>
<path fill="#d6d6d6"
 d="M53,56.991 C53,56.991 3,56.991 3,56.991 C1.346,56.991 0,55.645 0,53.991 C0,53.991 0,3.99000000000001 0,3.99000000000001 C0,2.33499999999998 1.346,0.99000000000001 3,0.99000000000001 C3,0.99000000000001 53,0.99000000000001 53,0.99000000000001 C54.654,0.99000000000001 56,2.33499999999998 56,3.99000000000001 C56,3.99000000000001 56,53.991 56,53.991 C56,55.645 54.654,56.991 53,56.991 ZM53,54.991 C53.5509999999999,54.991 54,54.542 54,53.991 C54,53.991 54,38.991 54,38.991 C54,38.991 38,38.991 38,38.991 C38,38.991 38,54.991 38,54.991 C38,54.991 53,54.991 53,54.991 ZM36,54.991 C36,54.991 36,38.991 36,38.991 C36,38.991 20,38.991 20,38.991 C20,38.991 20,54.991 20,54.991 C20,54.991 36,54.991 36,54.991 ZM3,54.991 C3,54.991 18,54.991 18,54.991 C18,54.991 18,38.991 18,38.991 C18,38.991 2,38.991 2,38.991 C2,38.991 2,53.991 2,53.991 C2,54.542 2.44900000000007,54.991 3,54.991 ZM18,2.99000000000001 C18,2.99000000000001 3,2.99000000000001 3,2.99000000000001 C2.44900000000007,2.99000000000001 2,3.43900000000002 2,3.99000000000001 C2,3.99000000000001 2,18.99 2,18.99 C2,18.99 18,18.99 18,18.99 C18,18.99 18,2.99000000000001 18,2.99000000000001 ZM2,20.99 C2,20.99 2,36.99 2,36.99 C2,36.99 18,36.99 18,36.99 C18,36.99 18,20.99 18,20.99 C18,20.99 2,20.99 2,20.99 ZM36,2.99000000000001 C36,2.99000000000001 20,2.99000000000001 20,2.99000000000001 C20,2.99000000000001 20,18.99 20,18.99 C20,18.99 36,18.99 36,18.99 C36,18.99 36,2.99000000000001 36,2.99000000000001 ZM20,20.99 C20,20.99 20,36.99 20,36.99 C20,36.99 36,36.99 36,36.99 C36,36.99 36,20.99 36,20.99 C36,20.99 20,20.99 20,20.99 ZM54,3.99000000000001 C54,3.43900000000002 53.5509999999999,2.99000000000001 53,2.99000000000001 C53,2.99000000000001 38,2.99000000000001 38,2.99000000000001 C38,2.99000000000001 38,18.99 38,18.99 C38,18.99 54,18.99 54,18.99 C54,18.99 54,3.99000000000001 54,3.99000000000001 ZM38,20.99 C38,20.99 38,36.99 38,36.99 C38,36.99 54,36.99 54,36.99 C54,36.99 54,20.99 54,20.99 C54,20.99 38,20.99 38,20.99 Z "/>
</svg>
