<?xml version="1.0" encoding="UTF-8" standalone="no"?>
<svg width="20px" height="20px" viewBox="0 0 20 20" version="1.1" xmlns="http://www.w3.org/2000/svg" xmlns:xlink="http://www.w3.org/1999/xlink" xmlns:sketch="http://www.bohemiancoding.com/sketch/ns">
    <!-- Generator: Sketch 3.1.1 (8761) - http://www.bohemiancoding.com/sketch -->
    <title>node-icon-multiselect</title>
    <desc>Created with Sketch.</desc>
    <defs></defs>
    <g id="Page-1" stroke="none" stroke-width="1" fill="none" fill-rule="evenodd" sketch:type="MSPage">
        <g id="node-icon-multiselect" sketch:type="MSLayerGroup" transform="translate(1.000000, 1.000000)" stroke="#262626">
            <g id="Page-1" sketch:type="MSShapeGroup">
                <g id="Path-_x2B_-Shape-2">
                    <path d="M2.7,0 L15.3,0 C16.8,0 18,1.2 18,2.7 L18,15.3 C18,16.8 16.8,18 15.3,18 L2.7,18 C1.2,18 0,16.8 0,15.3 L0,2.7 C0,1.2 1.2,0 2.7,0 L2.7,0 Z" id="Path" stroke-width="1.2"></path>
                    <g id="Rectangle-3" transform="translate(9.000000, 5.000000)">
                        <rect id="path-1" fill="#262626" x="0" y="0" width="5.4" height="0.9"></rect>
                        <rect id="path-1_1_" stroke-width="0.4" x="0" y="0" width="5.4" height="0.9"></rect>
                    </g>
                    <g id="Rectangle-4" transform="translate(9.000000, 9.000000)">
                        <rect id="path-2" fill="#262626" x="0" y="0" width="5.4" height="0.9"></rect>
                        <rect id="path-2_1_" stroke-width="0.4" x="0" y="0" width="5.4" height="0.9"></rect>
                    </g>
                    <g id="Rectangle-5" transform="translate(9.000000, 13.000000)">
                        <rect id="path-3" fill="#262626" x="0" y="0" width="5.4" height="0.9"></rect>
                        <rect id="path-3_1_" stroke-width="0.4" x="0" y="0" width="5.4" height="0.9"></rect>
                    </g>
                    <path d="M5.4,6.4 L4.4,5.5 L3.7,6.2 L5.4,7.7 L8.2,4.5 L7.5,3.9 L5.4,6.4 L5.4,6.4 Z" id="Rectangle-6" stroke-width="0.4" fill="#262626"></path>
                    <path d="M5.4,10 L4.4,9.1 L3.7,9.9 L5.4,11.4 L8.2,8.2 L7.5,7.5 L5.4,10 L5.4,10 Z" id="Rectangle-7" stroke-width="0.4" fill="#262626"></path>
                    <path d="M5.4,13.6 L4.4,12.7 L3.7,13.5 L5.4,15 L8.2,11.8 L7.5,11.2 L5.4,13.6 L5.4,13.6 Z" id="Rectangle-8" stroke-width="0.4" fill="#262626"></path>
                </g>
            </g>
        </g>
    </g>
</svg>