<?xml version="1.0" encoding="UTF-8" standalone="no"?>
<svg width="20px" height="20px" viewBox="0 0 20 20" version="1.1" xmlns="http://www.w3.org/2000/svg" xmlns:xlink="http://www.w3.org/1999/xlink" xmlns:sketch="http://www.bohemiancoding.com/sketch/ns">
    <!-- Generator: Sketch 3.1.1 (8761) - http://www.bohemiancoding.com/sketch -->
    <title>node-icon-media</title>
    <desc>Created with Sketch.</desc>
    <defs></defs>
    <g id="Page-1" stroke="none" stroke-width="1" fill="none" fill-rule="evenodd" sketch:type="MSPage">
        <g id="node-icon-media" sketch:type="MSLayerGroup" transform="translate(1.000000, 1.000000)">
            <g id="Page-1" sketch:type="MSShapeGroup">
                <g id="Path-_x2B_-Shape">
                    <path d="M2.7,0 L15.3,0 C16.8,0 18,1.2 18,2.7 L18,15.3 C18,16.8 16.8,18 15.3,18 L2.7,18 C1.2,18 0,16.8 0,15.3 L0,2.7 C0,1.2 1.2,0 2.7,0 L2.7,0 Z" id="Path" stroke="#262626" stroke-width="1.2"></path>
                    <g id="Rectangle-9" transform="translate(3.000000, 4.500000)" stroke="#262626">
                        <rect id="path-1" x="-8.8817842e-16" y="0" width="12.1" height="9.5"></rect>
                        <rect id="path-1_1_" stroke-width="0.4" x="-8.8817842e-16" y="0" width="12.1" height="9.5"></rect>
                    </g>
                    <g id="Path-6" transform="translate(3.000000, 7.500000)">
                        <path d="M0.6,5.6 L2.9,2.7 L5.4,4.2 L7.9,0.2 L11.1,5.6" id="path-2"></path>
                        <path d="M0.4,5.9 L2.9,2.7 L5.4,4.2 L7.9,0.2 L11.7,5.9" id="path-2_1_" stroke="#262626" stroke-width="1.4"></path>
                    </g>
                    <g id="Oval-1" transform="translate(6.000000, 6.000000)" stroke="#262626">
                        <circle id="path-3" cx="1.3" cy="1.3" r="1.3"></circle>
                        <circle id="path-3_1_" stroke-width="0.4" cx="1.3" cy="1.3" r="1.3"></circle>
                    </g>
                </g>
            </g>
        </g>
    </g>
</svg>