<?xml version="1.0" encoding="utf-8"?>
<!-- Generator: Adobe Illustrator 18.1.1, SVG Export Plug-In . SVG Version: 6.00 Build 0)  -->
<svg version="1.2" baseProfile="tiny" id="图层_1"
	 xmlns="http://www.w3.org/2000/svg" xmlns:xlink="http://www.w3.org/1999/xlink" x="0px" y="0px" width="20px" height="20px"
	 viewBox="-13 15 20 20" xml:space="preserve">
<g id="Link_3">
	<path fill="#D6D6D6" d="M-6.4,27.4C-6.5,27.2-6.6,27-6.8,27C-6.9,27-7,27-7,27c-1.1,0-2-0.9-2-2s0.9-2,2-2h3c1.1,0,2,0.9,2,2
		c0,0.5,0.5,1,1,1c0.5,0,1-0.5,1-1c0-0.3,0-0.7-0.1-1c0-0.2-0.1-0.3-0.2-0.5c0,0,0,0,0,0c-0.2-0.5-0.5-0.9-0.8-1.2c0,0,0,0,0,0
		c-0.5-0.5-1-0.8-1.7-1C-3.2,21.1-3.6,21-4,21h-3c-2.2,0-4,1.8-4,4s1.8,4,4,4h1.5c0.3,0,0.3-0.1,0.1-0.3
		C-5.8,28.3-6.1,27.9-6.4,27.4z"/>
	<path fill="#D6D6D6" d="M1,21h-1.5c-0.3,0-0.3,0.1-0.1,0.3c0.4,0.4,0.7,0.8,1,1.2C0.5,22.8,0.6,23,0.8,23C0.9,23,1,23,1,23
		c1.1,0,2,0.9,2,2s-0.9,2-2,2h-3c-1.1,0-2-0.9-2-2c0-0.5-0.5-1-1-1c-0.5,0-1,0.5-1,1c0,0.7,0.2,1.3,0.5,1.9c0.1,0.1,0.1,0.2,0.2,0.3
		c0.1,0.1,0.2,0.2,0.2,0.3c0.1,0.1,0.2,0.2,0.3,0.3c0.1,0.1,0.2,0.2,0.3,0.3c0.1,0.1,0.1,0.1,0.2,0.2C-3.6,28.8-2.8,29-2,29h3
		c2.2,0,4-1.8,4-4S3.2,21,1,21z"/>
</g>
</svg>
