<?xml version="1.0" encoding="utf-8"?>
<!-- Generator: Adobe Illustrator 18.1.1, SVG Export Plug-In . SVG Version: 6.00 Build 0)  -->
<svg version="1.2" baseProfile="tiny" id="图层_1"
	 xmlns="http://www.w3.org/2000/svg" xmlns:xlink="http://www.w3.org/1999/xlink" x="0px" y="0px" width="16px" height="16px"
	 viewBox="-15 17 16 16" xml:space="preserve">
<path fill="#E74C3C" d="M-7,18.5c-1.7,0-3.4,0.7-4.6,1.9c-1.2,1.2-1.9,2.9-1.9,4.6s0.7,3.4,1.9,4.6s2.9,1.9,4.6,1.9s3.4-0.7,4.6-1.9
	s1.9-2.9,1.9-4.6s-0.7-3.4-1.9-4.6C-3.6,19.2-5.3,18.5-7,18.5z M-7,17L-7,17c4.4,0,8,3.6,8,8s-3.6,8-8,8s-8-3.6-8-8S-11.4,17-7,17z
	 M-8,28h2v2h-2V28z M-8,20h2v6h-2V20z"/>
</svg>
