<?xml version="1.0" encoding="utf-8"?>
<!-- Generator: Adobe Illustrator 18.1.1, SVG Export Plug-In . SVG Version: 6.00 Build 0)  -->
<svg version="1.2" baseProfile="tiny" id="图层_1"
	 xmlns="http://www.w3.org/2000/svg" xmlns:xlink="http://www.w3.org/1999/xlink" x="0px" y="0px" width="14px" height="14px"
	 viewBox="-16 18 14 14" xml:space="preserve">
<path fill="#D6D6D6" d="M-10.8,21.8c-0.3,0.5-0.7,1.2-1.1,2.1c-0.1-0.2-0.2-0.4-0.3-0.6c-0.1-0.1-0.2-0.3-0.3-0.5s-0.3-0.3-0.4-0.4
	c-0.1-0.1-0.3-0.2-0.5-0.3S-13.8,22-14,22h-1.8c-0.1,0-0.1,0-0.2-0.1c0,0-0.1-0.1-0.1-0.2v-1.5c0-0.1,0-0.1,0.1-0.2
	c0,0,0.1-0.1,0.2-0.1h1.8C-12.7,20-11.6,20.6-10.8,21.8L-10.8,21.8z M-2,28c0,0.1,0,0.1-0.1,0.2l-2.5,2.5c0,0-0.1,0.1-0.2,0.1
	c-0.1,0-0.1,0-0.2-0.1c0,0-0.1-0.1-0.1-0.2V29c-0.2,0-0.4,0-0.7,0c-0.3,0-0.5,0-0.6,0c-0.1,0-0.3,0-0.6,0s-0.4,0-0.6,0
	c-0.1,0-0.3,0-0.5-0.1c-0.2,0-0.4-0.1-0.5-0.1c-0.1-0.1-0.3-0.1-0.5-0.2c-0.2-0.1-0.3-0.2-0.5-0.3c-0.1-0.1-0.3-0.3-0.4-0.4
	s-0.3-0.3-0.4-0.5c0.3-0.5,0.7-1.2,1.1-2.1c0.1,0.2,0.2,0.4,0.3,0.6c0.1,0.1,0.2,0.3,0.3,0.5c0.1,0.2,0.3,0.3,0.4,0.4
	s0.3,0.2,0.5,0.3S-7.2,27-7,27h2v-1.5c0-0.1,0-0.1,0.1-0.2c0,0,0.1-0.1,0.2-0.1c0.1,0,0.1,0,0.2,0.1l2.5,2.5C-2,27.9-2,27.9-2,28
	L-2,28z M-2,21c0,0.1,0,0.1-0.1,0.2l-2.5,2.5c0,0-0.1,0.1-0.2,0.1c-0.1,0-0.1,0-0.2-0.1c0,0-0.1-0.1-0.1-0.2V22h-2
	c-0.2,0-0.5,0-0.7,0.1s-0.4,0.2-0.5,0.4c-0.2,0.2-0.3,0.3-0.4,0.5c-0.1,0.2-0.2,0.4-0.4,0.6c-0.2,0.3-0.4,0.8-0.6,1.3
	c-0.2,0.3-0.3,0.6-0.4,0.9c-0.1,0.2-0.2,0.5-0.4,0.8c-0.2,0.3-0.3,0.6-0.5,0.8s-0.4,0.4-0.6,0.6s-0.5,0.4-0.7,0.5
	c-0.2,0.1-0.5,0.2-0.8,0.3s-0.6,0.1-1,0.1h-1.8c-0.1,0-0.1,0-0.2-0.1c0,0-0.1-0.1-0.1-0.2v-1.5c0-0.1,0-0.1,0.1-0.2
	c0,0,0.1-0.1,0.2-0.1h1.8c0.2,0,0.5,0,0.7-0.1c0.2-0.1,0.4-0.2,0.5-0.4c0.2-0.2,0.3-0.3,0.4-0.5c0.1-0.2,0.2-0.4,0.4-0.6
	c0.2-0.3,0.4-0.8,0.6-1.3c0.2-0.3,0.3-0.6,0.4-0.9c0.1-0.2,0.2-0.5,0.4-0.8c0.2-0.3,0.3-0.6,0.5-0.8s0.4-0.4,0.6-0.6
	s0.5-0.4,0.7-0.5c0.2-0.1,0.5-0.2,0.8-0.3C-7.7,20-7.4,20-7,20h2v-1.5c0-0.1,0-0.1,0.1-0.2c0,0,0.1-0.1,0.2-0.1c0.1,0,0.1,0,0.2,0.1
	l2.5,2.5C-2,20.9-2,20.9-2,21L-2,21z"/>
</svg>
