<?xml version="1.0" encoding="utf-8"?>
<!-- Generator: Adobe Illustrator 18.1.1, SVG Export Plug-In . SVG Version: 6.00 Build 0)  -->
<svg version="1.2" baseProfile="tiny" id="图层_1"
	 xmlns="http://www.w3.org/2000/svg" xmlns:xlink="http://www.w3.org/1999/xlink" x="0px" y="0px" width="15px" height="14px"
	 viewBox="-16 18 15 14" xml:space="preserve">
<path fill="#D6D6D6" d="M-6,29.8c0,0.1,0,0.1-0.1,0.2c0,0-0.1,0.1-0.2,0.1h-7.5c0,0-0.1,0-0.1,0c0,0-0.1,0-0.1-0.1c0,0,0,0,0-0.1
	c0,0,0,0,0-0.1c0,0,0-0.1,0-0.1V25h-1.5c-0.1,0-0.3,0-0.4-0.1s-0.1-0.2-0.1-0.4c0-0.1,0-0.2,0.1-0.3l2.5-3c0.1-0.1,0.2-0.2,0.4-0.2
	s0.3,0.1,0.4,0.2l2.5,3c0.1,0.1,0.1,0.2,0.1,0.3c0,0.1,0,0.3-0.1,0.4s-0.2,0.1-0.4,0.1H-12v3h4.5c0.1,0,0.1,0,0.2,0.1l1.2,1.5
	C-6,29.6-6,29.7-6,29.8L-6,29.8z M-1,26.5c0,0.1,0,0.2-0.1,0.3l-2.5,3C-3.7,29.9-3.8,30-4,30s-0.3-0.1-0.4-0.2l-2.5-3
	C-7,26.7-7,26.6-7,26.5c0-0.1,0-0.3,0.1-0.4C-6.8,26-6.6,26-6.5,26H-5v-3h-4.5c-0.1,0-0.1,0-0.2-0.1l-1.2-1.5c0,0-0.1-0.1-0.1-0.2
	c0-0.1,0-0.1,0.1-0.2c0,0,0.1-0.1,0.2-0.1h7.5c0,0,0.1,0,0.1,0c0,0,0.1,0,0.1,0.1c0,0,0,0,0,0.1c0,0,0,0,0,0.1c0,0,0,0.1,0,0.1V26
	h1.5c0.1,0,0.3,0,0.4,0.1C-1,26.2-1,26.4-1,26.5L-1,26.5z"/>
</svg>
