<?xml version="1.0" standalone="no"?>
<!DOCTYPE svg PUBLIC "-//W3C//DTD SVG 1.1//EN" "http://www.w3.org/Graphics/SVG/1.1/DTD/svg11.dtd" >
<svg xmlns="http://www.w3.org/2000/svg">
<metadata>Generated by IcoMoon</metadata>
<defs>
<font id="ic" horiz-adv-x="1024">
<font-face units-per-em="1024" ascent="960" descent="-64" />
<missing-glyph horiz-adv-x="1024" />
<glyph unicode="&#x20;" d="" horiz-adv-x="512" />
<glyph unicode="&#xe600;" d="M128 192h768v85.333h-768v-85.333zM128 405.333h768v85.333h-768v-85.333zM128 704v-85.333h768v85.333h-768z" />
<glyph unicode="&#xe601;" d="M640 320h128v-128h-128v128zM320 864v64c0 17.664-14.336 32-32 32h-64c-17.664 0-32-14.336-32-32v-64c0-17.664 14.336-32 32-32h64c17.664 0 32 14.336 32 32v0zM640 512h128v-128h-128v128zM832 864v64c0 17.664-14.336 32-32 32h-64c-17.664 0-32-14.336-32-32v-64c0-17.664 14.336-32 32-32h64c17.664 0 32 14.336 32 32v0zM864 768h-192c-17.664 0-32 14.336-32 32v128c0 17.664-14.336 32-32 32h-192c-17.664 0-32-14.336-32-32v-128c0-17.664-14.336-32-32-32h-192c-17.664 0-32 14.336-32 32v128c0 17.664-14.336 32-32 32h-32c-35.328 0-64-28.608-64-64v-896c0-35.392 28.672-64 64-64h896c35.328 0 64 28.608 64 64v896c0 35.392-28.672 64-64 64h-32c-17.664 0-32-14.336-32-32v-128c0-17.664-14.336-32-32-32v0zM896 64h-768v576h768v-576zM256 512h128v-128h-128v128zM448 512h128v-128h-128v128zM256 320h128v-128h-128v128zM448 320h128v-128h-128v128z" />
<glyph unicode="&#xe602;" d="M803.032 518.063c37.726 48.505 59.284 107.789 59.284 172.463 0 150.905-118.568 269.474-269.474 269.474s-269.474-118.568-269.474-269.474c0-64.674 21.558-123.958 59.284-172.463-75.453-48.505-129.347-123.958-150.905-204.8h113.179c26.947 64.674 80.842 118.568 150.905 145.516 21.558 5.389 32.337 26.947 37.726 43.116 0 21.558-10.779 37.726-26.947 53.895-48.505 26.947-75.453 80.842-75.453 134.737 0 91.621 70.063 161.684 161.684 161.684s161.684-70.063 161.684-161.684c0-53.895-26.947-107.789-75.453-134.737-16.168-10.779-26.947-32.337-26.947-53.895s16.168-37.726 32.337-43.116c102.4-37.726 172.463-140.126 172.463-253.305h-269.474v-107.789h323.368c26.947 0 53.895 26.947 53.895 53.895v53.895c5.389 129.347-59.284 242.526-161.684 312.589v0zM26.947 151.579h296.421v91.621c0 16.168 16.168 21.558 26.947 10.779l177.853-140.126c10.779-10.779 10.779-26.947 0-32.337l-177.853-140.126c-10.779-10.779-26.947-5.389-26.947 10.779v91.621h-296.421c-16.168 0-26.947 10.779-26.947 26.947v53.895c0 16.168 10.779 26.947 26.947 26.947v0zM0 528.842h107.789v-431.158h-107.789v431.158z" horiz-adv-x="970" />
<glyph unicode="&#xe603;" d="M1134.17 320.602c-62.645-52.043-142.999-83.426-230.641-83.426s-167.996 31.383-230.641 83.426c-149.624-51.080-251.241-150.046-251.241-264.132v-60.235c0-33.31 26.985-60.235 60.235-60.235h843.294c33.25 0 60.235 26.925 60.235 60.235v60.235c0 114.086-101.617 213.052-251.241 264.132v0zM903.529 357.647c133.060 0 240.941 107.881 240.941 240.941v60.235c0 133.060-107.881 240.941-240.941 240.941s-240.941-107.881-240.941-240.941v-60.235c0-133.060 107.881-240.941 240.941-240.941v0zM30.118 538.353h331.294v102.4c0 18.071 18.071 24.094 30.118 12.047l198.776-156.612c12.047-12.047 12.047-30.118 0-36.141l-198.776-156.612c-12.047-12.047-30.118-6.024-30.118 12.047v102.4h-331.294c-18.071 0-30.118 12.047-30.118 30.118v60.235c0 18.071 12.047 30.118 30.118 30.118v0zM0 900.253h120.471v-421.647h-120.471v421.647z" horiz-adv-x="1385" />
<glyph unicode="&#xe604;" d="M1194.667 704h-341.333c-47.189 0-85.333-38.144-85.333-85.333v-341.333c0-47.189 38.144-85.333 85.333-85.333h341.333c47.189 0 85.333 38.144 85.333 85.333v341.333c0 47.189-38.144 85.333-85.333 85.333zM1109.333 362.667h-170.667v170.667h170.667v-170.667zM1280 960h-1024c-141.141 0-256-114.859-256-256v-512c0-141.141 114.859-256 256-256h1024c141.141 0 256 114.859 256 256v512c0 141.141-114.859 256-256 256zM1365.333 192c0-47.104-38.229-85.333-85.333-85.333h-1024c-47.104 0-85.333 38.229-85.333 85.333v512c0 47.104 38.229 85.333 85.333 85.333h1024c47.104 0 85.333-38.229 85.333-85.333v-512z" horiz-adv-x="1536" />
<glyph unicode="&#xe605;" d="M1024 704.256c0 168.384-257.536 255.744-512 255.744s-512-87.232-512-255.616c0-0.384 0.128-0.384 0.128-0.384h-0.128v-256.128c0-0.384 0.064-0.896 0.064-1.28h-0.064v-253.888c0-168.448 257.536-256.704 512-256.704s512 88 512 256.128v255.872h-0.896c0.192 0 0.896 4.736 0.896 7.872v248.128h-0.128c0 0 0.128-0.256 0.128 0.256zM128 527.808c98.624-53.568 241.728-81.152 384-81.152s285.376 27.648 384 81.216v-71.936c0-20.48-26.24-54.016-76.864-78.336-75.84-37.184-187.776-58.56-307.136-58.56s-231.296 21.376-307.584 58.752c-56.448 27.072-76.416 54.72-76.416 70.080v79.936zM512 831.936c238.208 0 384-83.52 384-128.832 0-45.504-145.792-128.96-384-128.96s-384 83.456-384 128.96c0 45.312 145.792 128.832 384 128.832zM512 63.68c-238.208 0-384 83.648-384 129.088v81.6c6.784-3.776 12.8-7.616 20.352-11.264 94.144-46.080 223.296-71.616 363.648-71.616s269.504 25.472 363.2 71.36c7.296 3.52 13.952 7.488 20.8 11.392v-82.112c0-45.184-145.792-128.448-384-128.448z" />
<glyph unicode="&#xe606;" d="M950.857 301.714h-146.286v292.571h146.286c40.448 0 73.143 32.695 73.143 73.143s-32.695 73.143-73.143 73.143h-146.286v146.286c0 40.448-32.695 73.143-73.143 73.143s-73.143-32.695-73.143-73.143v-146.286h-292.571v146.286c0 40.448-32.695 73.143-73.143 73.143s-73.143-32.695-73.143-73.143v-146.286h-146.286c-40.448 0-73.143-32.695-73.143-73.143s32.695-73.143 73.143-73.143h146.286v-292.571h-146.286c-40.448 0-73.143-32.695-73.143-73.143s32.695-73.143 73.143-73.143h146.286v-146.286c0-40.448 32.695-73.143 73.143-73.143s73.143 32.695 73.143 73.143v146.286h292.571v-146.286c0-40.448 32.695-73.143 73.143-73.143s73.143 32.695 73.143 73.143v146.286h146.286c40.448 0 73.143 32.695 73.143 73.143s-32.695 73.143-73.143 73.143zM365.714 301.714v292.571h292.571v-292.571h-292.571z" />
<glyph unicode="&#xe607;" d="M448 640c-35.392 0-64-28.608-64-64v-192c0-35.392 28.608-64 64-64h192c35.392 0 64 28.608 64 64s-28.608 64-64 64h-128v128c0 35.392-28.608 64-64 64zM978.752 914.688l-102.976-102.976c-95.296 92.16-229.632 148.288-363.776 148.288-282.304 0-512-229.696-512-512s229.696-512 512-512c228.48 0 425.664 147.008 490.752 365.76 10.112 33.856-9.216 69.504-43.072 79.616-33.792 10.112-69.504-9.28-79.616-43.136-48.768-163.968-196.672-274.24-368.064-274.24-211.776 0-384 172.224-384 384s172.224 384 384 384c99.776 0 202.624-41.664 274.24-109.824l-100.992-100.928c-25.024-25.024-16.64-45.248 18.752-45.248h288c17.664 0 32 14.272 32 31.936v288c0 35.392-20.224 43.776-45.248 18.752z" />
<glyph unicode="&#xe608;" d="M1280 106.667h-368.896l-309.675 774.059c-17.493 43.776-69.888 79.275-116.992 79.275h-399.104c-47.189 0-85.333-38.144-85.333-85.333s38.144-85.333 85.333-85.333h368.896l309.675-774.059c17.493-43.776 69.888-79.275 116.992-79.275h399.104c47.189 0 85.333 38.144 85.333 85.333s-38.144 85.333-85.333 85.333zM853.333 789.333h426.667c47.189 0 85.333 38.144 85.333 85.333s-38.144 85.333-85.333 85.333h-426.667c-47.189 0-85.333-38.144-85.333-85.333s38.144-85.333 85.333-85.333z" horiz-adv-x="1365" />
<glyph unicode="&#xe609;" d="M576 896c0 35.392 28.608 64 64 64s64-28.608 64-64v-608c0-194.368-157.632-352-352-352s-352 157.632-352 352v416c0 141.376 114.624 256 256 256s256-114.624 256-256v-416c0-88.384-71.616-160-160-160s-160 71.616-160 160v416c0 35.328 28.608 64 64 64s64-28.672 64-64v-416c0-17.664 14.336-32 32-32s32 14.336 32 32v416c0 70.656-57.344 128-128 128s-128-57.344-128-128v-416c0-123.776 100.288-224 224-224s224 100.224 224 224v608z" horiz-adv-x="704" />
<glyph unicode="&#xe60a;" d="M490.667 21.333c46.933 0 85.333 38.4 85.333 85.333h-170.667c0-46.933 38.4-85.333 85.333-85.333zM768 277.333v234.667c0 130.987-90.88 240.64-213.333 269.653v29.013c0 35.413-28.587 64-64 64s-64-28.587-64-64v-29.013c-122.453-29.013-213.333-138.667-213.333-269.653v-234.667l-85.333-85.333v-42.667h725.333v42.667l-85.333 85.333z" />
<glyph unicode="&#xe60b;" d="M810.667 686.507l-60.16 60.16-238.507-238.507-238.507 238.507-60.16-60.16 238.507-238.507-238.507-238.507 60.16-60.16 238.507 238.507 238.507-238.507 60.16 60.16-238.507 238.507z" />
<glyph unicode="&#xe60c;" d="M757.056 344.64c-66.56-55.296-151.936-88.64-245.056-88.64s-178.496 33.344-245.056 88.64c-158.976-54.272-266.944-159.424-266.944-280.64v-64c0-35.392 28.672-64 64-64h896c35.328 0 64 28.608 64 64v64c0 121.216-107.968 226.368-266.944 280.64zM512 384c141.376 0 256 114.624 256 256v64c0 141.376-114.624 256-256 256s-256-114.624-256-256v-64c0-141.376 114.624-256 256-256z" />
<glyph unicode="&#xe60d;" d="M832 768h-192v128c0 35.392-22.272 64-57.6 64h-268.8c-35.328 0-57.6-28.608-57.6-64v-128h-192c-35.392 0-64-28.608-64-64s28.608-64 64-64h768c35.392 0 64 28.608 64 64s-28.608 64-64 64zM512 768h-128v64h128v-64zM64 0c0-35.392 28.608-64 64-64h640c35.392 0 64 28.608 64 64v544c0 17.664-14.336 32-32 32h-704c-17.664 0-32-14.336-32-32v-544z" horiz-adv-x="896" />
<glyph unicode="&#xe60e;" d="M795.378-57.536l-283.346 155.914-283.346-155.914c-28.354-15.617-47.043-1.984-41.795 30.594l54.275 331.029-227.918 232.591c-22.785 23.233-15.489 46.147 16.385 50.883l314.516 47.811 142.601 302.419c14.017 29.698 36.674 29.698 50.691 0l142.537-302.419 314.516-47.811c31.874-4.736 39.17-27.65 16.385-50.883l-227.918-232.591 54.275-331.029c5.184-32.578-13.505-46.275-41.859-30.594z" />
<glyph unicode="&#xe60f;" d="M156.441 640.080c-17.724 0-39.158-15.1-47.86-30.712l-103.526-186.513c-8.702-15.612-6.014-39.478 6.078-52.595l46.452-50.995c12.029-13.117 35.511-19.643 52.467-14.524l104.294 31.928 90.025-92.329 90.025-91.689-34.871-105.702c-5.631-16.892 0.896-39.926 14.396-51.379l58.097-49.332c13.565-11.453 37.047-13.693 52.531-5.055l188.625 104.23c15.484 8.702 30.648 30.2 30.648 48.052v239.428c319.92 173.077 318.576 495.492 318.576 592.236 0 17.852-15.42 34.871-33.272 34.871-96.488 0-396.317 0-594.731-319.92h-237.957zM798.776 639.696c-53.235 0-96.36 42.997-96.36 95.976s43.125 95.976 96.36 95.976 96.36-42.997 96.36-95.976-43.125-95.976-96.36-95.976z" horiz-adv-x="1022" />
<glyph unicode="&#xe610;" d="M512 960c-282.752 0-512-229.248-512-512s229.248-512 512-512 512 229.248 512 512-229.248 512-512 512zM576 160c0-17.664-14.336-32-32-32h-64c-17.664 0-32 14.336-32 32v64c0 17.664 14.336 32 32 32h64c17.664 0 32-14.336 32-32v-64zM576 395.008v-43.008c0-17.664-14.336-32-32-32h-64c-17.664 0-32 14.336-32 32v96c0 35.392 8 64 48 64 26.496 0 48 0 48 0 17.664 0 32 14.336 32 32v64c0 17.664-14.336 32-32 32h-64c-17.664 0-32-14.336-32-32 0-8.896-6.016-32-32-32h-64c-24 0-32.256 14.4-29.376 31.872 15.232 90.752 94.4 160.128 189.376 160.128 105.856 0 192-86.144 192-192 0-83.456-53.504-154.624-128-180.992z" />
<glyph unicode="&#xe611;" d="M608.583 959.936c-17.619 1.281-31.97-13.198-31.97-30.881v-384.408c0-17.683 14.351-32.034 32.034-32.034h384.408c17.683 0 32.162 14.415 30.881 32.034-15.633 222.124-193.101 399.657-415.353 415.289zM864.919 384.477h-384.408c-17.683 0-32.034 14.351-32.034 32.034v384.408c0 17.683-14.415 32.162-32.034 30.881-232.759-16.401-416.442-210.4-416.442-447.323 0-247.687 200.789-448.477 448.477-448.477 236.924 0 430.986 183.683 447.323 416.442 1.281 17.619-13.198 32.034-30.881 32.034z" />
<glyph unicode="&#xe612;" d="M497.375-62.272c-28.93 6.784-49.347 32.578-49.347 62.276v352.022c0 17.665-14.337 32.002-32.002 32.002h-352.022c-29.698 0-55.427 20.353-62.34 49.283-6.784 28.93 7.168 58.692 33.73 72.005l896.056 448.028c24.642 12.161 54.339 7.488 73.861-12.033s24.322-49.283 12.033-73.861l-448.028-896.056c-11.009-22.017-33.474-35.394-57.284-35.394-4.864 0-9.793 0.576-14.657 1.728z" />
<glyph unicode="&#xe613;" d="M388.608 960c-214.592 0-388.608-174.016-388.608-388.608 0-274.56 279.232-549.056 364.288-626.368 13.248-12.032 35.392-12.032 48.64 0 85.056 77.312 364.288 351.808 364.288 626.368 0.064 214.592-173.952 388.608-388.608 388.608zM388.608 384c-105.984 0-192 86.016-192 192s86.016 192 192 192 192-86.016 192-192-85.952-192-192-192z" horiz-adv-x="777" />
<glyph unicode="&#xe614;" d="M477.723 521.576c-12.321 12.321-32.349 12.321-44.67 0l-423.766-423.766c-12.321-12.321-12.321-32.349 0-44.67l107.853-107.853c12.321-12.321 32.349-12.321 44.67 0l423.766 423.766c12.321 12.321 12.321 32.349 0 44.67l-107.853 107.853zM775.124 603.271l-107.853 107.853c-12.321 12.321-32.349 12.321-44.67 0l-107.916-107.853c-12.321-12.321-12.321-32.349 0-44.67l107.853-107.853c12.321-12.321 32.349-12.321 44.67 0l107.853 107.853c12.384 12.321 12.384 32.286 0.063 44.67zM644.905 770.452c34.877 0 63.183 28.243 63.183 63.183v63.183c0 34.94-28.306 63.183-63.183 63.183s-63.183-28.243-63.183-63.183v-63.183c0-34.94 28.306-63.183 63.183-63.183zM823.585 696.402c16.175 0 32.349 6.192 44.67 18.512l44.67 44.67c24.704 24.704 24.704 64.636 0 89.34s-64.636 24.704-89.34 0l-44.67-44.67c-24.704-24.704-24.704-64.636 0-89.34 12.321-12.321 28.495-18.512 44.67-18.512zM960.817 644.087h-63.183c-34.877 0-63.183-28.243-63.183-63.183s28.306-63.183 63.183-63.183h63.183c34.877 0 63.183 28.243 63.183 63.183s-28.306 63.183-63.183 63.183zM868.255 446.894c-24.704 24.704-64.636 24.704-89.34 0s-24.704-64.636 0-89.34l44.67-44.67c12.321-12.321 28.495-18.512 44.67-18.512s32.349 6.192 44.67 18.512c24.704 24.704 24.704 64.636 0 89.34l-44.67 44.67zM421.491 714.978c12.321-12.321 28.495-18.512 44.67-18.512s32.349 6.192 44.67 18.512c24.704 24.704 24.704 64.636 0 89.34l-44.67 44.67c-24.704 24.704-64.636 24.704-89.34 0s-24.704-64.636 0-89.34l44.67-44.67z" />
<glyph unicode="&#xe615;" d="M593.28 130.944c-17.408 30.848-27.264 61.056-55.040 61.056-14.464 0-26.24 0-26.24 0-140.8 0-256 115.2-256 256s115.2 256 256 256h384c140.8 0 256-119.040 256-259.712 0-70.528 57.6-130.048 128-130.048s128 56.704 128 127.104c0 44.8-5.12 86.528-16.64 127.488-5.76 22.784-13.184 44.544-21.888 65.92-0.256 0.768-0.768 1.408-1.024 2.176-24.704 60.032-60.288 114.048-104.576 159.744-1.536 1.536-3.2 2.816-4.864 4.352-58.368 58.88-130.816 107.648-211.968 132.224-48.64 15.36-98.56 26.752-151.040 26.752h-384c-282.88 0-512-229.12-512-512s229.12-512 512-512h192c35.328 0 40.832 15.104 14.848 39.040-49.664 45.696-92.16 97.152-125.568 155.904zM1536 960h-193.28c-35.328 0-40.704-20.48-14.592-44.288 50.048-45.44 92.928-96.896 125.952-156.16 17.28-30.848 29.952-55.552 55.040-55.552 14.848 0 26.88 0 26.88 0 140.8 0 256-115.2 256-256s-115.2-256-256-256h-384c-140.8 0-256 111.488-256 252.288 0 70.272-57.6 125.952-128 125.952s-128-58.496-128-128.896c0-88.32 23.040-172.032 61.44-243.712 7.68-13.952 16.64-28.416 24.32-41.088 10.24-15.36 20.48-28.416 30.72-41.088 11.52-14.208 24.32-28.288 38.4-41.216 14.080-13.952 28.16-26.88 43.52-38.4 8.96-7.68 18.048-10.112 28.16-16.64 81.92-54.912 180.48-83.2 285.44-83.2h384c282.88 0 512 229.12 512 512s-229.12 512-512 512z" horiz-adv-x="2048" />
<glyph unicode="&#xe616;" d="M487.326 188.24c-18.113 5.056-31.682 11.265-42.115 0.832-5.44-5.44-77.317-77.445-77.317-77.445-52.803-52.803-139.337-52.803-192.204 0-52.803 52.867-52.803 139.401 0 192.204l192.204 192.204c52.803 52.803 139.401 52.803 192.204 0 26.37-26.434 69.636-26.434 96.070 0 26.37 26.37 26.37 69.636 0 96.070-16.833 16.769-34.562 30.658-54.339 41.731-10.689 6.4-21.697 11.905-33.026 16.705-0.32 0.128-0.768 0.256-1.152 0.448-31.874 13.185-65.412 20.161-99.27 20.673-1.28 0.128-2.368-0.128-3.584-0.192-44.035 0.192-87.941-10.049-127.688-31.362-23.937-12.417-45.507-28.29-65.284-48.003l-192.204-192.204c-106.119-106.119-106.119-278.097 0-384.344 106.247-106.119 278.225-106.119 384.344 0l139.593 139.657c13.249 13.313 8.961 21.761-9.729 20.929-35.842-1.536-71.94 2.56-106.503 12.097zM560.099 880.379l-142.665-142.729c-13.313-13.249-9.025-21.569 9.729-20.609 35.842 1.728 71.876-2.24 106.631-12.033 17.985-5.184 32.77-10.433 42.179-1.024 5.568 5.632 80.197 80.261 80.197 80.261 52.803 52.803 139.337 52.803 192.204 0 52.803-52.867 52.803-139.401 0-192.204l-192.204-192.204c-52.803-52.803-139.401-52.803-192.204 0-26.37 26.434-69.636 26.434-96.070 0-26.37-26.37-26.37-69.636 0-96.070 33.218-33.154 73.029-55.683 114.375-68.164 8.129-2.368 16.833-4.288 24.45-6.272 9.601-1.856 18.305-2.88 26.946-3.84 9.601-1.024 19.649-1.472 29.826-1.024 10.497 0 20.609 0.448 30.658 1.92 6.272 0.512 12.033 1.408 18.241 2.816 51.459 10.177 100.358 35.138 139.849 74.501l192.204 192.204c106.119 106.119 106.119 278.097 0 384.344-106.247 106.247-278.225 106.247-384.344 0.128z" />
<glyph unicode="&#xe617;" d="M512 960c-282.304 0-512-229.696-512-512s229.696-512 512-512 512 229.696 512 512-229.696 512-512 512zM742.464 339.52c15.68 33.024 25.024 69.568 25.024 108.48s-9.344 75.456-25.088 108.48l108.416 72.256c28.928-53.952 45.44-115.392 45.44-180.736s-16.512-126.784-45.376-180.736l-108.416 72.256zM173.12 267.264c-28.864 53.952-45.376 115.392-45.376 180.736s16.512 126.784 45.376 180.736l108.416-72.256c-15.68-33.024-25.088-69.568-25.088-108.48s9.408-75.456 25.152-108.48l-108.48-72.256zM384.256 448c0 70.464 57.344 127.744 127.744 127.744s127.744-57.28 127.744-127.744-57.28-127.744-127.744-127.744-127.744 57.28-127.744 127.744zM692.736 786.88l-72.256-108.416c-33.024 15.68-69.568 25.088-108.48 25.088s-75.456-9.408-108.48-25.088l-72.256 108.416c53.952 28.864 115.392 45.376 180.736 45.376s126.784-16.512 180.736-45.376zM331.264 109.12l72.256 108.416c33.024-15.68 69.568-25.088 108.48-25.088s75.456 9.408 108.48 25.152l72.256-108.416c-53.952-28.928-115.392-45.44-180.736-45.44s-126.784 16.512-180.736 45.376z" />
<glyph unicode="&#xe618;" d="M512 116.706h-301.176c-16.625 0-30.118-13.493-30.118-30.118v-60.235c0-16.625 13.493-30.118 30.118-30.118h30.118c0-33.31 26.925-60.235 60.235-60.235h120.471c33.31 0 60.235 26.925 60.235 60.235h30.118c16.625 0 30.118 13.493 30.118 30.118v60.235c0 16.625-13.493 30.118-30.118 30.118zM361.412 960c-199.56 0-361.412-161.852-361.412-361.412 0-92.702 35.177-176.971 92.582-240.941 49.815-49.815 72.463-114.266 81.98-151.191 4.156-16.083 19.637-29.515 36.262-29.515h301.176c16.625 0 32.105 13.432 36.262 29.515 9.517 36.864 32.166 101.376 81.98 151.191 57.404 63.97 92.582 148.239 92.582 240.941 0 199.56-161.852 361.412-361.412 361.412zM529.408 538.353c-35.539 0-23.13 82.643-84.329 143.902-61.199 61.139-143.902 48.791-143.902 84.329 0 35.599 131.855 98.123 229.195 0.964 97.22-97.28 34.635-229.195-0.964-229.195z" horiz-adv-x="723" />
<glyph unicode="&#xe619;" d="M656.679-41.509c-28.83-30.038-75.698-30.038-104.528 0l-463.547 482.642c-118.113 118.792-118.113 311.17 0 429.811 118.038 118.642 309.66 118.642 427.774 0l88-107.472 88 107.472c118.113 118.642 309.736 118.642 427.774 0 118.113-118.642 118.113-311.019 0-429.811l-463.472-482.642z" horiz-adv-x="1209" />
<glyph unicode="&#xe61a;" d="M960 832h-512v64c0 35.2-28.8 64-64 64h-320c-35.2 0-64-28.8-64-64v-896c0-35.2 28.8-64 64-64h896c35.2 0 64 28.8 64 64v768c0 35.2-28.8 64-64 64z" />
<glyph unicode="&#xe61b;" d="M476.22 683.613c0 0-19.778 19.778-44.166 44.102-24.387 24.451-64.456 23.939-89.419-1.088l-45.19-45.126c-24.963-24.963-26.755-63.752-3.968-86.539l41.285-41.285-312.167-312.807c-12.482-12.482-22.595-36.933-22.595-54.599v-218.267c0-17.666 14.338-32.004 32.004-32.004h218.267c17.666 0 42.117 10.113 54.663 22.659l312.743 312.167c0 0 18.498-18.498 41.285-41.285s61.576-21.059 86.603 3.968l45.126 45.126c25.027 25.027 25.475 65.096 1.152 89.419l-44.166 44.166 220.188 220.124c74.889 74.889 74.889 196.505 0 271.394s-196.505 74.889-271.394 0l-220.252-220.124zM229.789 64.016h-101.773v101.773l297.637 297.061 101.133-101.133-296.997-297.701z" />
<glyph unicode="&#xe61c;" d="M800.037 448c0-80.791-65.494-146.286-146.286-146.286s-146.286 65.494-146.286 146.286c0 80.791 65.494 146.286 146.286 146.286s146.286-65.494 146.286-146.286zM653.019 960c-257.536 0-504.027-184.32-642.194-480.549 0 0-3.438-7.387-7.607-16.457-4.389-9.070-4.242-23.625 0.219-32.549l8.046-16.091c147.822-290.377 399.36-478.354 641.536-478.354 241.371 0 480.475 175.543 640 469.577 0 0 4.315 7.826 9.509 17.554s5.413 25.454 0.366 35.109l-9.143 17.554c-160.987 307.931-395.045 484.206-640.731 484.206zM653.751 155.429c-161.646 0-292.645 130.999-292.645 292.571s130.999 292.571 292.645 292.571c161.499 0 292.498-130.999 292.498-292.571s-130.999-292.571-292.498-292.571z" horiz-adv-x="1306" />
<glyph unicode="&#xe61d;" d="M512 960c-282.752 0-512-229.248-512-512s229.248-512 512-512 512 229.248 512 512-229.248 512-512 512zM576 160c0-17.664-14.336-32-32-32h-64c-17.664 0-32 14.336-32 32v64c0 17.664 14.336 32 32 32h64c17.664 0 32-14.336 32-32v-64zM576 352c0-17.664-14.336-32-32-32h-64c-17.664 0-32 14.336-32 32v384c0 17.664 14.336 32 32 32h64c17.664 0 32-14.336 32-32v-384z" />
<glyph unicode="&#xe61e;" d="M512 960c-282.752 0-512-229.248-512-512s229.248-512 512-512 512 229.248 512 512-229.248 512-512 512zM128 448c0 105.536 42.816 201.344 112 270.784 0.128-127.040 16.192-175.040 80-238.784 64-64 160-176 160-304 0-56.256 15.424-96 32.768-112-0.256 0-0.512 0-0.768 0-211.776 0-384 172.224-384 384zM649.472 89.536c50.624 58.112 110.464 150.592 70.528 230.464-64 128-288 32-288 160s208-32 208 224c0 92.032-73.536 121.472-150.144 127.296 7.36 0.448 14.72 0.704 22.144 0.704 211.776 0 384-172.224 384-384 0-163.264-102.528-302.976-246.528-358.464z" />
<glyph unicode="&#xe61f;" d="M832 320h-64v256h64c106.24 0 192 85.76 192 192s-85.76 192-192 192-192-85.76-192-192v-64h-256v64c0 106.24-85.76 192-192 192s-192-85.76-192-192 85.76-192 192-192h64v-256h-64c-106.24 0-192-85.76-192-192s85.76-192 192-192 192 85.76 192 192v64h256v-64c0-106.24 85.76-192 192-192s192 85.76 192 192c0 53.12-21.76 101.12-56.32 135.68s-82.56 56.32-135.68 56.32zM256 96c0-17.664-14.336-32-32-32h-64c-17.664 0-32 14.336-32 32v64c0 17.664 14.336 32 32 32h96v-96zM767.936 799.936c0 17.664 14.336 32 32 32h64c17.664 0 32-14.336 32-32v-64c0-17.664-14.336-32-32-32h-95.936v64.064h-0.064v31.936zM160 704c-17.664 0-32 14.336-32 32v64c0 17.664 14.336 32 32 32h64c17.664 0 32-14.336 32-32v-96h-96zM640 320h-256v256h256v-256zM896 96.064c0-17.664-14.336-32-32-32h-64c-17.664 0-32 14.336-32 32v96h96c17.664 0 32-14.336 32-32v-64z" />
<glyph unicode="&#xe620;" d="M512 960c-282.752 0-512-229.248-512-512s229.248-512 512-512 512 229.248 512 512-229.248 512-512 512zM750.080 535.488l-259.712-259.648c-23.936-23.936-62.656-23.936-86.592 0l-129.856 129.792c-23.936 23.872-23.936 62.656 0 86.592s62.656 23.936 86.592 0l86.592-86.592 216.448 216.448c23.936 23.936 62.656 23.936 86.592 0s23.872-62.656-0.064-86.592z" />
<glyph unicode="&#xe621;" d="M960 768h-384v128c0 35.392-28.608 64-64 64h-448c-35.392 0-64-28.608-64-64v-896c0-35.392 28.608-64 64-64h896c35.392 0 64 28.608 64 64v704c0 35.392-28.608 64-64 64zM256 320h-128v128h128v-128zM256 512h-128v128h128v-128zM256 704h-128v128h128v-128zM448 320h-128v128h128v-128zM448 512h-128v128h128v-128zM448 704h-128v128h128v-128zM704 320h-128v128h128v-128zM704 512h-128v128h128v-128zM896 320h-128v128h128v-128zM896 512h-128v128h128v-128z" />
<glyph unicode="&#xe622;" d="M832 960h-96c-17.664 0-32-14.336-32-32v-398.656c0-17.728-11.136-22.976-24.896-11.904l-71.104 72.192-71.104-72.128c-13.76-11.136-24.896-5.888-24.896 11.84v366.656c0 35.392-28.608 64-64 64h-256c-106.24 0-192-85.76-192-192v-640c0-106.24 85.76-192 192-192h640c35.392 0 64 28.608 64 64v32c0 17.664-14.336 32-32 32h-672c-35.2 0-64 28.8-64 64s28.8 64 64 64h640c35.392 0 64 28.608 64 64v640c0 35.392-28.608 64-64 64z" horiz-adv-x="896" />
<glyph unicode="&#xe623;" d="M512.033 960c-282.368 0-512.033-229.665-512.033-512.033s229.665-512.033 512.033-512.033 512.033 229.665 512.033 512.033-229.73 512.033-512.033 512.033zM576.412 52.496c0.065 1.435 0.848 2.674 0.848 4.109v130.454c0 36.071-29.157 65.227-65.227 65.227s-65.227-29.157-65.227-65.227v-130.454c0-1.435 0.783-2.674 0.848-4.109-169.59 27.591-303.502 161.567-331.093 331.093 1.435-0.065 2.609-0.848 4.109-0.848h130.454c36.071 0 65.227 29.157 65.227 65.227s-29.157 65.227-65.227 65.227h-130.454c-1.435 0-2.674-0.783-4.109-0.848 27.591 169.59 161.567 303.502 331.093 331.093-0.13-1.435-0.848-2.609-0.848-4.109v-130.454c0-36.071 29.157-65.227 65.227-65.227s65.227 29.157 65.227 65.227v130.454c0 1.435-0.783 2.674-0.848 4.109 169.59-27.591 303.502-161.567 331.093-331.093-1.435 0.13-2.674 0.848-4.109 0.848h-130.454c-36.071 0-65.227-29.157-65.227-65.227s29.157-65.227 65.227-65.227h130.454c1.435 0 2.674 0.783 4.109 0.848-27.591-169.59-161.502-303.502-331.093-331.093z" />
<glyph unicode="&#xe624;" d="M838.4 313.6c-56.32-93.44-151.040-160.64-262.4-179.84v250.24h64c35.392 0 64 28.608 64 64s-28.608 64-64 64h-64v74.496c76.416 25.344 128 96.448 128 181.504 0 106.24-81.92 192-188.16 192-105.536 0-192-85.76-192-192 0-82.176 51.968-151.552 124.16-179.008v-76.992h-64c-35.392 0-64-28.608-64-64s28.608-64 64-64h64v-250.24c-111.36 19.2-206.080 86.464-262.4 179.904l47.744 47.744c12.544 12.48 8.32 22.592-9.344 22.592h-192c-17.664 0-32-14.336-32-32v-192c0-17.664 10.112-21.888 22.656-9.344l55.424 55.424c71.68-96.64 179.2-179.2 305.92-206.080l41.344-41.344c12.544-12.544 36.992-22.656 54.656-22.656h64c17.664 0 42.112 10.112 54.656 22.656l41.344 41.344c129.856 26.24 232.96 107.52 305.92 206.080l55.424-55.424c12.544-12.544 22.656-8.32 22.656 9.344v192c0 17.664-14.336 32-32 32h-192c-17.664 0-21.888-10.112-9.344-22.656l47.744-47.744zM576 768c0-35.392-28.608-64-64-64s-64 28.608-64 64 28.608 64 64 64 64-28.608 64-64z" />
<glyph unicode="&#xe625;" d="M48.198 319.984h207.834v-356.077c0-35.396 11.521-37.381 25.667-4.545l225.692 557.254c14.21 32.836-5.313 59.463-43.589 59.463h-207.77v356.013c0 35.396-11.521 37.381-25.667 4.545l-225.756-557.19c-14.146-32.836 5.313-59.463 43.589-59.463z" horiz-adv-x="512" />
<glyph unicode="&#xe626;" d="M674.368 960h-573.568c-61.184 0-100.8-43.136-100.8-78.912v-908.288c0-35.904 27.52-47.424 61.44-25.984l322.56 204.288 322.56-204.352c33.92-21.44 61.44-9.856 61.44 25.984v908.352c0 47.488-31.168 78.912-93.632 78.912zM411.52 303.616c-15.168 9.088-39.808 9.088-54.976 0l-228.544-136.256v664.64h512v-664.64l-228.48 136.256zM296.896 529.28l-36.032-109.952c-2.688-8.32-0.512-13.12 4.992-13.12 2.112 0 4.672 0.704 7.616 2.176l110.528 55.552 111.808-55.616c2.944-1.536 5.568-2.176 7.616-2.176 5.504 0 7.68 4.864 4.864 13.12l-37.184 110.016 95.232 91.2c7.488 9.344 3.904 17.088-8.128 17.088l-108.864 0.512-54.144 90.176c-3.072 5.12-7.168 7.744-11.2 7.744s-8.128-2.624-11.2-7.744l-54.144-90.176-108.8-0.576c-12.032 0-15.68-7.68-8.128-17.088l95.168-91.136z" horiz-adv-x="768" />
<glyph unicode="&#xe627;" d="M149.952 810.048c-199.936-199.936-199.936-524.16 0-724.096s524.16-199.936 724.096 0 199.936 524.16 0 724.096-524.16 199.936-724.096 0zM240.512 719.488c134.272 134.336 343.872 147.776 493.696 41.28l-534.912-534.912c-106.56 149.76-93.12 359.424 41.216 493.632zM783.488 176.512c-134.272-134.336-343.872-147.776-493.696-41.216l534.912 534.848c106.56-149.76 93.12-359.424-41.216-493.632z" />
<glyph unicode="&#xe628;" d="M320-64h384c35.392 0 64 28.608 64 64v0c0 35.392-28.608 64-64 64h-128v128h384c35.392 0 64 28.608 64 64v640c0 35.392-28.608 64-64 64h-896c-35.392 0-64-28.608-64-64v-640c0-35.392 28.608-64 64-64h384v-128h-128c-35.392 0-64-28.608-64-64v0c0-35.392 28.608-64 64-64zM896 320h-768v512h768v-512z" />
<glyph unicode="&#xe629;" d="M1010.942 481.668l-143.314 148.755c-23.171 18.69-35.14 9.537-35.14-20.355v-97.74h-256.032v256.032h97.868c29.764 0 38.917 17.026 20.227 40.133l-148.691 128.72c-18.69 22.979-48.902 32.644-67.592 9.665l-148.755-143.314c-18.626-23.171-9.473-35.204 20.419-35.204h98.508v-256.032h-256.032v97.996c0 29.764-17.986 38.853-41.157 20.227l-128.272-148.755c-23.043-18.626-32.9-48.902-9.857-67.528l143.186-148.755c23.107-18.626 36.101-9.473 36.101 20.355v98.444h256.032v-256.032h-98.764c-29.764 0-38.917-17.986-20.227-41.157l148.691-128.208c18.69-22.979 48.902-32.836 67.592-9.793l148.755 142.994c18.69 23.107 9.473 36.101-20.355 36.101h-97.676v256.032h256.032v-98.636c0-29.764 16.962-38.853 40.069-20.227l128.592 148.755c23.043 18.69 32.772 48.902 9.793 67.528z" />
<glyph unicode="&#xe62a;" d="M512 826.944v69.056h32c17.664 0 32 14.336 32 32s-14.336 32-32 32h-192c-17.664 0-32-14.336-32-32s14.336-32 32-32h32v-69.056c-217.024-31.104-384-217.344-384-442.944 0-247.424 200.576-448 448-448s448 200.576 448 448c0 225.6-166.976 411.84-384 442.944zM448 64c-176.448 0-320 143.552-320 320s143.552 320 320 320 320-143.552 320-320-143.552-320-320-320zM576 384h-128v128c0 35.392-28.608 64-64 64s-64-28.608-64-64v-192c0-35.392 28.608-64 64-64h192c35.392 0 64 28.608 64 64s-28.608 64-64 64z" horiz-adv-x="896" />
<glyph unicode="&#xe62b;" d="M819.2 755.2v-614.4h-614.4v614.4h614.4zM921.6 960h-819.2c-56.627 0-102.4-45.773-102.4-102.4v-819.2c0-56.627 45.773-102.4 102.4-102.4h819.2c56.627 0 102.4 45.773 102.4 102.4v819.2c0 56.627-45.773 102.4-102.4 102.4z" />
<glyph unicode="&#xe62c;" d="M960 960h-640c-35.328 0-64-28.608-64-64v-192h-192c-35.328 0-64-28.608-64-64v-640c0-35.392 28.672-64 64-64h640c35.328 0 64 28.608 64 64v192h192c35.328 0 64 28.608 64 64v640c0 35.392-28.672 64-64 64zM640 64h-512v512h128v-320c0-35.392 28.672-64 64-64h320v-128zM896 320h-512v512h512v-512z" />
<glyph unicode="&#xe62d;" d="M960 832h-128v64c0 35.392-28.608 64-64 64h-512c-35.392 0-64-28.608-64-64v-64h-128c-35.392 0-64-28.608-64-64v-128c0-95.104 59.648-231.744 217.024-251.968 40.704-96.448 127.296-168.768 232.256-189.76-0.192-2.176-1.28-4.032-1.28-6.272v-128h-64c-70.656 0-128-57.344-128-128h512c0 70.656-57.344 128-128 128h-64v128c0 2.24-1.088 4.096-1.28 6.336 104.96 20.992 191.552 93.312 232.256 189.76 157.376 20.16 217.024 156.8 217.024 251.904v128c0 35.392-28.608 64-64 64zM128 640v64h64v-178.176c-56.64 27.904-63.616 91.264-64 114.176zM512 320c-105.856 0-192 86.144-192 192v320h384v-320c0-105.856-86.144-192-192-192zM896 640c0-16.704-4.544-84.608-64-113.92v177.92h64v-64z" />
<glyph unicode="&#xe62e;" d="M1005.248 45.248l-199.168 197.888c-0.128 0.128-0.256 0.128-0.384 0.256 56.448 75.008 90.304 167.808 90.304 268.608 0 246.976-201.024 448-448 448s-448-201.024-448-448 201.024-448 448-448c100.8 0 193.6 33.856 268.544 90.24 0.128-0.128 0.128-0.256 0.256-0.384l197.952-199.104c12.48-12.48 28.864-18.752 45.248-18.752s32.768 6.272 45.248 18.752c25.024 25.024 25.024 65.472 0 90.496zM448 192c-176.448 0-320 143.552-320 320s143.552 320 320 320 320-143.552 320-320-143.552-320-320-320z" />
<glyph unicode="&#xe62f;" d="M480 704h-64c-17.664 0-32-14.336-32-32v-96h-96c-17.664 0-32-14.336-32-32v-64c0-17.664 14.336-32 32-32h96v-96c0-17.664 14.336-32 32-32h64c17.664 0 32 14.336 32 32v96h96c17.664 0 32 14.336 32 32v64c0 17.664-14.336 32-32 32h-96v96c0 17.664-14.336 32-32 32zM1005.248 45.248l-199.168 197.888c-0.128 0.128-0.256 0.128-0.384 0.256 56.448 75.008 90.304 167.808 90.304 268.608 0 246.976-201.024 448-448 448s-448-201.024-448-448 201.024-448 448-448c100.8 0 193.6 33.856 268.544 90.24 0.128-0.128 0.128-0.256 0.256-0.384l197.952-199.104c12.48-12.48 28.864-18.752 45.248-18.752s32.768 6.272 45.248 18.752c25.024 25.024 25.024 65.472 0 90.496zM448 192c-176.448 0-320 143.552-320 320s143.552 320 320 320 320-143.552 320-320-143.552-320-320-320z" />
<glyph unicode="&#xe630;" d="M1005.474 133.948l-313.925 314.052 314.052 314.052c24.87 24.743 24.87 64.968 0 89.711l-89.838 89.711c-24.743 24.743-64.968 24.743-89.711 0l-313.925-314.052-314.052 314.052c-24.743 24.743-64.968 24.743-89.711 0l-89.711-89.838c-24.87-24.743-24.87-64.968 0-89.711l314.052-314.052-314.052-313.925c-24.87-24.743-24.87-64.968 0-89.711l89.711-89.711c24.743-24.743 64.968-24.743 89.711 0l314.052 314.052 313.925-314.052c24.743-24.743 64.968-24.743 89.711 0l89.711 89.711c24.997 24.87 24.997 64.968 0 89.711z" />
<glyph unicode="&#xe631;" d="M1012.552 52.322c-20.679-20.679-36.928-36.928-36.928-36.928l-67.947-67.947c-19.941-20.015-59.823-13.294-88.626 15.51l-491.136 490.397c-22.157-5.908-45.052-10.34-69.424-10.34-142.54 0-258.493 115.952-258.493 258.493 0 40.62 33.235 73.855 73.855 73.855s73.855-33.235 73.855-73.855c0-61.3 49.483-110.783 110.783-110.783 6.647 0 13.294 0.739 19.941 2.216 2.216 0 3.693 0 5.17 0.739 5.908 1.477 11.078 2.954 16.248 5.17 2.954 0.739 5.17 2.216 8.124 4.431 21.418 9.601 39.143 27.326 48.744 48.744 2.216 2.954 3.693 5.17 4.431 8.124 2.216 5.17 3.693 10.34 5.17 16.248 0.739 1.477 0.739 2.954 0.739 5.17 1.477 6.647 2.216 13.294 2.216 19.941 0 61.3-49.483 110.783-110.783 110.783-40.62 0-73.855 33.235-73.855 73.855s33.235 73.855 73.855 73.855c142.54 0 258.493-115.952 258.493-258.493 0-24.372-4.431-47.267-10.34-69.424l490.397-491.062c28.803-28.877 35.45-68.759 15.51-88.7z" />
<glyph unicode="&#xe632;" d="M8.277 646.401c-12.236-15.331-10.58-39.659 2.879-53.694l50.023-52.039c13.531-14.035 33.469-12.38 45.273 3.239 127.037 165.688 322.74 272.141 541.33 272.141s414.293-106.452 541.33-272.141c11.876-15.619 31.813-17.274 45.345-3.239l49.951 52.039c13.531 14.035 15.115 38.363 2.879 53.694-152.085 191.168-382.264 313.599-639.505 313.599s-487.348-122.431-639.505-313.599zM205.131 440.982c-11.516-15.907-8.997-40.81 4.463-54.918l51.391-53.478c13.459-14.035 31.957-11.228 42.682 5.182 74.711 114.729 200.885 190.376 344.116 190.376s269.405-75.647 344.116-190.376c10.724-16.482 29.15-19.29 42.682-5.182l51.391 53.478c13.531 14.035 15.979 39.011 4.463 54.918-101.486 140.281-262.064 231.114-442.651 231.114s-341.165-90.833-442.651-231.114zM383.127 255.933c-12.308-15.187-10.005-40.019 3.527-54.054l52.11-54.198c13.531-14.035 31.381-10.868 42.754 4.966 37.931 53.046 98.391 87.595 166.264 87.595 67.945 0 128.333-34.548 166.336-87.595 11.444-15.907 29.222-19.074 42.754-4.966l52.11 54.198c13.531 14.035 15.835 38.867 3.527 54.054-63.411 78.094-158.275 128.261-264.727 128.261s-201.316-50.167-264.655-128.261zM732.57 24.314c0-48.775-37.961-88.314-84.788-88.314s-84.788 39.54-84.788 88.314c0 48.775 37.961 88.314 84.788 88.314s84.788-39.54 84.788-88.314z" horiz-adv-x="1296" />
<glyph unicode="&#xe633;" d="M960 704h-64v192c0 35.392-28.608 64-64 64h-640c-105.856 0-192-86.144-192-192v-640c0-105.856 86.144-192 192-192h768c35.392 0 64 28.608 64 64v640c0 35.392-28.608 64-64 64zM192 832h576v-128h-576c-35.328 0-64 28.672-64 64s28.672 64 64 64zM896 64h-704c-35.328 0-64 28.672-64 64v459.84c20.096-7.232 41.408-11.84 64-11.84h704v-512zM736 256h64c17.664 0 32 14.336 32 32v64c0 17.664-14.336 32-32 32h-64c-17.664 0-32-14.336-32-32v-64c0-17.664 14.336-32 32-32z" />
<glyph unicode="&#xe634;" d="M1290.752-64h-1216.341c-67.584 0-93.525 85.504-59.392 132.779l605.013 849.408c34.475 47.104 90.624 59.051 125.099 11.776l605.013-867.157c34.475-47.104 8.021-126.805-59.392-126.805z" horiz-adv-x="1365" />
<glyph unicode="&#xe635;" d="M25.429 198.315c-33.963-32.256-33.963-84.651 0-116.736l122.368-116.565c33.621-32.256 88.405-32.256 122.027 0l581.12 562.347 586.069-566.955c33.792-32.256 88.576-32.256 122.197 0l122.368 116.736c33.621 32.085 33.621 84.309 0 116.736l-769.365 742.4c-33.792 32.085-88.576 32.085-122.368 0l-764.416-737.963z" horiz-adv-x="1707" />
<glyph unicode="&#xe636;" d="M256 576c35.328 0 64 28.608 64 64h128v-384h-64c-35.328 0-64-28.608-64-64s28.672-64 64-64h256c35.328 0 64 28.608 64 64s-28.672 64-64 64h-64v384h128c0-35.392 28.672-64 64-64s64 28.608 64 64v64c0 35.392-28.672 64-64 64h-512c-35.328 0-64-28.608-64-64v-64c0-35.392 28.672-64 64-64zM960 960h-896c-35.392 0-64-28.608-64-64v-896c0-35.392 28.608-64 64-64h896c35.392 0 64 28.608 64 64v896c0 35.392-28.608 64-64 64zM896 64h-768v768h768v-768z" />
<glyph unicode="&#xe637;" d="M352 576h-64c-17.664 0-32-14.336-32-32v-384c0-17.664 14.336-32 32-32h64c17.664 0 32 14.336 32 32v384c0 17.664-14.336 32-32 32zM608 576h-64c-17.664 0-32-14.336-32-32v-384c0-17.664 14.336-32 32-32h64c17.664 0 32 14.336 32 32v384c0 17.664-14.336 32-32 32zM704 896c0 35.392-28.608 64-64 64h-384c-35.392 0-64-28.608-64-64v-128h-128c-35.392 0-64-28.608-64-64v0c0-35.392 28.608-64 64-64v0-640c0-35.392 28.608-64 64-64h640c35.392 0 64 28.608 64 64v640c35.392 0 64 28.608 64 64v0c0 35.392-28.608 64-64 64h-128v128zM320 832h256v-64h-256v64zM704 64h-512v576h512v-576z" horiz-adv-x="896" />
<glyph unicode="&#xe638;" d="M512 960c-282.88 0-512-229.12-512-512s229.12-512 512-512 512 229.12 512 512-229.12 512-512 512zM512 64c-211.84 0-384 172.096-384 384s172.16 384 384 384 384-172.096 384-384-172.16-384-384-384zM640 448h-128v128c0 35.392-28.608 64-64 64s-64-28.608-64-64v-192c0-35.392 28.608-64 64-64h192c35.392 0 64 28.608 64 64s-28.608 64-64 64z" />
<glyph unicode="&#xe639;" d="M512 704c-141.12 0-256-114.88-256-256s114.88-256 256-256 256 114.88 256 256-114.88 256-256 256zM512 320c-70.528 0-128 57.472-128 128s57.472 128 128 128 128-57.472 128-128-57.472-128-128-128zM512 960c-282.752 0-512-229.248-512-512s229.248-512 512-512 512 229.248 512 512-229.248 512-512 512zM512 64c-211.776 0-384 172.224-384 384s172.224 384 384 384 384-172.224 384-384-172.224-384-384-384z" />
<glyph unicode="&#xe63a;" d="M517.504 960c-17.664 0-42.112-10.112-54.656-22.656l-444.096-444.096c-25.024-25.024-25.024-65.472 0-90.496l448-448c25.024-25.024 65.472-25.024 90.496 0l444.096 444.096c12.544 12.544 22.656 36.992 22.656 54.656v442.496c0 35.392-28.608 64-64 64h-442.496zM896 474.496l-384-384-357.504 357.504 384 384h357.504v-357.504zM640 512h64c35.392 0 64 28.608 64 64v64c0 35.392-28.608 64-64 64h-64c-35.392 0-64-28.608-64-64v-64c0-35.392 28.608-64 64-64z" />
<glyph unicode="&#xe63b;" d="M795.378-57.536l-283.346 155.914-283.346-155.914c-28.354-15.617-47.043-1.984-41.795 30.594l54.275 331.029-227.918 232.591c-22.785 23.233-15.489 46.147 16.385 50.883l314.516 47.811 142.601 302.419c14.017 29.698 36.674 29.698 50.691 0l142.537-302.419 314.516-47.811c31.874-4.736 39.17-27.65 16.385-50.883l-227.918-232.591 54.275-331.029c5.184-32.578-13.505-46.275-41.859-30.594zM218.766 495.587l147.401-150.473-34.498-210.317 180.363 99.142 180.299-99.142-34.498 210.317 147.401 150.473-203.597 30.978-89.606 190.028-89.606-190.092-203.661-30.914z" />
<glyph unicode="&#xe63c;" d="M298.203 565.906c13.019 17.774 29.769 40.594 44.69 60.562 12.069 16.238 10.752 41.106-4.023 54.93-77.239 71.899-172.471 123.099-302.299 131.145-20.114 1.317-36.571-15.214-36.571-35.401v-69.705c0-20.187 16.457-36.352 36.498-38.327 89.381-8.411 156.087-48.201 214.747-106.13 14.409-14.19 34.962-13.312 46.958 2.926zM877.714 572.416c0-46.519 25.673-64.658 57.271-40.814l210.359 172.251c33.207 20.187 33.207 53.029 0 73.216l-210.359 172.325c-31.598 24.064-57.271 5.778-57.271-40.667v-95.013c-213.577 0-337.92-119.954-438.857-249.417-20.48-26.405-80.457-108.251-90.697-122.149-86.382-115.419-170.277-199.753-311.589-212.041-20.114-1.755-36.571-17.92-36.571-38.107v-73.143c0-20.187 16.384-36.718 36.498-35.474 191.488 11.63 307.273 114.688 402.359 236.617 20.48 26.331 80.457 108.178 90.697 122.149 93.623 125.074 184.32 225.28 348.16 225.28v-95.013zM934.985 364.325c-31.598 23.991-57.271 5.705-57.271-40.741v-95.013c-108.178 0-184.832 39.643-251.319 104.594-14.409 14.117-34.889 13.166-46.885-3.072-13.019-17.774-29.769-40.594-44.69-60.562-12.069-16.238-10.752-41.106 4.023-54.93 84.334-78.482 190.025-132.315 338.871-132.315v-95.013c0-46.519 25.673-64.658 57.271-40.814l210.359 172.251c33.207 20.187 33.207 53.029 0 73.216l-210.359 172.398z" horiz-adv-x="1170" />
<glyph unicode="&#xe63d;" d="M380.316 263.583c5.193-19.601 16.237-19.601 23.843-0.878 65.531 160.976 195.497 326.706 400.355 258.395v-100.491c0-45.418 27.427-59.388 60.412-30.864l292.989 252.032c16.602 14.189 16.456 37.227-0.146 51.416l-292.989 252.179c-32.839 28.304-60.265 14.408-60.265-31.010v-100.711c-242.305 0-438.826-196.521-438.826-438.826 0-38.47 5.193-75.771 14.628-111.242zM1141.752 500.111l-89.447-72.187c-15.651-12.726-28.377-39.348-28.377-59.607v-286.041h-877.652v511.963h152.931c20.186 0 42.639 15.286 51.416 33.497 13.969 29.255 30.352 57.194 48.929 83.669 11.556 16.456 5.558 29.109-14.628 29.109h-311.786c-40.445 0-73.138-32.693-73.138-73.138v-658.239c0-40.445 32.693-73.138 73.138-73.138h1023.927c40.445 0 73.138 32.693 73.138 73.138v477.369c0 20.259-12.726 26.33-28.451 13.604z" horiz-adv-x="1170" />
<glyph unicode="&#xe63e;" d="M800 384c-69.632 0-131.136-32.512-172.16-82.368l-130.24 65.088c8.64 25.728 14.4 52.736 14.4 81.28s-5.76 55.552-14.4 81.28l130.24 65.088c41.024-49.856 102.528-82.368 172.16-82.368 123.712 0 224 100.288 224 224s-100.288 224-224 224-224-100.288-224-224c0-8 1.472-15.488 2.368-23.232l-151.232-75.648c-45.376 41.152-105.088 66.88-171.136 66.88-141.376 0-256-114.624-256-256s114.624-256 256-256c66.048 0 125.76 25.728 171.136 66.88l151.232-75.648c-0.896-7.744-2.368-15.232-2.368-23.232 0-123.712 100.288-224 224-224s224 100.288 224 224-100.288 224-224 224zM800 851.2c63.488 0 115.2-51.712 115.2-115.2s-51.712-115.2-115.2-115.2-115.2 51.712-115.2 115.2 51.712 115.2 115.2 115.2zM256 316.352c-72.64 0-131.648 59.008-131.648 131.648s59.008 131.648 131.648 131.648 131.648-59.008 131.648-131.648-59.008-131.648-131.648-131.648zM800 44.8c-63.488 0-115.2 51.712-115.2 115.2s51.712 115.2 115.2 115.2 115.2-51.712 115.2-115.2-51.712-115.2-115.2-115.2z" />
<glyph unicode="&#xe63f;" d="M895.984 511.944c-35.396 0-69.129 28.356-82.634 60.936-13.442 32.516-9.601 76.426 15.362 101.453l45.254 45.19c25.027 25.027 25.027 65.544 0.064 90.571-25.027 25.027-65.544 25.027-90.571 0 0 0-20.227-20.227-45.254-45.254s-68.873-28.868-101.389-15.426c-32.452 13.442-60.872 47.174-60.872 82.57v64.008c0 35.396-28.612 64.008-64.008 64.008s-64.008-28.612-64.008-64.008v-64.008c0-35.396-28.292-69.129-60.808-82.634s-76.298-9.601-101.325 15.362l-45.382 45.254c-25.027 25.027-65.544 24.963-90.443 0-25.027-24.963-25.027-65.48-0.064-90.507l45.382-45.318c24.963-24.963 29.38-69.065 18.37-102.157-10.881-33.156-44.166-61.064-79.434-60.68l-70.217 0.64c-35.332 0-64.008-28.74-64.008-64.008 0-35.396 28.676-64.008 64.008-64.008h64.072c35.332 0 69.577-28.036 85.195-59.207 15.682-31.108 12.034-74.185-13.25-98.956l-50.118-49.286c-25.027-25.027-24.963-65.608 0-90.507 25.027-25.027 65.544-25.027 90.507-0.064l45.318 45.318c25.027 25.027 68.809 28.868 101.389 15.362 32.516-13.506 60.808-47.238 60.808-82.634v-64.072c0-35.332 28.676-64.008 64.008-63.944 35.396 0 64.008 28.612 64.008 63.944v64.072c0 35.396 28.42 69.129 60.872 82.506 32.516 13.506 76.362 9.601 101.389-15.362l45.254-45.254c25.027-25.027 65.544-25.027 90.443 0 25.027 25.027 25.091 65.544 0.128 90.507l-45.318 45.318c-25.027 25.027-28.868 68.873-15.362 101.389s47.238 60.872 82.634 60.872h64.008c35.396 0 64.008 28.612 64.008 64.008s-28.612 64.008-64.008 64.008h-64.008zM511.936 255.912c-105.869 0-192.024 86.155-192.024 192.024s86.155 192.024 192.024 192.024 192.024-86.155 192.024-192.024-86.155-192.024-192.024-192.024z" />
<glyph unicode="&#xe640;" d="M974.784 880.384l-86.976-87.040c-4.288 5.184-9.088 10.624-14.464 16.064-95.488 95.104-224.832 150.592-361.344 150.592-282.304 0-512-229.696-512-512s229.696-512 512-512c228.48 0 425.664 147.008 490.752 365.76 10.112 33.856-9.216 69.504-43.072 79.616-33.792 10.112-69.504-9.28-79.552-43.136-48.896-163.968-196.736-274.24-368.128-274.24-211.776 0-384 172.224-384 384s172.224 384 384 384c102.4 0 199.36-41.6 271.104-112.96l13.056-17.344-140.48-140.48c-27.2-27.2-18.112-49.216 20.352-49.216h313.152c19.264 0 34.816 15.552 34.816 34.816v313.152c0 38.464-22.016 47.552-49.216 20.416z" />
<glyph unicode="&#xe641;" d="M157.389 944.742c-19.354 20.378-50.79 20.378-70.042 0l-69.939-73.421c-19.354-20.173-19.354-53.043 0-73.216l337.408-348.672-340.173-351.642c-19.354-20.275-19.354-53.146 0-73.318l70.042-73.421c19.251-20.173 50.586-20.173 70.042 0l445.44 461.619c19.251 20.275 19.251 53.146 0 73.421l-442.778 458.65z" horiz-adv-x="614" />
<glyph unicode="&#xe642;" d="M0-8.064v912.128c0 50.816 64.128 70.272 99.584 44.544l637.184-453.76c35.2-25.728 44.032-67.968 8.704-93.696l-650.368-453.76c-35.2-25.984-95.104-6.016-95.104 44.544z" horiz-adv-x="768" />
<glyph unicode="&#xe643;" d="M1145.008 703.653l-193.101-161.588-17.475-10.236-16.159-8.774c-23.324-8.043-40.872 10.968-40.872 48.988v95.052h-731.167v-159.979c0-20.18-12.649-36.12-28.296-48.988l-89.641-73.409c-15.647-12.869-28.296-6.873-28.296 13.307v342.186c0 40.214 32.903 73.117 73.117 73.117h804.284v95.052c0 46.868 25.591 65.147 57.031 41.018l210.576-172.556c29.174-17.548 32.903-44.601 10.894-65.074-2.852-2.998-6.507-5.191-10.894-8.116zM1169.868 496.732v-341.455c0-40.214-32.903-73.117-73.117-73.117h-804.284v-95.052c0-46.064-25.591-64.343-57.031-41.018l-210.576 172.556c-10.894 7.312-19.010 15.355-21.935 24.86-5.849 18.279 1.462 35.827 21.935 48.257l194.491 163.197 16.086 9.505c23.397 17.475 43.943 11.626 51.913-11.699 3.656-7.385 5.118-17.621 5.118-29.32v-95.052h731.167v162.246c0 20.18 12.722 34.511 28.442 47.233l89.422 72.459c15.647 12.649 28.369 6.581 28.369-13.6z" horiz-adv-x="1170" />
<glyph unicode="&#xe644;" d="M912.555 618.667c-44.459 0-66.56-20.309-57.173-47.701l10.24-18.688 11.947-20.395 188.587-225.365c3.413-5.12 5.973-9.301 9.387-12.715 23.808-25.685 55.381-21.419 75.947 12.629l201.387 245.675c28.245 36.864 6.912 66.56-47.787 66.56h-110.421v256c0 47.189-38.144 85.333-85.333 85.333h-1024c-47.189 0-85.333-38.144-85.333-85.333v-853.333c0-46.933 38.4-85.333 85.333-85.333h1024c47.189 0 85.333 38.144 85.333 85.333s-38.144 85.333-85.333 85.333h-938.667v682.667h853.333v-170.667h-111.445z" horiz-adv-x="1365" />
<glyph unicode="&#xe645;" d="M320 416v-64c0-17.664 14.336-32 32-32h320c17.664 0 32 14.336 32 32v64c0 17.664-14.336 32-32 32h-320c-17.664 0-32-14.336-32-32zM960 832h-512v64c0 35.2-28.8 64-64 64h-320c-35.2 0-64-28.8-64-64v-896c0-35.2 28.8-64 64-64h896c35.2 0 64 28.8 64 64v768c0 35.2-28.8 64-64 64zM896 64h-768v768h192v-96c0-17.664 14.336-32 32-32h544v-640z" />
<glyph unicode="&#xe646;" d="M873.344 726.656l-210.752 210.752c-12.48 12.48-36.928 22.592-54.592 22.592h-544c-35.392 0-64-28.608-64-64v-896c0-35.392 28.608-64 64-64h768c35.392 0 64 28.608 64 64v672c0 17.664-10.112 42.112-22.656 54.656zM768 64h-640v768h384v-224c0-17.664 14.336-32 32-32h224v-512zM256 352v-64c0-17.664 14.336-32 32-32h320c17.664 0 32 14.336 32 32v64c0 17.664-14.336 32-32 32h-320c-17.664 0-32-14.336-32-32z" horiz-adv-x="896" />
<glyph unicode="&#xe647;" d="M512 960c-282.752 0-512-229.248-512-512s229.248-512 512-512 512 229.248 512 512-229.248 512-512 512zM512 64c-211.776 0-384 172.288-384 384s172.224 384 384 384c211.712 0 384-172.288 384-384s-172.288-384-384-384zM512 768c-94.976 0-174.144-69.376-189.376-160.128-2.88-17.408 5.376-31.872 29.376-31.872h64c25.984 0 32 23.104 32 32 0 17.664 14.336 32 32 32h64c17.664 0 32-14.336 32-32v-64c0-17.664-14.336-32-32-32 0 0-21.504 0-48 0-40 0-48-28.608-48-64v-96c0-17.664 14.336-32 32-32h64c17.664 0 32 14.336 32 32v43.008c74.496 26.368 128 97.536 128 180.992 0 105.856-86.144 192-192 192zM544 256h-64c-17.664 0-32-14.336-32-32v-64c0-17.664 14.336-32 32-32h64c17.664 0 32 14.336 32 32v64c0 17.664-14.336 32-32 32z" />
<glyph unicode="&#xe648;" d="M960 704h-128v192c0 35.392-28.608 64-64 64h-512c-35.392 0-64-28.608-64-64v-192h-128c-35.392 0-64-28.608-64-64v-512c0-35.392 28.608-64 64-64h128v-64c0-35.392 28.608-64 64-64h512c35.392 0 64 28.608 64 64v64h128c35.392 0 64 28.608 64 64v512c0 35.392-28.608 64-64 64zM320 832h384v-128h-384v128zM704 64h-384v128h384v-128zM896 192h-64v128h-640v-128h-64v384h768v-384zM512 512h128v-128h-128v128zM704 512h128v-128h-128v128z" />
<glyph unicode="&#xe649;" d="M288 576h448c17.664 0 32 14.336 32 32v64c0 17.664-14.336 32-32 32h-448c-17.664 0-32-14.336-32-32v-64c0-17.664 14.336-32 32-32zM288 384h448c17.664 0 32 14.336 32 32v64c0 17.664-14.336 32-32 32h-448c-17.664 0-32-14.336-32-32v-64c0-17.664 14.336-32 32-32zM960 960h-896c-35.392 0-64-28.608-64-64v-704c0-35.392 28.608-64 64-64h64v-128c0-35.392 28.608-64 64-64h64c11.648 0 22.976 3.136 32.96 9.152l304.768 182.848h366.272c35.392 0 64 28.608 64 64v704c0 35.392-28.608 64-64 64zM896 256h-320c-11.648 0-22.976-3.136-32.96-9.152l-287.040-172.224v117.376c0 35.392-28.608 64-64 64h-64v576h768v-576z" />
<glyph unicode="&#xe64a;" d="M960 960h-704c-35.392 0-64-28.608-64-64v-128h-128c-35.392 0-64-28.608-64-64v-704c0-35.392 28.608-64 64-64h704c35.392 0 64 28.608 64 64v128h128c35.392 0 64 28.608 64 64v704c0 35.392-28.608 64-64 64zM704 64h-576v576h576v-576zM896 256h-64v448c0 35.392-28.608 64-64 64h-448v64h576v-576zM224 128h384c17.664 0 32 8.896 32 27.648 0 0 0 7.616 0 17.024s-11.2 26.432-25.024 38.144l-269.952 229.184c-13.824 11.712-35.136 10.432-47.68-2.88l-82.688-87.744c-12.544-13.248-22.656-39.168-22.656-57.92v-135.808c0-18.752 14.336-27.648 32-27.648zM640 480c0-53.019-42.981-96-96-96s-96 42.981-96 96c0 53.019 42.981 96 96 96s96-42.981 96-96z" />
<glyph unicode="&#xe64b;" d="M1002.276 487.2l-452.179 456.588c-11.219 11.154-19.778 16.212-26.133 16.212-11.932 0-16.147-17.898-16.147-47.468v-149.926l-194.541-189.094-210.948-19.973c-44.809-8.884-59.011-42.086-26.652-74.055l169.51-168.667-61.67-61.605-180.275-295.054c-7.782-16.212-1.297-22.761 14.915-14.85l295.054 180.21 61.994 61.994 166.851-166.008c12.775-12.645 25.615-18.741 36.963-18.741 17.379 0 31.386 14.266 36.833 41.178l21.594 211.272 189.094 194.541h151.483c45.782 0 56.611 11.413 24.253 43.448zM733.55 534.149l-220.545-226.835-4.604-44.874-2.788-27.69-208.029 206.992 73.342 6.874 32.748 31.775 215.422 209.391 134.169-135.466-19.714-20.167z" horiz-adv-x="1021" />
<glyph unicode="&#xe64c;" d="M0-8.064v912.256c0 50.688 74.752 70.144 116.224 44.544l743.168-453.76c41.216-25.856 51.584-67.968 10.368-93.824l-758.784-453.76c-41.216-25.856-110.976-6.016-110.976 44.544z" horiz-adv-x="896" />
<glyph unicode="&#xe64d;" d="M960 960h-896c-35.392 0-64-28.608-64-64v-896c0-35.392 28.608-64 64-64h896c35.392 0 64 28.608 64 64v896c0 35.392-28.608 64-64 64zM896 64h-768v768h768v-768zM431.872 204.928l260.736 220.544c14.912 12.416 13.376 32.576-1.408 44.992l-258.56 220.608c-29.696 24.896-48.64 12.8-48.64-27.008v-432.128c0-39.808 18.24-51.904 47.872-27.008z" />
<glyph unicode="&#xe64e;" d="M972.8 550.4h-358.4v358.4c0 28.262-22.938 51.2-51.2 51.2h-102.4c-28.262 0-51.2-22.938-51.2-51.2v-358.4h-358.4c-28.262 0-51.2-22.938-51.2-51.2v-102.4c0-28.262 22.938-51.2 51.2-51.2h358.4v-358.4c0-28.262 22.938-51.2 51.2-51.2h102.4c28.262 0 51.2 22.938 51.2 51.2v358.4h358.4c28.262 0 51.2 22.938 51.2 51.2v102.4c0 28.262-22.938 51.2-51.2 51.2z" />
<glyph unicode="&#xe64f;" d="M563.2 960h-102.4c-28.262 0-51.2-22.938-51.2-51.2v-921.6c0-28.262 22.938-51.2 51.2-51.2h102.4c28.262 0 51.2 22.938 51.2 51.2v921.6c0 28.262-22.938 51.2-51.2 51.2zM153.6 960h-102.4c-28.262 0-51.2-22.938-51.2-51.2v-921.6c0-28.262 22.938-51.2 51.2-51.2h102.4c28.262 0 51.2 22.938 51.2 51.2v921.6c0 28.262-22.938 51.2-51.2 51.2z" horiz-adv-x="614" />
<glyph unicode="&#xe650;" d="M608 960h-288c-35.392 0-64-28.608-64-64v-128h-192c-35.2 0-64-28.8-64-64v-704c0-35.2 28.8-64 64-64h576c35.2 0 64 28.8 64 64v128h128c35.392 0 64 28.608 64 64v480c0 17.664-10.112 42.112-22.656 54.656l-210.752 210.752c-12.48 12.48-36.928 22.592-54.592 22.592zM576 64h-448v576h128v-448c0-35.392 28.608-64 64-64h256v-64zM384 256v576h192v-160c0-17.664 14.336-32 32-32h160v-384h-384z" horiz-adv-x="896" />
<glyph unicode="&#xe651;" d="M5888-64h-5632c-141.312 0-256 114.688-256 256v512c0 141.312 114.688 256 256 256h5632c141.312 0 256-114.688 256-256v-512c0-141.312-114.688-256-256-256z" horiz-adv-x="6144" />
<glyph unicode="&#xe652;" d="M960 960c-35.392 0-64-28.608-64-64v-12.224l-845.44-181.184c-29.504-6.336-50.56-32.384-50.56-62.592v-256c0-30.208 21.056-56.256 50.56-62.592l141.44-30.272v-163.136c0-26.176 15.936-49.664 40.256-59.456l320-128c7.616-3.072 15.68-4.544 23.744-4.544 12.608 0 25.152 3.776 35.904 11.008 17.536 11.904 28.096 31.744 28.096 52.992v195.136l256-54.848v-12.288c0-35.392 28.608-64 64-64s64 28.608 64 64v768c0 35.392-28.608 64-64 64zM512 94.528l-192 76.8v92.352l192-41.152v-128zM128 435.776v152.448l768 164.544v-481.6l-768 164.608z" />
<glyph unicode="&#xe653;" d="M237.248 813.248l101.504 101.504c25.024 25.024 16.576 45.248-18.752 45.248h-288c-17.664 0-32-14.336-32-32v-288c0-35.392 20.224-43.776 45.248-18.752l101.504 101.504 201.344-201.344c12.48-12.48 32.768-12.48 45.248 0l45.248 45.248c12.48 12.48 12.48 32.768 0 45.248l-201.344 201.344zM992 960h-288c-35.392 0-43.776-20.224-18.752-45.248l101.504-101.504-201.408-201.344c-12.48-12.48-12.48-32.768 0-45.248l45.248-45.248c12.48-12.48 32.768-12.48 45.248 0l201.344 201.344 101.504-101.504c25.088-25.024 45.312-16.64 45.312 18.752v288c0 17.664-14.336 32-32 32zM978.752 274.752l-101.504-101.504-201.344 201.344c-12.48 12.48-32.768 12.48-45.248 0l-45.312-45.248c-12.48-12.48-12.48-32.768 0-45.248l201.344-201.344-101.504-101.504c-24.96-25.024-16.512-45.248 18.816-45.248h288c17.664 0 32 14.336 32 32v288c0 35.392-20.224 43.776-45.248 18.752zM393.344 374.656c-12.48 12.48-32.768 12.48-45.248 0l-201.344-201.344-101.504 101.504c-25.024 24.96-45.248 16.576-45.248-18.816v-288c0-17.664 14.336-32 32-32h288c35.392 0 43.776 20.224 18.752 45.248l-101.504 101.504 201.344 201.344c12.48 12.48 12.48 32.768 0 45.248l-45.248 45.312z" />
<glyph unicode="&#xe654;" d="M210.752 658.752l-101.504-101.504c-25.024-25.024-16.576-45.248 18.752-45.248h288c17.664 0 32 14.336 32 32v288c0 35.392-20.224 43.776-45.248 18.752l-101.504-101.504-201.344 201.408c-12.48 12.48-32.768 12.48-45.248 0l-45.312-45.312c-12.48-12.48-12.48-32.768 0-45.248l201.408-201.344zM608 512h288c35.392 0 43.776 20.224 18.752 45.248l-101.504 101.504 201.344 201.344c12.48 12.48 12.48 32.768 0 45.248l-45.248 45.248c-12.48 12.48-32.768 12.48-45.248 0l-201.344-201.344-101.504 101.504c-25.024 25.024-45.248 16.64-45.248-18.752v-288c0-17.664 14.336-32 32-32zM621.248 45.248l101.504 101.504 201.344-201.344c12.48-12.48 32.768-12.48 45.248 0l45.248 45.248c12.48 12.48 12.48 32.768 0 45.248l-201.344 201.344 101.504 101.504c25.024 25.024 16.576 45.248-18.752 45.248h-288c-17.664 0-32-14.336-32-32v-288c0-35.392 20.224-43.776 45.248-18.752zM54.656-54.656c12.48-12.48 32.768-12.48 45.248 0l201.344 201.344 101.504-101.504c25.024-24.96 45.248-16.576 45.248 18.816v288c0 17.664-14.336 32-32 32h-288c-35.392 0-43.776-20.224-18.752-45.248l101.504-101.504-201.344-201.344c-12.48-12.48-12.48-32.768 0-45.248l45.248-45.312z" />
<glyph unicode="&#xe655;" d="M96 640c17.664 0 32 14.336 32 32v160h160c17.664 0 32 14.336 32 32v64c0 17.664-14.336 32-32 32h-224c-35.392 0-64-28.608-64-64v-224c0-17.664 14.336-32 32-32h64zM128 224c0 17.664-14.336 32-32 32h-64c-17.664 0-32-14.336-32-32v-224c0-35.392 28.608-64 64-64h224c17.664 0 32 14.336 32 32v64c0 17.664-14.336 32-32 32h-160v160zM928 256c-17.664 0-32-14.336-32-32v-160h-160c-17.664 0-32-14.336-32-32v-64c0-17.664 14.336-32 32-32h224c35.392 0 64 28.608 64 64v224c0 17.664-14.336 32-32 32h-64zM736 960c-17.664 0-32-14.336-32-32v-64c0-17.664 14.336-32 32-32h160v-160c0-17.664 14.336-32 32-32h64c17.664 0 32 14.336 32 32v224c0 35.392-28.608 64-64 64h-224z" />
<glyph unicode="&#xe656;" d="M224 960h-160c-35.392 0-64-28.608-64-64v-160c0-17.664 14.336-32 32-32h64c17.664 0 32 14.336 32 32v96h96c17.664 0 32 14.336 32 32v64c0 17.664-14.336 32-32 32zM224 64h-96v96c0 17.664-14.336 32-32 32h-64c-17.664 0-32-14.336-32-32v-160c0-35.392 28.608-64 64-64h160c17.664 0 32 14.336 32 32v64c0 17.664-14.336 32-32 32zM992 192h-64c-17.664 0-32-14.336-32-32v-96h-96c-17.664 0-32-14.336-32-32v-64c0-17.664 14.336-32 32-32h160c35.392 0 64 28.608 64 64v160c0 17.664-14.336 32-32 32zM960 960h-160c-17.664 0-32-14.336-32-32v-64c0-17.664 14.336-32 32-32h96v-96c0-17.664 14.336-32 32-32h64c17.664 0 32 14.336 32 32v160c0 35.392-28.608 64-64 64zM416-64h192c17.664 0 32 14.336 32 32v64c0 17.664-14.336 32-32 32h-192c-17.664 0-32-14.336-32-32v-64c0-17.664 14.336-32 32-32zM416 832h192c17.664 0 32 14.336 32 32v64c0 17.664-14.336 32-32 32h-192c-17.664 0-32-14.336-32-32v-64c0-17.664 14.336-32 32-32zM928 320h64c17.664 0 32 14.336 32 32v192c0 17.664-14.336 32-32 32h-64c-17.664 0-32-14.336-32-32v-192c0-17.664 14.336-32 32-32zM96 576h-64c-17.664 0-32-14.336-32-32v-192c0-17.664 14.336-32 32-32h64c17.664 0 32 14.336 32 32v192c0 17.664-14.336 32-32 32z" />
<glyph unicode="&#xe657;" d="M832 576h-64v64c0 176.768-143.232 320-320 320s-320-143.232-320-320v-64h-64c-35.392 0-64-35.008-64-70.4v-505.6c0-35.392 28.608-64 64-64h768c35.392 0 64 28.608 64 64v505.6c0 35.392-28.608 70.4-64 70.4zM448 832c105.856 0 192-86.144 192-192v-64h-384v64c0 105.856 86.144 192 192 192zM768 64h-640v384h640v-384z" horiz-adv-x="896" />
<glyph unicode="&#xe658;" d="M1097.143 960h-1024c-40.448 0-73.143-32.695-73.143-73.143v-877.714c0-40.448 32.695-73.143 73.143-73.143h1024c40.448 0 73.143 32.695 73.143 73.143v877.714c0 40.448-32.695 73.143-73.143 73.143zM993.719 813.714l-408.576-408.576-408.576 408.576h817.152zM146.286 637.147l412.965-412.965c14.263-14.263 37.449-14.263 51.712 0l413.038 412.965v-554.862h-877.714v554.862z" horiz-adv-x="1170" />
<glyph unicode="&#xe659;" d="M640 756.352v-95.36c0-17.664 11.648-31.040 24.64-43.008 63.296-58.304 103.36-141.312 103.36-233.984 0-176.448-143.552-320-320-320s-320 143.552-320 320c0 92.672 40.064 175.68 103.36 233.984 12.992 11.968 24.64 24.32 24.64 41.984v96.384c0 17.664-13.056 25.92-28.416 17.216-135.808-76.864-227.584-222.4-227.584-389.568 0-247.424 200.64-448 448-448s448 200.576 448 448c0 167.168-91.776 312.704-227.584 389.568-15.36 8.768-28.416 0.512-28.416-17.216zM448 512c35.392 0 64 28.608 64 64v320c0 35.392-28.608 64-64 64s-64-28.608-64-64v-320c0-35.392 28.608-64 64-64z" horiz-adv-x="896" />
<glyph unicode="&#xe65a;" d="M960 960h-896c-35.392 0-64-28.608-64-64v-896c0-35.392 28.608-64 64-64h896c35.392 0 64 28.608 64 64v224c0 17.664-14.336 32-32 32h-64c-17.664 0-32-14.336-32-32v-160h-768v768h768v-160c0-17.664 14.336-32 32-32h64c17.664 0 32 14.336 32 32v224c0 35.392-28.608 64-64 64zM992 512h-352v108.48c0 19.008-16.96 25.216-32 13.76l-212.608-165.568c-15.040-11.392-15.296-29.952-0.256-41.344l212.864-165.568c15.104-11.456 32-5.248 32 13.76v108.48h352c17.6 0 32 14.336 32 32v64c0 17.664-14.4 32-32 32z" />
<glyph unicode="&#xe65b;" d="M240.941-3.765c0-33.31 26.925-60.235 60.235-60.235h120.471c33.31 0 60.235 26.925 60.235 60.235h30.118c16.625 0 30.118 13.493 30.118 30.118v60.235c0 16.625-13.493 30.118-30.118 30.118h-301.176c-16.625 0-30.118-13.493-30.118-30.118v-60.235c0-16.625 13.493-30.118 30.118-30.118h30.118zM0 598.588c0-92.702 35.177-176.971 92.582-240.941 49.815-49.815 72.463-114.266 81.98-151.191 4.156-16.083 19.637-29.515 36.262-29.515h301.176c16.625 0 32.105 13.432 36.262 29.515 9.517 36.864 32.166 101.376 81.98 151.191 57.404 63.97 92.582 148.239 92.582 240.941 0 199.56-161.852 361.412-361.412 361.412s-361.412-161.852-361.412-361.412zM542.298 440.049c-44.514-45.478-72.945-97.822-90.835-142.637h-180.104c-17.89 44.815-46.321 97.16-90.835 142.637-38.731 44.213-60.055 100.352-60.055 158.539 0 132.819 108.122 240.941 240.941 240.941s240.941-108.122 240.941-240.941c0-58.187-21.323-114.327-60.055-158.539z" horiz-adv-x="723" />
<glyph unicode="&#xe65c;" d="M767.744 904.064v-912.384c0-50.688-64-70.144-99.456-44.544l-636.928 453.888c-35.456 25.856-44.16 67.968-8.832 93.824l650.112 453.76c35.456 25.856 95.104 6.016 95.104-44.544z" horiz-adv-x="768" />
<glyph unicode="&#xe65d;" d="M457.011-48.742c19.354-20.378 50.79-20.378 70.042 0l69.939 73.421c19.354 20.173 19.354 53.043 0 73.216l-337.408 348.672 340.173 351.642c19.354 20.275 19.354 53.146 0 73.318l-69.939 73.421c-19.251 20.173-50.586 20.173-70.042 0l-445.44-461.619c-19.251-20.275-19.251-53.146 0-73.421l442.675-458.65z" horiz-adv-x="614" />
<glyph unicode="&#xe65e;" d="M832 960h-768c-35.392 0-64-28.608-64-64v-896c0-35.392 28.608-64 64-64h768c35.392 0 64 28.608 64 64v896c0 35.392-28.608 64-64 64zM480 0h-64c-17.664 0-32 14.336-32 32v64c0 17.664 14.336 32 32 32h64c17.664 0 32-14.336 32-32v-64c0-17.664-14.336-32-32-32zM768 192h-640v640h640v-640z" horiz-adv-x="896" />
<glyph unicode="&#xe65f;" d="M658.286 960h-585.143c-40.448 0-73.143-32.695-73.143-73.143v-877.714c0-40.448 32.695-73.143 73.143-73.143h585.143c40.448 0 73.143 32.695 73.143 73.143v877.714c0 40.448-32.695 73.143-73.143 73.143zM402.286 9.143h-73.143c-20.187 0-36.571 16.384-36.571 36.571v73.143c0 20.187 16.384 36.571 36.571 36.571h73.143c20.187 0 36.571-16.384 36.571-36.571v-73.143c0-20.187-16.384-36.571-36.571-36.571zM585.143 228.571h-438.857v585.143h438.857v-585.143z" horiz-adv-x="731" />
<glyph unicode="&#xe660;" d="M512 960c-282.752 0-512-229.248-512-512s229.248-512 512-512 512 229.248 512 512-229.248 512-512 512zM512 64c-211.776 0-384 172.288-384 384s172.224 384 384 384c211.712 0 384-172.288 384-384s-172.288-384-384-384zM544 704h-64c-17.664 0-32-14.336-32-32v-64c0-17.664 14.336-32 32-32h64c17.664 0 32 14.336 32 32v64c0 17.664-14.336 32-32 32zM544 512h-64c-17.664 0-32-14.336-32-32v-256c0-17.664 14.336-32 32-32h64c17.664 0 32 14.336 32 32v256c0 17.664-14.336 32-32 32z" />
<glyph unicode="&#xe661;" d="M873.344 726.656l-210.752 210.752c-12.48 12.48-36.928 22.592-54.592 22.592h-544c-35.392 0-64-28.608-64-64v-288c0-17.664 14.336-32 32-32h64c17.664 0 32 14.336 32 32v224h384v-224c0-17.664 14.336-32 32-32h224v-512h-640v96c0 17.664-14.336 32-32 32h-64c-17.664 0-32-14.336-32-32v-160c0-35.392 28.608-64 64-64h768c35.392 0 64 28.608 64 64v672c0 17.664-10.112 42.112-22.656 54.656zM32.064 320h223.936v-108.48c0-19.008 16.96-25.216 32-13.76l212.608 165.568c15.040 11.456 15.232 29.952 0.256 41.344l-212.864 165.568c-15.104 11.456-32 5.248-32-13.76v-108.48h-223.936c-17.664 0-32.064-14.336-32.064-32v-64c0-17.664 14.4-32 32.064-32z" horiz-adv-x="896" />
<glyph unicode="&#xe662;" d="M908.457 649.227v226.936c0 17.896-14.135 32.419-32.030 32.419h-64.969c-17.896 0-32.679-14.524-32.679-32.419v-97.258l-171.758 171.628c-12.644 12.644-33.133 12.644-45.776 0l-553.983-537.709c-12.644-12.644-8.429-22.953 9.466-22.953h113.598v-421.453c0-17.896 13.94-32.419 31.901-32.419h843.942c17.96 0 31.901 14.524 31.901 32.419v421.453h112.106c17.896 0 21.98 10.245 9.337 22.953l-251.056 236.402zM713.941 65.678v226.936c0 17.896-14.394 32.419-32.29 32.419h-194.776c-17.896 0-32.29-14.524-32.29-32.419v-226.936h-194.517v400.185l324.389 324.194 194.711-194.517 10.893-11.152 118.396-118.525v-400.185h-194.517z" horiz-adv-x="1167" />
<glyph unicode="&#xe663;" d="M656.679-41.509c-28.83-30.038-75.698-30.038-104.528 0l-463.547 482.642c-118.113 118.792-118.113 311.17 0 429.811 118.038 118.642 309.66 118.642 427.774 0l88-107.472 88 107.472c118.113 118.642 309.736 118.642 427.774 0 118.113-118.642 118.113-311.019 0-429.811l-463.472-482.642zM655.094 604.604c-28-30.943-73.434-30.943-101.434 0l-144.302 158.868c-59.019 59.396-154.792 59.396-213.887 0-59.019-59.245-59.019-155.547 0-214.943l408.906-429.66 408.906 429.66c58.943 59.396 58.943 155.623 0 214.943-59.094 59.396-154.868 59.396-213.887 0l-144.302-158.868z" horiz-adv-x="1209" />
<glyph unicode="&#xe664;" d="M0 896v-320c0-35.392 28.672-64 64-64h320c35.328 0 64 28.608 64 64v320c0 35.392-28.672 64-64 64h-320c-35.328 0-64-28.608-64-64zM320 640h-192v192h192v-192zM64 384c-35.328 0-64-28.608-64-64v-320c0-35.392 28.672-64 64-64h320c35.328 0 64 28.608 64 64v320c0 35.392-28.672 64-64 64h-320zM320 64h-192v192h192v-192zM640 384c-35.328 0-64-28.608-64-64v-320c0-35.392 28.672-64 64-64h320c35.328 0 64 28.608 64 64v320c0 35.392-28.672 64-64 64h-320zM896 64h-192v192h192v-192zM640 960c-35.328 0-64-28.608-64-64v-320c0-35.392 28.672-64 64-64h320c35.328 0 64 28.608 64 64v320c0 35.392-28.672 64-64 64h-320zM896 640h-192v192h192v-192z" />
<glyph unicode="&#xe665;" d="M960 960h-896c-35.328 0-64-28.608-64-64v-896c0-35.392 28.672-64 64-64h896c35.328 0 64 28.608 64 64v896c0 35.392-28.672 64-64 64zM896 64h-768v768h768v-768zM640 704h128v-128h-128v128zM448 704h128v-128h-128v128zM256 704h128v-128h-128v128zM256 512h128v-128h-128v128zM448 512h128v-128h-128v128zM640 512h128v-128h-128v128zM640 320h128v-128h-128v128zM448 320h128v-128h-128v128zM256 320h128v-128h-128v128z" />
<glyph unicode="&#xe666;" d="M1339.989 571.904l-161.963 334.421c-13.056 32.427-47.957 53.675-82.859 53.675h-128c-23.552 0-28.501-19.115-28.501-42.667v-85.333c0-23.552 4.949-42.667 28.501-42.667h70.229l107.349-256h-305.579c-47.189 0-71.168-38.144-71.168-85.333v-85.333h-170.667v85.333c0 47.189-52.309 85.333-99.499 85.333h-305.579l107.349 256h70.229c23.552 0 56.832 19.115 56.832 42.667v85.333c0 23.552-33.28 42.667-56.832 42.667h-128c-34.901 0-66.219-21.248-79.275-53.675l-151.381-334.421c-10.069-21.333-11.179-57.685-11.179-81.237v-460.8c0-47.189 23.979-93.867 71.168-93.867h426.667c47.189 0 99.499 46.677 99.499 93.867v162.133h170.667v-162.133c0-47.189 23.979-93.867 71.168-93.867h426.667c47.189 0 99.499 46.677 99.499 93.867v460.8c0 23.552-15.275 59.904-25.344 81.237zM426.667 106.667h-256v256h256v-256zM1194.667 106.667h-256v256h256v-256z" horiz-adv-x="1365" />
<glyph unicode="&#xe667;" d="M608 128h64c17.664 0 32 14.336 32 32v384c0 17.664-14.336 32-32 32h-64c-17.664 0-32-14.336-32-32v-384c0-17.664 14.336-32 32-32zM224 128h64c17.664 0 32 14.336 32 32v256c0 17.664-14.336 32-32 32h-64c-17.664 0-32-14.336-32-32v-256c0-17.664 14.336-32 32-32zM416 128h64c17.664 0 32 14.336 32 32v512c0 17.664-14.336 32-32 32h-64c-17.664 0-32-14.336-32-32v-512c0-17.664 14.336-32 32-32zM800 128h64c17.664 0 32 14.336 32 32v640c0 17.664-14.336 32-32 32h-64c-17.664 0-32-14.336-32-32v-640c0-17.664 14.336-32 32-32zM992 64h-864v864c0 17.664-14.336 32-32 32h-64c-17.664 0-32-14.336-32-32v-928c0-35.392 28.608-64 64-64h928c17.664 0 32 14.336 32 32v64c0 17.664-14.336 32-32 32z" />
<glyph unicode="&#xe668;" d="M672 192h64c17.664 0 32 14.336 32 32v320c0 17.664-14.336 32-32 32h-64c-17.664 0-32-14.336-32-32v-320c0-17.664 14.336-32 32-32zM288 192h64c17.664 0 32 14.336 32 32v192c0 17.664-14.336 32-32 32h-64c-17.664 0-32-14.336-32-32v-192c0-17.664 14.336-32 32-32zM480 192h64c17.664 0 32 14.336 32 32v448c0 17.664-14.336 32-32 32h-64c-17.664 0-32-14.336-32-32v-448c0-17.664 14.336-32 32-32zM960 960h-896c-35.392 0-64-28.608-64-64v-896c0-35.392 28.608-64 64-64h896c35.392 0 64 28.608 64 64v896c0 35.392-28.608 64-64 64zM896 64h-768v768h768v-768z" />
<glyph unicode="&#xe669;" d="M960 640h-177.92c30.656 34.048 49.92 78.656 49.92 128 0 105.856-86.144 192-192 192-49.344 0-93.952-19.264-128-49.92-34.048 30.656-78.656 49.92-128 49.92-105.856 0-192-86.144-192-192 0-49.344 19.264-93.952 49.92-128h-177.92c-35.392 0-64-28.608-64-64v-192c0-35.392 28.608-64 64-64v-320c0-35.392 28.608-64 64-64h768c35.392 0 64 28.608 64 64v320c35.392 0 64 28.608 64 64v192c0 35.392-28.608 64-64 64zM576 800c0 17.664 14.336 32 32 32h64c17.664 0 32-14.336 32-32v-64c0-17.664-14.336-32-32-32h-96v96zM352 832h64c17.664 0 32-14.336 32-32v-96h-96c-17.664 0-32 14.336-32 32v64c0 17.664 14.336 32 32 32zM896 512v-64h-320v64h320zM448 512v-64h-320v64h320zM192 64v256h256v-256h-256zM832 64h-256v256h256v-256z" />
<glyph unicode="&#xe66a;" d="M960 832h-512v64c0 35.2-28.8 64-64 64h-320c-35.2 0-64-28.8-64-64v-896c0-35.2 28.8-64 64-64h896c35.2 0 64 28.8 64 64v768c0 35.2-28.8 64-64 64zM896 64h-768v768h192v-96c0-17.664 14.336-32 32-32h544v-640z" />
<glyph unicode="&#xe66b;" d="M762.847 859.088h-149.091v60.762c0 27.21-22.658 48.845-47.975 36.672l-224.174-97.434h-294.807c-28.284 0-46.799-40.866-46.799-68.076v-689.094c0-27.159 18.515-61.171 46.799-61.171h294.807l224.225-100.912c25.266-12.173 47.924 5.984 47.924 33.245v67.667h149.091c28.284 0 55.494 34.012 55.494 61.171v689.094c0 27.21-27.21 68.076-55.494 68.076zM511.463 83.097l-145.716 59.943h-263.455v613.756h263.455l145.716 53.039v-726.738zM716.048 143.040h-102.293v613.756h102.293v-613.756zM283.709 302.872c11.406-10.894 23.169-7.263 23.169 8.132v87.818h126.28c14.065-0.051 27.159 11.508 27.159 25.624v51.146c0 14.116-13.093 25.471-27.159 25.471h-126.28v88.023c0 15.395-10.996 18.975-22.402 8.132l-123.16-127.508c-11.406-10.894-9.616-28.488 1.688-39.383l120.705-127.457z" horiz-adv-x="818" />
<glyph unicode="&#xe66c;" d="M128-32v288h832c35.392 0 64 28.608 64 64v512c0 35.392-28.608 64-64 64h-832c0 35.392-28.608 64-64 64s-64-28.608-64-64v-928c0-17.664 14.336-32 32-32h64c17.664 0 32 14.336 32 32zM896 384h-768v384h768v-384z" />
<glyph unicode="&#xe66d;" d="M1097.143 960h-1024c-40.448 0-73.143-32.695-73.143-73.143v-877.714c0-40.448 32.695-73.143 73.143-73.143h1024c40.448 0 73.143 32.695 73.143 73.143v877.714c0 40.448-32.695 73.143-73.143 73.143zM1024 667.429h-146.286v146.286h146.286v-146.286zM1024 374.857h-146.286v146.286h146.286v-146.286zM146.286 813.714h146.286v-146.286h-146.286v146.286zM146.286 521.143h146.286v-146.286h-146.286v146.286zM146.286 82.286v146.286h146.286v-146.286h-146.286zM438.857 82.286v731.429h292.571v-731.429h-292.571zM1024 82.286h-146.286v146.286h146.286v-146.286z" horiz-adv-x="1170" />
<glyph unicode="&#xe66e;" d="M1298.286 475.429c-161.207 308.005-394.752 484.571-640.805 484.571-257.609 0-503.808-184.174-642.194-480.695l-15.287-32.622 16.311-32.11c147.237-290.743 398.994-478.574 641.17-478.574 241.298 0 480.622 175.616 640.293 469.87l18.798 34.67-18.286 34.889zM657.481 82.286c-180.297 0-372.005 142.921-495.909 367.031 116.224 225.719 303.689 364.398 495.909 364.398 179.273 0 362.057-138.313 494.299-371.931-132.608-225.938-315.319-359.497-494.299-359.497zM657.481 667.429c-119.296 0-216.357-98.45-216.357-219.429s97.061-219.429 216.357-219.429c119.369 0 216.43 98.45 216.43 219.429s-97.061 219.429-216.43 219.429z" horiz-adv-x="1317" />
<glyph unicode="&#xe66f;" d="M512 960c-282.752 0-512-229.248-512-512s229.248-512 512-512 512 229.248 512 512-229.248 512-512 512zM512 64c-211.776 0-384 172.288-384 384s172.224 384 384 384c211.648 0 384-172.288 384-384s-172.352-384-384-384zM544 768h-64c-17.664 0-32-14.336-32-32v-384c0-17.664 14.336-32 32-32h64c17.664 0 32 14.336 32 32v384c0 17.664-14.336 32-32 32zM544 256h-64c-17.664 0-32-14.336-32-32v-64c0-17.664 14.336-32 32-32h64c17.664 0 32 14.336 32 32v64c0 17.664-14.336 32-32 32z" />
<glyph unicode="&#xe670;" d="M873.344 726.656l-210.752 210.752c-12.48 12.48-36.928 22.592-54.592 22.592h-544c-35.392 0-64-28.608-64-64v-896c0-35.392 28.608-64 64-64h768c35.392 0 64 28.608 64 64v672c0 17.664-10.112 42.112-22.656 54.656zM768 64h-640v768h384v-224c0-17.664 14.336-32 32-32h224v-512zM448 544.064c0 17.664-14.208 31.936-31.872 31.936h-64c-17.664 0-32.128-14.272-32.128-31.936v-160.064h-108.352c-19.008 0-25.216-16.896-13.76-31.936l165.568-212.608c11.456-15.040 29.952-15.232 41.344-0.256l165.568 212.8c11.456 15.168 5.248 32-13.76 32h-108.608v160.064z" horiz-adv-x="896" />
<glyph unicode="&#xe671;" d="M960 832h-512v64c0 35.2-28.8 64-64 64h-320c-35.2 0-64-28.8-64-64v-896c0-35.2 28.8-64 64-64h896c35.2 0 64 28.8 64 64v768c0 35.2-28.8 64-64 64zM896 64h-768v768h192v-96c0-17.664 14.336-32 32-32h544v-640zM325.76 416l165.568-212.608c11.456-15.040 29.952-15.232 41.344-0.256l165.568 212.864c11.456 15.104 5.248 32-13.76 32h-108.48v159.936c0 17.664-14.336 32.064-32 32.064h-64c-17.664 0-32-14.4-32-32.064v-159.936h-108.48c-19.008 0-25.216-16.96-13.76-32z" />
<glyph unicode="&#xe672;" d="M74.435 960h1216.918c67.607 0 93.557-85.362 59.412-132.652l-605.215-849.691c-34.486-46.949-90.825-58.9-125.311-11.609l-605.215 867.276c-34.486 47.12-7.853 126.677 59.412 126.677z" horiz-adv-x="1366" />
<glyph unicode="&#xe673;" d="M1681.408 697.685c33.963 32.256 33.963 84.651 0 116.736l-122.368 116.565c-33.621 32.427-88.405 32.427-122.027 0l-580.949-562.347-586.069 566.955c-33.963 32.256-88.747 32.256-122.368 0l-122.368-116.565c-33.621-32.085-33.621-84.309 0-116.736l769.365-742.4c33.963-32.085 88.747-32.085 122.368 0l764.416 737.792z" horiz-adv-x="1707" />
<glyph unicode="&#xe674;" d="M0 896v-896c0-35.392 28.608-64 64-64h768c35.392 0 64 28.608 64 64v672c0 17.664-10.112 42.112-22.656 54.656l-210.752 210.752c-12.48 12.48-36.928 22.592-54.592 22.592h-544c-35.392 0-64-28.608-64-64zM128 64v768h384v-224c0-17.664 14.336-32 32-32h224v-512h-640z" horiz-adv-x="896" />
<glyph unicode="&#xe675;" d="M192-64h640c35.392 0 64 28.608 64 64v896c0 35.392-28.608 64-64 64h-768c-35.392 0-64-28.608-64-64v-768l192-192zM768 832v-768h-448v160c0 17.664-14.336 32-32 32h-160v576h640zM224 448h448c17.664 0 32 14.336 32 32v64c0 17.664-14.336 32-32 32h-448c-17.664 0-32-14.336-32-32v-64c0-17.664 14.336-32 32-32zM224 640h448c17.664 0 32 14.336 32 32v64c0 17.664-14.336 32-32 32h-448c-17.664 0-32-14.336-32-32v-64c0-17.664 14.336-32 32-32z" horiz-adv-x="896" />
<glyph unicode="&#xe676;" d="M1181.538 960h-1102.769c-43.559 0-78.769-35.21-78.769-78.769v-866.462c0-43.559 35.21-78.769 78.769-78.769h1102.769c43.559 0 78.769 35.21 78.769 78.769v866.462c0 43.559-35.21 78.769-78.769 78.769zM1102.769 93.538h-945.231v472.615h945.231v-472.615zM1102.769 723.692h-945.231v78.769h945.231v-78.769zM748.308 172.308h236.308c21.74 0 39.385 17.644 39.385 39.385v78.769c0 21.74-17.644 39.385-39.385 39.385h-236.308c-21.74 0-39.385-17.644-39.385-39.385v-78.769c0-21.74 17.644-39.385 39.385-39.385z" horiz-adv-x="1260" />
<glyph unicode="&#xe677;" d="M896 640c0 21.376-10.688 41.344-28.48 53.248l-384 256c-21.504 14.336-49.472 14.336-70.976 0l-384-256c-17.856-11.904-28.544-31.872-28.544-53.248 0 0 0-371.776 0-384 0-20.608 9.984-40.96 28.48-53.248l384-256c10.752-7.104 23.168-10.752 35.52-10.752s24.768 3.648 35.52 10.752l384 256c18.304 12.16 27.136 32.256 27.328 52.608l1.152 0.64v384zM384 119.552l-256 170.688v230.144l256-170.624v-230.208zM448 460.864l-268.608 179.136 268.608 179.136 268.608-179.136-268.608-179.136zM512 349.76l256 170.624v-230.144l-256-170.688v230.208z" horiz-adv-x="896" />
<glyph unicode="&#xe678;" d="M960 960h-896c-35.392 0-64-28.608-64-64v-704c0-35.392 28.608-64 64-64h384v-64h-128c-35.392 0-64-28.608-64-64s28.608-64 64-64h384c35.392 0 64 28.608 64 64s-28.608 64-64 64h-128v64h384c35.392 0 64 28.608 64 64v704c0 35.392-28.608 64-64 64zM896 256h-768v576h768v-576zM288 576h448c17.664 0 32 14.336 32 32v64c0 17.664-14.336 32-32 32h-448c-17.664 0-32-14.336-32-32v-64c0-17.664 14.336-32 32-32zM288 384h448c17.664 0 32 14.336 32 32v64c0 17.664-14.336 32-32 32h-448c-17.664 0-32-14.336-32-32v-64c0-17.664 14.336-32 32-32z" />
<glyph unicode="&#xe679;" d="M448 768c35.392 0 64 28.608 64 64v64c0 35.392-28.608 64-64 64s-64-28.608-64-64v-64c0-35.392 28.608-64 64-64zM640 768c35.392 0 64 28.608 64 64v64c0 35.392-28.608 64-64 64s-64-28.608-64-64v-64c0-35.392 28.608-64 64-64zM832 768c35.392 0 64 28.608 64 64v64c0 35.392-28.608 64-64 64s-64-28.608-64-64v-64c0-35.392 28.608-64 64-64zM960 704h-640c-35.392 0-64-28.608-64-64v-64h-62.016c-107.008 0-193.984-86.144-193.984-192v-128c0-105.856 86.144-192 192-192h75.84c26.496-74.368 96.832-128 180.16-128h384c105.856 0 192 86.144 192 192v512c0 35.392-28.608 64-64 64zM128 256v128c0 34.688 30.272 64 65.984 64h62.016v-256h-64c-35.264 0-64 28.736-64 64zM832 64h-384c-35.264 0-64 28.736-64 64v448h512v-448c0-35.264-28.736-64-64-64z" />
<glyph unicode="&#xe67a;" d="M1183.359 567.125c0 236.672-194.86 392.875-434.687 392.875-224.838 0-433.109-157.781-433.109-392.875-86.78 0-165.67-35.501-222.471-93.091-57.59-56.88-93.091-135.771-93.091-223.26 0-173.559 141.214-314.774 315.562-314.774h197.227c21.774 0 39.445 17.671 39.445 39.445v78.891c0 21.774-17.671 39.445-39.445 39.445h-197.227c-78.891 0-157.781 70.292-157.781 156.992 0 87.49 71.002 158.57 157.781 158.57h118.336c21.774 0 39.445 17.671 39.445 39.445v119.914c0 58.379 20.512 108.948 61.535 150.681 52.068 51.989 131.747 82.835 213.794 82.835 133.325 0 276.906-73.447 276.906-235.094v-118.336c0-21.774 17.671-39.445 39.445-39.445h39.445c78.891 0 157.781-78.891 157.781-157.781s-71.79-157.781-158.57-157.781h-196.438c-21.774 0-39.445-17.671-39.445-39.445v-78.891c0-21.774 17.671-39.445 39.445-39.445h197.227c174.348 0.789 313.985 141.214 313.985 314.774 0 146.658-99.402 281.639-235.094 316.351zM939.587 291.008l-204.090 262.075c-14.043 18.46-36.921 18.776-50.963 0.316l-204.090-262.39c-14.121-18.618-6.469-39.445 16.961-39.445h133.72v-197.227c0-21.695 17.671-39.445 39.445-39.445h78.891c21.774 0 39.445 17.75 39.445 39.445v197.227h133.72c23.431 0 31.083 20.827 16.961 39.445z" horiz-adv-x="1418" />
<glyph unicode="&#xe67b;" d="M512 960c-282.752 0-512-229.248-512-512s229.248-512 512-512 512 229.248 512 512-229.248 512-512 512zM512 64c-211.776 0-384 172.224-384 384s172.224 384 384 384 384-172.224 384-384-172.224-384-384-384zM663.488 622.080l-216.448-216.448-86.528 86.528c-23.936 23.936-62.656 23.936-86.592 0-23.936-23.872-23.936-62.656 0-86.592l129.92-129.728c23.872-23.936 62.656-23.936 86.592 0l259.712 259.712c23.936 23.936 23.936 62.656 0 86.592s-62.72 23.872-86.656-0.064z" />
<glyph unicode="&#xe67c;" d="M466.688-45.824l-448 437.376c-24.96 24.064-24.96 63.232 0 87.552l90.496 87.552c24.96 24.064 65.536 24.064 90.496 0l312.32-306.432 696.192 681.6c24.96 24.064 65.536 24.064 90.496 0l90.496-87.552c24.96-24.064 24.96-63.36 0-87.424l-832-812.928c-24.96-23.936-65.408-23.936-90.496 0.256z" horiz-adv-x="1408" />
<glyph unicode="&#xe67d;" d="M1024 768h-320v128c0 35.392-28.608 64-64 64h-576c-35.392 0-64-28.608-64-64v-896c0-35.392 28.608-64 64-64h960c35.392 0 64 28.608 64 64v704c0 35.392-28.608 64-64 64zM576 704v-640h-448v768h448v-128zM960 64h-256v576h256v-576zM192 768h128v-128h-128v128zM384 768h128v-128h-128v128zM192 576h128v-128h-128v128zM384 576h128v-128h-128v128zM192 384h128v-128h-128v128zM384 384h128v-128h-128v128zM768 576h128v-128h-128v128zM768 384h128v-128h-128v128z" horiz-adv-x="1088" />
<glyph unicode="&#xe67e;" d="M1024 823.467h-136.533v68.267c0 37.751-30.515 68.267-68.267 68.267h-546.133c-37.751 0-68.267-30.515-68.267-68.267v-68.267h-136.533c-37.751 0-68.267-30.515-68.267-68.267v-750.933c0-37.751 30.515-68.267 68.267-68.267h955.733c37.751 0 68.267 30.515 68.267 68.267v750.933c0 37.751-30.515 68.267-68.267 68.267zM955.733 72.533h-819.2v614.4h136.533c37.751 0 68.267 30.515 68.267 68.267v68.267h409.6v-68.267c0-37.751 30.515-68.267 68.267-68.267h136.533v-614.4zM546.133 686.933c-126.908 0-234.155-86.699-264.192-204.8-6.144-21.845-8.875-44.373-8.875-68.267s2.731-46.421 8.875-68.267c30.037-118.101 137.284-204.8 264.192-204.8s234.155 86.699 264.192 204.8c6.144 21.845 8.875 44.373 8.875 68.267s-2.731 46.421-8.875 68.267c-30.037 118.101-137.284 204.8-264.192 204.8zM664.235 345.6c-23.893-40.96-67.584-68.267-118.101-68.267s-94.208 27.307-118.101 68.267c-11.605 19.797-18.432 43.759-18.432 68.267s6.827 48.469 18.432 68.267c23.893 40.96 67.584 68.267 118.101 68.267s94.208-27.307 118.101-68.267c11.605-19.797 18.432-43.759 18.432-68.267s-6.827-48.469-18.432-68.267z" horiz-adv-x="1092" />
<glyph unicode="&#xe67f;" d="M1092.695 748.639c-8.297 121.053-187.369 211.361-417.319 211.361-225.576 0-402.267-86.963-416.74-204.478-157.588-39.236-258.637-150.641-258.637-272.788 0-124.72 105.809-233.102 257.286-272.724v-48.884c0-147.811 210.332-225.126 418.090-225.126s418.090 77.315 418.090 225.126v587.964l-0.772-0.45zM675.377 841.648c182.738 0 294.593-65.801 294.593-101.628s-111.855-101.628-294.593-101.628-294.593 65.801-294.593 101.628 111.855 101.628 294.593 101.628zM128.643 482.734c0 55.703 51.457 109.54 128.643 138.098v-276.326c-76.543 28.816-128.643 81.56-128.643 138.227zM675.377 64.643c-188.012 0-289.447 68.438-289.447 96.482v32.161c95.196 0 184.474 25.729 254.006 71.204 10.999-4.31 22.834-6.882 35.441-6.882 53.258 0 96.482 43.224 96.482 96.482s-43.224 96.482-96.482 96.482c-42.903 0-78.858-28.173-91.401-66.83-49.335-38.464-120.989-61.813-198.046-61.813v257.351c74.484-36.985 175.662-59.24 289.447-59.24s214.963 22.255 289.447 59.24v-418.155c0-27.98-101.435-96.482-289.447-96.482z" horiz-adv-x="1093" />
<glyph unicode="&#xe680;" d="M571.197 647.906l-225.984-223.218c-12.605-12.476-9.325-27.653 6.238-36.206 39.164-21.672 71.512-54.277 93.184-93.828 8.489-15.563 23.602-18.907 36.078-6.302 62.83 63.602 140.066 141.738 223.668 226.434 210.549 213.057 341.741 403.928 306.242 439.491-35.499 35.435-226.369-95.757-439.427-306.37zM239.103 321.793c-63.602 0-122.767-45.081-137.494-107.333-16.849-65.724-37.235-162.51-89.197-235.437-22.573-31.576-14.084-47.846 22.958-41.737 115.693 18.971 342.898 108.683 342.898 241.418 0 0 0-12.026 0 0 0 79.036-64.181 143.089-139.166 143.089z" horiz-adv-x="1016" />
<glyph unicode="&#xe681;" d="M960 768h-192v128c0 35.392-28.608 64-64 64h-384c-35.392 0-64-28.608-64-64v-128h-192c-35.392 0-64-28.608-64-64v-704c0-35.392 28.608-64 64-64h896c35.392 0 64 28.608 64 64v704c0 35.392-28.608 64-64 64zM384 832h256v-64h-256v64zM896 64h-768v256h128v-64c0-35.392 28.608-64 64-64s64 28.608 64 64v64h256v-64c0-35.392 28.608-64 64-64s64 28.608 64 64v64h128v-256zM128 448v192h768v-192h-768z" />
<glyph unicode="&#xe682;" d="M1228.698 608.358v-320.819c0-29.491-25.805-44.339-54.579-44.339h-457.421v-276.378c0-29.594-25.293-39.629-48.947-22.426l-649.421 472.474c-23.45 17.203-24.883 45.056-1.536 62.259l651.878 472.474c23.45 17.203 48.026 7.168 48.026-22.426v-276.378h457.421c28.774 0 54.579-14.848 54.579-44.442z" horiz-adv-x="1229" />
<glyph unicode="&#xe683;" d="M0 287.642v320.717c0 29.594 25.805 44.442 54.579 44.442h457.421v276.378c0 29.594 25.293 39.629 48.947 22.426l649.523-472.474c23.45-17.203 24.883-44.954 1.536-62.157l-651.981-472.576c-23.45-17.203-48.026-7.168-48.026 22.426v276.378h-457.421c-28.774 0-54.579 14.848-54.579 44.442z" horiz-adv-x="1229" />
<glyph unicode="&#xe684;" d="M1184 576h-96v96c0 17.664-14.336 32-32 32h-64c-17.664 0-32-14.336-32-32v-96h-96c-17.664 0-32-14.336-32-32v-64c0-17.664 14.336-32 32-32h96v-96c0-17.664 14.336-32 32-32h64c17.664 0 32 14.336 32 32v96h96c17.664 0 32 14.336 32 32v64c0 17.664-14.336 32-32 32zM695.488 437.12c46.4 56.384 72.512 127.488 72.512 202.88 0 176.448-143.552 320-320 320s-320-143.552-320-320c0-75.392 26.112-146.496 72.512-202.88-122.88-81.728-200.512-221.76-200.512-373.12v-64c0-35.392 28.672-64 64-64h768c35.328 0 64 28.608 64 64v64c0 151.36-77.632 291.392-200.512 373.12zM128 64c0 132.352 83.136 252.544 206.848 299.136 22.72 8.512 38.656 29.248 41.152 53.44 2.432 24.192-9.024 47.68-29.568 60.608-56.64 35.648-90.432 96.448-90.432 162.816 0 105.856 86.144 192 192 192s192-86.144 192-192c0-66.368-33.792-127.168-90.432-162.816-20.544-12.928-32-36.416-29.568-60.608 2.496-24.192 18.432-44.928 41.152-53.44 123.712-46.592 206.848-166.784 206.848-299.136h-640z" horiz-adv-x="1216" />
<glyph unicode="&#xe685;" d="M320 416v-64c0-17.664 14.336-32 32-32h96v-96c0-17.664 14.336-32 32-32h64c17.664 0 32 14.336 32 32v96h96c17.664 0 32 14.336 32 32v64c0 17.664-14.336 32-32 32h-96v96c0 17.664-14.336 32-32 32h-64c-17.664 0-32-14.336-32-32v-96h-96c-17.664 0-32-14.336-32-32zM960 832h-512v64c0 35.2-28.8 64-64 64h-320c-35.2 0-64-28.8-64-64v-896c0-35.2 28.8-64 64-64h896c35.2 0 64 28.8 64 64v768c0 35.2-28.8 64-64 64zM896 64h-768v768h192v-96c0-17.664 14.336-32 32-32h544v-640z" />
<glyph unicode="&#xe686;" d="M614.461-64c-31.952 0-62.47 14.952-81.928 40.964l-220.387 293.917-124.531-186.899c-31.44-47.006-95.037-59.603-142.043-28.368-47.006 31.44-59.808 94.934-28.368 142.043l204.82 307.231c18.434 27.753 49.157 44.651 82.44 45.573 33.488-0.512 64.723-14.337 84.693-40.964l207.79-277.020 233.086 466.274c15.874 31.747 47.006 53.049 82.44 56.223 35.639 3.482 69.844-12.187 91.145-40.657l207.79-277.020 233.086 466.274c25.295 50.488 86.741 70.868 137.435 45.777 50.591-25.295 71.073-86.844 45.777-137.435l-307.231-614.461c-15.874-31.747-47.006-53.049-82.44-56.223-35.639-3.072-69.844 12.084-91.145 40.554l-207.688 277.020-233.086-466.171c-15.976-31.747-47.006-53.049-82.44-56.223-3.072-0.307-6.247-0.41-9.217-0.41z" horiz-adv-x="1639" />
<glyph unicode="&#xe687;" d="M960 960h-896c-35.392 0-64-28.608-64-64v-896c0-35.392 28.608-64 64-64h896c35.392 0 64 28.608 64 64v896c0 35.392-28.608 64-64 64zM896 832v-320h-162.24l-93.76-140.608-238.272 357.376c-9.792 14.72-25.664 14.72-35.52 0l-144.448-216.768h-93.76v320h768zM128 64v320h162.24l93.76 140.608 238.272-357.376c9.792-14.72 25.664-14.72 35.52 0l144.448 216.768h93.76v-320h-768z" />
</font>
</defs>
</svg>
