<?xml version="1.0" standalone="no"?>
<!DOCTYPE svg PUBLIC "-//W3C//DTD SVG 1.1//EN" "http://www.w3.org/Graphics/SVG/1.1/DTD/svg11.dtd" >
<svg xmlns="http://www.w3.org/2000/svg" xmlns:xlink="http://www.w3.org/1999/xlink" version="1.1">
<metadata>
Created by FontForge 20141024 at Thu May 14 10:38:36 2015
 By System Administrator
Copyright \(c\) 2014 by Ryoichi Tsunekawa. All rights reserved.
</metadata>
<defs>
<font id="Kiro-Regular" horiz-adv-x="330" >
  <font-face 
    font-family="Kiro"
    font-weight="400"
    font-stretch="normal"
    units-per-em="1000"
    panose-1="2 15 6 6 2 2 3 4 2 4"
    ascent="770"
    descent="-230"
    x-height="495"
    cap-height="664"
    bbox="-164.408 -203.35 1038 912"
    underline-thickness="45"
    underline-position="-36"
    stemh="72"
    stemv="83"
    unicode-range="U+0020-FB04"
  />
<missing-glyph horiz-adv-x="600" 
d="M531 0h-462v664h462v-664zM456 623h-312l156 -248zM273 332l-159 253v-506zM327 332l159 -253v506zM456 41l-156 248l-156 -248h312z" />
    <glyph glyph-name="ff" unicode="ff" horiz-adv-x="612" 
d="M631 692c11 -6 13 -15 8 -26l-14 -31c-5 -11 -14 -14 -25 -8c-18 9 -39 13 -61 13c-55 0 -85 -35 -85 -102v-43h136c12 0 19 -7 19 -19v-34c0 -12 -7 -19 -19 -19h-136v-404c0 -12 -7 -19 -19 -19h-45c-12 0 -19 7 -19 19v404h-199v-404c0 -12 -7 -19 -19 -19h-45
c-12 0 -19 7 -19 19v404h-52c-12 0 -19 7 -19 19v34c0 12 7 19 19 19h52v29c0 112 65 178 177 178c56 0 106 -17 140 -42c28 34 70 52 126 52c37 0 70 -6 99 -20zM371 495v44c0 18 2 36 5 51c-22 20 -59 40 -105 40c-60 0 -99 -40 -99 -107v-28h199z" />
    <glyph glyph-name="fi" unicode="fi" horiz-adv-x="518" 
d="M172 495h261c12 0 19 -7 19 -19v-457c0 -12 -7 -19 -19 -19h-45c-12 0 -19 7 -19 19v404h-197v-404c0 -12 -7 -19 -19 -19h-45c-12 0 -19 7 -19 19v404h-52c-12 0 -19 7 -19 19v34c0 12 7 19 19 19h52v44c0 110 61 173 174 173c51 0 92 -12 128 -35c10 -6 12 -15 6 -26
l-17 -30c-6 -11 -16 -12 -27 -5c-23 15 -48 24 -85 24c-63 0 -96 -37 -96 -102v-43z" />
    <glyph glyph-name="fl" unicode="fl" horiz-adv-x="528" 
d="M398 700h45c12 0 19 -7 19 -19v-662c0 -12 -7 -19 -19 -19h-45c-12 0 -19 7 -19 19v581c-24 23 -63 40 -108 40c-60 0 -99 -40 -99 -107v-38h121c12 0 19 -7 19 -19v-34c0 -12 -7 -19 -19 -19h-121v-404c0 -12 -7 -19 -19 -19h-45c-12 0 -19 7 -19 19v404h-52
c-12 0 -19 7 -19 19v34c0 12 7 19 19 19h52v39c0 112 65 178 177 178c41 0 82 -10 114 -26c1 9 8 14 18 14z" />
    <glyph glyph-name="ffi" unicode="ffi" horiz-adv-x="800" 
d="M454 495h261c12 0 19 -7 19 -19v-457c0 -12 -7 -19 -19 -19h-45c-12 0 -19 7 -19 19v404h-197v-404c0 -12 -7 -19 -19 -19h-45c-12 0 -19 7 -19 19v404h-199v-404c0 -12 -7 -19 -19 -19h-45c-12 0 -19 7 -19 19v404h-52c-12 0 -19 7 -19 19v34c0 12 7 19 19 19h52v29
c0 112 65 178 177 178c57 0 108 -17 142 -43c30 34 76 53 137 53c51 0 92 -12 128 -35c10 -6 12 -15 6 -26l-17 -30c-6 -11 -16 -12 -27 -5c-23 15 -48 24 -85 24c-63 0 -96 -37 -96 -102v-43zM371 495v44c0 18 2 35 5 51c-22 20 -58 40 -105 40c-60 0 -99 -40 -99 -107v-28
h199z" />
    <glyph glyph-name="ffl" unicode="ffl" horiz-adv-x="810" 
d="M680 700h45c12 0 19 -7 19 -19v-662c0 -12 -7 -19 -19 -19h-45c-12 0 -19 7 -19 19v581c-24 23 -63 40 -108 40c-60 0 -99 -40 -99 -107v-38h121c12 0 19 -7 19 -19v-34c0 -12 -7 -19 -19 -19h-121v-404c0 -12 -7 -19 -19 -19h-45c-12 0 -19 7 -19 19v404h-199v-404
c0 -12 -7 -19 -19 -19h-45c-12 0 -19 7 -19 19v404h-52c-12 0 -19 7 -19 19v34c0 12 7 19 19 19h52v29c0 112 65 178 177 178c58 0 109 -18 144 -44c29 35 78 54 138 54c41 0 82 -10 114 -26c1 9 8 14 18 14zM371 495v39c0 20 2 38 6 55c-22 21 -59 41 -106 41
c-60 0 -99 -40 -99 -107v-28h199z" />
    <glyph glyph-name="f_b" unicode="fb" horiz-adv-x="805" 
d="M398 700h45c12 0 19 -7 19 -19v-224h2c25 33 64 50 117 50c114 0 175 -66 175 -189v-141c0 -123 -66 -189 -188 -189c-123 0 -189 66 -189 189v423c-24 23 -63 40 -108 40c-60 0 -99 -40 -99 -107v-38h121c12 0 19 -7 19 -19v-34c0 -12 -7 -19 -19 -19h-121v-404
c0 -12 -7 -19 -19 -19h-45c-12 0 -19 7 -19 19v404h-52c-12 0 -19 7 -19 19v34c0 12 7 19 19 19h52v39c0 112 65 178 177 178c41 0 82 -10 114 -26c1 9 8 14 18 14zM673 185v124c0 86 -33 126 -105 126c-71 0 -106 -42 -106 -126v-124c0 -85 33 -125 106 -125
c72 0 105 40 105 125z" />
    <glyph glyph-name="f_f_b" unicode="ffb" horiz-adv-x="1087" 
d="M662 686c1 9 8 14 18 14h45c12 0 19 -7 19 -19v-224h2c25 33 64 50 117 50c114 0 175 -66 175 -189v-141c0 -123 -66 -189 -188 -189c-123 0 -189 66 -189 189v423c-24 23 -63 40 -108 40c-60 0 -99 -40 -99 -107v-38h121c12 0 19 -7 19 -19v-34c0 -12 -7 -19 -19 -19
h-121v-404c0 -12 -7 -19 -19 -19h-45c-12 0 -19 7 -19 19v404h-199v-404c0 -12 -7 -19 -19 -19h-45c-12 0 -19 7 -19 19v404h-52c-12 0 -19 7 -19 19v34c0 12 7 19 19 19h52v29c0 112 65 178 177 178c58 0 109 -18 144 -44c29 35 78 54 138 54c41 0 82 -10 114 -26zM371 495
v39c0 20 2 38 6 55c-22 21 -59 41 -106 41c-60 0 -99 -40 -99 -107v-28h199zM955 185v124c0 86 -33 126 -105 126c-71 0 -106 -42 -106 -126v-124c0 -85 33 -125 106 -125c72 0 105 40 105 125z" />
    <glyph glyph-name="f_h" unicode="fh" horiz-adv-x="811" 
d="M379 600c-24 23 -63 40 -108 40c-60 0 -99 -40 -99 -107v-38h121c12 0 19 -7 19 -19v-34c0 -12 -7 -19 -19 -19h-121v-404c0 -12 -7 -19 -19 -19h-45c-12 0 -19 7 -19 19v404h-52c-12 0 -19 7 -19 19v34c0 12 7 19 19 19h52v39c0 112 65 178 177 178c41 0 82 -10 114 -26
c1 9 8 14 18 14h45c12 0 19 -7 19 -19v-223h2c25 33 65 49 116 49c110 0 169 -65 169 -185v-303c0 -12 -7 -19 -19 -19h-45c-12 0 -19 7 -19 19v294c0 84 -32 122 -102 122c-68 0 -102 -40 -102 -122v-294c0 -12 -7 -19 -19 -19h-45c-12 0 -19 7 -19 19v581z" />
    <glyph glyph-name="f_f_h" unicode="ffh" horiz-adv-x="1093" 
d="M662 686c1 9 8 14 18 14h45c12 0 19 -7 19 -19v-223h2c25 33 65 49 116 49c110 0 169 -65 169 -185v-303c0 -12 -7 -19 -19 -19h-45c-12 0 -19 7 -19 19v294c0 84 -32 122 -102 122c-68 0 -102 -40 -102 -122v-294c0 -12 -7 -19 -19 -19h-45c-12 0 -19 7 -19 19v581
c-24 23 -63 40 -108 40c-60 0 -99 -40 -99 -107v-38h121c12 0 19 -7 19 -19v-34c0 -12 -7 -19 -19 -19h-121v-404c0 -12 -7 -19 -19 -19h-45c-12 0 -19 7 -19 19v404h-199v-404c0 -12 -7 -19 -19 -19h-45c-12 0 -19 7 -19 19v404h-52c-12 0 -19 7 -19 19v34c0 12 7 19 19 19
h52v29c0 112 65 178 177 178c58 0 109 -18 144 -44c29 35 78 54 138 54c41 0 82 -10 114 -26zM371 495v39c0 20 2 38 6 55c-22 21 -59 41 -106 41c-60 0 -99 -40 -99 -107v-28h199z" />
    <glyph glyph-name="f_j" unicode="fj" horiz-adv-x="518" 
d="M172 495h261c12 0 19 -7 19 -19v-489c0 -97 -48 -147 -139 -147h-13c-12 0 -19 7 -19 19v34c0 12 7 19 19 19c48 0 69 23 69 75v436h-197v-404c0 -12 -7 -19 -19 -19h-45c-12 0 -19 7 -19 19v404h-52c-12 0 -19 7 -19 19v34c0 12 7 19 19 19h52v44c0 110 61 173 174 173
c51 0 92 -12 129 -35c10 -6 11 -15 5 -26l-17 -30c-6 -11 -16 -12 -27 -5c-23 15 -48 24 -85 24c-63 0 -96 -37 -96 -102v-43z" />
    <glyph glyph-name="f_f_j" unicode="ffj" horiz-adv-x="800" 
d="M371 495v44c0 18 2 35 5 51c-22 20 -58 40 -105 40c-60 0 -99 -40 -99 -107v-28h199zM734 476v-489c0 -97 -48 -147 -139 -147h-13c-12 0 -19 7 -19 19v34c0 12 7 19 19 19c48 0 69 23 69 75v436h-197v-404c0 -12 -7 -19 -19 -19h-45c-12 0 -19 7 -19 19v404h-199v-404
c0 -12 -7 -19 -19 -19h-45c-12 0 -19 7 -19 19v404h-52c-12 0 -19 7 -19 19v34c0 12 7 19 19 19h52v29c0 112 65 178 177 178c57 0 108 -17 142 -43c30 34 76 53 137 53c51 0 92 -12 129 -35c10 -6 11 -15 5 -26l-17 -30c-6 -11 -16 -12 -27 -5c-23 15 -48 24 -85 24
c-63 0 -96 -37 -96 -102v-43h261c12 0 19 -7 19 -19z" />
    <glyph glyph-name="f_k" unicode="fk" horiz-adv-x="762" 
d="M398 700h45c12 0 19 -7 19 -19v-409l178 212c6 8 13 11 23 11h54c17 0 22 -11 11 -23l-187 -219l198 -230c11 -12 6 -23 -11 -23h-59c-10 0 -17 3 -23 11l-184 220v-212c0 -12 -7 -19 -19 -19h-45c-12 0 -19 7 -19 19v581c-24 23 -63 40 -108 40c-60 0 -99 -40 -99 -107
v-38h121c12 0 19 -7 19 -19v-34c0 -12 -7 -19 -19 -19h-121v-404c0 -12 -7 -19 -19 -19h-45c-12 0 -19 7 -19 19v404h-52c-12 0 -19 7 -19 19v34c0 12 7 19 19 19h52v39c0 112 65 178 177 178c41 0 82 -10 114 -26c1 9 8 14 18 14z" />
    <glyph glyph-name="f_f_k" unicode="ffk" horiz-adv-x="1044" 
d="M662 686c1 9 8 14 18 14h45c12 0 19 -7 19 -19v-409l178 212c6 8 13 11 23 11h54c17 0 22 -11 11 -23l-187 -219l198 -230c11 -12 6 -23 -11 -23h-59c-10 0 -17 3 -23 11l-184 220v-212c0 -12 -7 -19 -19 -19h-45c-12 0 -19 7 -19 19v581c-24 23 -63 40 -108 40
c-60 0 -99 -40 -99 -107v-38h121c12 0 19 -7 19 -19v-34c0 -12 -7 -19 -19 -19h-121v-404c0 -12 -7 -19 -19 -19h-45c-12 0 -19 7 -19 19v404h-199v-404c0 -12 -7 -19 -19 -19h-45c-12 0 -19 7 -19 19v404h-52c-12 0 -19 7 -19 19v34c0 12 7 19 19 19h52v29
c0 112 65 178 177 178c58 0 109 -18 144 -44c29 35 78 54 138 54c41 0 82 -10 114 -26zM371 495v39c0 20 2 38 6 55c-22 21 -59 41 -106 41c-60 0 -99 -40 -99 -107v-28h199z" />
    <glyph glyph-name="f_t" unicode="ft" horiz-adv-x="636" 
d="M609 64l12 -32c4 -11 1 -20 -9 -25c-22 -12 -51 -19 -88 -19c-102 0 -154 54 -154 158v277h-198v-404c0 -12 -7 -19 -19 -19h-45c-12 0 -19 7 -19 19v404h-52c-12 0 -19 7 -19 19v34c0 12 7 19 19 19h52v44c0 110 61 173 167 173c47 0 85 -10 116 -28c10 -6 12 -15 6 -26
l-15 -30c-6 -11 -15 -13 -27 -6c-19 11 -42 18 -73 18c-58 0 -91 -37 -91 -102v-43h198v73c0 12 7 19 19 19h45c12 0 19 -7 19 -19v-73h137c12 0 19 -7 19 -19v-34c0 -12 -7 -19 -19 -19h-137v-275c0 -58 28 -88 80 -88c19 0 35 4 50 12c13 7 22 4 26 -8z" />
    <glyph glyph-name="f_f_t" unicode="fft" horiz-adv-x="918" 
d="M891 64l12 -32c4 -11 1 -20 -9 -25c-22 -12 -51 -19 -88 -19c-102 0 -154 54 -154 158v277h-198v-404c0 -12 -7 -19 -19 -19h-45c-12 0 -19 7 -19 19v404h-199v-404c0 -12 -7 -19 -19 -19h-45c-12 0 -19 7 -19 19v404h-52c-12 0 -19 7 -19 19v34c0 12 7 19 19 19h52v29
c0 112 65 178 177 178c57 0 107 -17 142 -43c28 35 73 53 130 53c47 0 85 -10 116 -28c10 -6 12 -15 6 -26l-15 -30c-6 -11 -15 -13 -27 -6c-19 11 -42 18 -73 18c-58 0 -91 -37 -91 -102v-43h198v73c0 12 7 19 19 19h45c12 0 19 -7 19 -19v-73h137c12 0 19 -7 19 -19v-34
c0 -12 -7 -19 -19 -19h-137v-275c0 -58 28 -88 80 -88c19 0 35 4 50 12c13 7 22 4 26 -8zM371 495v44c0 18 2 35 5 51c-22 20 -58 40 -105 40c-60 0 -99 -40 -99 -107v-28h199z" />
    <glyph glyph-name=".notdef" horiz-adv-x="600" 
d="M531 0h-462v664h462v-664zM456 623h-312l156 -248zM273 332l-159 253v-506zM327 332l159 -253v506zM456 41l-156 248l-156 -248h312z" />
    <glyph glyph-name="space" unicode=" " horiz-adv-x="215" 
 />
    <glyph glyph-name="exclam" unicode="!" horiz-adv-x="235" 
d="M159 376l-17 -181c-1 -8 -6 -13 -14 -13h-21c-8 0 -13 5 -14 13l-17 181v269c0 12 7 19 19 19h45c12 0 19 -7 19 -19v-269zM117 -12c-31 0 -55 23 -55 55s24 56 55 56c32 0 56 -24 56 -56s-24 -55 -56 -55z" />
    <glyph glyph-name="quotedbl" unicode="&#x22;" horiz-adv-x="377" 
d="M146 644l-11 -194c-1 -11 -6 -16 -17 -16h-26c-11 0 -16 5 -17 16l-11 194c-1 13 6 20 19 20h44c13 0 20 -7 19 -20zM313 644l-11 -194c-1 -11 -6 -16 -17 -16h-26c-11 0 -16 5 -17 16l-11 194c-1 13 6 20 19 20h44c13 0 20 -7 19 -20z" />
    <glyph glyph-name="numbersign" unicode="#" horiz-adv-x="529" 
d="M379 252h76c12 0 18 -7 16 -18l-6 -33c-2 -10 -8 -15 -19 -15h-79l-29 -171c-2 -10 -8 -15 -19 -15h-34c-12 0 -18 7 -16 18l30 168h-117l-29 -171c-2 -10 -8 -15 -19 -15h-34c-12 0 -18 7 -16 18l30 168h-76c-12 0 -18 7 -16 18l6 33c2 10 8 15 19 15h78l25 140h-76
c-12 0 -18 7 -16 18l6 33c2 10 8 15 19 15h79l26 151c2 10 8 15 19 15h33c12 0 18 -7 16 -18l-26 -148h117l26 151c2 10 8 15 19 15h33c12 0 18 -7 16 -18l-26 -148h76c12 0 18 -7 16 -18l-6 -33c-2 -10 -8 -15 -19 -15h-79zM218 392l-24 -140h116l25 140h-117z" />
    <glyph glyph-name="dollar" unicode="$" horiz-adv-x="529" 
d="M480 183c0 -97 -72 -166 -182 -174v-64c0 -10 -5 -15 -15 -15h-27c-10 0 -15 5 -15 15v64c-82 6 -142 35 -187 90c-8 9 -7 18 2 26l30 28c9 9 18 8 26 -2c33 -39 75 -60 129 -65v188c-133 15 -184 66 -184 167c0 97 74 167 184 174v58c0 10 5 15 15 15h27
c10 0 15 -5 15 -15v-59c68 -6 120 -31 157 -76c8 -9 6 -18 -3 -26l-29 -27c-10 -8 -19 -7 -27 3c-24 27 -57 44 -98 50v-190c132 -15 182 -65 182 -165zM143 443c0 -49 28 -75 98 -87v183c-61 -8 -98 -45 -98 -96zM298 266v-180c61 8 97 44 97 95c0 48 -28 73 -97 85z" />
    <glyph glyph-name="percent" unicode="%" horiz-adv-x="633" 
d="M31 434v79c0 79 43 123 121 123s121 -44 121 -123v-79c0 -80 -43 -124 -121 -124s-121 44 -121 124zM86 18l394 596c4 7 10 10 18 10h39c13 0 17 -8 10 -18l-394 -596c-4 -7 -10 -10 -18 -10h-39c-13 0 -17 8 -10 18zM93 511v-75c0 -49 18 -69 59 -69s59 20 59 69v75
c0 48 -18 68 -59 68s-59 -20 -59 -68zM360 112v79c0 79 43 123 121 123s121 -44 121 -123v-79c0 -80 -43 -124 -121 -124s-121 44 -121 124zM422 189v-75c0 -49 18 -69 59 -69s59 20 59 69v75c0 48 -18 68 -59 68s-59 -20 -59 -68z" />
    <glyph glyph-name="ampersand" unicode="&#x26;" horiz-adv-x="591" 
d="M479 10l-46 50c-48 -48 -108 -72 -184 -72c-135 0 -215 75 -215 191c0 81 37 145 113 199c-34 46 -50 89 -50 131c0 106 67 167 176 167c51 0 103 -15 139 -42c10 -8 11 -17 4 -27l-22 -32c-7 -10 -16 -11 -26 -3c-25 18 -54 29 -87 29c-62 0 -99 -34 -99 -93
c0 -38 18 -72 58 -116l186 -207c20 36 37 79 52 130c3 12 11 16 23 13l40 -11c12 -3 16 -12 13 -24c-21 -68 -44 -125 -72 -170l90 -100c11 -12 6 -23 -10 -23h-60c-10 0 -17 3 -23 10zM255 61c46 0 88 19 125 58l-183 201c-53 -39 -77 -83 -77 -137c0 -72 49 -122 135 -122
z" />
    <glyph glyph-name="quotesingle" unicode="'" horiz-adv-x="210" 
d="M146 644l-11 -194c-1 -11 -6 -16 -17 -16h-26c-11 0 -16 5 -17 16l-11 194c-1 13 6 20 19 20h44c13 0 20 -7 19 -20z" />
    <glyph glyph-name="parenleft" unicode="(" horiz-adv-x="329" 
d="M222 664h41c14 0 18 -9 10 -21c-74 -107 -110 -234 -110 -356s36 -249 110 -356c8 -12 4 -21 -10 -21h-41c-9 0 -15 3 -21 10c-82 106 -123 237 -123 367s41 261 123 367c6 7 12 10 21 10z" />
    <glyph glyph-name="parenright" unicode=")" horiz-adv-x="329" 
d="M107 -90h-41c-14 0 -18 9 -10 21c74 107 110 234 110 356s-36 249 -110 356c-8 12 -4 21 10 21h41c9 0 15 -3 21 -10c82 -106 123 -237 123 -367s-41 -261 -123 -367c-6 -7 -12 -10 -21 -10z" />
    <glyph glyph-name="asterisk" unicode="*" horiz-adv-x="479" 
d="M274 473l110 -126c7 -9 6 -18 -4 -25l-30 -21c-10 -7 -18 -5 -25 5l-85 142l-86 -142c-7 -10 -15 -12 -25 -5l-30 21c-10 7 -11 16 -3 25l109 126l-163 39c-11 2 -16 10 -12 22l11 36c4 11 12 15 23 11l153 -65l-13 165c-1 12 5 19 17 19h37c12 0 18 -7 17 -19l-13 -165
l153 65c11 4 19 1 23 -11l11 -36c4 -12 -1 -20 -12 -22z" />
    <glyph glyph-name="plus" unicode="+" horiz-adv-x="529" 
d="M303 240v-185c0 -12 -7 -19 -19 -19h-39c-12 0 -19 7 -19 19v185h-186c-12 0 -19 7 -19 19v39c0 12 7 19 19 19h186v186c0 12 7 19 19 19h39c12 0 19 -7 19 -19v-186h185c12 0 19 -7 19 -19v-39c0 -12 -7 -19 -19 -19h-185z" />
    <glyph glyph-name="comma" unicode="," horiz-adv-x="233" 
d="M116 99c32 0 56 -24 56 -63c0 -58 -32 -113 -74 -149c-7 -6 -13 -5 -19 1l-14 14c-6 6 -5 12 1 18c21 21 34 45 37 76c-24 5 -42 23 -42 51c0 32 24 52 55 52z" />
    <glyph glyph-name="hyphen" unicode="-" horiz-adv-x="332" 
d="M283 233h-234c-12 0 -19 7 -19 19v41c0 12 7 19 19 19h234c12 0 19 -7 19 -19v-41c0 -12 -7 -19 -19 -19z" />
    <glyph glyph-name="period" unicode="." horiz-adv-x="233" 
d="M116 -12c-31 0 -55 23 -55 55s24 56 55 56c32 0 56 -24 56 -56s-24 -55 -56 -55z" />
    <glyph glyph-name="slash" unicode="/" horiz-adv-x="356" 
d="M27 20l228 630c3 10 10 14 19 14h41c13 0 18 -8 14 -20l-228 -630c-3 -10 -10 -14 -19 -14h-41c-13 0 -18 8 -14 20z" />
    <glyph glyph-name="zero" unicode="0" horiz-adv-x="529" 
d="M51 204v217c0 140 76 215 213 215c138 0 214 -75 214 -215v-217c0 -140 -76 -216 -214 -216c-137 0 -213 76 -213 216zM137 416v-207c0 -98 42 -145 127 -145c86 0 128 47 128 145v207c0 97 -42 144 -128 144c-85 0 -127 -47 -127 -144z" />
    <glyph glyph-name="one" unicode="1" horiz-adv-x="529" 
d="M383 605v-586c0 -12 -7 -19 -19 -19h-48c-12 0 -19 7 -19 19v495l-132 -97c-11 -7 -20 -5 -27 5l-21 31c-7 10 -6 19 4 26l184 137c8 6 15 8 24 8h35c12 0 19 -7 19 -19z" />
    <glyph glyph-name="two" unicode="2" horiz-adv-x="529" 
d="M183 76h272c12 0 19 -7 19 -19v-38c0 -12 -7 -19 -19 -19h-370c-12 0 -19 7 -19 19v39c0 10 3 17 10 24l242 240c53 53 71 85 71 133c0 66 -45 105 -121 105c-59 0 -105 -29 -137 -77c-7 -11 -16 -13 -26 -5l-31 23c-9 7 -11 16 -5 26c45 71 116 109 201 109
c126 0 205 -69 205 -181c0 -71 -27 -122 -93 -185l-199 -192v-2z" />
    <glyph glyph-name="three" unicode="3" horiz-adv-x="529" 
d="M384 326v-2c68 -23 106 -77 106 -153c0 -115 -82 -183 -219 -183c-93 0 -162 28 -212 87c-8 9 -7 18 2 27l28 28c9 9 18 8 27 -2c37 -43 86 -64 151 -64c86 0 137 41 137 113c0 74 -50 108 -154 108h-40c-12 0 -19 7 -19 19v38c0 12 7 19 19 19h35c98 0 143 31 143 97
c0 65 -46 102 -126 102c-59 0 -105 -22 -141 -64c-8 -10 -17 -11 -26 -2l-28 28c-9 9 -9 18 -1 27c50 58 118 87 200 87c130 0 208 -64 208 -172c0 -66 -32 -114 -90 -138z" />
    <glyph glyph-name="four" unicode="4" horiz-adv-x="529" 
d="M431 217h57c12 0 19 -7 19 -19v-38c0 -12 -7 -19 -19 -19h-57v-122c0 -12 -7 -19 -19 -19h-48c-12 0 -19 7 -19 19v122h-290c-12 0 -19 7 -19 19v47c0 9 2 16 8 23l291 383c6 8 13 11 23 11h54c12 0 19 -7 19 -19v-388zM345 499h-2l-212 -282h214v282z" />
    <glyph glyph-name="five" unicode="5" horiz-adv-x="529" 
d="M285 401c123 0 203 -82 203 -205c0 -128 -84 -208 -217 -208c-93 0 -163 28 -212 87c-8 9 -7 18 1 27l28 28c9 10 18 9 27 -1c37 -44 86 -65 151 -65c84 0 136 50 136 132c0 79 -52 129 -136 129c-49 0 -90 -14 -121 -41c-7 -7 -14 -9 -24 -8l-31 4c-12 2 -18 9 -17 21
l20 305c1 12 7 18 19 18h322c12 0 19 -7 19 -19v-38c0 -12 -7 -19 -19 -19h-265l-12 -184h2c32 24 76 37 126 37z" />
    <glyph glyph-name="six" unicode="6" horiz-adv-x="529" 
d="M291 404c121 0 196 -81 196 -206c0 -128 -83 -210 -213 -210c-132 0 -213 80 -213 208v226c0 134 80 214 213 214c74 0 134 -21 177 -62c9 -8 9 -18 1 -27l-27 -31c-8 -10 -17 -9 -27 0c-30 28 -69 44 -116 44c-87 0 -135 -50 -135 -143v-71h2c31 37 80 58 142 58z
M274 64c79 0 127 50 127 132s-48 132 -127 132c-77 0 -127 -51 -127 -132c0 -82 49 -132 127 -132z" />
    <glyph glyph-name="seven" unicode="7" horiz-adv-x="529" 
d="M499 605v-49c0 -9 -2 -15 -6 -23l-258 -519c-5 -10 -12 -14 -22 -14h-55c-15 0 -20 9 -14 23l266 525h-278v-90c0 -12 -7 -19 -19 -19h-42c-12 0 -19 7 -19 19v147c0 12 7 19 19 19h409c12 0 19 -7 19 -19z" />
    <glyph glyph-name="eight" unicode="8" horiz-adv-x="529" 
d="M385 326v-2c68 -27 105 -80 105 -153c0 -116 -83 -183 -226 -183c-142 0 -225 67 -225 183c0 73 37 126 104 153v2c-56 26 -88 74 -88 138c0 108 78 172 209 172c132 0 210 -64 210 -172c0 -64 -32 -112 -89 -138zM141 459c0 -62 45 -97 123 -97c79 0 124 35 124 97
c0 65 -44 101 -124 101c-79 0 -123 -36 -123 -101zM264 64c90 0 140 40 140 112c0 70 -51 110 -140 110c-88 0 -139 -40 -139 -110c0 -72 50 -112 139 -112z" />
    <glyph glyph-name="nine" unicode="9" horiz-adv-x="529" 
d="M255 636c132 0 213 -80 213 -208v-226c0 -134 -80 -214 -213 -214c-74 0 -134 21 -177 62c-9 8 -9 18 -1 27l27 31c8 10 17 9 27 0c30 -28 69 -44 116 -44c87 0 135 50 135 143v71h-2c-31 -37 -80 -58 -142 -58c-121 0 -196 81 -196 206c0 128 83 210 213 210zM255 296
c77 0 127 51 127 132c0 82 -49 132 -127 132s-127 -50 -127 -132s49 -132 127 -132z" />
    <glyph glyph-name="colon" unicode=":" horiz-adv-x="233" 
d="M116 -12c-31 0 -55 23 -55 55s24 56 55 56c32 0 56 -24 56 -56s-24 -55 -56 -55zM116 363c-31 0 -55 23 -55 55s24 56 55 56c32 0 56 -24 56 -56s-24 -55 -56 -55z" />
    <glyph glyph-name="semicolon" unicode=";" horiz-adv-x="233" 
d="M116 99c32 0 56 -24 56 -63c0 -58 -32 -113 -74 -149c-7 -6 -13 -5 -19 1l-14 14c-6 6 -5 12 1 18c21 21 34 45 37 76c-24 5 -42 23 -42 51c0 32 24 52 55 52zM116 363c-31 0 -55 23 -55 55s24 56 55 56c32 0 56 -24 56 -56s-24 -55 -56 -55z" />
    <glyph glyph-name="less" unicode="&#x3c;" horiz-adv-x="529" 
d="M139 278l336 -149c9 -4 14 -11 14 -22v-42c0 -14 -9 -20 -22 -14l-414 187c-10 4 -14 11 -14 22v38c0 11 4 18 14 22l414 187c13 6 22 0 22 -14v-42c0 -11 -5 -18 -14 -22l-336 -149v-2z" />
    <glyph glyph-name="equal" unicode="=" horiz-adv-x="529" 
d="M473 353h-417c-12 0 -19 7 -19 19v39c0 12 7 19 19 19h417c12 0 19 -7 19 -19v-39c0 -12 -7 -19 -19 -19zM473 128h-417c-12 0 -19 7 -19 19v39c0 12 7 19 19 19h417c12 0 19 -7 19 -19v-39c0 -12 -7 -19 -19 -19z" />
    <glyph glyph-name="greater" unicode="&#x3e;" horiz-adv-x="529" 
d="M389 280l-336 149c-9 4 -14 11 -14 22v42c0 14 9 20 22 14l414 -187c10 -4 14 -11 14 -22v-38c0 -11 -4 -18 -14 -22l-414 -187c-13 -6 -22 0 -22 14v42c0 11 5 18 14 22l336 149v2z" />
    <glyph glyph-name="question" unicode="?" horiz-adv-x="454" 
d="M227 676c125 0 204 -69 204 -178c0 -76 -26 -124 -108 -172c-63 -37 -84 -67 -84 -114v-11c0 -12 -7 -19 -19 -19h-40c-12 0 -19 7 -19 19v17c0 69 26 112 100 158c66 41 84 72 84 122c0 64 -45 102 -119 102c-57 0 -105 -27 -137 -77c-7 -11 -16 -13 -26 -5l-31 23
c-10 7 -12 16 -5 27c44 70 115 108 200 108zM201 -12c-31 0 -55 23 -55 55s24 56 55 56c32 0 56 -24 56 -56s-24 -55 -56 -55z" />
    <glyph glyph-name="at" unicode="@" horiz-adv-x="731" 
d="M388 620c-182 0 -281 -126 -281 -339c0 -189 101 -302 277 -302c69 0 126 18 169 47c10 7 17 5 22 -5l12 -23c5 -9 1 -16 -7 -21c-53 -35 -121 -53 -198 -53c-213 0 -339 134 -339 356c0 246 127 396 347 396c201 0 298 -147 298 -337c0 -151 -46 -234 -136 -234
c-45 0 -75 20 -89 55h-2c-22 -36 -63 -55 -111 -55c-80 0 -127 44 -127 117c0 71 48 115 135 115h79v3c0 68 -26 98 -84 98c-29 0 -53 -10 -74 -28c-9 -7 -17 -6 -23 3l-13 19c-6 8 -5 16 2 22c33 27 70 40 112 40c94 0 144 -50 144 -146v-117c0 -43 17 -70 52 -70
c44 0 71 44 71 168c0 162 -68 291 -236 291zM437 282h-72c-49 0 -78 -20 -78 -61c0 -40 24 -60 71 -60c46 0 79 28 79 92v29z" />
    <glyph glyph-name="A" unicode="A" horiz-adv-x="587" 
d="M347 647l212 -625c5 -14 -2 -22 -16 -22h-56c-11 0 -18 5 -21 16l-39 121h-270l-39 -121c-3 -11 -10 -16 -21 -16h-53c-14 0 -21 8 -16 22l212 626c4 11 11 16 23 16h61c12 0 19 -5 23 -17zM293 556h-2l-108 -340h219z" />
    <glyph glyph-name="B" unicode="B" horiz-adv-x="564" 
d="M411 341v-2c79 -23 114 -75 114 -163c0 -121 -69 -176 -226 -176h-201c-12 0 -19 7 -19 19v626c0 12 7 19 19 19h183c157 0 226 -53 226 -172c0 -78 -30 -127 -96 -151zM169 376h112c95 0 137 32 137 105c0 72 -42 104 -137 104h-112v-209zM169 79h129
c95 0 137 34 137 109c0 76 -42 109 -137 109h-129v-218z" />
    <glyph glyph-name="C" unicode="C" horiz-adv-x="527" 
d="M289 67c65 0 110 27 138 77c6 12 15 15 26 8l37 -21c10 -6 14 -15 8 -26c-42 -78 -112 -117 -209 -117c-151 0 -233 84 -233 240v208c0 156 82 240 233 240c98 0 168 -39 209 -117c6 -11 3 -20 -8 -26l-37 -21c-11 -7 -20 -4 -26 7c-28 51 -73 78 -138 78
c-96 0 -143 -57 -143 -172v-186c0 -115 47 -172 143 -172z" />
    <glyph glyph-name="D" unicode="D" horiz-adv-x="591" 
d="M98 664h199c158 0 238 -77 238 -228v-207c0 -152 -80 -229 -238 -229h-199c-12 0 -19 7 -19 19v626c0 12 7 19 19 19zM445 240v185c0 109 -49 160 -152 160h-124v-506h124c103 0 152 51 152 161z" />
    <glyph glyph-name="E" unicode="E" horiz-adv-x="538" 
d="M169 375h263c12 0 19 -7 19 -19v-41c0 -12 -7 -19 -19 -19h-263v-217h307c12 0 19 -7 19 -19v-41c0 -12 -7 -19 -19 -19h-378c-12 0 -19 7 -19 19v626c0 12 7 19 19 19h378c12 0 19 -7 19 -19v-41c0 -12 -7 -19 -19 -19h-307v-210z" />
    <glyph glyph-name="F" unicode="F" horiz-adv-x="505" 
d="M169 369h253c12 0 19 -7 19 -19v-41c0 -12 -7 -19 -19 -19h-253v-271c0 -12 -7 -19 -19 -19h-52c-12 0 -19 7 -19 19v626c0 12 7 19 19 19h368c12 0 19 -7 19 -19v-41c0 -12 -7 -19 -19 -19h-297v-216z" />
    <glyph glyph-name="G" unicode="G" horiz-adv-x="569" 
d="M525 338v-107c0 -158 -82 -243 -234 -243s-235 84 -235 240v208c0 156 84 240 238 240c101 0 173 -39 217 -117c5 -11 2 -20 -8 -26l-37 -21c-11 -7 -20 -4 -26 7c-31 51 -77 78 -147 78c-99 0 -147 -56 -147 -172v-186c0 -116 48 -172 146 -172c99 0 147 57 147 175v36
h-125c-12 0 -19 7 -19 19v41c0 12 7 19 19 19h192c12 0 19 -7 19 -19z" />
    <glyph glyph-name="H" unicode="H" horiz-adv-x="623" 
d="M544 645v-626c0 -12 -7 -19 -19 -19h-52c-12 0 -19 7 -19 19v278h-285v-278c0 -12 -7 -19 -19 -19h-52c-12 0 -19 7 -19 19v626c0 12 7 19 19 19h52c12 0 19 -7 19 -19v-269h285v269c0 12 7 19 19 19h52c12 0 19 -7 19 -19z" />
    <glyph glyph-name="I" unicode="I" horiz-adv-x="248" 
d="M169 645v-626c0 -12 -7 -19 -19 -19h-52c-12 0 -19 7 -19 19v626c0 12 7 19 19 19h52c12 0 19 -7 19 -19z" />
    <glyph glyph-name="J" unicode="J" horiz-adv-x="520" 
d="M452 645v-425c0 -151 -77 -232 -219 -232c-92 0 -164 36 -207 107c-6 10 -4 19 5 26l33 25c10 8 20 6 27 -5c32 -48 79 -74 137 -74c90 0 134 53 134 163v415c0 12 7 19 19 19h52c12 0 19 -7 19 -19z" />
    <glyph glyph-name="K" unicode="K" horiz-adv-x="561" 
d="M169 306v-287c0 -12 -7 -19 -19 -19h-52c-12 0 -19 7 -19 19v626c0 12 7 19 19 19h52c12 0 19 -7 19 -19v-282l244 290c6 8 13 11 23 11h66c17 0 22 -11 11 -23l-262 -303l273 -315c11 -12 6 -23 -11 -23h-71c-10 0 -17 3 -23 11z" />
    <glyph glyph-name="L" unicode="L" horiz-adv-x="499" 
d="M480 60v-41c0 -12 -7 -19 -19 -19h-363c-12 0 -19 7 -19 19v626c0 12 7 19 19 19h52c12 0 19 -7 19 -19v-566h292c12 0 19 -7 19 -19z" />
    <glyph glyph-name="M" unicode="M" horiz-adv-x="820" 
d="M623 664h99c12 0 19 -7 19 -19v-626c0 -12 -7 -19 -19 -19h-52c-12 0 -19 7 -19 19v518h-2l-195 -522c-4 -10 -11 -15 -22 -15h-46c-11 0 -18 5 -22 15l-195 522h-2v-518c0 -12 -7 -19 -19 -19h-50c-12 0 -19 7 -19 19v626c0 12 7 19 19 19h101c11 0 18 -5 22 -15
l189 -515h2l189 515c4 10 11 15 22 15z" />
    <glyph glyph-name="N" unicode="N" horiz-adv-x="623" 
d="M544 645v-626c0 -12 -7 -19 -19 -19h-58c-10 0 -17 4 -22 13l-276 499h-2v-493c0 -12 -7 -19 -19 -19h-50c-12 0 -19 7 -19 19v626c0 12 7 19 19 19h65c10 0 17 -4 22 -13l269 -485h2v479c0 12 7 19 19 19h50c12 0 19 -7 19 -19z" />
    <glyph glyph-name="O" unicode="O" horiz-adv-x="588" 
d="M56 228v208c0 156 84 240 238 240s238 -84 238 -240v-208c0 -156 -84 -240 -238 -240s-238 84 -238 240zM146 425v-186c0 -116 48 -172 148 -172s148 56 148 172v186c0 116 -48 172 -148 172s-148 -56 -148 -172z" />
    <glyph glyph-name="P" unicode="P" horiz-adv-x="546" 
d="M98 664h186c161 0 236 -64 236 -203c0 -141 -75 -205 -236 -205h-115v-237c0 -12 -7 -19 -19 -19h-52c-12 0 -19 7 -19 19v626c0 12 7 19 19 19zM169 335h114c101 0 146 39 146 125s-45 125 -146 125h-114v-250z" />
    <glyph glyph-name="Q" unicode="Q" horiz-adv-x="588" 
d="M536 -70l16 -33c6 -11 4 -20 -6 -27c-29 -19 -64 -29 -102 -29c-101 0 -156 51 -162 147c-146 5 -226 88 -226 240v208c0 156 84 240 238 240s238 -84 238 -240v-208c0 -128 -56 -207 -162 -232c3 -53 30 -79 74 -79c24 0 48 7 67 20c10 7 19 5 25 -7zM146 425v-186
c0 -116 48 -172 148 -172s148 56 148 172v186c0 116 -48 172 -148 172s-148 -56 -148 -172z" />
    <glyph glyph-name="R" unicode="R" horiz-adv-x="568" 
d="M280 262h-111v-243c0 -12 -7 -19 -19 -19h-52c-12 0 -19 7 -19 19v626c0 12 7 19 19 19h180c161 0 237 -64 237 -200c0 -106 -47 -170 -144 -193l150 -248c8 -13 3 -23 -13 -23h-62c-10 0 -17 4 -23 13zM169 341h109c101 0 146 37 146 122c0 84 -45 122 -146 122h-109
v-244z" />
    <glyph glyph-name="S" unicode="S" horiz-adv-x="512" 
d="M257 676c90 0 157 -27 203 -81c8 -10 6 -19 -3 -27l-33 -30c-10 -9 -19 -8 -27 2c-31 38 -77 57 -136 57c-78 0 -127 -43 -127 -112c0 -61 34 -92 149 -112c149 -26 203 -80 203 -192c0 -116 -84 -193 -213 -193c-103 0 -180 32 -233 96c-8 9 -7 18 2 26l32 30
c9 9 18 8 26 -1c42 -48 98 -72 168 -72c79 0 128 43 128 112c0 60 -36 91 -148 110c-150 25 -204 82 -204 194c0 116 84 193 213 193z" />
    <glyph glyph-name="T" unicode="T" horiz-adv-x="493" 
d="M291 585v-566c0 -12 -7 -19 -19 -19h-52c-12 0 -19 7 -19 19v566h-163c-12 0 -19 7 -19 19v41c0 12 7 19 19 19h417c12 0 19 -7 19 -19v-41c0 -12 -7 -19 -19 -19h-164z" />
    <glyph glyph-name="U" unicode="U" horiz-adv-x="588" 
d="M520 645v-425c0 -151 -80 -232 -226 -232s-226 81 -226 232v425c0 12 7 19 19 19h52c12 0 19 -7 19 -19v-416c0 -111 44 -162 137 -162s137 51 137 162v416c0 12 7 19 19 19h50c12 0 19 -7 19 -19z" />
    <glyph glyph-name="V" unicode="V" horiz-adv-x="569" 
d="M473 664h52c14 0 20 -8 16 -22l-203 -625c-4 -12 -11 -17 -23 -17h-61c-12 0 -19 5 -23 17l-203 625c-4 14 2 22 16 22h56c11 0 18 -5 21 -16l164 -521h2l165 521c3 11 10 16 21 16z" />
    <glyph glyph-name="W" unicode="W" horiz-adv-x="853" 
d="M753 664h55c14 0 20 -8 16 -21l-167 -626c-3 -12 -9 -17 -22 -17h-62c-13 0 -19 5 -22 17l-124 468h-2l-123 -468c-3 -12 -9 -17 -22 -17h-63c-13 0 -19 5 -22 17l-166 626c-4 13 2 21 16 21h58c11 0 18 -5 21 -16l125 -506h2l133 505c3 12 9 17 22 17h44
c13 0 19 -5 22 -17l133 -503h2l125 504c3 11 10 16 21 16z" />
    <glyph glyph-name="X" unicode="X" horiz-adv-x="567" 
d="M282 275l-148 -262c-5 -9 -12 -13 -22 -13h-60c-15 0 -21 10 -13 23l188 317l-179 301c-8 13 -2 23 13 23h65c10 0 17 -4 22 -13l137 -244l137 244c5 9 12 13 22 13h61c15 0 21 -10 13 -23l-178 -300l188 -318c8 -13 2 -23 -13 -23h-64c-10 0 -17 4 -22 13z" />
    <glyph glyph-name="Y" unicode="Y" horiz-adv-x="530" 
d="M310 288v-269c0 -12 -7 -19 -19 -19h-52c-12 0 -19 7 -19 19v270l-208 352c-7 13 -2 23 13 23h65c10 0 17 -4 22 -13l155 -277l155 277c5 9 12 13 22 13h61c15 0 20 -10 13 -23z" />
    <glyph glyph-name="Z" unicode="Z" horiz-adv-x="522" 
d="M483 60v-41c0 -12 -7 -19 -19 -19h-406c-12 0 -19 7 -19 19v50c0 9 2 16 7 24l327 492h-300c-12 0 -19 7 -19 19v41c0 12 7 19 19 19h386c12 0 19 -7 19 -19v-50c0 -9 -2 -16 -7 -24l-327 -492h320c12 0 19 -7 19 -19z" />
    <glyph glyph-name="bracketleft" unicode="[" horiz-adv-x="329" 
d="M171 -23h99c11 0 17 -6 17 -17v-33c0 -11 -6 -17 -17 -17h-165c-11 0 -17 6 -17 17v720c0 11 6 17 17 17h165c11 0 17 -6 17 -17v-33c0 -11 -6 -17 -17 -17h-99v-620z" />
    <glyph glyph-name="backslash" unicode="\" horiz-adv-x="356" 
d="M41 664h41c9 0 16 -4 19 -14l228 -630c4 -12 -1 -20 -14 -20h-41c-9 0 -16 4 -19 14l-228 630c-4 12 1 20 14 20z" />
    <glyph glyph-name="bracketright" unicode="]" horiz-adv-x="329" 
d="M158 597h-99c-11 0 -17 6 -17 17v33c0 11 6 17 17 17h165c11 0 17 -6 17 -17v-720c0 -11 -6 -17 -17 -17h-165c-11 0 -17 6 -17 17v33c0 11 6 17 17 17h99v620z" />
    <glyph glyph-name="asciicircum" unicode="^" horiz-adv-x="529" 
d="M265 539l-157 -268c-6 -9 -13 -13 -23 -13h-46c-16 0 -21 10 -13 23l195 329c6 9 13 14 23 14h41c10 0 17 -5 23 -14l195 -329c8 -13 3 -23 -13 -23h-46c-10 0 -17 4 -23 13z" />
    <glyph glyph-name="underscore" unicode="_" horiz-adv-x="500" 
d="M0 -105v50h500v-50h-500z" />
    <glyph glyph-name="grave" unicode="`" horiz-adv-x="500" 
d="M276 566h-41c-9 0 -15 3 -21 11l-84 120c-9 12 -4 21 10 21h52c9 0 15 -3 20 -11l75 -121c7 -11 3 -20 -11 -20z" />
    <glyph glyph-name="a" unicode="a" horiz-adv-x="456" 
d="M217 507c123 0 190 -66 190 -194v-136c0 -123 -66 -189 -190 -189c-115 0 -179 56 -179 154c0 95 63 151 178 151h108v12c0 91 -37 130 -114 130c-37 0 -72 -15 -99 -38c-10 -9 -19 -9 -27 2l-21 29c-7 10 -6 19 3 27c43 35 93 52 151 52zM217 60c73 0 107 40 107 125v39
h-98c-66 0 -105 -28 -105 -83c0 -54 35 -81 96 -81z" />
    <glyph glyph-name="b" unicode="b" horiz-adv-x="488" 
d="M264 507c114 0 175 -66 175 -189v-141c0 -123 -66 -189 -188 -189c-123 0 -189 66 -189 189v504c0 12 7 19 19 19h45c12 0 19 -7 19 -19v-224h2c25 33 64 50 117 50zM356 185v124c0 86 -33 126 -105 126c-71 0 -106 -42 -106 -126v-124c0 -85 33 -125 106 -125
c72 0 105 40 105 125z" />
    <glyph glyph-name="c" unicode="c" horiz-adv-x="405" 
d="M360 93l20 -25c7 -9 7 -19 -1 -27c-37 -35 -83 -53 -139 -53c-122 0 -191 66 -191 194v132c0 127 68 193 188 193c56 0 101 -15 132 -43c9 -8 9 -18 2 -27l-21 -26c-9 -10 -17 -10 -27 -2c-21 17 -45 26 -81 26c-74 0 -110 -40 -110 -130v-115c0 -90 38 -130 114 -130
c35 0 63 11 87 34c9 9 19 9 27 -1z" />
    <glyph glyph-name="d" unicode="d" horiz-adv-x="488" 
d="M362 700h45c12 0 19 -7 19 -19v-504c0 -123 -66 -189 -189 -189c-122 0 -188 66 -188 189v141c0 123 61 189 175 189c52 0 92 -17 117 -50h2v224c0 12 7 19 19 19zM343 185v124c0 84 -35 126 -106 126c-72 0 -105 -40 -105 -126v-124c0 -85 33 -125 105 -125
c73 0 106 40 106 125z" />
    <glyph glyph-name="e" unicode="e" horiz-adv-x="459" 
d="M234 507c120 0 185 -66 185 -189v-80c0 -12 -7 -19 -19 -19h-268v-29c0 -91 37 -130 121 -130c40 0 70 13 101 41c9 9 19 8 27 -2l20 -25c7 -9 7 -19 -1 -27c-40 -39 -92 -59 -150 -59c-132 0 -201 64 -201 194v136c0 123 65 189 185 189zM340 288v21
c0 87 -33 126 -104 126s-104 -39 -104 -126v-21h208z" />
    <glyph glyph-name="f" unicode="f" 
d="M257 640c-55 0 -85 -35 -85 -102v-43h136c12 0 19 -7 19 -19v-34c0 -12 -7 -19 -19 -19h-136v-404c0 -12 -7 -19 -19 -19h-45c-12 0 -19 7 -19 19v404h-52c-12 0 -19 7 -19 19v34c0 12 7 19 19 19h52v44c0 111 57 173 161 173c37 0 70 -6 99 -20c11 -6 13 -15 8 -26
l-14 -31c-5 -11 -14 -14 -25 -8c-18 9 -39 13 -61 13z" />
    <glyph glyph-name="g" unicode="g" horiz-adv-x="488" 
d="M237 507c123 0 189 -66 189 -189v-313c0 -110 -71 -177 -188 -177c-66 0 -121 19 -162 55c-9 8 -10 17 -3 27l19 27c7 11 16 12 26 3c33 -27 70 -40 115 -40c72 0 110 40 110 111v43h-2c-25 -33 -65 -50 -117 -50c-114 0 -175 66 -175 189v125c0 123 66 189 188 189z
M237 76c71 0 106 42 106 126v108c0 85 -33 125 -106 125c-72 0 -105 -40 -105 -125v-108c0 -86 33 -126 105 -126z" />
    <glyph glyph-name="h" unicode="h" horiz-adv-x="499" 
d="M268 507c110 0 169 -65 169 -185v-303c0 -12 -7 -19 -19 -19h-45c-12 0 -19 7 -19 19v294c0 84 -32 122 -102 122c-68 0 -102 -40 -102 -122v-294c0 -12 -7 -19 -19 -19h-45c-12 0 -19 7 -19 19v662c0 12 7 19 19 19h45c12 0 19 -7 19 -19v-223h2c25 33 65 49 116 49z
" />
    <glyph glyph-name="i" unicode="i" horiz-adv-x="217" 
d="M108 587c-30 0 -52 22 -52 52c0 31 22 53 52 53c31 0 53 -22 53 -53c0 -30 -22 -52 -53 -52zM131 0h-45c-12 0 -19 7 -19 19v457c0 12 7 19 19 19h45c12 0 19 -7 19 -19v-457c0 -12 -7 -19 -19 -19z" />
    <glyph glyph-name="j" unicode="j" horiz-adv-x="217" 
d="M108 587c-30 0 -52 22 -52 52c0 31 22 53 52 53c31 0 53 -22 53 -53c0 -30 -22 -52 -53 -52zM-2 -88c48 0 69 23 69 75v489c0 12 7 19 19 19h45c12 0 19 -7 19 -19v-489c0 -97 -48 -147 -139 -147h-13c-12 0 -19 7 -19 19v34c0 12 7 19 19 19z" />
    <glyph glyph-name="k" unicode="k" horiz-adv-x="450" 
d="M131 0h-45c-12 0 -19 7 -19 19v662c0 12 7 19 19 19h45c12 0 19 -7 19 -19v-409l178 212c6 8 13 11 23 11h54c17 0 22 -11 11 -23l-187 -219l198 -230c11 -12 6 -23 -11 -23h-59c-10 0 -17 3 -23 11l-184 220v-212c0 -12 -7 -19 -19 -19z" />
    <glyph glyph-name="l" unicode="l" horiz-adv-x="217" 
d="M131 0h-45c-12 0 -19 7 -19 19v662c0 12 7 19 19 19h45c12 0 19 -7 19 -19v-662c0 -12 -7 -19 -19 -19z" />
    <glyph glyph-name="m" unicode="m" horiz-adv-x="754" 
d="M518 507c113 0 174 -65 174 -184v-304c0 -12 -7 -19 -19 -19h-45c-12 0 -19 7 -19 19v296c0 82 -30 120 -96 120c-65 0 -95 -38 -95 -120v-296c0 -12 -7 -19 -19 -19h-45c-12 0 -19 7 -19 19v296c0 82 -31 120 -96 120c-64 0 -94 -38 -94 -120v-296c0 -12 -7 -19 -19 -19
h-45c-12 0 -19 7 -19 19v304c0 119 61 184 172 184c67 0 114 -23 141 -67h2c27 44 74 67 141 67z" />
    <glyph glyph-name="n" unicode="n" horiz-adv-x="494" 
d="M349 19v294c0 84 -32 122 -102 122s-102 -38 -102 -122v-294c0 -12 -7 -19 -19 -19h-45c-12 0 -19 7 -19 19v303c0 120 65 185 185 185s185 -65 185 -185v-303c0 -12 -7 -19 -19 -19h-45c-12 0 -19 7 -19 19z" />
    <glyph glyph-name="o" unicode="o" horiz-adv-x="475" 
d="M237 507c123 0 189 -66 189 -189v-142c0 -122 -66 -188 -189 -188c-122 0 -188 66 -188 188v142c0 123 66 189 188 189zM343 185v124c0 86 -33 126 -106 126c-72 0 -105 -40 -105 -126v-124c0 -85 33 -125 105 -125c73 0 106 40 106 125z" />
    <glyph glyph-name="p" unicode="p" horiz-adv-x="488" 
d="M251 507c122 0 188 -66 188 -189v-141c0 -123 -61 -189 -175 -189c-52 0 -92 17 -117 50h-2v-179c0 -12 -7 -19 -19 -19h-45c-12 0 -19 7 -19 19v459c0 123 66 189 189 189zM356 186v124c0 85 -33 125 -105 125c-73 0 -106 -40 -106 -125v-124c0 -84 35 -126 106 -126
c72 0 105 40 105 126z" />
    <glyph glyph-name="q" unicode="q" horiz-adv-x="488" 
d="M237 507c123 0 189 -66 189 -189v-459c0 -12 -7 -19 -19 -19h-45c-12 0 -19 7 -19 19v179h-2c-25 -33 -65 -50 -117 -50c-114 0 -175 66 -175 189v141c0 123 66 189 188 189zM237 60c71 0 106 42 106 126v124c0 85 -33 125 -106 125c-72 0 -105 -40 -105 -125v-124
c0 -86 33 -126 105 -126z" />
    <glyph glyph-name="r" unicode="r" horiz-adv-x="364" 
d="M62 19v307c0 119 57 181 166 181c43 0 81 -10 111 -30c10 -7 13 -16 6 -27l-17 -29c-7 -11 -16 -12 -27 -5c-20 12 -42 19 -65 19c-62 0 -91 -35 -91 -110v-306c0 -12 -7 -19 -19 -19h-45c-12 0 -19 7 -19 19z" />
    <glyph glyph-name="s" unicode="s" horiz-adv-x="415" 
d="M388 136c0 -91 -66 -148 -171 -148c-78 0 -134 18 -179 58c-8 8 -8 17 -1 26l21 28c8 10 17 10 27 2c31 -27 75 -42 124 -42c61 0 96 27 96 76c0 44 -27 65 -109 77c-116 17 -156 60 -156 146c0 90 69 148 176 148c55 0 108 -15 145 -42c10 -8 11 -17 4 -27l-19 -28
c-7 -10 -16 -11 -27 -3c-26 18 -59 28 -95 28c-66 0 -101 -27 -101 -76c0 -40 26 -60 105 -71c118 -16 160 -62 160 -152z" />
    <glyph glyph-name="t" unicode="t" horiz-adv-x="355" 
d="M328 64l12 -33c4 -11 1 -18 -9 -24c-22 -12 -51 -19 -88 -19c-102 0 -154 54 -154 158v277h-52c-12 0 -19 7 -19 19v34c0 12 7 19 19 19h52v113c0 12 7 19 19 19h45c12 0 19 -7 19 -19v-113h136c12 0 19 -7 19 -19v-34c0 -12 -7 -19 -19 -19h-136v-275
c0 -58 28 -88 80 -88c19 0 35 4 50 12c13 7 22 4 26 -8z" />
    <glyph glyph-name="u" unicode="u" horiz-adv-x="488" 
d="M426 476v-306c0 -119 -64 -182 -182 -182s-182 63 -182 182v306c0 12 7 19 19 19h45c12 0 19 -7 19 -19v-299c0 -81 31 -117 100 -117s100 36 100 117v299c0 12 7 19 19 19h43c12 0 19 -7 19 -19z" />
    <glyph glyph-name="v" unicode="v" horiz-adv-x="454" 
d="M370 495h47c14 0 21 -8 16 -22l-156 -457c-4 -11 -11 -16 -23 -16h-54c-12 0 -19 5 -23 16l-156 457c-5 14 2 22 16 22h51c11 0 18 -5 21 -16l118 -375h2l120 375c3 11 10 16 21 16z" />
    <glyph glyph-name="w" unicode="w" horiz-adv-x="691" 
d="M608 495h46c13 0 20 -8 16 -21l-135 -458c-3 -12 -10 -16 -23 -16h-49c-13 0 -20 4 -23 16l-93 326h-2l-94 -326c-3 -12 -10 -16 -23 -16h-49c-13 0 -20 4 -23 16l-134 458c-4 13 3 21 16 21h50c12 0 18 -5 21 -16l96 -353h2l102 352c3 12 10 17 23 17h32
c13 0 20 -5 23 -17l101 -350h2l97 351c3 11 9 16 21 16z" />
    <glyph glyph-name="x" unicode="x" horiz-adv-x="463" 
d="M230 202l-111 -189c-5 -8 -12 -13 -23 -13h-49c-15 0 -21 10 -13 23l145 233l-134 216c-8 13 -2 23 13 23h54c11 0 18 -5 23 -13l99 -172l100 172c5 8 12 13 23 13h49c15 0 21 -10 13 -23l-134 -216l145 -233c8 -13 2 -23 -13 -23h-54c-11 0 -18 5 -23 13z" />
    <glyph glyph-name="y" unicode="y" horiz-adv-x="499" 
d="M368 495h45c12 0 19 -7 19 -19v-471c0 -110 -71 -177 -188 -177c-66 0 -121 19 -162 55c-9 8 -10 17 -3 27l19 27c7 11 16 12 26 3c33 -27 70 -40 115 -40c72 0 110 40 110 111v42h-2c-25 -33 -65 -49 -116 -49c-110 0 -169 64 -169 185v287c0 12 7 19 19 19h45
c12 0 19 -7 19 -19v-279c0 -83 32 -121 102 -121c68 0 102 40 102 121v279c0 12 7 19 19 19z" />
    <glyph glyph-name="z" unicode="z" horiz-adv-x="427" 
d="M391 53v-34c0 -12 -7 -19 -19 -19h-317c-12 0 -19 7 -19 19v44c0 9 2 16 8 24l246 336h-220c-12 0 -19 7 -19 19v34c0 12 7 19 19 19h297c12 0 19 -7 19 -19v-44c0 -9 -2 -16 -8 -24l-247 -336h241c12 0 19 -7 19 -19z" />
    <glyph glyph-name="braceleft" unicode="{" horiz-adv-x="339" 
d="M200 508v-106c0 -65 -23 -102 -74 -114v-2c51 -12 74 -49 74 -114v-106c0 -65 22 -89 80 -89c11 0 17 -6 17 -17v-33c0 -11 -6 -17 -17 -17h-13c-105 0 -150 43 -150 143v123c0 57 -29 75 -59 77c-11 1 -17 7 -17 18v32c0 11 6 17 17 18c30 2 59 20 59 77v123
c0 100 45 143 150 143h13c11 0 17 -6 17 -17v-33c0 -11 -6 -17 -17 -17c-58 0 -80 -24 -80 -89z" />
    <glyph glyph-name="bar" unicode="|" horiz-adv-x="264" 
d="M151 -160h-37c-10 0 -16 6 -16 16v828c0 10 6 16 16 16h37c10 0 16 -6 16 -16v-828c0 -10 -6 -16 -16 -16z" />
    <glyph glyph-name="braceright" unicode="}" horiz-adv-x="339" 
d="M139 66v106c0 65 23 102 74 114v2c-51 12 -74 49 -74 114v106c0 65 -22 89 -80 89c-11 0 -17 6 -17 17v33c0 11 6 17 17 17h13c105 0 150 -43 150 -143v-123c0 -57 29 -75 59 -77c11 -1 17 -7 17 -18v-32c0 -11 -6 -17 -17 -18c-30 -2 -59 -20 -59 -77v-123
c0 -100 -45 -143 -150 -143h-13c-11 0 -17 6 -17 17v33c0 11 6 17 17 17c58 0 80 24 80 89z" />
    <glyph glyph-name="asciitilde" unicode="~" horiz-adv-x="529" 
d="M162 276c-32 0 -55 -16 -81 -59c-7 -11 -16 -13 -26 -7l-29 17c-11 7 -13 16 -7 27c39 68 83 98 143 98c41 0 72 -12 121 -41c40 -24 59 -31 84 -31c31 0 55 17 81 59c7 11 16 14 26 7l29 -17c10 -6 13 -15 7 -26c-39 -68 -83 -99 -143 -99c-39 0 -69 10 -121 41
c-39 23 -58 31 -84 31z" />
    <glyph glyph-name="uni00A0" unicode="&#xa0;" horiz-adv-x="215" 
 />
    <glyph glyph-name="exclamdown" unicode="&#xa1;" horiz-adv-x="235" 
d="M76 288l17 181c1 8 6 13 14 13h21c8 0 13 -5 14 -13l17 -181v-269c0 -12 -7 -19 -19 -19h-45c-12 0 -19 7 -19 19v269zM118 676c31 0 55 -23 55 -55s-24 -56 -55 -56c-32 0 -56 24 -56 56s24 55 56 55z" />
    <glyph glyph-name="cent" unicode="&#xa2;" horiz-adv-x="529" 
d="M435 118l22 -27c7 -9 7 -19 -1 -27c-31 -30 -71 -49 -121 -54v-65c0 -10 -5 -15 -15 -15h-27c-10 0 -15 5 -15 15v64c-122 7 -186 75 -186 202v112c0 126 63 194 186 201v57c0 10 5 15 15 15h27c10 0 15 -5 15 -15v-59c48 -5 84 -21 111 -44c9 -8 9 -18 2 -27l-22 -27
c-9 -10 -17 -10 -27 -2c-16 14 -36 22 -64 26v-364c29 4 52 16 73 35c9 9 19 9 27 -1zM176 313v-94c0 -84 32 -126 102 -135v365c-70 -8 -102 -51 -102 -136z" />
    <glyph glyph-name="sterling" unicode="&#xa3;" horiz-adv-x="529" 
d="M478 558c8 -9 6 -18 -3 -26l-30 -28c-9 -8 -19 -7 -27 3c-30 35 -72 53 -125 53c-76 0 -122 -41 -122 -109c0 -29 7 -52 26 -93c5 -10 9 -19 14 -33h178c11 0 17 -6 17 -17v-36c0 -11 -6 -17 -17 -17h-161c1 -7 1 -15 1 -23c0 -62 -18 -109 -58 -154v-2h280
c12 0 19 -7 19 -19v-38c0 -12 -7 -19 -19 -19h-352c-12 0 -19 7 -19 19v39c0 10 3 17 10 24c45 45 62 84 62 140c0 12 -1 23 -2 33h-69c-11 0 -17 6 -17 17v36c0 11 6 17 17 17h46c-33 62 -42 91 -42 138c0 105 80 173 204 173c81 0 146 -26 189 -78z" />
    <glyph glyph-name="currency" unicode="&#xa4;" horiz-adv-x="529" 
d="M443 309c0 -38 -10 -72 -29 -100l66 -64c8 -8 8 -16 0 -24l-26 -26c-8 -8 -16 -8 -24 0l-65 65c-28 -19 -63 -29 -101 -29s-72 10 -100 29l-65 -65c-8 -8 -16 -8 -24 0l-26 26c-8 8 -8 16 0 24l66 64c-19 28 -29 62 -29 100s10 72 29 101l-66 64c-8 8 -8 16 0 24l26 26
c8 8 16 8 24 0l65 -65c28 19 62 30 100 30s73 -11 101 -30l65 65c8 8 16 8 24 0l26 -26c8 -8 8 -16 0 -24l-66 -64c19 -29 29 -63 29 -101zM265 196c65 0 114 48 114 113c0 67 -49 115 -114 115s-113 -48 -113 -115c0 -66 48 -113 113 -113z" />
    <glyph glyph-name="yen" unicode="&#xa5;" horiz-adv-x="529" 
d="M313 320h138c11 0 17 -6 17 -17v-35c0 -11 -6 -17 -17 -17h-144v-71h143c11 0 17 -6 17 -17v-35c0 -11 -6 -17 -17 -17h-143v-92c0 -12 -7 -19 -19 -19h-48c-12 0 -19 7 -19 19v92h-145c-11 0 -17 6 -17 17v35c0 11 6 17 17 17h145v71h-144c-11 0 -17 6 -17 17v35
c0 11 6 17 17 17h139l-178 281c-9 13 -3 23 12 23h58c10 0 17 -4 23 -13l136 -228l135 228c6 9 13 13 23 13h54c15 0 21 -10 12 -23z" />
    <glyph glyph-name="brokenbar" unicode="&#xa6;" horiz-adv-x="264" 
d="M151 350h-37c-10 0 -16 6 -16 16v318c0 10 6 16 16 16h37c10 0 16 -6 16 -16v-318c0 -10 -6 -16 -16 -16zM151 -160h-37c-10 0 -16 6 -16 16v318c0 10 6 16 16 16h37c10 0 16 -6 16 -16v-318c0 -10 -6 -16 -16 -16z" />
    <glyph glyph-name="section" unicode="&#xa7;" horiz-adv-x="553" 
d="M409 135v-2c46 -20 79 -57 79 -130c0 -106 -80 -175 -207 -175c-97 0 -170 27 -219 84c-8 9 -7 18 2 27l26 25c9 9 18 8 26 -1c38 -42 92 -64 164 -64c79 0 128 38 128 99c0 54 -36 78 -149 91c-155 18 -210 68 -210 169c0 65 32 116 90 145v2c-44 22 -75 59 -75 132
c0 107 80 175 208 175c84 0 148 -24 191 -72c8 -9 8 -18 -1 -27l-26 -25c-9 -9 -18 -8 -26 1c-31 34 -77 52 -137 52c-78 0 -128 -39 -128 -100c0 -54 37 -79 150 -92c154 -18 208 -67 208 -167c0 -67 -34 -119 -94 -147zM312 159c68 12 111 54 111 112
c0 67 -45 92 -190 108c-63 -13 -103 -55 -103 -110c0 -67 49 -96 182 -110z" />
    <glyph glyph-name="dieresis" unicode="&#xa8;" horiz-adv-x="500" 
d="M167 590c-29 0 -50 21 -50 49c0 29 21 50 50 50c28 0 49 -21 49 -50c0 -28 -21 -49 -49 -49zM333 590c-28 0 -49 21 -49 49c0 29 21 50 49 50c29 0 50 -21 50 -50c0 -28 -21 -49 -50 -49z" />
    <glyph glyph-name="copyright" unicode="&#xa9;" horiz-adv-x="766" 
d="M383 676c196 0 344 -148 344 -344s-148 -344 -344 -344s-344 148 -344 344s148 344 344 344zM383 40c161 0 286 127 286 292s-125 292 -286 292s-286 -127 -286 -292s125 -292 286 -292zM384 471c-49 0 -73 -29 -73 -87v-104c0 -58 24 -87 73 -87c30 0 52 12 68 37
c5 8 12 10 20 5l20 -12c9 -5 11 -13 6 -21c-25 -40 -62 -61 -114 -61c-86 0 -132 47 -132 133v116c0 86 46 133 132 133c52 0 89 -21 114 -61c5 -8 2 -15 -6 -20l-19 -13c-8 -5 -16 -2 -21 6c-16 23 -38 36 -68 36z" />
    <glyph glyph-name="ordfeminine" unicode="&#xaa;" horiz-adv-x="351" 
d="M165 636c96 0 149 -51 149 -150v-104c0 -94 -52 -146 -148 -146c-90 0 -140 45 -140 122c0 73 49 116 138 116h78v5c0 66 -27 94 -83 94c-29 0 -52 -9 -73 -27c-9 -7 -18 -6 -24 3l-16 25c-6 8 -5 17 4 24c33 25 71 38 115 38zM166 299c53 0 76 28 76 90v24h-69
c-47 0 -75 -19 -75 -57c0 -39 25 -57 68 -57z" />
    <glyph glyph-name="guillemotleft" unicode="&#xab;" horiz-adv-x="437" 
d="M102 247l107 -168c7 -12 3 -21 -11 -21h-41c-9 0 -15 3 -20 11l-106 166c-5 8 -5 16 0 24l106 167c5 8 11 11 20 11h41c14 0 18 -9 11 -21zM288 247l107 -168c7 -12 3 -21 -11 -21h-41c-9 0 -15 3 -20 11l-106 166c-5 8 -5 16 0 24l106 167c5 8 11 11 20 11h41
c14 0 18 -9 11 -21z" />
    <glyph glyph-name="logicalnot" unicode="&#xac;" horiz-adv-x="529" 
d="M507 358v-243c0 -12 -7 -19 -19 -19h-39c-12 0 -19 7 -19 19v185h-390c-12 0 -19 7 -19 19v39c0 12 7 19 19 19h448c12 0 19 -7 19 -19z" />
    <glyph glyph-name="uni00AD" unicode="&#xad;" horiz-adv-x="332" 
d="M283 233h-234c-12 0 -19 7 -19 19v41c0 12 7 19 19 19h234c12 0 19 -7 19 -19v-41c0 -12 -7 -19 -19 -19z" />
    <glyph glyph-name="registered" unicode="&#xae;" horiz-adv-x="766" 
d="M383 676c196 0 344 -148 344 -344s-148 -344 -344 -344s-344 148 -344 344s148 344 344 344zM383 40c161 0 286 127 286 292s-125 292 -286 292s-286 -127 -286 -292s125 -292 286 -292zM519 404c0 -59 -26 -95 -79 -109l79 -129c6 -10 2 -18 -10 -18h-36
c-8 0 -14 3 -18 10l-75 131h-51v-126c0 -10 -5 -15 -15 -15h-29c-10 0 -15 5 -15 15v338c0 10 5 15 15 15h101c89 0 133 -36 133 -112zM329 341h57c49 0 73 20 73 62c0 41 -24 61 -73 61h-57v-123z" />
    <glyph glyph-name="macron" unicode="&#xaf;" horiz-adv-x="500" 
d="M382 648v-32c0 -11 -6 -17 -17 -17h-229c-11 0 -17 6 -17 17v32c0 11 6 17 17 17h229c11 0 17 -6 17 -17z" />
    <glyph glyph-name="degree" unicode="&#xb0;" horiz-adv-x="357" 
d="M178 336c-85 0 -149 64 -149 150s64 150 149 150c86 0 150 -64 150 -150s-64 -150 -150 -150zM178 401c48 0 82 36 82 85s-34 85 -82 85c-47 0 -81 -36 -81 -85s34 -85 81 -85z" />
    <glyph glyph-name="plusminus" unicode="&#xb1;" horiz-adv-x="529" 
d="M500 342v-39c0 -12 -7 -19 -19 -19h-178v-156c0 -12 -7 -19 -19 -19h-39c-12 0 -19 7 -19 19v156h-178c-12 0 -19 7 -19 19v39c0 12 7 19 19 19h178v157c0 12 7 19 19 19h39c12 0 19 -7 19 -19v-157h178c12 0 19 -7 19 -19zM48 77h433c12 0 19 -7 19 -19v-39
c0 -12 -7 -19 -19 -19h-433c-12 0 -19 7 -19 19v39c0 12 7 19 19 19z" />
    <glyph glyph-name="twosuperior" unicode="&#xb2;" 
d="M128 418h149c10 0 15 -5 15 -15v-25c0 -10 -5 -15 -15 -15h-217c-10 0 -15 5 -15 15v27c0 8 2 13 8 19l142 144c28 28 38 49 38 74c0 37 -24 59 -66 59c-29 0 -54 -15 -73 -42c-6 -8 -12 -9 -21 -3l-22 16c-7 5 -9 13 -3 21c27 41 71 63 121 63c78 0 125 -42 125 -114
c0 -42 -16 -71 -56 -112l-110 -110v-2z" />
    <glyph glyph-name="threesuperior" unicode="&#xb3;" 
d="M239 564v-2c41 -14 64 -47 64 -92c0 -72 -49 -114 -133 -114c-54 0 -97 17 -127 51c-6 7 -6 14 1 21l18 19c7 8 14 7 21 -1c21 -23 49 -35 83 -35c48 0 76 23 76 62c0 43 -27 63 -88 63h-18c-10 0 -15 5 -15 15v23c0 10 5 15 15 15h15c57 0 82 17 82 55
c0 36 -26 57 -70 57c-31 0 -56 -12 -77 -35c-7 -8 -14 -9 -21 -1l-17 19c-7 7 -7 14 -1 21c31 33 72 51 120 51c79 0 127 -40 127 -108c0 -40 -20 -70 -55 -84z" />
    <glyph glyph-name="acute" unicode="&#xb4;" horiz-adv-x="500" 
d="M370 697l-84 -120c-6 -8 -12 -11 -21 -11h-41c-14 0 -18 9 -11 20l75 121c5 8 11 11 20 11h52c14 0 19 -9 10 -21z" />
    <glyph glyph-name="uni00B5" unicode="&#xb5;" horiz-adv-x="499" 
d="M373 495h45c12 0 19 -7 19 -19v-303c0 -121 -59 -185 -169 -185c-51 0 -91 16 -116 49h-2v-178c0 -12 -7 -19 -19 -19h-45c-12 0 -19 7 -19 19v617c0 12 7 19 19 19h45c12 0 19 -7 19 -19v-295c0 -81 34 -121 102 -121c70 0 102 38 102 121v295c0 12 7 19 19 19z" />
    <glyph glyph-name="paragraph" unicode="&#xb6;" horiz-adv-x="570" 
d="M494 684v-828c0 -10 -6 -16 -16 -16h-35c-10 0 -16 6 -16 16v775h-118v-775c0 -10 -6 -16 -16 -16h-35c-10 0 -16 6 -16 16v436c-150 5 -219 69 -219 205c0 139 74 203 236 203h219c10 0 16 -6 16 -16z" />
    <glyph glyph-name="periodcentered" unicode="&#xb7;" horiz-adv-x="233" 
d="M116 257c-31 0 -55 23 -55 55s24 56 55 56c32 0 56 -24 56 -56s-24 -55 -56 -55z" />
    <glyph glyph-name="cedilla" unicode="&#xb8;" horiz-adv-x="500" 
d="M276 13l-13 -58c49 -3 73 -26 73 -60c0 -42 -32 -67 -93 -67c-28 0 -54 6 -75 17c-8 5 -10 12 -6 21l9 19c4 9 11 10 20 5c14 -7 31 -12 50 -12c22 0 36 8 36 22c0 19 -19 22 -52 22c-10 0 -13 4 -11 15l15 76h47z" />
    <glyph glyph-name="onesuperior" unicode="&#xb9;" 
d="M251 734v-356c0 -10 -5 -15 -15 -15h-31c-10 0 -15 5 -15 15v292l-72 -54c-8 -6 -15 -4 -20 4l-14 21c-5 8 -4 15 4 21l107 81c6 4 11 6 18 6h23c10 0 15 -5 15 -15z" />
    <glyph glyph-name="ordmasculine" unicode="&#xba;" horiz-adv-x="368" 
d="M184 636c95 0 147 -51 147 -146v-108c0 -94 -52 -146 -147 -146s-147 52 -147 146v108c0 95 52 146 147 146zM259 389v94c0 62 -24 90 -75 90s-75 -28 -75 -90v-94c0 -62 24 -90 75 -90s75 28 75 90z" />
    <glyph glyph-name="guillemotright" unicode="&#xbb;" horiz-adv-x="437" 
d="M335 248l-107 168c-7 12 -3 21 11 21h41c9 0 15 -3 20 -11l106 -166c5 -8 5 -16 0 -24l-106 -167c-5 -8 -11 -11 -20 -11h-41c-14 0 -18 9 -11 21zM149 248l-107 168c-7 12 -3 21 11 21h41c9 0 15 -3 20 -11l106 -166c5 -8 5 -16 0 -24l-106 -167c-5 -8 -11 -11 -20 -11
h-41c-14 0 -18 9 -11 21z" />
    <glyph glyph-name="onequarter" unicode="&#xbc;" horiz-adv-x="796" 
d="M209 18l394 596c4 7 10 10 18 10h36c13 0 17 -8 10 -18l-394 -596c-4 -7 -10 -10 -18 -10h-36c-13 0 -17 8 -10 18zM734 140h30c10 0 15 -5 15 -15v-25c0 -10 -5 -15 -15 -15h-30v-70c0 -10 -5 -15 -15 -15h-31c-10 0 -15 5 -15 15v70h-165c-10 0 -15 5 -15 15v33
c0 7 2 12 6 18l166 226c5 6 10 9 18 9h36c10 0 15 -5 15 -15v-231zM673 298h-2l-114 -158h116v158zM251 609v-356c0 -10 -5 -15 -15 -15h-31c-10 0 -15 5 -15 15v292l-72 -54c-8 -6 -15 -4 -20 4l-14 21c-5 8 -4 15 4 21l107 81c6 4 11 6 18 6h23c10 0 15 -5 15 -15z" />
    <glyph glyph-name="onehalf" unicode="&#xbd;" horiz-adv-x="796" 
d="M169 18l394 596c4 7 10 10 18 10h36c13 0 17 -8 10 -18l-394 -596c-4 -7 -10 -10 -18 -10h-36c-13 0 -17 8 -10 18zM594 55h149c10 0 15 -5 15 -15v-25c0 -10 -5 -15 -15 -15h-217c-10 0 -15 5 -15 15v27c0 8 2 13 8 19l142 144c28 28 38 49 38 74c0 37 -24 59 -66 59
c-29 0 -54 -15 -73 -42c-6 -8 -12 -9 -21 -3l-22 16c-7 5 -9 13 -3 21c27 41 71 63 121 63c78 0 125 -42 125 -114c0 -42 -16 -71 -56 -112l-110 -110v-2zM251 609v-356c0 -10 -5 -15 -15 -15h-31c-10 0 -15 5 -15 15v292l-72 -54c-8 -6 -15 -4 -20 4l-14 21
c-5 8 -4 15 4 21l107 81c6 4 11 6 18 6h23c10 0 15 -5 15 -15z" />
    <glyph glyph-name="threequarters" unicode="&#xbe;" horiz-adv-x="796" 
d="M212 18l394 596c4 7 10 10 18 10h36c13 0 17 -8 10 -18l-394 -596c-4 -7 -10 -10 -18 -10h-36c-13 0 -17 8 -10 18zM734 140h30c10 0 15 -5 15 -15v-25c0 -10 -5 -15 -15 -15h-30v-70c0 -10 -5 -15 -15 -15h-31c-10 0 -15 5 -15 15v70h-165c-10 0 -15 5 -15 15v33
c0 7 2 12 6 18l166 226c5 6 10 9 18 9h36c10 0 15 -5 15 -15v-231zM673 298h-2l-114 -158h116v158zM239 439v-2c41 -14 64 -47 64 -92c0 -72 -49 -114 -133 -114c-54 0 -97 17 -127 51c-6 7 -6 14 1 21l18 19c7 8 14 7 21 -1c21 -23 49 -35 83 -35c48 0 76 23 76 62
c0 43 -27 63 -88 63h-18c-10 0 -15 5 -15 15v23c0 10 5 15 15 15h15c57 0 82 17 82 55c0 36 -26 57 -70 57c-31 0 -56 -12 -77 -35c-7 -8 -14 -9 -21 -1l-17 19c-7 7 -7 14 -1 21c31 33 72 51 120 51c79 0 127 -40 127 -108c0 -40 -20 -70 -55 -84z" />
    <glyph glyph-name="questiondown" unicode="&#xbf;" horiz-adv-x="454" 
d="M227 -12c-125 0 -204 69 -204 178c0 76 26 124 108 172c63 37 84 67 84 114v11c0 12 7 19 19 19h40c12 0 19 -7 19 -19v-17c0 -69 -26 -112 -100 -158c-66 -41 -84 -72 -84 -122c0 -64 45 -102 119 -102c57 0 105 27 137 77c7 11 16 13 26 5l31 -23c10 -7 12 -16 5 -27
c-44 -70 -115 -108 -200 -108zM253 676c31 0 55 -23 55 -55s-24 -56 -55 -56c-32 0 -56 24 -56 56s24 55 56 55z" />
    <glyph glyph-name="Agrave" unicode="&#xc0;" horiz-adv-x="587" 
d="M347 647l212 -625c5 -14 -2 -22 -16 -22h-56c-11 0 -18 5 -21 16l-39 121h-270l-39 -121c-3 -11 -10 -16 -21 -16h-53c-14 0 -21 8 -16 22l212 626c4 11 11 16 23 16h61c12 0 19 -5 23 -17zM293 556h-2l-108 -340h219zM319 729h-41c-9 0 -15 3 -21 11l-84 120
c-9 12 -4 21 10 21h52c9 0 15 -3 20 -11l75 -121c7 -11 3 -20 -11 -20z" />
    <glyph glyph-name="Aacute" unicode="&#xc1;" horiz-adv-x="587" 
d="M347 647l212 -625c5 -14 -2 -22 -16 -22h-56c-11 0 -18 5 -21 16l-39 121h-270l-39 -121c-3 -11 -10 -16 -21 -16h-53c-14 0 -21 8 -16 22l212 626c4 11 11 16 23 16h61c12 0 19 -5 23 -17zM293 556h-2l-108 -340h219zM413 860l-84 -120c-6 -8 -12 -11 -21 -11h-41
c-14 0 -18 9 -11 20l75 121c5 8 11 11 20 11h52c14 0 19 -9 10 -21z" />
    <glyph glyph-name="Acircumflex" unicode="&#xc2;" horiz-adv-x="587" 
d="M347 647l212 -625c5 -14 -2 -22 -16 -22h-56c-11 0 -18 5 -21 16l-39 121h-270l-39 -121c-3 -11 -10 -16 -21 -16h-53c-14 0 -21 8 -16 22l212 626c4 11 11 16 23 16h61c12 0 19 -5 23 -17zM293 556h-2l-108 -340h219zM292 823l-58 -83c-5 -8 -11 -11 -20 -11h-37
c-14 0 -19 9 -11 21l83 120c5 8 11 11 20 11h46c9 0 15 -3 20 -11l84 -120c8 -12 3 -21 -11 -21h-37c-9 0 -15 3 -21 11z" />
    <glyph glyph-name="Atilde" unicode="&#xc3;" horiz-adv-x="587" 
d="M347 647l212 -625c5 -14 -2 -22 -16 -22h-56c-11 0 -18 5 -21 16l-39 121h-270l-39 -121c-3 -11 -10 -16 -21 -16h-53c-14 0 -21 8 -16 22l212 626c4 11 11 16 23 16h61c12 0 19 -5 23 -17zM293 556h-2l-108 -340h219zM188 742h-26c-10 0 -15 6 -14 16
c8 65 41 101 90 101c26 0 43 -7 72 -32c17 -16 26 -21 39 -21c17 0 28 11 33 37c2 9 7 14 16 14h26c10 0 15 -6 14 -16c-8 -65 -41 -101 -90 -101c-26 0 -43 7 -72 32c-17 16 -26 21 -39 21c-17 0 -28 -11 -33 -37c-2 -9 -7 -14 -16 -14z" />
    <glyph glyph-name="Adieresis" unicode="&#xc4;" horiz-adv-x="587" 
d="M347 647l212 -625c5 -14 -2 -22 -16 -22h-56c-11 0 -18 5 -21 16l-39 121h-270l-39 -121c-3 -11 -10 -16 -21 -16h-53c-14 0 -21 8 -16 22l212 626c4 11 11 16 23 16h61c12 0 19 -5 23 -17zM293 556h-2l-108 -340h219zM210 753c-29 0 -50 21 -50 49c0 29 21 50 50 50
c28 0 49 -21 49 -50c0 -28 -21 -49 -49 -49zM376 753c-28 0 -49 21 -49 49c0 29 21 50 49 50c29 0 50 -21 50 -50c0 -28 -21 -49 -50 -49z" />
    <glyph glyph-name="Aring" unicode="&#xc5;" horiz-adv-x="587" 
d="M347 647l212 -625c5 -14 -2 -22 -16 -22h-56c-11 0 -18 5 -21 16l-39 121h-270l-39 -121c-3 -11 -10 -16 -21 -16h-53c-14 0 -21 8 -16 22l212 626c4 11 11 16 23 16h61c12 0 19 -5 23 -17zM293 556h-2l-108 -340h219zM293 723c-47 0 -82 35 -82 82s35 82 82 82
s82 -35 82 -82s-35 -82 -82 -82zM293 770c21 0 35 14 35 35s-14 35 -35 35s-35 -14 -35 -35s14 -35 35 -35z" />
    <glyph glyph-name="AE" unicode="&#xc6;" horiz-adv-x="875" 
d="M506 585v-210h263c12 0 19 -7 19 -19v-41c0 -12 -7 -19 -19 -19h-263v-217h307c12 0 19 -7 19 -19v-41c0 -12 -7 -19 -19 -19h-378c-12 0 -19 7 -19 19v113h-241l-66 -119c-5 -9 -12 -13 -22 -13h-60c-15 0 -20 10 -13 23l358 627c6 10 14 14 25 14h416
c12 0 19 -7 19 -19v-41c0 -12 -7 -19 -19 -19h-307zM416 211v357h-2l-195 -357h197z" />
    <glyph glyph-name="Ccedilla" unicode="&#xc7;" horiz-adv-x="527" 
d="M453 152l37 -21c10 -6 14 -15 8 -26c-39 -73 -103 -112 -190 -117l-8 -33c49 -3 73 -26 73 -60c0 -42 -32 -67 -93 -67c-28 0 -54 6 -75 17c-8 5 -10 12 -6 21l9 19c4 9 11 10 20 5c14 -7 31 -12 50 -12c22 0 36 8 36 22c0 19 -19 22 -52 22c-10 0 -13 4 -11 15l10 52
c-133 10 -205 93 -205 239v208c0 156 82 240 233 240c98 0 168 -39 209 -117c6 -11 3 -20 -8 -26l-37 -21c-11 -7 -20 -4 -26 7c-28 51 -73 78 -138 78c-96 0 -143 -57 -143 -172v-186c0 -115 47 -172 143 -172c65 0 110 27 138 77c6 12 15 15 26 8z" />
    <glyph glyph-name="Egrave" unicode="&#xc8;" horiz-adv-x="538" 
d="M169 375h263c12 0 19 -7 19 -19v-41c0 -12 -7 -19 -19 -19h-263v-217h307c12 0 19 -7 19 -19v-41c0 -12 -7 -19 -19 -19h-378c-12 0 -19 7 -19 19v626c0 12 7 19 19 19h378c12 0 19 -7 19 -19v-41c0 -12 -7 -19 -19 -19h-307v-210zM313 729h-41c-9 0 -15 3 -21 11
l-84 120c-9 12 -4 21 10 21h52c9 0 15 -3 20 -11l75 -121c7 -11 3 -20 -11 -20z" />
    <glyph glyph-name="Eacute" unicode="&#xc9;" horiz-adv-x="538" 
d="M169 375h263c12 0 19 -7 19 -19v-41c0 -12 -7 -19 -19 -19h-263v-217h307c12 0 19 -7 19 -19v-41c0 -12 -7 -19 -19 -19h-378c-12 0 -19 7 -19 19v626c0 12 7 19 19 19h378c12 0 19 -7 19 -19v-41c0 -12 -7 -19 -19 -19h-307v-210zM407 860l-84 -120
c-6 -8 -12 -11 -21 -11h-41c-14 0 -18 9 -11 20l75 121c5 8 11 11 20 11h52c14 0 19 -9 10 -21z" />
    <glyph glyph-name="Ecircumflex" unicode="&#xca;" horiz-adv-x="538" 
d="M169 375h263c12 0 19 -7 19 -19v-41c0 -12 -7 -19 -19 -19h-263v-217h307c12 0 19 -7 19 -19v-41c0 -12 -7 -19 -19 -19h-378c-12 0 -19 7 -19 19v626c0 12 7 19 19 19h378c12 0 19 -7 19 -19v-41c0 -12 -7 -19 -19 -19h-307v-210zM286 823l-58 -83
c-5 -8 -11 -11 -20 -11h-37c-14 0 -19 9 -11 21l83 120c5 8 11 11 20 11h46c9 0 15 -3 20 -11l84 -120c8 -12 3 -21 -11 -21h-37c-9 0 -15 3 -21 11z" />
    <glyph glyph-name="Edieresis" unicode="&#xcb;" horiz-adv-x="538" 
d="M169 375h263c12 0 19 -7 19 -19v-41c0 -12 -7 -19 -19 -19h-263v-217h307c12 0 19 -7 19 -19v-41c0 -12 -7 -19 -19 -19h-378c-12 0 -19 7 -19 19v626c0 12 7 19 19 19h378c12 0 19 -7 19 -19v-41c0 -12 -7 -19 -19 -19h-307v-210zM204 753c-29 0 -50 21 -50 49
c0 29 21 50 50 50c28 0 49 -21 49 -50c0 -28 -21 -49 -49 -49zM370 753c-28 0 -49 21 -49 49c0 29 21 50 49 50c29 0 50 -21 50 -50c0 -28 -21 -49 -50 -49z" />
    <glyph glyph-name="Igrave" unicode="&#xcc;" horiz-adv-x="248" 
d="M169 645v-626c0 -12 -7 -19 -19 -19h-52c-12 0 -19 7 -19 19v626c0 12 7 19 19 19h52c12 0 19 -7 19 -19zM150 729h-41c-9 0 -15 3 -21 11l-84 120c-9 12 -4 21 10 21h52c9 0 15 -3 20 -11l75 -121c7 -11 3 -20 -11 -20z" />
    <glyph glyph-name="Iacute" unicode="&#xcd;" horiz-adv-x="248" 
d="M169 645v-626c0 -12 -7 -19 -19 -19h-52c-12 0 -19 7 -19 19v626c0 12 7 19 19 19h52c12 0 19 -7 19 -19zM244 860l-84 -120c-6 -8 -12 -11 -21 -11h-41c-14 0 -18 9 -11 20l75 121c5 8 11 11 20 11h52c14 0 19 -9 10 -21z" />
    <glyph glyph-name="Icircumflex" unicode="&#xce;" horiz-adv-x="248" 
d="M169 645v-626c0 -12 -7 -19 -19 -19h-52c-12 0 -19 7 -19 19v626c0 12 7 19 19 19h52c12 0 19 -7 19 -19zM123 823l-58 -83c-5 -8 -11 -11 -20 -11h-37c-14 0 -19 9 -11 21l83 120c5 8 11 11 20 11h46c9 0 15 -3 20 -11l84 -120c8 -12 3 -21 -11 -21h-37
c-9 0 -15 3 -21 11z" />
    <glyph glyph-name="Idieresis" unicode="&#xcf;" horiz-adv-x="248" 
d="M169 645v-626c0 -12 -7 -19 -19 -19h-52c-12 0 -19 7 -19 19v626c0 12 7 19 19 19h52c12 0 19 -7 19 -19zM41 753c-29 0 -50 21 -50 49c0 29 21 50 50 50c28 0 49 -21 49 -50c0 -28 -21 -49 -49 -49zM207 753c-28 0 -49 21 -49 49c0 29 21 50 49 50c29 0 50 -21 50 -50
c0 -28 -21 -49 -50 -49z" />
    <glyph glyph-name="Eth" unicode="&#xd0;" horiz-adv-x="602" 
d="M109 664h199c158 0 238 -77 238 -228v-207c0 -152 -80 -229 -238 -229h-199c-12 0 -19 7 -19 19v278h-47c-12 0 -19 7 -19 19v41c0 12 7 19 19 19h47v269c0 12 7 19 19 19zM456 240v185c0 109 -49 160 -152 160h-124v-209h118c12 0 19 -7 19 -19v-41
c0 -12 -7 -19 -19 -19h-118v-218h124c103 0 152 51 152 161z" />
    <glyph glyph-name="Ntilde" unicode="&#xd1;" horiz-adv-x="623" 
d="M544 645v-626c0 -12 -7 -19 -19 -19h-58c-10 0 -17 4 -22 13l-276 499h-2v-493c0 -12 -7 -19 -19 -19h-50c-12 0 -19 7 -19 19v626c0 12 7 19 19 19h65c10 0 17 -4 22 -13l269 -485h2v479c0 12 7 19 19 19h50c12 0 19 -7 19 -19zM207 742h-26c-10 0 -15 6 -14 16
c8 65 41 101 90 101c26 0 43 -7 72 -32c17 -16 26 -21 39 -21c17 0 28 11 33 37c2 9 7 14 16 14h26c10 0 15 -6 14 -16c-8 -65 -41 -101 -90 -101c-26 0 -43 7 -72 32c-17 16 -26 21 -39 21c-17 0 -28 -11 -33 -37c-2 -9 -7 -14 -16 -14z" />
    <glyph glyph-name="Ograve" unicode="&#xd2;" horiz-adv-x="588" 
d="M56 228v208c0 156 84 240 238 240s238 -84 238 -240v-208c0 -156 -84 -240 -238 -240s-238 84 -238 240zM146 425v-186c0 -116 48 -172 148 -172s148 56 148 172v186c0 116 -48 172 -148 172s-148 -56 -148 -172zM320 729h-41c-9 0 -15 3 -21 11l-84 120
c-9 12 -4 21 10 21h52c9 0 15 -3 20 -11l75 -121c7 -11 3 -20 -11 -20z" />
    <glyph glyph-name="Oacute" unicode="&#xd3;" horiz-adv-x="588" 
d="M56 228v208c0 156 84 240 238 240s238 -84 238 -240v-208c0 -156 -84 -240 -238 -240s-238 84 -238 240zM146 425v-186c0 -116 48 -172 148 -172s148 56 148 172v186c0 116 -48 172 -148 172s-148 -56 -148 -172zM414 860l-84 -120c-6 -8 -12 -11 -21 -11h-41
c-14 0 -18 9 -11 20l75 121c5 8 11 11 20 11h52c14 0 19 -9 10 -21z" />
    <glyph glyph-name="Ocircumflex" unicode="&#xd4;" horiz-adv-x="588" 
d="M56 228v208c0 156 84 240 238 240s238 -84 238 -240v-208c0 -156 -84 -240 -238 -240s-238 84 -238 240zM146 425v-186c0 -116 48 -172 148 -172s148 56 148 172v186c0 116 -48 172 -148 172s-148 -56 -148 -172zM293 823l-58 -83c-5 -8 -11 -11 -20 -11h-37
c-14 0 -19 9 -11 21l83 120c5 8 11 11 20 11h46c9 0 15 -3 20 -11l84 -120c8 -12 3 -21 -11 -21h-37c-9 0 -15 3 -21 11z" />
    <glyph glyph-name="Otilde" unicode="&#xd5;" horiz-adv-x="588" 
d="M56 228v208c0 156 84 240 238 240s238 -84 238 -240v-208c0 -156 -84 -240 -238 -240s-238 84 -238 240zM146 425v-186c0 -116 48 -172 148 -172s148 56 148 172v186c0 116 -48 172 -148 172s-148 -56 -148 -172zM189 742h-26c-10 0 -15 6 -14 16c8 65 41 101 90 101
c26 0 43 -7 72 -32c17 -16 26 -21 39 -21c17 0 28 11 33 37c2 9 7 14 16 14h26c10 0 15 -6 14 -16c-8 -65 -41 -101 -90 -101c-26 0 -43 7 -72 32c-17 16 -26 21 -39 21c-17 0 -28 -11 -33 -37c-2 -9 -7 -14 -16 -14z" />
    <glyph glyph-name="Odieresis" unicode="&#xd6;" horiz-adv-x="588" 
d="M56 228v208c0 156 84 240 238 240s238 -84 238 -240v-208c0 -156 -84 -240 -238 -240s-238 84 -238 240zM146 425v-186c0 -116 48 -172 148 -172s148 56 148 172v186c0 116 -48 172 -148 172s-148 -56 -148 -172zM211 753c-29 0 -50 21 -50 49c0 29 21 50 50 50
c28 0 49 -21 49 -50c0 -28 -21 -49 -49 -49zM377 753c-28 0 -49 21 -49 49c0 29 21 50 49 50c29 0 50 -21 50 -50c0 -28 -21 -49 -50 -49z" />
    <glyph glyph-name="multiply" unicode="&#xd7;" horiz-adv-x="529" 
d="M322 279l166 -166c8 -8 8 -18 0 -26l-28 -28c-8 -8 -18 -8 -26 0l-166 166l-167 -166c-8 -8 -18 -8 -26 0l-28 28c-8 8 -8 18 0 26l166 166l-166 166c-8 8 -8 18 0 26l28 28c8 8 18 8 26 0l167 -166l166 166c8 8 18 8 26 0l28 -28c8 -8 8 -18 0 -26z" />
    <glyph glyph-name="Oslash" unicode="&#xd8;" horiz-adv-x="588" 
d="M527 626l-30 -45c23 -38 35 -86 35 -145v-208c0 -156 -84 -240 -238 -240c-64 0 -117 15 -156 43l-20 -31c-7 -10 -15 -11 -25 -5l-27 18c-10 7 -12 15 -5 25l30 45c-23 38 -35 86 -35 145v208c0 156 84 240 238 240c64 0 117 -15 156 -43l20 31c7 10 15 11 25 5l27 -18
c10 -7 12 -15 5 -25zM146 425v-186c0 -22 2 -42 5 -60h2l248 380c-24 25 -60 38 -107 38c-100 0 -148 -56 -148 -172zM442 239v186c0 22 -2 42 -5 60h-2l-248 -380c24 -25 60 -38 107 -38c100 0 148 56 148 172z" />
    <glyph glyph-name="Ugrave" unicode="&#xd9;" horiz-adv-x="588" 
d="M520 645v-425c0 -151 -80 -232 -226 -232s-226 81 -226 232v425c0 12 7 19 19 19h52c12 0 19 -7 19 -19v-416c0 -111 44 -162 137 -162s137 51 137 162v416c0 12 7 19 19 19h50c12 0 19 -7 19 -19zM320 729h-41c-9 0 -15 3 -21 11l-84 120c-9 12 -4 21 10 21h52
c9 0 15 -3 20 -11l75 -121c7 -11 3 -20 -11 -20z" />
    <glyph glyph-name="Uacute" unicode="&#xda;" horiz-adv-x="588" 
d="M520 645v-425c0 -151 -80 -232 -226 -232s-226 81 -226 232v425c0 12 7 19 19 19h52c12 0 19 -7 19 -19v-416c0 -111 44 -162 137 -162s137 51 137 162v416c0 12 7 19 19 19h50c12 0 19 -7 19 -19zM414 860l-84 -120c-6 -8 -12 -11 -21 -11h-41c-14 0 -18 9 -11 20
l75 121c5 8 11 11 20 11h52c14 0 19 -9 10 -21z" />
    <glyph glyph-name="Ucircumflex" unicode="&#xdb;" horiz-adv-x="588" 
d="M520 645v-425c0 -151 -80 -232 -226 -232s-226 81 -226 232v425c0 12 7 19 19 19h52c12 0 19 -7 19 -19v-416c0 -111 44 -162 137 -162s137 51 137 162v416c0 12 7 19 19 19h50c12 0 19 -7 19 -19zM293 823l-58 -83c-5 -8 -11 -11 -20 -11h-37c-14 0 -19 9 -11 21l83 120
c5 8 11 11 20 11h46c9 0 15 -3 20 -11l84 -120c8 -12 3 -21 -11 -21h-37c-9 0 -15 3 -21 11z" />
    <glyph glyph-name="Udieresis" unicode="&#xdc;" horiz-adv-x="588" 
d="M520 645v-425c0 -151 -80 -232 -226 -232s-226 81 -226 232v425c0 12 7 19 19 19h52c12 0 19 -7 19 -19v-416c0 -111 44 -162 137 -162s137 51 137 162v416c0 12 7 19 19 19h50c12 0 19 -7 19 -19zM211 753c-29 0 -50 21 -50 49c0 29 21 50 50 50c28 0 49 -21 49 -50
c0 -28 -21 -49 -49 -49zM377 753c-28 0 -49 21 -49 49c0 29 21 50 49 50c29 0 50 -21 50 -50c0 -28 -21 -49 -50 -49z" />
    <glyph glyph-name="Yacute" unicode="&#xdd;" horiz-adv-x="530" 
d="M310 288v-269c0 -12 -7 -19 -19 -19h-52c-12 0 -19 7 -19 19v270l-208 352c-7 13 -2 23 13 23h65c10 0 17 -4 22 -13l155 -277l155 277c5 9 12 13 22 13h61c15 0 20 -10 13 -23zM385 860l-84 -120c-6 -8 -12 -11 -21 -11h-41c-14 0 -18 9 -11 20l75 121c5 8 11 11 20 11
h52c14 0 19 -9 10 -21z" />
    <glyph glyph-name="Thorn" unicode="&#xde;" horiz-adv-x="546" 
d="M169 546h115c161 0 236 -64 236 -204s-75 -204 -236 -204h-115v-119c0 -12 -7 -19 -19 -19h-52c-12 0 -19 7 -19 19v626c0 12 7 19 19 19h52c12 0 19 -7 19 -19v-99zM169 217h114c101 0 146 39 146 125s-45 125 -146 125h-114v-250z" />
    <glyph glyph-name="germandbls" unicode="&#xdf;" horiz-adv-x="552" 
d="M67 19v515c0 111 73 178 194 178c123 0 195 -59 195 -159c0 -58 -21 -95 -82 -135c-41 -27 -53 -45 -53 -69c0 -31 17 -47 76 -62c94 -24 128 -69 128 -151c0 -91 -66 -148 -171 -148c-64 0 -115 14 -152 41c-10 7 -11 16 -5 26l19 31c7 11 16 12 26 4
c28 -20 64 -30 104 -30c61 0 96 27 96 76c0 41 -22 64 -88 81c-86 22 -116 59 -116 128c0 51 20 86 78 125c47 32 58 52 58 80c0 57 -40 90 -111 90c-73 0 -113 -38 -113 -107v-514c0 -12 -7 -19 -19 -19h-45c-12 0 -19 7 -19 19z" />
    <glyph glyph-name="agrave" unicode="&#xe0;" horiz-adv-x="456" 
d="M217 507c123 0 190 -66 190 -194v-136c0 -123 -66 -189 -190 -189c-115 0 -179 56 -179 154c0 95 63 151 178 151h108v12c0 91 -37 130 -114 130c-37 0 -72 -15 -99 -38c-10 -9 -19 -9 -27 2l-21 29c-7 10 -6 19 3 27c43 35 93 52 151 52zM217 60c73 0 107 40 107 125v39
h-98c-66 0 -105 -28 -105 -83c0 -54 35 -81 96 -81zM258 566h-41c-9 0 -15 3 -21 11l-84 120c-9 12 -4 21 10 21h52c9 0 15 -3 20 -11l75 -121c7 -11 3 -20 -11 -20z" />
    <glyph glyph-name="aacute" unicode="&#xe1;" horiz-adv-x="456" 
d="M217 507c123 0 190 -66 190 -194v-136c0 -123 -66 -189 -190 -189c-115 0 -179 56 -179 154c0 95 63 151 178 151h108v12c0 91 -37 130 -114 130c-37 0 -72 -15 -99 -38c-10 -9 -19 -9 -27 2l-21 29c-7 10 -6 19 3 27c43 35 93 52 151 52zM217 60c73 0 107 40 107 125v39
h-98c-66 0 -105 -28 -105 -83c0 -54 35 -81 96 -81zM352 697l-84 -120c-6 -8 -12 -11 -21 -11h-41c-14 0 -18 9 -11 20l75 121c5 8 11 11 20 11h52c14 0 19 -9 10 -21z" />
    <glyph glyph-name="acircumflex" unicode="&#xe2;" horiz-adv-x="456" 
d="M217 507c123 0 190 -66 190 -194v-136c0 -123 -66 -189 -190 -189c-115 0 -179 56 -179 154c0 95 63 151 178 151h108v12c0 91 -37 130 -114 130c-37 0 -72 -15 -99 -38c-10 -9 -19 -9 -27 2l-21 29c-7 10 -6 19 3 27c43 35 93 52 151 52zM217 60c73 0 107 40 107 125v39
h-98c-66 0 -105 -28 -105 -83c0 -54 35 -81 96 -81zM231 660l-58 -83c-5 -8 -11 -11 -20 -11h-37c-14 0 -19 9 -11 21l83 120c5 8 11 11 20 11h46c9 0 15 -3 20 -11l84 -120c8 -12 3 -21 -11 -21h-37c-9 0 -15 3 -21 11z" />
    <glyph glyph-name="atilde" unicode="&#xe3;" horiz-adv-x="456" 
d="M217 507c123 0 190 -66 190 -194v-136c0 -123 -66 -189 -190 -189c-115 0 -179 56 -179 154c0 95 63 151 178 151h108v12c0 91 -37 130 -114 130c-37 0 -72 -15 -99 -38c-10 -9 -19 -9 -27 2l-21 29c-7 10 -6 19 3 27c43 35 93 52 151 52zM217 60c73 0 107 40 107 125v39
h-98c-66 0 -105 -28 -105 -83c0 -54 35 -81 96 -81zM127 579h-26c-10 0 -15 6 -14 16c8 65 41 101 90 101c26 0 43 -7 72 -32c17 -16 26 -21 39 -21c17 0 28 11 33 37c2 9 7 14 16 14h26c10 0 15 -6 14 -16c-8 -65 -41 -101 -90 -101c-26 0 -43 7 -72 32
c-17 16 -26 21 -39 21c-17 0 -28 -11 -33 -37c-2 -9 -7 -14 -16 -14z" />
    <glyph glyph-name="adieresis" unicode="&#xe4;" horiz-adv-x="456" 
d="M217 507c123 0 190 -66 190 -194v-136c0 -123 -66 -189 -190 -189c-115 0 -179 56 -179 154c0 95 63 151 178 151h108v12c0 91 -37 130 -114 130c-37 0 -72 -15 -99 -38c-10 -9 -19 -9 -27 2l-21 29c-7 10 -6 19 3 27c43 35 93 52 151 52zM217 60c73 0 107 40 107 125v39
h-98c-66 0 -105 -28 -105 -83c0 -54 35 -81 96 -81zM149 590c-29 0 -50 21 -50 49c0 29 21 50 50 50c28 0 49 -21 49 -50c0 -28 -21 -49 -49 -49zM315 590c-28 0 -49 21 -49 49c0 29 21 50 49 50c29 0 50 -21 50 -50c0 -28 -21 -49 -50 -49z" />
    <glyph glyph-name="aring" unicode="&#xe5;" horiz-adv-x="456" 
d="M217 507c123 0 190 -66 190 -194v-136c0 -123 -66 -189 -190 -189c-115 0 -179 56 -179 154c0 95 63 151 178 151h108v12c0 91 -37 130 -114 130c-37 0 -72 -15 -99 -38c-10 -9 -19 -9 -27 2l-21 29c-7 10 -6 19 3 27c43 35 93 52 151 52zM217 60c73 0 107 40 107 125v39
h-98c-66 0 -105 -28 -105 -83c0 -54 35 -81 96 -81zM232 560c-47 0 -82 35 -82 82s35 82 82 82s82 -35 82 -82s-35 -82 -82 -82zM232 607c21 0 35 14 35 35s-14 35 -35 35s-35 -14 -35 -35s14 -35 35 -35z" />
    <glyph glyph-name="ae" unicode="&#xe6;" horiz-adv-x="735" 
d="M520 507c111 0 175 -68 175 -189v-77c0 -12 -7 -19 -19 -19h-269v-32c0 -91 38 -130 122 -130c39 0 70 13 101 41c9 9 19 8 27 -2l20 -25c7 -9 8 -18 -1 -27c-39 -39 -89 -59 -145 -59c-81 0 -136 28 -163 85h-2c-25 -57 -78 -85 -158 -85c-106 0 -170 58 -170 153
s63 150 178 150h108v14c0 91 -37 130 -114 130c-38 0 -73 -15 -100 -38c-9 -9 -18 -9 -26 2l-21 29c-7 10 -6 19 3 27c42 34 93 52 146 52c77 0 127 -28 153 -83h2c25 55 76 83 153 83zM616 291v18c0 87 -33 126 -104 126c-72 0 -105 -39 -105 -126v-18h209zM324 222h-98
c-66 0 -105 -27 -105 -82c0 -54 35 -80 96 -80c73 0 107 40 107 125v37z" />
    <glyph glyph-name="ccedilla" unicode="&#xe7;" horiz-adv-x="405" 
d="M379 41c-35 -33 -77 -51 -129 -53l-7 -33c49 -3 73 -26 73 -60c0 -42 -32 -67 -93 -67c-28 0 -54 6 -75 17c-8 5 -10 12 -6 21l9 19c4 9 11 10 20 5c14 -7 31 -12 50 -12c22 0 36 8 36 22c0 19 -19 22 -52 22c-10 0 -13 4 -11 15l10 53c-99 12 -155 77 -155 192v132
c0 127 68 193 188 193c56 0 101 -15 132 -43c9 -8 9 -18 2 -27l-21 -26c-9 -10 -17 -10 -27 -2c-21 17 -45 26 -81 26c-74 0 -110 -40 -110 -130v-115c0 -90 38 -130 114 -130c35 0 63 11 87 34c9 9 19 9 27 -1l20 -25c7 -9 7 -19 -1 -27z" />
    <glyph glyph-name="egrave" unicode="&#xe8;" horiz-adv-x="459" 
d="M234 507c120 0 185 -66 185 -189v-80c0 -12 -7 -19 -19 -19h-268v-29c0 -91 37 -130 121 -130c40 0 70 13 101 41c9 9 19 8 27 -2l20 -25c7 -9 7 -19 -1 -27c-40 -39 -92 -59 -150 -59c-132 0 -201 64 -201 194v136c0 123 65 189 185 189zM340 288v21
c0 87 -33 126 -104 126s-104 -39 -104 -126v-21h208zM262 566h-41c-9 0 -15 3 -21 11l-84 120c-9 12 -4 21 10 21h52c9 0 15 -3 20 -11l75 -121c7 -11 3 -20 -11 -20z" />
    <glyph glyph-name="eacute" unicode="&#xe9;" horiz-adv-x="459" 
d="M234 507c120 0 185 -66 185 -189v-80c0 -12 -7 -19 -19 -19h-268v-29c0 -91 37 -130 121 -130c40 0 70 13 101 41c9 9 19 8 27 -2l20 -25c7 -9 7 -19 -1 -27c-40 -39 -92 -59 -150 -59c-132 0 -201 64 -201 194v136c0 123 65 189 185 189zM340 288v21
c0 87 -33 126 -104 126s-104 -39 -104 -126v-21h208zM356 697l-84 -120c-6 -8 -12 -11 -21 -11h-41c-14 0 -18 9 -11 20l75 121c5 8 11 11 20 11h52c14 0 19 -9 10 -21z" />
    <glyph glyph-name="ecircumflex" unicode="&#xea;" horiz-adv-x="459" 
d="M234 507c120 0 185 -66 185 -189v-80c0 -12 -7 -19 -19 -19h-268v-29c0 -91 37 -130 121 -130c40 0 70 13 101 41c9 9 19 8 27 -2l20 -25c7 -9 7 -19 -1 -27c-40 -39 -92 -59 -150 -59c-132 0 -201 64 -201 194v136c0 123 65 189 185 189zM340 288v21
c0 87 -33 126 -104 126s-104 -39 -104 -126v-21h208zM235 660l-58 -83c-5 -8 -11 -11 -20 -11h-37c-14 0 -19 9 -11 21l83 120c5 8 11 11 20 11h46c9 0 15 -3 20 -11l84 -120c8 -12 3 -21 -11 -21h-37c-9 0 -15 3 -21 11z" />
    <glyph glyph-name="edieresis" unicode="&#xeb;" horiz-adv-x="459" 
d="M234 507c120 0 185 -66 185 -189v-80c0 -12 -7 -19 -19 -19h-268v-29c0 -91 37 -130 121 -130c40 0 70 13 101 41c9 9 19 8 27 -2l20 -25c7 -9 7 -19 -1 -27c-40 -39 -92 -59 -150 -59c-132 0 -201 64 -201 194v136c0 123 65 189 185 189zM340 288v21
c0 87 -33 126 -104 126s-104 -39 -104 -126v-21h208zM153 590c-29 0 -50 21 -50 49c0 29 21 50 50 50c28 0 49 -21 49 -50c0 -28 -21 -49 -49 -49zM319 590c-28 0 -49 21 -49 49c0 29 21 50 49 50c29 0 50 -21 50 -50c0 -28 -21 -49 -50 -49z" />
    <glyph glyph-name="igrave" unicode="&#xec;" horiz-adv-x="217" 
d="M131 0h-45c-12 0 -19 7 -19 19v457c0 12 7 19 19 19h45c12 0 19 -7 19 -19v-457c0 -12 -7 -19 -19 -19zM134 566h-41c-9 0 -15 3 -21 11l-84 120c-9 12 -4 21 10 21h52c9 0 15 -3 20 -11l75 -121c7 -11 3 -20 -11 -20z" />
    <glyph glyph-name="iacute" unicode="&#xed;" horiz-adv-x="217" 
d="M131 0h-45c-12 0 -19 7 -19 19v457c0 12 7 19 19 19h45c12 0 19 -7 19 -19v-457c0 -12 -7 -19 -19 -19zM228 697l-84 -120c-6 -8 -12 -11 -21 -11h-41c-14 0 -18 9 -11 20l75 121c5 8 11 11 20 11h52c14 0 19 -9 10 -21z" />
    <glyph glyph-name="icircumflex" unicode="&#xee;" horiz-adv-x="217" 
d="M131 0h-45c-12 0 -19 7 -19 19v457c0 12 7 19 19 19h45c12 0 19 -7 19 -19v-457c0 -12 -7 -19 -19 -19zM107 660l-58 -83c-5 -8 -11 -11 -20 -11h-37c-14 0 -19 9 -11 21l83 120c5 8 11 11 20 11h46c9 0 15 -3 20 -11l84 -120c8 -12 3 -21 -11 -21h-37c-9 0 -15 3 -21 11
z" />
    <glyph glyph-name="idieresis" unicode="&#xef;" horiz-adv-x="217" 
d="M131 0h-45c-12 0 -19 7 -19 19v457c0 12 7 19 19 19h45c12 0 19 -7 19 -19v-457c0 -12 -7 -19 -19 -19zM25 590c-29 0 -50 21 -50 49c0 29 21 50 50 50c28 0 49 -21 49 -50c0 -28 -21 -49 -49 -49zM191 590c-28 0 -49 21 -49 49c0 29 21 50 49 50c29 0 50 -21 50 -50
c0 -28 -21 -49 -50 -49z" />
    <glyph glyph-name="eth" unicode="&#xf0;" horiz-adv-x="483" 
d="M354 649l-26 -20c68 -64 98 -164 98 -309v-143c0 -123 -66 -189 -189 -189c-122 0 -188 66 -188 189v132c0 122 61 188 175 188c44 0 79 -14 104 -41h2c-11 54 -32 95 -64 124l-62 -48c-8 -7 -17 -6 -23 3l-21 27c-6 8 -5 17 3 23l41 32c-26 10 -56 17 -89 21
c-13 1 -19 9 -17 21l6 36c2 12 9 17 21 16c57 -7 106 -20 146 -41l42 32c8 7 17 6 23 -3l21 -27c6 -8 5 -17 -3 -23zM343 185v115c0 83 -35 125 -106 125c-72 0 -105 -40 -105 -125v-115c0 -85 33 -125 105 -125c73 0 106 40 106 125z" />
    <glyph glyph-name="ntilde" unicode="&#xf1;" horiz-adv-x="494" 
d="M349 19v294c0 84 -32 122 -102 122s-102 -38 -102 -122v-294c0 -12 -7 -19 -19 -19h-45c-12 0 -19 7 -19 19v303c0 120 65 185 185 185s185 -65 185 -185v-303c0 -12 -7 -19 -19 -19h-45c-12 0 -19 7 -19 19zM142 579h-26c-10 0 -15 6 -14 16c8 65 41 101 90 101
c26 0 43 -7 72 -32c17 -16 26 -21 39 -21c17 0 28 11 33 37c2 9 7 14 16 14h26c10 0 15 -6 14 -16c-8 -65 -41 -101 -90 -101c-26 0 -43 7 -72 32c-17 16 -26 21 -39 21c-17 0 -28 -11 -33 -37c-2 -9 -7 -14 -16 -14z" />
    <glyph glyph-name="ograve" unicode="&#xf2;" horiz-adv-x="475" 
d="M237 507c123 0 189 -66 189 -189v-142c0 -122 -66 -188 -189 -188c-122 0 -188 66 -188 188v142c0 123 66 189 188 189zM343 185v124c0 86 -33 126 -106 126c-72 0 -105 -40 -105 -126v-124c0 -85 33 -125 105 -125c73 0 106 40 106 125zM263 566h-41c-9 0 -15 3 -21 11
l-84 120c-9 12 -4 21 10 21h52c9 0 15 -3 20 -11l75 -121c7 -11 3 -20 -11 -20z" />
    <glyph glyph-name="oacute" unicode="&#xf3;" horiz-adv-x="475" 
d="M237 507c123 0 189 -66 189 -189v-142c0 -122 -66 -188 -189 -188c-122 0 -188 66 -188 188v142c0 123 66 189 188 189zM343 185v124c0 86 -33 126 -106 126c-72 0 -105 -40 -105 -126v-124c0 -85 33 -125 105 -125c73 0 106 40 106 125zM357 697l-84 -120
c-6 -8 -12 -11 -21 -11h-41c-14 0 -18 9 -11 20l75 121c5 8 11 11 20 11h52c14 0 19 -9 10 -21z" />
    <glyph glyph-name="ocircumflex" unicode="&#xf4;" horiz-adv-x="475" 
d="M237 507c123 0 189 -66 189 -189v-142c0 -122 -66 -188 -189 -188c-122 0 -188 66 -188 188v142c0 123 66 189 188 189zM343 185v124c0 86 -33 126 -106 126c-72 0 -105 -40 -105 -126v-124c0 -85 33 -125 105 -125c73 0 106 40 106 125zM236 660l-58 -83
c-5 -8 -11 -11 -20 -11h-37c-14 0 -19 9 -11 21l83 120c5 8 11 11 20 11h46c9 0 15 -3 20 -11l84 -120c8 -12 3 -21 -11 -21h-37c-9 0 -15 3 -21 11z" />
    <glyph glyph-name="otilde" unicode="&#xf5;" horiz-adv-x="475" 
d="M237 507c123 0 189 -66 189 -189v-142c0 -122 -66 -188 -189 -188c-122 0 -188 66 -188 188v142c0 123 66 189 188 189zM343 185v124c0 86 -33 126 -106 126c-72 0 -105 -40 -105 -126v-124c0 -85 33 -125 105 -125c73 0 106 40 106 125zM132 579h-26c-10 0 -15 6 -14 16
c8 65 41 101 90 101c26 0 43 -7 72 -32c17 -16 26 -21 39 -21c17 0 28 11 33 37c2 9 7 14 16 14h26c10 0 15 -6 14 -16c-8 -65 -41 -101 -90 -101c-26 0 -43 7 -72 32c-17 16 -26 21 -39 21c-17 0 -28 -11 -33 -37c-2 -9 -7 -14 -16 -14z" />
    <glyph glyph-name="odieresis" unicode="&#xf6;" horiz-adv-x="475" 
d="M237 507c123 0 189 -66 189 -189v-142c0 -122 -66 -188 -189 -188c-122 0 -188 66 -188 188v142c0 123 66 189 188 189zM343 185v124c0 86 -33 126 -106 126c-72 0 -105 -40 -105 -126v-124c0 -85 33 -125 105 -125c73 0 106 40 106 125zM154 590c-29 0 -50 21 -50 49
c0 29 21 50 50 50c28 0 49 -21 49 -50c0 -28 -21 -49 -49 -49zM320 590c-28 0 -49 21 -49 49c0 29 21 50 49 50c29 0 50 -21 50 -50c0 -28 -21 -49 -50 -49z" />
    <glyph glyph-name="divide" unicode="&#xf7;" horiz-adv-x="529" 
d="M264 424c-31 0 -53 23 -53 54s22 54 53 54c32 0 54 -23 54 -54s-22 -54 -54 -54zM488 240h-448c-12 0 -19 7 -19 19v39c0 12 7 19 19 19h448c12 0 19 -7 19 -19v-39c0 -12 -7 -19 -19 -19zM264 26c-31 0 -53 23 -53 54s22 54 53 54c32 0 54 -23 54 -54s-22 -54 -54 -54z
" />
    <glyph glyph-name="oslash" unicode="&#xf8;" horiz-adv-x="475" 
d="M422 456l-20 -30c16 -28 24 -65 24 -108v-142c0 -122 -66 -188 -189 -188c-47 0 -85 10 -115 29l-12 -18c-7 -9 -15 -10 -24 -4l-28 20c-9 7 -11 15 -5 24l20 29c-16 29 -24 65 -24 108v142c0 123 66 189 188 189c47 0 86 -10 116 -29l12 18c7 9 15 10 24 4l28 -20
c9 -7 11 -15 5 -24zM132 309v-124c0 -9 0 -18 1 -26h2l174 254c-18 15 -41 22 -72 22c-72 0 -105 -40 -105 -126zM343 185v124c0 9 0 19 -1 27h-2l-174 -254c17 -15 41 -22 71 -22c73 0 106 40 106 125z" />
    <glyph glyph-name="ugrave" unicode="&#xf9;" horiz-adv-x="488" 
d="M426 476v-306c0 -119 -64 -182 -182 -182s-182 63 -182 182v306c0 12 7 19 19 19h45c12 0 19 -7 19 -19v-299c0 -81 31 -117 100 -117s100 36 100 117v299c0 12 7 19 19 19h43c12 0 19 -7 19 -19zM270 566h-41c-9 0 -15 3 -21 11l-84 120c-9 12 -4 21 10 21h52
c9 0 15 -3 20 -11l75 -121c7 -11 3 -20 -11 -20z" />
    <glyph glyph-name="uacute" unicode="&#xfa;" horiz-adv-x="488" 
d="M426 476v-306c0 -119 -64 -182 -182 -182s-182 63 -182 182v306c0 12 7 19 19 19h45c12 0 19 -7 19 -19v-299c0 -81 31 -117 100 -117s100 36 100 117v299c0 12 7 19 19 19h43c12 0 19 -7 19 -19zM364 697l-84 -120c-6 -8 -12 -11 -21 -11h-41c-14 0 -18 9 -11 20l75 121
c5 8 11 11 20 11h52c14 0 19 -9 10 -21z" />
    <glyph glyph-name="ucircumflex" unicode="&#xfb;" horiz-adv-x="488" 
d="M426 476v-306c0 -119 -64 -182 -182 -182s-182 63 -182 182v306c0 12 7 19 19 19h45c12 0 19 -7 19 -19v-299c0 -81 31 -117 100 -117s100 36 100 117v299c0 12 7 19 19 19h43c12 0 19 -7 19 -19zM243 660l-58 -83c-5 -8 -11 -11 -20 -11h-37c-14 0 -19 9 -11 21l83 120
c5 8 11 11 20 11h46c9 0 15 -3 20 -11l84 -120c8 -12 3 -21 -11 -21h-37c-9 0 -15 3 -21 11z" />
    <glyph glyph-name="udieresis" unicode="&#xfc;" horiz-adv-x="488" 
d="M426 476v-306c0 -119 -64 -182 -182 -182s-182 63 -182 182v306c0 12 7 19 19 19h45c12 0 19 -7 19 -19v-299c0 -81 31 -117 100 -117s100 36 100 117v299c0 12 7 19 19 19h43c12 0 19 -7 19 -19zM161 590c-29 0 -50 21 -50 49c0 29 21 50 50 50c28 0 49 -21 49 -50
c0 -28 -21 -49 -49 -49zM327 590c-28 0 -49 21 -49 49c0 29 21 50 49 50c29 0 50 -21 50 -50c0 -28 -21 -49 -50 -49z" />
    <glyph glyph-name="yacute" unicode="&#xfd;" horiz-adv-x="499" 
d="M368 495h45c12 0 19 -7 19 -19v-471c0 -110 -71 -177 -188 -177c-66 0 -121 19 -162 55c-9 8 -10 17 -3 27l19 27c7 11 16 12 26 3c33 -27 70 -40 115 -40c72 0 110 40 110 111v42h-2c-25 -33 -65 -49 -116 -49c-110 0 -169 64 -169 185v287c0 12 7 19 19 19h45
c12 0 19 -7 19 -19v-279c0 -83 32 -121 102 -121c68 0 102 40 102 121v279c0 12 7 19 19 19zM367 697l-84 -120c-6 -8 -12 -11 -21 -11h-41c-14 0 -18 9 -11 20l75 121c5 8 11 11 20 11h52c14 0 19 -9 10 -21z" />
    <glyph glyph-name="thorn" unicode="&#xfe;" horiz-adv-x="493" 
d="M269 507c114 0 175 -66 175 -188v-142c0 -123 -61 -189 -175 -189c-52 0 -92 17 -117 50h-2v-179c0 -12 -7 -19 -19 -19h-45c-12 0 -19 7 -19 19v822c0 12 7 19 19 19h45c12 0 19 -7 19 -19v-224h2c25 33 65 50 117 50zM361 186v124c0 85 -33 125 -105 125
c-71 0 -106 -42 -106 -125v-124c0 -84 35 -126 106 -126c72 0 105 40 105 126z" />
    <glyph glyph-name="ydieresis" unicode="&#xff;" horiz-adv-x="499" 
d="M368 495h45c12 0 19 -7 19 -19v-471c0 -110 -71 -177 -188 -177c-66 0 -121 19 -162 55c-9 8 -10 17 -3 27l19 27c7 11 16 12 26 3c33 -27 70 -40 115 -40c72 0 110 40 110 111v42h-2c-25 -33 -65 -49 -116 -49c-110 0 -169 64 -169 185v287c0 12 7 19 19 19h45
c12 0 19 -7 19 -19v-279c0 -83 32 -121 102 -121c68 0 102 40 102 121v279c0 12 7 19 19 19zM164 590c-29 0 -50 21 -50 49c0 29 21 50 50 50c28 0 49 -21 49 -50c0 -28 -21 -49 -49 -49zM330 590c-28 0 -49 21 -49 49c0 29 21 50 49 50c29 0 50 -21 50 -50
c0 -28 -21 -49 -50 -49z" />
    <glyph glyph-name="Amacron" unicode="&#x100;" horiz-adv-x="587" 
d="M347 647l212 -625c5 -14 -2 -22 -16 -22h-56c-11 0 -18 5 -21 16l-39 121h-270l-39 -121c-3 -11 -10 -16 -21 -16h-53c-14 0 -21 8 -16 22l212 626c4 11 11 16 23 16h61c12 0 19 -5 23 -17zM293 556h-2l-108 -340h219zM424 811v-32c0 -11 -6 -17 -17 -17h-229
c-11 0 -17 6 -17 17v32c0 11 6 17 17 17h229c11 0 17 -6 17 -17z" />
    <glyph glyph-name="amacron" unicode="&#x101;" horiz-adv-x="456" 
d="M217 507c123 0 190 -66 190 -194v-136c0 -123 -66 -189 -190 -189c-115 0 -179 56 -179 154c0 95 63 151 178 151h108v12c0 91 -37 130 -114 130c-37 0 -72 -15 -99 -38c-10 -9 -19 -9 -27 2l-21 29c-7 10 -6 19 3 27c43 35 93 52 151 52zM217 60c73 0 107 40 107 125v39
h-98c-66 0 -105 -28 -105 -83c0 -54 35 -81 96 -81zM363 648v-32c0 -11 -6 -17 -17 -17h-229c-11 0 -17 6 -17 17v32c0 11 6 17 17 17h229c11 0 17 -6 17 -17z" />
    <glyph glyph-name="Abreve" unicode="&#x102;" horiz-adv-x="587" 
d="M347 647l212 -625c5 -14 -2 -22 -16 -22h-56c-11 0 -18 5 -21 16l-39 121h-270l-39 -121c-3 -11 -10 -16 -21 -16h-53c-14 0 -21 8 -16 22l212 626c4 11 11 16 23 16h61c12 0 19 -5 23 -17zM293 556h-2l-108 -340h219zM381 864h30c10 0 16 -6 15 -16
c-8 -68 -60 -107 -133 -107s-125 39 -133 107c-1 10 5 16 15 16h30c10 0 14 -4 17 -13c9 -31 35 -46 71 -46s62 15 71 46c3 9 7 13 17 13z" />
    <glyph glyph-name="abreve" unicode="&#x103;" horiz-adv-x="456" 
d="M217 507c123 0 190 -66 190 -194v-136c0 -123 -66 -189 -190 -189c-115 0 -179 56 -179 154c0 95 63 151 178 151h108v12c0 91 -37 130 -114 130c-37 0 -72 -15 -99 -38c-10 -9 -19 -9 -27 2l-21 29c-7 10 -6 19 3 27c43 35 93 52 151 52zM217 60c73 0 107 40 107 125v39
h-98c-66 0 -105 -28 -105 -83c0 -54 35 -81 96 -81zM320 701h30c10 0 16 -6 15 -16c-8 -68 -60 -107 -133 -107s-125 39 -133 107c-1 10 5 16 15 16h30c10 0 14 -4 17 -13c9 -31 35 -46 71 -46s62 15 71 46c3 9 7 13 17 13z" />
    <glyph glyph-name="Aogonek" unicode="&#x104;" horiz-adv-x="587" 
d="M560 -103l14 -18c7 -9 7 -16 -1 -23c-20 -17 -45 -28 -77 -28c-53 0 -87 29 -87 76c0 38 17 74 60 104l-42 129h-270l-39 -121c-3 -11 -10 -16 -21 -16h-53c-14 0 -21 8 -16 22l212 626c4 11 11 16 23 16h61c12 0 19 -5 23 -17l212 -625c5 -14 -2 -22 -16 -22h-12
c-43 -23 -63 -49 -63 -80c0 -20 16 -36 36 -36c13 0 24 5 34 13c8 7 16 8 22 0zM291 556l-108 -340h219l-109 340h-2z" />
    <glyph glyph-name="aogonek" unicode="&#x105;" horiz-adv-x="456" 
d="M325 11c-47 -26 -68 -59 -68 -91c0 -20 16 -36 36 -36c14 0 25 5 35 13c8 7 16 7 22 -1l14 -18c7 -8 6 -16 -2 -23c-20 -17 -41 -27 -73 -27c-57 0 -91 31 -91 80c0 29 9 55 31 78v2h-12c-115 0 -179 56 -179 154c0 95 63 151 178 151h108v12c0 91 -37 130 -114 130
c-37 0 -72 -15 -99 -38c-10 -9 -19 -9 -27 2l-21 29c-7 10 -6 19 3 27c43 35 93 52 151 52c123 0 190 -66 190 -194v-136c0 -81 -27 -135 -82 -166zM217 60c73 0 107 40 107 125v39h-98c-66 0 -105 -28 -105 -83c0 -54 35 -81 96 -81z" />
    <glyph glyph-name="Cacute" unicode="&#x106;" horiz-adv-x="527" 
d="M289 67c65 0 110 27 138 77c6 12 15 15 26 8l37 -21c10 -6 14 -15 8 -26c-42 -78 -112 -117 -209 -117c-151 0 -233 84 -233 240v208c0 156 82 240 233 240c98 0 168 -39 209 -117c6 -11 3 -20 -8 -26l-37 -21c-11 -7 -20 -4 -26 7c-28 51 -73 78 -138 78
c-96 0 -143 -57 -143 -172v-186c0 -115 47 -172 143 -172zM403 860l-84 -120c-6 -8 -12 -11 -21 -11h-41c-14 0 -18 9 -11 20l75 121c5 8 11 11 20 11h52c14 0 19 -9 10 -21z" />
    <glyph glyph-name="cacute" unicode="&#x107;" horiz-adv-x="405" 
d="M360 93l20 -25c7 -9 7 -19 -1 -27c-37 -35 -83 -53 -139 -53c-122 0 -191 66 -191 194v132c0 127 68 193 188 193c56 0 101 -15 132 -43c9 -8 9 -18 2 -27l-21 -26c-9 -10 -17 -10 -27 -2c-21 17 -45 26 -81 26c-74 0 -110 -40 -110 -130v-115c0 -90 38 -130 114 -130
c35 0 63 11 87 34c9 9 19 9 27 -1zM343 697l-84 -120c-6 -8 -12 -11 -21 -11h-41c-14 0 -18 9 -11 20l75 121c5 8 11 11 20 11h52c14 0 19 -9 10 -21z" />
    <glyph glyph-name="Ccircumflex" unicode="&#x108;" horiz-adv-x="527" 
d="M289 67c65 0 110 27 138 77c6 12 15 15 26 8l37 -21c10 -6 14 -15 8 -26c-42 -78 -112 -117 -209 -117c-151 0 -233 84 -233 240v208c0 156 82 240 233 240c98 0 168 -39 209 -117c6 -11 3 -20 -8 -26l-37 -21c-11 -7 -20 -4 -26 7c-28 51 -73 78 -138 78
c-96 0 -143 -57 -143 -172v-186c0 -115 47 -172 143 -172zM282 823l-58 -83c-5 -8 -11 -11 -20 -11h-37c-14 0 -19 9 -11 21l83 120c5 8 11 11 20 11h46c9 0 15 -3 20 -11l84 -120c8 -12 3 -21 -11 -21h-37c-9 0 -15 3 -21 11z" />
    <glyph glyph-name="ccircumflex" unicode="&#x109;" horiz-adv-x="405" 
d="M360 93l20 -25c7 -9 7 -19 -1 -27c-37 -35 -83 -53 -139 -53c-122 0 -191 66 -191 194v132c0 127 68 193 188 193c56 0 101 -15 132 -43c9 -8 9 -18 2 -27l-21 -26c-9 -10 -17 -10 -27 -2c-21 17 -45 26 -81 26c-74 0 -110 -40 -110 -130v-115c0 -90 38 -130 114 -130
c35 0 63 11 87 34c9 9 19 9 27 -1zM222 660l-58 -83c-5 -8 -11 -11 -20 -11h-37c-14 0 -19 9 -11 21l83 120c5 8 11 11 20 11h46c9 0 15 -3 20 -11l84 -120c8 -12 3 -21 -11 -21h-37c-9 0 -15 3 -21 11z" />
    <glyph glyph-name="Cdotaccent" unicode="&#x10a;" horiz-adv-x="527" 
d="M289 67c65 0 110 27 138 77c6 12 15 15 26 8l37 -21c10 -6 14 -15 8 -26c-42 -78 -112 -117 -209 -117c-151 0 -233 84 -233 240v208c0 156 82 240 233 240c98 0 168 -39 209 -117c6 -11 3 -20 -8 -26l-37 -21c-11 -7 -20 -4 -26 7c-28 51 -73 78 -138 78
c-96 0 -143 -57 -143 -172v-186c0 -115 47 -172 143 -172zM283 750c-30 0 -52 22 -52 52c0 31 22 53 52 53s52 -22 52 -53c0 -30 -22 -52 -52 -52z" />
    <glyph glyph-name="cdotaccent" unicode="&#x10b;" horiz-adv-x="405" 
d="M360 93l20 -25c7 -9 7 -19 -1 -27c-37 -35 -83 -53 -139 -53c-122 0 -191 66 -191 194v132c0 127 68 193 188 193c56 0 101 -15 132 -43c9 -8 9 -18 2 -27l-21 -26c-9 -10 -17 -10 -27 -2c-21 17 -45 26 -81 26c-74 0 -110 -40 -110 -130v-115c0 -90 38 -130 114 -130
c35 0 63 11 87 34c9 9 19 9 27 -1zM223 587c-30 0 -52 22 -52 52c0 31 22 53 52 53s52 -22 52 -53c0 -30 -22 -52 -52 -52z" />
    <glyph glyph-name="Ccaron" unicode="&#x10c;" horiz-adv-x="527" 
d="M289 67c65 0 110 27 138 77c6 12 15 15 26 8l37 -21c10 -6 14 -15 8 -26c-42 -78 -112 -117 -209 -117c-151 0 -233 84 -233 240v208c0 156 82 240 233 240c98 0 168 -39 209 -117c6 -11 3 -20 -8 -26l-37 -21c-11 -7 -20 -4 -26 7c-28 51 -73 78 -138 78
c-96 0 -143 -57 -143 -172v-186c0 -115 47 -172 143 -172zM409 860l-84 -120c-5 -8 -11 -11 -20 -11h-46c-9 0 -15 3 -20 11l-83 120c-8 12 -3 21 11 21h37c9 0 15 -3 20 -11l58 -82l58 82c6 8 12 11 21 11h37c14 0 19 -9 11 -21z" />
    <glyph glyph-name="ccaron" unicode="&#x10d;" horiz-adv-x="405" 
d="M360 93l20 -25c7 -9 7 -19 -1 -27c-37 -35 -83 -53 -139 -53c-122 0 -191 66 -191 194v132c0 127 68 193 188 193c56 0 101 -15 132 -43c9 -8 9 -18 2 -27l-21 -26c-9 -10 -17 -10 -27 -2c-21 17 -45 26 -81 26c-74 0 -110 -40 -110 -130v-115c0 -90 38 -130 114 -130
c35 0 63 11 87 34c9 9 19 9 27 -1zM349 697l-84 -120c-5 -8 -11 -11 -20 -11h-46c-9 0 -15 3 -20 11l-83 120c-8 12 -3 21 11 21h37c9 0 15 -3 20 -11l58 -82l58 82c6 8 12 11 21 11h37c14 0 19 -9 11 -21z" />
    <glyph glyph-name="Dcaron" unicode="&#x10e;" horiz-adv-x="591" 
d="M98 664h199c158 0 238 -77 238 -228v-207c0 -152 -80 -229 -238 -229h-199c-12 0 -19 7 -19 19v626c0 12 7 19 19 19zM445 240v185c0 109 -49 160 -152 160h-124v-506h124c103 0 152 51 152 161zM407 860l-84 -120c-5 -8 -11 -11 -20 -11h-46c-9 0 -15 3 -20 11l-83 120
c-8 12 -3 21 11 21h37c9 0 15 -3 20 -11l58 -82l58 82c6 8 12 11 21 11h37c14 0 19 -9 11 -21z" />
    <glyph glyph-name="dcaron" unicode="&#x10f;" horiz-adv-x="488" 
d="M362 700h45c12 0 19 -7 19 -19v-504c0 -123 -66 -189 -189 -189c-122 0 -188 66 -188 189v141c0 123 61 189 175 189c52 0 92 -17 117 -50h2v224c0 12 7 19 19 19zM343 185v124c0 84 -35 126 -106 126c-72 0 -105 -40 -105 -126v-124c0 -85 33 -125 105 -125
c73 0 106 40 106 125zM561 682l-28 -162c-2 -10 -8 -15 -19 -15h-25c-12 0 -17 6 -16 18l16 161c1 11 7 16 18 16h38c12 0 18 -7 16 -18z" />
    <glyph glyph-name="Dcroat" unicode="&#x110;" horiz-adv-x="602" 
d="M109 664h199c158 0 238 -77 238 -228v-207c0 -152 -80 -229 -238 -229h-199c-12 0 -19 7 -19 19v278h-47c-12 0 -19 7 -19 19v41c0 12 7 19 19 19h47v269c0 12 7 19 19 19zM456 240v185c0 109 -49 160 -152 160h-124v-209h118c12 0 19 -7 19 -19v-41
c0 -12 -7 -19 -19 -19h-118v-218h124c103 0 152 51 152 161z" />
    <glyph glyph-name="dcroat" unicode="&#x111;" horiz-adv-x="491" 
d="M426 624h42c12 0 18 -6 18 -18v-33c0 -12 -6 -18 -18 -18h-42v-378c0 -123 -66 -189 -189 -189c-122 0 -188 66 -188 189v141c0 123 61 189 175 189c52 0 92 -17 117 -50h2v98h-125c-12 0 -18 6 -18 18v33c0 12 6 18 18 18h125v57c0 12 7 19 19 19h45c12 0 19 -7 19 -19
v-57zM343 185v124c0 84 -35 126 -106 126c-72 0 -105 -40 -105 -126v-124c0 -85 33 -125 105 -125c73 0 106 40 106 125z" />
    <glyph glyph-name="Emacron" unicode="&#x112;" horiz-adv-x="538" 
d="M169 375h263c12 0 19 -7 19 -19v-41c0 -12 -7 -19 -19 -19h-263v-217h307c12 0 19 -7 19 -19v-41c0 -12 -7 -19 -19 -19h-378c-12 0 -19 7 -19 19v626c0 12 7 19 19 19h378c12 0 19 -7 19 -19v-41c0 -12 -7 -19 -19 -19h-307v-210zM418 811v-32c0 -11 -6 -17 -17 -17
h-229c-11 0 -17 6 -17 17v32c0 11 6 17 17 17h229c11 0 17 -6 17 -17z" />
    <glyph glyph-name="emacron" unicode="&#x113;" horiz-adv-x="459" 
d="M234 507c120 0 185 -66 185 -189v-80c0 -12 -7 -19 -19 -19h-268v-29c0 -91 37 -130 121 -130c40 0 70 13 101 41c9 9 19 8 27 -2l20 -25c7 -9 7 -19 -1 -27c-40 -39 -92 -59 -150 -59c-132 0 -201 64 -201 194v136c0 123 65 189 185 189zM340 288v21
c0 87 -33 126 -104 126s-104 -39 -104 -126v-21h208zM367 648v-32c0 -11 -6 -17 -17 -17h-229c-11 0 -17 6 -17 17v32c0 11 6 17 17 17h229c11 0 17 -6 17 -17z" />
    <glyph glyph-name="Ebreve" unicode="&#x114;" horiz-adv-x="538" 
d="M169 375h263c12 0 19 -7 19 -19v-41c0 -12 -7 -19 -19 -19h-263v-217h307c12 0 19 -7 19 -19v-41c0 -12 -7 -19 -19 -19h-378c-12 0 -19 7 -19 19v626c0 12 7 19 19 19h378c12 0 19 -7 19 -19v-41c0 -12 -7 -19 -19 -19h-307v-210zM375 864h30c10 0 16 -6 15 -16
c-8 -68 -60 -107 -133 -107s-125 39 -133 107c-1 10 5 16 15 16h30c10 0 14 -4 17 -13c9 -31 35 -46 71 -46s62 15 71 46c3 9 7 13 17 13z" />
    <glyph glyph-name="ebreve" unicode="&#x115;" horiz-adv-x="459" 
d="M234 507c120 0 185 -66 185 -189v-80c0 -12 -7 -19 -19 -19h-268v-29c0 -91 37 -130 121 -130c40 0 70 13 101 41c9 9 19 8 27 -2l20 -25c7 -9 7 -19 -1 -27c-40 -39 -92 -59 -150 -59c-132 0 -201 64 -201 194v136c0 123 65 189 185 189zM340 288v21
c0 87 -33 126 -104 126s-104 -39 -104 -126v-21h208zM324 701h30c10 0 16 -6 15 -16c-8 -68 -60 -107 -133 -107s-125 39 -133 107c-1 10 5 16 15 16h30c10 0 14 -4 17 -13c9 -31 35 -46 71 -46s62 15 71 46c3 9 7 13 17 13z" />
    <glyph glyph-name="Edotaccent" unicode="&#x116;" horiz-adv-x="538" 
d="M169 375h263c12 0 19 -7 19 -19v-41c0 -12 -7 -19 -19 -19h-263v-217h307c12 0 19 -7 19 -19v-41c0 -12 -7 -19 -19 -19h-378c-12 0 -19 7 -19 19v626c0 12 7 19 19 19h378c12 0 19 -7 19 -19v-41c0 -12 -7 -19 -19 -19h-307v-210zM287 750c-30 0 -52 22 -52 52
c0 31 22 53 52 53s52 -22 52 -53c0 -30 -22 -52 -52 -52z" />
    <glyph glyph-name="edotaccent" unicode="&#x117;" horiz-adv-x="459" 
d="M234 507c120 0 185 -66 185 -189v-80c0 -12 -7 -19 -19 -19h-268v-29c0 -91 37 -130 121 -130c40 0 70 13 101 41c9 9 19 8 27 -2l20 -25c7 -9 7 -19 -1 -27c-40 -39 -92 -59 -150 -59c-132 0 -201 64 -201 194v136c0 123 65 189 185 189zM340 288v21
c0 87 -33 126 -104 126s-104 -39 -104 -126v-21h208zM236 587c-30 0 -52 22 -52 52c0 31 22 53 52 53s52 -22 52 -53c0 -30 -22 -52 -52 -52z" />
    <glyph glyph-name="Eogonek" unicode="&#x118;" horiz-adv-x="538" 
d="M478 -103l14 -18c6 -8 6 -16 -2 -23c-20 -17 -44 -28 -77 -28c-53 0 -87 28 -87 75c0 34 12 68 52 95v2h-280c-12 0 -19 7 -19 19v626c0 12 7 19 19 19h378c12 0 19 -7 19 -19v-41c0 -12 -7 -19 -19 -19h-307v-210h263c12 0 19 -7 19 -19v-41c0 -12 -7 -19 -19 -19h-263
v-217h307c12 0 19 -7 19 -19v-41c0 -12 -7 -19 -19 -19h-10c-57 -20 -81 -51 -81 -81c0 -20 16 -35 36 -35c14 0 25 5 35 13c8 7 16 8 22 0z" />
    <glyph glyph-name="eogonek" unicode="&#x119;" horiz-adv-x="459" 
d="M234 507c120 0 185 -66 185 -189v-80c0 -12 -7 -19 -19 -19h-268v-29c0 -91 37 -130 121 -130c40 0 70 13 101 41c9 9 19 8 27 -2l20 -25c7 -9 7 -19 -1 -27c-15 -15 -32 -26 -50 -36c-47 -27 -67 -59 -67 -91c0 -20 16 -36 36 -36c14 0 25 5 35 13c8 7 16 7 22 -1
l14 -18c7 -8 6 -16 -2 -23c-20 -17 -41 -27 -73 -27c-57 0 -91 31 -91 80c0 29 9 54 31 78v2h-5c-132 0 -201 64 -201 194v136c0 123 65 189 185 189zM340 288v21c0 87 -33 126 -104 126s-104 -39 -104 -126v-21h208z" />
    <glyph glyph-name="Ecaron" unicode="&#x11a;" horiz-adv-x="538" 
d="M169 375h263c12 0 19 -7 19 -19v-41c0 -12 -7 -19 -19 -19h-263v-217h307c12 0 19 -7 19 -19v-41c0 -12 -7 -19 -19 -19h-378c-12 0 -19 7 -19 19v626c0 12 7 19 19 19h378c12 0 19 -7 19 -19v-41c0 -12 -7 -19 -19 -19h-307v-210zM413 860l-84 -120
c-5 -8 -11 -11 -20 -11h-46c-9 0 -15 3 -20 11l-83 120c-8 12 -3 21 11 21h37c9 0 15 -3 20 -11l58 -82l58 82c6 8 12 11 21 11h37c14 0 19 -9 11 -21z" />
    <glyph glyph-name="ecaron" unicode="&#x11b;" horiz-adv-x="459" 
d="M234 507c120 0 185 -66 185 -189v-80c0 -12 -7 -19 -19 -19h-268v-29c0 -91 37 -130 121 -130c40 0 70 13 101 41c9 9 19 8 27 -2l20 -25c7 -9 7 -19 -1 -27c-40 -39 -92 -59 -150 -59c-132 0 -201 64 -201 194v136c0 123 65 189 185 189zM340 288v21
c0 87 -33 126 -104 126s-104 -39 -104 -126v-21h208zM362 697l-84 -120c-5 -8 -11 -11 -20 -11h-46c-9 0 -15 3 -20 11l-83 120c-8 12 -3 21 11 21h37c9 0 15 -3 20 -11l58 -82l58 82c6 8 12 11 21 11h37c14 0 19 -9 11 -21z" />
    <glyph glyph-name="Gcircumflex" unicode="&#x11c;" horiz-adv-x="569" 
d="M525 338v-107c0 -158 -82 -243 -234 -243s-235 84 -235 240v208c0 156 84 240 238 240c101 0 173 -39 217 -117c5 -11 2 -20 -8 -26l-37 -21c-11 -7 -20 -4 -26 7c-31 51 -77 78 -147 78c-99 0 -147 -56 -147 -172v-186c0 -116 48 -172 146 -172c99 0 147 57 147 175v36
h-125c-12 0 -19 7 -19 19v41c0 12 7 19 19 19h192c12 0 19 -7 19 -19zM287 823l-58 -83c-5 -8 -11 -11 -20 -11h-37c-14 0 -19 9 -11 21l83 120c5 8 11 11 20 11h46c9 0 15 -3 20 -11l84 -120c8 -12 3 -21 -11 -21h-37c-9 0 -15 3 -21 11z" />
    <glyph glyph-name="gcircumflex" unicode="&#x11d;" horiz-adv-x="488" 
d="M237 507c123 0 189 -66 189 -189v-313c0 -110 -71 -177 -188 -177c-66 0 -121 19 -162 55c-9 8 -10 17 -3 27l19 27c7 11 16 12 26 3c33 -27 70 -40 115 -40c72 0 110 40 110 111v43h-2c-25 -33 -65 -50 -117 -50c-114 0 -175 66 -175 189v125c0 123 66 189 188 189z
M237 76c71 0 106 42 106 126v108c0 85 -33 125 -106 125c-72 0 -105 -40 -105 -125v-108c0 -86 33 -126 105 -126zM236 660l-58 -83c-5 -8 -11 -11 -20 -11h-37c-14 0 -19 9 -11 21l83 120c5 8 11 11 20 11h46c9 0 15 -3 20 -11l84 -120c8 -12 3 -21 -11 -21h-37
c-9 0 -15 3 -21 11z" />
    <glyph glyph-name="Gbreve" unicode="&#x11e;" horiz-adv-x="569" 
d="M525 338v-107c0 -158 -82 -243 -234 -243s-235 84 -235 240v208c0 156 84 240 238 240c101 0 173 -39 217 -117c5 -11 2 -20 -8 -26l-37 -21c-11 -7 -20 -4 -26 7c-31 51 -77 78 -147 78c-99 0 -147 -56 -147 -172v-186c0 -116 48 -172 146 -172c99 0 147 57 147 175v36
h-125c-12 0 -19 7 -19 19v41c0 12 7 19 19 19h192c12 0 19 -7 19 -19zM376 864h30c10 0 16 -6 15 -16c-8 -68 -60 -107 -133 -107s-125 39 -133 107c-1 10 5 16 15 16h30c10 0 14 -4 17 -13c9 -31 35 -46 71 -46s62 15 71 46c3 9 7 13 17 13z" />
    <glyph glyph-name="gbreve" unicode="&#x11f;" horiz-adv-x="488" 
d="M237 507c123 0 189 -66 189 -189v-313c0 -110 -71 -177 -188 -177c-66 0 -121 19 -162 55c-9 8 -10 17 -3 27l19 27c7 11 16 12 26 3c33 -27 70 -40 115 -40c72 0 110 40 110 111v43h-2c-25 -33 -65 -50 -117 -50c-114 0 -175 66 -175 189v125c0 123 66 189 188 189z
M237 76c71 0 106 42 106 126v108c0 85 -33 125 -106 125c-72 0 -105 -40 -105 -125v-108c0 -86 33 -126 105 -126zM325 701h30c10 0 16 -6 15 -16c-8 -68 -60 -107 -133 -107s-125 39 -133 107c-1 10 5 16 15 16h30c10 0 14 -4 17 -13c9 -31 35 -46 71 -46s62 15 71 46
c3 9 7 13 17 13z" />
    <glyph glyph-name="Gdotaccent" unicode="&#x120;" horiz-adv-x="569" 
d="M525 338v-107c0 -158 -82 -243 -234 -243s-235 84 -235 240v208c0 156 84 240 238 240c101 0 173 -39 217 -117c5 -11 2 -20 -8 -26l-37 -21c-11 -7 -20 -4 -26 7c-31 51 -77 78 -147 78c-99 0 -147 -56 -147 -172v-186c0 -116 48 -172 146 -172c99 0 147 57 147 175v36
h-125c-12 0 -19 7 -19 19v41c0 12 7 19 19 19h192c12 0 19 -7 19 -19zM288 750c-30 0 -52 22 -52 52c0 31 22 53 52 53s52 -22 52 -53c0 -30 -22 -52 -52 -52z" />
    <glyph glyph-name="gdotaccent" unicode="&#x121;" horiz-adv-x="488" 
d="M237 507c123 0 189 -66 189 -189v-313c0 -110 -71 -177 -188 -177c-66 0 -121 19 -162 55c-9 8 -10 17 -3 27l19 27c7 11 16 12 26 3c33 -27 70 -40 115 -40c72 0 110 40 110 111v43h-2c-25 -33 -65 -50 -117 -50c-114 0 -175 66 -175 189v125c0 123 66 189 188 189z
M237 76c71 0 106 42 106 126v108c0 85 -33 125 -106 125c-72 0 -105 -40 -105 -125v-108c0 -86 33 -126 105 -126zM237 587c-30 0 -52 22 -52 52c0 31 22 53 52 53s52 -22 52 -53c0 -30 -22 -52 -52 -52z" />
    <glyph glyph-name="uni0122" unicode="&#x122;" horiz-adv-x="569" 
d="M525 338v-107c0 -158 -82 -243 -234 -243s-235 84 -235 240v208c0 156 84 240 238 240c101 0 173 -39 217 -117c5 -11 2 -20 -8 -26l-37 -21c-11 -7 -20 -4 -26 7c-31 51 -77 78 -147 78c-99 0 -147 -56 -147 -172v-186c0 -116 48 -172 146 -172c99 0 147 57 147 175v36
h-125c-12 0 -19 7 -19 19v41c0 12 7 19 19 19h192c12 0 19 -7 19 -19zM291 -48c28 0 50 -20 50 -55c0 -44 -24 -83 -62 -99c-6 -3 -11 -1 -15 6l-7 12c-4 7 -2 12 4 16c11 7 19 16 22 27c-25 3 -42 21 -42 47c0 29 21 46 50 46z" />
    <glyph glyph-name="uni0123" unicode="&#x123;" horiz-adv-x="488" 
d="M246 672c24 -3 41 -20 41 -46c0 -28 -21 -46 -50 -46c-28 0 -49 21 -49 56c0 44 24 83 61 98c8 3 13 1 16 -5l7 -13c3 -6 2 -12 -5 -16c-12 -7 -17 -17 -21 -28zM237 507c123 0 189 -66 189 -189v-313c0 -110 -71 -177 -188 -177c-66 0 -121 19 -162 55
c-9 8 -10 17 -3 27l19 27c7 11 16 12 26 3c33 -27 70 -40 115 -40c72 0 110 40 110 111v43h-2c-25 -33 -65 -50 -117 -50c-114 0 -175 66 -175 189v125c0 123 66 189 188 189zM237 76c71 0 106 42 106 126v108c0 85 -33 125 -106 125c-72 0 -105 -40 -105 -125v-108
c0 -86 33 -126 105 -126z" />
    <glyph glyph-name="Hcircumflex" unicode="&#x124;" horiz-adv-x="623" 
d="M544 645v-626c0 -12 -7 -19 -19 -19h-52c-12 0 -19 7 -19 19v278h-285v-278c0 -12 -7 -19 -19 -19h-52c-12 0 -19 7 -19 19v626c0 12 7 19 19 19h52c12 0 19 -7 19 -19v-269h285v269c0 12 7 19 19 19h52c12 0 19 -7 19 -19zM311 823l-58 -83c-5 -8 -11 -11 -20 -11h-37
c-14 0 -19 9 -11 21l83 120c5 8 11 11 20 11h46c9 0 15 -3 20 -11l84 -120c8 -12 3 -21 -11 -21h-37c-9 0 -15 3 -21 11z" />
    <glyph glyph-name="hcircumflex" unicode="&#x125;" horiz-adv-x="499" 
d="M268 507c110 0 169 -65 169 -185v-303c0 -12 -7 -19 -19 -19h-45c-12 0 -19 7 -19 19v294c0 84 -32 122 -102 122c-68 0 -102 -40 -102 -122v-294c0 -12 -7 -19 -19 -19h-45c-12 0 -19 7 -19 19v662c0 12 7 19 19 19h45c12 0 19 -7 19 -19v-223h2c25 33 65 49 116 49z
M107 854l-58 -83c-5 -8 -11 -11 -20 -11h-37c-14 0 -19 9 -11 21l83 120c5 8 11 11 20 11h46c9 0 15 -3 20 -11l84 -120c8 -12 3 -21 -11 -21h-37c-9 0 -15 3 -21 11z" />
    <glyph glyph-name="Hbar" unicode="&#x126;" horiz-adv-x="634" 
d="M549 540h47c11 0 17 -6 17 -17v-35c0 -11 -6 -17 -17 -17h-47v-452c0 -12 -7 -19 -19 -19h-52c-12 0 -19 7 -19 19v278h-285v-278c0 -12 -7 -19 -19 -19h-52c-12 0 -19 7 -19 19v452h-46c-11 0 -17 6 -17 17v35c0 11 6 17 17 17h46v105c0 12 7 19 19 19h52
c12 0 19 -7 19 -19v-105h285v105c0 12 7 19 19 19h52c12 0 19 -7 19 -19v-105zM174 376h285v95h-285v-95z" />
    <glyph glyph-name="hbar" unicode="&#x127;" horiz-adv-x="502" 
d="M271 507c110 0 169 -65 169 -185v-303c0 -12 -7 -19 -19 -19h-45c-12 0 -19 7 -19 19v294c0 84 -32 122 -102 122c-68 0 -102 -40 -102 -122v-294c0 -12 -7 -19 -19 -19h-45c-12 0 -19 7 -19 19v536h-48c-12 0 -18 6 -18 18v33c0 12 6 18 18 18h48v57c0 12 7 19 19 19h45
c12 0 19 -7 19 -19v-57h112c12 0 18 -6 18 -18v-33c0 -12 -6 -18 -18 -18h-112v-97h2c25 33 65 49 116 49z" />
    <glyph glyph-name="Itilde" unicode="&#x128;" horiz-adv-x="248" 
d="M169 645v-626c0 -12 -7 -19 -19 -19h-52c-12 0 -19 7 -19 19v626c0 12 7 19 19 19h52c12 0 19 -7 19 -19zM19 742h-26c-10 0 -15 6 -14 16c8 65 41 101 90 101c26 0 43 -7 72 -32c17 -16 26 -21 39 -21c17 0 28 11 33 37c2 9 7 14 16 14h26c10 0 15 -6 14 -16
c-8 -65 -41 -101 -90 -101c-26 0 -43 7 -72 32c-17 16 -26 21 -39 21c-17 0 -28 -11 -33 -37c-2 -9 -7 -14 -16 -14z" />
    <glyph glyph-name="itilde" unicode="&#x129;" horiz-adv-x="217" 
d="M131 0h-45c-12 0 -19 7 -19 19v457c0 12 7 19 19 19h45c12 0 19 -7 19 -19v-457c0 -12 -7 -19 -19 -19zM3 579h-26c-10 0 -15 6 -14 16c8 65 41 101 90 101c26 0 43 -7 72 -32c17 -16 26 -21 39 -21c17 0 28 11 33 37c2 9 7 14 16 14h26c10 0 15 -6 14 -16
c-8 -65 -41 -101 -90 -101c-26 0 -43 7 -72 32c-17 16 -26 21 -39 21c-17 0 -28 -11 -33 -37c-2 -9 -7 -14 -16 -14z" />
    <glyph glyph-name="Imacron" unicode="&#x12a;" horiz-adv-x="248" 
d="M169 645v-626c0 -12 -7 -19 -19 -19h-52c-12 0 -19 7 -19 19v626c0 12 7 19 19 19h52c12 0 19 -7 19 -19zM255 811v-32c0 -11 -6 -17 -17 -17h-229c-11 0 -17 6 -17 17v32c0 11 6 17 17 17h229c11 0 17 -6 17 -17z" />
    <glyph glyph-name="imacron" unicode="&#x12b;" horiz-adv-x="217" 
d="M131 0h-45c-12 0 -19 7 -19 19v457c0 12 7 19 19 19h45c12 0 19 -7 19 -19v-457c0 -12 -7 -19 -19 -19zM239 648v-32c0 -11 -6 -17 -17 -17h-229c-11 0 -17 6 -17 17v32c0 11 6 17 17 17h229c11 0 17 -6 17 -17z" />
    <glyph glyph-name="Ibreve" unicode="&#x12c;" horiz-adv-x="248" 
d="M169 645v-626c0 -12 -7 -19 -19 -19h-52c-12 0 -19 7 -19 19v626c0 12 7 19 19 19h52c12 0 19 -7 19 -19zM212 864h30c10 0 16 -6 15 -16c-8 -68 -60 -107 -133 -107s-125 39 -133 107c-1 10 5 16 15 16h30c10 0 14 -4 17 -13c9 -31 35 -46 71 -46s62 15 71 46
c3 9 7 13 17 13z" />
    <glyph glyph-name="ibreve" unicode="&#x12d;" horiz-adv-x="217" 
d="M131 0h-45c-12 0 -19 7 -19 19v457c0 12 7 19 19 19h45c12 0 19 -7 19 -19v-457c0 -12 -7 -19 -19 -19zM196 701h30c10 0 16 -6 15 -16c-8 -68 -60 -107 -133 -107s-125 39 -133 107c-1 10 5 16 15 16h30c10 0 14 -4 17 -13c9 -31 35 -46 71 -46s62 15 71 46
c3 9 7 13 17 13z" />
    <glyph glyph-name="Iogonek" unicode="&#x12e;" horiz-adv-x="248" 
d="M179 -104l14 -17c7 -8 6 -16 -2 -23c-20 -17 -45 -28 -77 -28c-54 0 -87 30 -87 76c0 37 15 72 55 102v1c-2 3 -3 8 -3 12v626c0 12 7 19 19 19h52c12 0 19 -7 19 -19v-626c0 -12 -7 -19 -19 -19h-2c-42 -23 -62 -50 -62 -79c0 -21 16 -37 36 -37c13 0 24 5 34 13
c8 7 16 8 23 -1z" />
    <glyph glyph-name="iogonek" unicode="&#x12f;" horiz-adv-x="217" 
d="M168 -104l14 -17c6 -8 6 -16 -2 -23c-20 -17 -45 -28 -77 -28c-54 0 -87 30 -87 76c0 36 18 70 56 100v1c-3 3 -5 8 -5 14v457c0 12 7 19 19 19h45c12 0 19 -7 19 -19v-457c0 -11 -6 -18 -16 -19c-39 -23 -59 -50 -59 -79c0 -21 16 -37 36 -37c13 0 24 5 34 13
c8 7 16 7 23 -1zM108 587c-30 0 -52 22 -52 52c0 31 22 53 52 53c31 0 53 -22 53 -53c0 -30 -22 -52 -53 -52z" />
    <glyph glyph-name="Idotaccent" unicode="&#x130;" horiz-adv-x="248" 
d="M169 645v-626c0 -12 -7 -19 -19 -19h-52c-12 0 -19 7 -19 19v626c0 12 7 19 19 19h52c12 0 19 -7 19 -19zM124 750c-30 0 -52 22 -52 52c0 31 22 53 52 53s52 -22 52 -53c0 -30 -22 -52 -52 -52z" />
    <glyph glyph-name="dotlessi" unicode="&#x131;" horiz-adv-x="217" 
d="M131 0h-45c-12 0 -19 7 -19 19v457c0 12 7 19 19 19h45c12 0 19 -7 19 -19v-457c0 -12 -7 -19 -19 -19z" />
    <glyph glyph-name="IJ" unicode="&#x132;" horiz-adv-x="762" 
d="M169 645v-626c0 -12 -7 -19 -19 -19h-52c-12 0 -19 7 -19 19v626c0 12 7 19 19 19h52c12 0 19 -7 19 -19zM694 645v-425c0 -151 -77 -232 -219 -232c-92 0 -164 36 -207 107c-6 10 -4 19 5 26l33 25c10 8 20 6 27 -5c32 -48 79 -74 137 -74c90 0 134 53 134 163v415
c0 12 7 19 19 19h52c12 0 19 -7 19 -19z" />
    <glyph glyph-name="ij" unicode="&#x133;" horiz-adv-x="434" 
d="M108 587c-30 0 -52 22 -52 52c0 31 22 53 52 53c31 0 53 -22 53 -53c0 -30 -22 -52 -53 -52zM131 0h-45c-12 0 -19 7 -19 19v457c0 12 7 19 19 19h45c12 0 19 -7 19 -19v-457c0 -12 -7 -19 -19 -19zM325 587c-30 0 -52 22 -52 52c0 31 22 53 52 53c31 0 53 -22 53 -53
c0 -30 -22 -52 -53 -52zM215 -88c48 0 69 23 69 75v489c0 12 7 19 19 19h45c12 0 19 -7 19 -19v-489c0 -97 -48 -147 -139 -147h-13c-12 0 -19 7 -19 19v34c0 12 7 19 19 19z" />
    <glyph glyph-name="Jcircumflex" unicode="&#x134;" horiz-adv-x="520" 
d="M452 645v-425c0 -151 -77 -232 -219 -232c-92 0 -164 36 -207 107c-6 10 -4 19 5 26l33 25c10 8 20 6 27 -5c32 -48 79 -74 137 -74c90 0 134 53 134 163v415c0 12 7 19 19 19h52c12 0 19 -7 19 -19zM406 823l-58 -83c-5 -8 -11 -11 -20 -11h-37c-14 0 -19 9 -11 21
l83 120c5 8 11 11 20 11h46c9 0 15 -3 20 -11l84 -120c8 -12 3 -21 -11 -21h-37c-9 0 -15 3 -21 11z" />
    <glyph glyph-name="jcircumflex" unicode="&#x135;" horiz-adv-x="217" 
d="M-2 -88c48 0 69 23 69 75v489c0 12 7 19 19 19h45c12 0 19 -7 19 -19v-489c0 -97 -48 -147 -139 -147h-13c-12 0 -19 7 -19 19v34c0 12 7 19 19 19zM107 660l-58 -83c-5 -8 -11 -11 -20 -11h-37c-14 0 -19 9 -11 21l83 120c5 8 11 11 20 11h46c9 0 15 -3 20 -11l84 -120
c8 -12 3 -21 -11 -21h-37c-9 0 -15 3 -21 11z" />
    <glyph glyph-name="uni0136" unicode="&#x136;" horiz-adv-x="561" 
d="M169 306v-287c0 -12 -7 -19 -19 -19h-52c-12 0 -19 7 -19 19v626c0 12 7 19 19 19h52c12 0 19 -7 19 -19v-282l244 290c6 8 13 11 23 11h66c17 0 22 -11 11 -23l-262 -303l273 -315c11 -12 6 -23 -11 -23h-71c-10 0 -17 3 -23 11zM293 -48c28 0 50 -20 50 -55
c0 -44 -24 -83 -62 -99c-6 -3 -11 -1 -15 6l-7 12c-4 7 -2 12 4 16c11 7 19 16 22 27c-25 3 -42 21 -42 47c0 29 21 46 50 46z" />
    <glyph glyph-name="uni0137" unicode="&#x137;" horiz-adv-x="450" 
d="M131 0h-45c-12 0 -19 7 -19 19v662c0 12 7 19 19 19h45c12 0 19 -7 19 -19v-409l178 212c6 8 13 11 23 11h54c17 0 22 -11 11 -23l-187 -219l198 -230c11 -12 6 -23 -11 -23h-59c-10 0 -17 3 -23 11l-184 220v-212c0 -12 -7 -19 -19 -19zM244 -48c28 0 50 -20 50 -55
c0 -44 -24 -83 -62 -99c-6 -3 -11 -1 -15 6l-7 12c-4 7 -2 12 4 16c11 7 19 16 22 27c-25 3 -42 21 -42 47c0 29 21 46 50 46z" />
    <glyph glyph-name="kgreenlandic" unicode="&#x138;" horiz-adv-x="450" 
d="M150 231v-212c0 -12 -7 -19 -19 -19h-45c-12 0 -19 7 -19 19v457c0 12 7 19 19 19h45c12 0 19 -7 19 -19v-204l178 212c6 8 13 11 23 11h54c17 0 22 -11 11 -23l-187 -219l198 -230c11 -12 6 -23 -11 -23h-59c-10 0 -17 3 -23 11z" />
    <glyph glyph-name="Lacute" unicode="&#x139;" horiz-adv-x="499" 
d="M480 60v-41c0 -12 -7 -19 -19 -19h-363c-12 0 -19 7 -19 19v626c0 12 7 19 19 19h52c12 0 19 -7 19 -19v-566h292c12 0 19 -7 19 -19zM244 860l-84 -120c-6 -8 -12 -11 -21 -11h-41c-14 0 -18 9 -11 20l75 121c5 8 11 11 20 11h52c14 0 19 -9 10 -21z" />
    <glyph glyph-name="lacute" unicode="&#x13a;" horiz-adv-x="217" 
d="M131 0h-45c-12 0 -19 7 -19 19v662c0 12 7 19 19 19h45c12 0 19 -7 19 -19v-662c0 -12 -7 -19 -19 -19zM228 891l-84 -120c-6 -8 -12 -11 -21 -11h-41c-14 0 -18 9 -11 20l75 121c5 8 11 11 20 11h52c14 0 19 -9 10 -21z" />
    <glyph glyph-name="uni013B" unicode="&#x13b;" horiz-adv-x="499" 
d="M480 60v-41c0 -12 -7 -19 -19 -19h-363c-12 0 -19 7 -19 19v626c0 12 7 19 19 19h52c12 0 19 -7 19 -19v-566h292c12 0 19 -7 19 -19zM278 -48c28 0 50 -20 50 -55c0 -44 -24 -83 -62 -99c-6 -3 -11 -1 -15 6l-7 12c-4 7 -2 12 4 16c11 7 19 16 22 27
c-25 3 -42 21 -42 47c0 29 21 46 50 46z" />
    <glyph glyph-name="uni013C" unicode="&#x13c;" horiz-adv-x="217" 
d="M131 0h-45c-12 0 -19 7 -19 19v662c0 12 7 19 19 19h45c12 0 19 -7 19 -19v-662c0 -12 -7 -19 -19 -19zM108 -48c28 0 50 -20 50 -55c0 -44 -24 -83 -62 -99c-6 -3 -11 -1 -15 6l-7 12c-4 7 -2 12 4 16c11 7 19 16 22 27c-25 3 -42 21 -42 47c0 29 21 46 50 46z" />
    <glyph glyph-name="Lcaron" unicode="&#x13d;" horiz-adv-x="499" 
d="M480 60v-41c0 -12 -7 -19 -19 -19h-363c-12 0 -19 7 -19 19v626c0 12 7 19 19 19h52c12 0 19 -7 19 -19v-566h292c12 0 19 -7 19 -19zM337 682l-28 -162c-2 -10 -8 -15 -19 -15h-25c-12 0 -17 6 -16 18l16 161c1 11 7 16 18 16h38c12 0 18 -7 16 -18z" />
    <glyph glyph-name="lcaron" unicode="&#x13e;" horiz-adv-x="217" 
d="M131 0h-45c-12 0 -19 7 -19 19v662c0 12 7 19 19 19h45c12 0 19 -7 19 -19v-662c0 -12 -7 -19 -19 -19zM285 682l-28 -162c-2 -10 -8 -15 -19 -15h-25c-12 0 -17 6 -16 18l16 161c1 11 7 16 18 16h38c12 0 18 -7 16 -18z" />
    <glyph glyph-name="Ldot" unicode="&#x13f;" horiz-adv-x="499" 
d="M480 60v-41c0 -12 -7 -19 -19 -19h-363c-12 0 -19 7 -19 19v626c0 12 7 19 19 19h52c12 0 19 -7 19 -19v-566h292c12 0 19 -7 19 -19zM373 280c-30 0 -52 22 -52 52c0 31 22 53 52 53s52 -22 52 -53c0 -30 -22 -52 -52 -52z" />
    <glyph glyph-name="ldot" unicode="&#x140;" horiz-adv-x="272" 
d="M131 0h-45c-12 0 -19 7 -19 19v662c0 12 7 19 19 19h45c12 0 19 -7 19 -19v-662c0 -12 -7 -19 -19 -19zM244 280c-30 0 -52 22 -52 52c0 31 22 53 52 53s52 -22 52 -53c0 -30 -22 -52 -52 -52z" />
    <glyph glyph-name="Lslash" unicode="&#x141;" horiz-adv-x="510" 
d="M180 79h292c12 0 19 -7 19 -19v-41c0 -12 -7 -19 -19 -19h-363c-12 0 -19 7 -19 19v166l-44 -30c-12 -8 -22 -3 -22 13v49c0 11 4 17 12 23l54 36v369c0 12 7 19 19 19h52c12 0 19 -7 19 -19v-308l190 127c12 8 22 3 22 -13v-49c0 -11 -4 -17 -12 -23l-200 -134v-166z
" />
    <glyph glyph-name="lslash" unicode="&#x142;" horiz-adv-x="235" 
d="M159 443l49 36c12 9 22 4 22 -11v-44c0 -10 -3 -16 -11 -22l-60 -44v-339c0 -12 -7 -19 -19 -19h-45c-12 0 -19 7 -19 19v278l-49 -36c-12 -9 -22 -4 -22 11v44c0 10 3 16 11 22l60 44v299c0 12 7 19 19 19h45c12 0 19 -7 19 -19v-238z" />
    <glyph glyph-name="Nacute" unicode="&#x143;" horiz-adv-x="623" 
d="M544 645v-626c0 -12 -7 -19 -19 -19h-58c-10 0 -17 4 -22 13l-276 499h-2v-493c0 -12 -7 -19 -19 -19h-50c-12 0 -19 7 -19 19v626c0 12 7 19 19 19h65c10 0 17 -4 22 -13l269 -485h2v479c0 12 7 19 19 19h50c12 0 19 -7 19 -19zM432 860l-84 -120c-6 -8 -12 -11 -21 -11
h-41c-14 0 -18 9 -11 20l75 121c5 8 11 11 20 11h52c14 0 19 -9 10 -21z" />
    <glyph glyph-name="nacute" unicode="&#x144;" horiz-adv-x="494" 
d="M349 19v294c0 84 -32 122 -102 122s-102 -38 -102 -122v-294c0 -12 -7 -19 -19 -19h-45c-12 0 -19 7 -19 19v303c0 120 65 185 185 185s185 -65 185 -185v-303c0 -12 -7 -19 -19 -19h-45c-12 0 -19 7 -19 19zM367 697l-84 -120c-6 -8 -12 -11 -21 -11h-41
c-14 0 -18 9 -11 20l75 121c5 8 11 11 20 11h52c14 0 19 -9 10 -21z" />
    <glyph glyph-name="uni0145" unicode="&#x145;" horiz-adv-x="623" 
d="M544 645v-626c0 -12 -7 -19 -19 -19h-58c-10 0 -17 4 -22 13l-276 499h-2v-493c0 -12 -7 -19 -19 -19h-50c-12 0 -19 7 -19 19v626c0 12 7 19 19 19h65c10 0 17 -4 22 -13l269 -485h2v479c0 12 7 19 19 19h50c12 0 19 -7 19 -19zM312 -48c28 0 50 -20 50 -55
c0 -44 -24 -83 -62 -99c-6 -3 -11 -1 -15 6l-7 12c-4 7 -2 12 4 16c11 7 19 16 22 27c-25 3 -42 21 -42 47c0 29 21 46 50 46z" />
    <glyph glyph-name="uni0146" unicode="&#x146;" horiz-adv-x="494" 
d="M349 19v294c0 84 -32 122 -102 122s-102 -38 -102 -122v-294c0 -12 -7 -19 -19 -19h-45c-12 0 -19 7 -19 19v303c0 120 65 185 185 185s185 -65 185 -185v-303c0 -12 -7 -19 -19 -19h-45c-12 0 -19 7 -19 19zM247 -48c28 0 50 -20 50 -55c0 -44 -24 -83 -62 -99
c-6 -3 -11 -1 -15 6l-7 12c-4 7 -2 12 4 16c11 7 19 16 22 27c-25 3 -42 21 -42 47c0 29 21 46 50 46z" />
    <glyph glyph-name="Ncaron" unicode="&#x147;" horiz-adv-x="623" 
d="M544 645v-626c0 -12 -7 -19 -19 -19h-58c-10 0 -17 4 -22 13l-276 499h-2v-493c0 -12 -7 -19 -19 -19h-50c-12 0 -19 7 -19 19v626c0 12 7 19 19 19h65c10 0 17 -4 22 -13l269 -485h2v479c0 12 7 19 19 19h50c12 0 19 -7 19 -19zM438 860l-84 -120c-5 -8 -11 -11 -20 -11
h-46c-9 0 -15 3 -20 11l-83 120c-8 12 -3 21 11 21h37c9 0 15 -3 20 -11l58 -82l58 82c6 8 12 11 21 11h37c14 0 19 -9 11 -21z" />
    <glyph glyph-name="ncaron" unicode="&#x148;" horiz-adv-x="494" 
d="M349 19v294c0 84 -32 122 -102 122s-102 -38 -102 -122v-294c0 -12 -7 -19 -19 -19h-45c-12 0 -19 7 -19 19v303c0 120 65 185 185 185s185 -65 185 -185v-303c0 -12 -7 -19 -19 -19h-45c-12 0 -19 7 -19 19zM373 697l-84 -120c-5 -8 -11 -11 -20 -11h-46
c-9 0 -15 3 -20 11l-83 120c-8 12 -3 21 11 21h37c9 0 15 -3 20 -11l58 -82l58 82c6 8 12 11 21 11h37c14 0 19 -9 11 -21z" />
    <glyph glyph-name="napostrophe" unicode="&#x149;" horiz-adv-x="494" 
d="M349 19v294c0 84 -32 122 -102 122s-102 -38 -102 -122v-294c0 -12 -7 -19 -19 -19h-45c-12 0 -19 7 -19 19v303c0 120 65 185 185 185s185 -65 185 -185v-303c0 -12 -7 -19 -19 -19h-45c-12 0 -19 7 -19 19zM106 721c30 0 52 -22 52 -58c0 -53 -30 -104 -68 -137
c-7 -5 -12 -4 -18 1l-12 13c-6 6 -5 11 1 17c19 19 31 41 33 69c-22 5 -38 21 -38 47c0 29 22 48 50 48z" />
    <glyph glyph-name="Eng" unicode="&#x14a;" horiz-adv-x="623" 
d="M475 664h50c12 0 19 -7 19 -19v-658c0 -96 -48 -147 -138 -147h-31c-12 0 -19 7 -19 19v38c0 12 7 19 19 19h12c48 0 69 22 69 71v6l-287 519h-2v-493c0 -12 -7 -19 -19 -19h-50c-12 0 -19 7 -19 19v626c0 12 7 19 19 19h65c10 0 17 -4 22 -13l269 -485h2v479
c0 12 7 19 19 19z" />
    <glyph glyph-name="eng" unicode="&#x14b;" horiz-adv-x="494" 
d="M349 -13v326c0 84 -32 122 -102 122s-102 -38 -102 -122v-294c0 -12 -7 -19 -19 -19h-45c-12 0 -19 7 -19 19v303c0 120 65 185 185 185s185 -65 185 -185v-335c0 -97 -48 -147 -139 -147h-13c-12 0 -19 7 -19 19v34c0 12 7 19 19 19c48 0 69 23 69 75z" />
    <glyph glyph-name="Omacron" unicode="&#x14c;" horiz-adv-x="588" 
d="M56 228v208c0 156 84 240 238 240s238 -84 238 -240v-208c0 -156 -84 -240 -238 -240s-238 84 -238 240zM146 425v-186c0 -116 48 -172 148 -172s148 56 148 172v186c0 116 -48 172 -148 172s-148 -56 -148 -172zM425 811v-32c0 -11 -6 -17 -17 -17h-229
c-11 0 -17 6 -17 17v32c0 11 6 17 17 17h229c11 0 17 -6 17 -17z" />
    <glyph glyph-name="omacron" unicode="&#x14d;" horiz-adv-x="475" 
d="M237 507c123 0 189 -66 189 -189v-142c0 -122 -66 -188 -189 -188c-122 0 -188 66 -188 188v142c0 123 66 189 188 189zM343 185v124c0 86 -33 126 -106 126c-72 0 -105 -40 -105 -126v-124c0 -85 33 -125 105 -125c73 0 106 40 106 125zM368 648v-32
c0 -11 -6 -17 -17 -17h-229c-11 0 -17 6 -17 17v32c0 11 6 17 17 17h229c11 0 17 -6 17 -17z" />
    <glyph glyph-name="Obreve" unicode="&#x14e;" horiz-adv-x="588" 
d="M56 228v208c0 156 84 240 238 240s238 -84 238 -240v-208c0 -156 -84 -240 -238 -240s-238 84 -238 240zM146 425v-186c0 -116 48 -172 148 -172s148 56 148 172v186c0 116 -48 172 -148 172s-148 -56 -148 -172zM382 864h30c10 0 16 -6 15 -16
c-8 -68 -60 -107 -133 -107s-125 39 -133 107c-1 10 5 16 15 16h30c10 0 14 -4 17 -13c9 -31 35 -46 71 -46s62 15 71 46c3 9 7 13 17 13z" />
    <glyph glyph-name="obreve" unicode="&#x14f;" horiz-adv-x="475" 
d="M237 507c123 0 189 -66 189 -189v-142c0 -122 -66 -188 -189 -188c-122 0 -188 66 -188 188v142c0 123 66 189 188 189zM343 185v124c0 86 -33 126 -106 126c-72 0 -105 -40 -105 -126v-124c0 -85 33 -125 105 -125c73 0 106 40 106 125zM325 701h30c10 0 16 -6 15 -16
c-8 -68 -60 -107 -133 -107s-125 39 -133 107c-1 10 5 16 15 16h30c10 0 14 -4 17 -13c9 -31 35 -46 71 -46s62 15 71 46c3 9 7 13 17 13z" />
    <glyph glyph-name="Ohungarumlaut" unicode="&#x150;" horiz-adv-x="588" 
d="M56 228v208c0 156 84 240 238 240s238 -84 238 -240v-208c0 -156 -84 -240 -238 -240s-238 84 -238 240zM146 425v-186c0 -116 48 -172 148 -172s148 56 148 172v186c0 116 -48 172 -148 172s-148 -56 -148 -172zM328 860l-79 -120c-5 -8 -11 -11 -20 -11h-31
c-13 0 -18 9 -11 20l68 120c5 8 11 12 21 12h41c14 0 19 -9 11 -21zM478 860l-79 -120c-5 -8 -11 -11 -20 -11h-31c-13 0 -18 9 -11 20l68 120c5 8 11 12 21 12h41c14 0 19 -9 11 -21z" />
    <glyph glyph-name="ohungarumlaut" unicode="&#x151;" horiz-adv-x="475" 
d="M237 507c123 0 189 -66 189 -189v-142c0 -122 -66 -188 -189 -188c-122 0 -188 66 -188 188v142c0 123 66 189 188 189zM343 185v124c0 86 -33 126 -106 126c-72 0 -105 -40 -105 -126v-124c0 -85 33 -125 105 -125c73 0 106 40 106 125zM271 697l-79 -120
c-5 -8 -11 -11 -20 -11h-31c-13 0 -18 9 -11 20l68 120c5 8 11 12 21 12h41c14 0 19 -9 11 -21zM421 697l-79 -120c-5 -8 -11 -11 -20 -11h-31c-13 0 -18 9 -11 20l68 120c5 8 11 12 21 12h41c14 0 19 -9 11 -21z" />
    <glyph glyph-name="OE" unicode="&#x152;" horiz-adv-x="882" 
d="M512 375h263c12 0 19 -7 19 -19v-41c0 -12 -7 -19 -19 -19h-263v-217h307c12 0 19 -7 19 -19v-41c0 -12 -7 -19 -19 -19h-525c-158 0 -238 77 -238 229v207c0 151 80 228 238 228h525c12 0 19 -7 19 -19v-41c0 -12 -7 -19 -19 -19h-307v-210zM422 585h-124
c-103 0 -152 -51 -152 -160v-185c0 -110 49 -161 152 -161h124v506z" />
    <glyph glyph-name="oe" unicode="&#x153;" horiz-adv-x="753" 
d="M538 507c112 0 175 -68 175 -189v-80c0 -12 -7 -19 -19 -19h-268v-29c0 -91 37 -130 121 -130c39 0 70 13 101 41c9 9 19 8 27 -2l20 -25c7 -9 7 -19 -1 -27c-40 -40 -88 -59 -145 -59c-81 0 -135 28 -162 84h-2c-26 -56 -77 -84 -155 -84c-117 0 -181 66 -181 188v142
c0 122 64 189 181 189c77 0 128 -27 153 -82h2c26 55 77 82 153 82zM343 185v124c0 86 -33 126 -106 126c-72 0 -105 -40 -105 -126v-124c0 -85 33 -125 105 -125c73 0 106 40 106 125zM634 288v21c0 87 -33 126 -104 126s-104 -39 -104 -126v-21h208z" />
    <glyph glyph-name="Racute" unicode="&#x154;" horiz-adv-x="568" 
d="M280 262h-111v-243c0 -12 -7 -19 -19 -19h-52c-12 0 -19 7 -19 19v626c0 12 7 19 19 19h180c161 0 237 -64 237 -200c0 -106 -47 -170 -144 -193l150 -248c8 -13 3 -23 -13 -23h-62c-10 0 -17 4 -23 13zM169 341h109c101 0 146 37 146 122c0 84 -45 122 -146 122h-109
v-244zM397 860l-84 -120c-6 -8 -12 -11 -21 -11h-41c-14 0 -18 9 -11 20l75 121c5 8 11 11 20 11h52c14 0 19 -9 10 -21z" />
    <glyph glyph-name="racute" unicode="&#x155;" horiz-adv-x="364" 
d="M62 19v307c0 119 57 181 166 181c43 0 81 -10 111 -30c10 -7 13 -16 6 -27l-17 -29c-7 -11 -16 -12 -27 -5c-20 12 -42 19 -65 19c-62 0 -91 -35 -91 -110v-306c0 -12 -7 -19 -19 -19h-45c-12 0 -19 7 -19 19zM327 697l-84 -120c-6 -8 -12 -11 -21 -11h-41
c-14 0 -18 9 -11 20l75 121c5 8 11 11 20 11h52c14 0 19 -9 10 -21z" />
    <glyph glyph-name="uni0156" unicode="&#x156;" horiz-adv-x="568" 
d="M280 262h-111v-243c0 -12 -7 -19 -19 -19h-52c-12 0 -19 7 -19 19v626c0 12 7 19 19 19h180c161 0 237 -64 237 -200c0 -106 -47 -170 -144 -193l150 -248c8 -13 3 -23 -13 -23h-62c-10 0 -17 4 -23 13zM169 341h109c101 0 146 37 146 122c0 84 -45 122 -146 122h-109
v-244zM296 -48c28 0 50 -20 50 -55c0 -44 -24 -83 -62 -99c-6 -3 -11 -1 -15 6l-7 12c-4 7 -2 12 4 16c11 7 19 16 22 27c-25 3 -42 21 -42 47c0 29 21 46 50 46z" />
    <glyph glyph-name="uni0157" unicode="&#x157;" horiz-adv-x="364" 
d="M62 19v307c0 119 57 181 166 181c43 0 81 -10 111 -30c10 -7 13 -16 6 -27l-17 -29c-7 -11 -16 -12 -27 -5c-20 12 -42 19 -65 19c-62 0 -91 -35 -91 -110v-306c0 -12 -7 -19 -19 -19h-45c-12 0 -19 7 -19 19zM103 -48c28 0 50 -20 50 -55c0 -44 -24 -83 -62 -99
c-6 -3 -11 -1 -15 6l-7 12c-4 7 -2 12 4 16c11 7 19 16 22 27c-25 3 -42 21 -42 47c0 29 21 46 50 46z" />
    <glyph glyph-name="Rcaron" unicode="&#x158;" horiz-adv-x="568" 
d="M280 262h-111v-243c0 -12 -7 -19 -19 -19h-52c-12 0 -19 7 -19 19v626c0 12 7 19 19 19h180c161 0 237 -64 237 -200c0 -106 -47 -170 -144 -193l150 -248c8 -13 3 -23 -13 -23h-62c-10 0 -17 4 -23 13zM169 341h109c101 0 146 37 146 122c0 84 -45 122 -146 122h-109
v-244zM403 860l-84 -120c-5 -8 -11 -11 -20 -11h-46c-9 0 -15 3 -20 11l-83 120c-8 12 -3 21 11 21h37c9 0 15 -3 20 -11l58 -82l58 82c6 8 12 11 21 11h37c14 0 19 -9 11 -21z" />
    <glyph glyph-name="rcaron" unicode="&#x159;" horiz-adv-x="364" 
d="M62 19v307c0 119 57 181 166 181c43 0 81 -10 111 -30c10 -7 13 -16 6 -27l-17 -29c-7 -11 -16 -12 -27 -5c-20 12 -42 19 -65 19c-62 0 -91 -35 -91 -110v-306c0 -12 -7 -19 -19 -19h-45c-12 0 -19 7 -19 19zM333 697l-84 -120c-5 -8 -11 -11 -20 -11h-46
c-9 0 -15 3 -20 11l-83 120c-8 12 -3 21 11 21h37c9 0 15 -3 20 -11l58 -82l58 82c6 8 12 11 21 11h37c14 0 19 -9 11 -21z" />
    <glyph glyph-name="Sacute" unicode="&#x15a;" horiz-adv-x="512" 
d="M257 676c90 0 157 -27 203 -81c8 -10 6 -19 -3 -27l-33 -30c-10 -9 -19 -8 -27 2c-31 38 -77 57 -136 57c-78 0 -127 -43 -127 -112c0 -61 34 -92 149 -112c149 -26 203 -80 203 -192c0 -116 -84 -193 -213 -193c-103 0 -180 32 -233 96c-8 9 -7 18 2 26l32 30
c9 9 18 8 26 -1c42 -48 98 -72 168 -72c79 0 128 43 128 112c0 60 -36 91 -148 110c-150 25 -204 82 -204 194c0 116 84 193 213 193zM377 860l-84 -120c-6 -8 -12 -11 -21 -11h-41c-14 0 -18 9 -11 20l75 121c5 8 11 11 20 11h52c14 0 19 -9 10 -21z" />
    <glyph glyph-name="sacute" unicode="&#x15b;" horiz-adv-x="415" 
d="M388 136c0 -91 -66 -148 -171 -148c-78 0 -134 18 -179 58c-8 8 -8 17 -1 26l21 28c8 10 17 10 27 2c31 -27 75 -42 124 -42c61 0 96 27 96 76c0 44 -27 65 -109 77c-116 17 -156 60 -156 146c0 90 69 148 176 148c55 0 108 -15 145 -42c10 -8 11 -17 4 -27l-19 -28
c-7 -10 -16 -11 -27 -3c-26 18 -59 28 -95 28c-66 0 -101 -27 -101 -76c0 -40 26 -60 105 -71c118 -16 160 -62 160 -152zM327 697l-84 -120c-6 -8 -12 -11 -21 -11h-41c-14 0 -18 9 -11 20l75 121c5 8 11 11 20 11h52c14 0 19 -9 10 -21z" />
    <glyph glyph-name="Scircumflex" unicode="&#x15c;" horiz-adv-x="512" 
d="M257 676c90 0 157 -27 203 -81c8 -10 6 -19 -3 -27l-33 -30c-10 -9 -19 -8 -27 2c-31 38 -77 57 -136 57c-78 0 -127 -43 -127 -112c0 -61 34 -92 149 -112c149 -26 203 -80 203 -192c0 -116 -84 -193 -213 -193c-103 0 -180 32 -233 96c-8 9 -7 18 2 26l32 30
c9 9 18 8 26 -1c42 -48 98 -72 168 -72c79 0 128 43 128 112c0 60 -36 91 -148 110c-150 25 -204 82 -204 194c0 116 84 193 213 193zM256 823l-58 -83c-5 -8 -11 -11 -20 -11h-37c-14 0 -19 9 -11 21l83 120c5 8 11 11 20 11h46c9 0 15 -3 20 -11l84 -120
c8 -12 3 -21 -11 -21h-37c-9 0 -15 3 -21 11z" />
    <glyph glyph-name="scircumflex" unicode="&#x15d;" horiz-adv-x="415" 
d="M388 136c0 -91 -66 -148 -171 -148c-78 0 -134 18 -179 58c-8 8 -8 17 -1 26l21 28c8 10 17 10 27 2c31 -27 75 -42 124 -42c61 0 96 27 96 76c0 44 -27 65 -109 77c-116 17 -156 60 -156 146c0 90 69 148 176 148c55 0 108 -15 145 -42c10 -8 11 -17 4 -27l-19 -28
c-7 -10 -16 -11 -27 -3c-26 18 -59 28 -95 28c-66 0 -101 -27 -101 -76c0 -40 26 -60 105 -71c118 -16 160 -62 160 -152zM206 660l-58 -83c-5 -8 -11 -11 -20 -11h-37c-14 0 -19 9 -11 21l83 120c5 8 11 11 20 11h46c9 0 15 -3 20 -11l84 -120c8 -12 3 -21 -11 -21h-37
c-9 0 -15 3 -21 11z" />
    <glyph glyph-name="Scedilla" unicode="&#x15e;" horiz-adv-x="512" 
d="M40 84c-8 9 -7 18 2 26l32 30c9 9 18 8 26 -1c42 -48 98 -72 168 -72c79 0 128 43 128 112c0 60 -36 91 -148 110c-150 25 -204 82 -204 194c0 116 84 193 213 193c90 0 157 -27 203 -81c8 -10 6 -19 -3 -27l-33 -30c-10 -9 -19 -8 -27 2c-31 38 -77 57 -136 57
c-78 0 -127 -43 -127 -112c0 -61 34 -92 149 -112c149 -26 203 -80 203 -192c0 -114 -80 -189 -203 -193l-7 -33c49 -3 73 -26 73 -60c0 -42 -32 -67 -93 -67c-28 0 -54 6 -75 17c-8 5 -10 12 -6 21l9 19c4 9 11 10 20 5c14 -7 31 -12 50 -12c22 0 36 8 36 22
c0 19 -19 22 -52 22c-10 0 -13 4 -11 15l10 52c-85 7 -150 39 -197 95z" />
    <glyph glyph-name="scedilla" unicode="&#x15f;" horiz-adv-x="415" 
d="M38 46c-8 8 -8 17 -1 26l21 28c8 10 17 10 27 2c31 -27 75 -42 124 -42c61 0 96 27 96 76c0 44 -27 65 -109 77c-116 17 -156 60 -156 146c0 90 69 148 176 148c55 0 108 -15 145 -42c10 -8 11 -17 4 -27l-19 -28c-7 -10 -16 -11 -27 -3c-26 18 -59 28 -95 28
c-66 0 -101 -27 -101 -76c0 -40 26 -60 105 -71c118 -16 160 -62 160 -152c0 -88 -61 -143 -157 -148l-7 -33c49 -3 73 -26 73 -60c0 -42 -32 -67 -93 -67c-28 0 -54 6 -75 17c-8 5 -10 12 -6 21l9 19c4 9 11 10 20 5c14 -7 31 -12 50 -12c22 0 36 8 36 22
c0 19 -19 22 -52 22c-10 0 -13 4 -11 15l10 52c-62 5 -109 23 -147 57z" />
    <glyph glyph-name="Scaron" unicode="&#x160;" horiz-adv-x="512" 
d="M257 676c90 0 157 -27 203 -81c8 -10 6 -19 -3 -27l-33 -30c-10 -9 -19 -8 -27 2c-31 38 -77 57 -136 57c-78 0 -127 -43 -127 -112c0 -61 34 -92 149 -112c149 -26 203 -80 203 -192c0 -116 -84 -193 -213 -193c-103 0 -180 32 -233 96c-8 9 -7 18 2 26l32 30
c9 9 18 8 26 -1c42 -48 98 -72 168 -72c79 0 128 43 128 112c0 60 -36 91 -148 110c-150 25 -204 82 -204 194c0 116 84 193 213 193zM383 860l-84 -120c-5 -8 -11 -11 -20 -11h-46c-9 0 -15 3 -20 11l-83 120c-8 12 -3 21 11 21h37c9 0 15 -3 20 -11l58 -82l58 82
c6 8 12 11 21 11h37c14 0 19 -9 11 -21z" />
    <glyph glyph-name="scaron" unicode="&#x161;" horiz-adv-x="415" 
d="M388 136c0 -91 -66 -148 -171 -148c-78 0 -134 18 -179 58c-8 8 -8 17 -1 26l21 28c8 10 17 10 27 2c31 -27 75 -42 124 -42c61 0 96 27 96 76c0 44 -27 65 -109 77c-116 17 -156 60 -156 146c0 90 69 148 176 148c55 0 108 -15 145 -42c10 -8 11 -17 4 -27l-19 -28
c-7 -10 -16 -11 -27 -3c-26 18 -59 28 -95 28c-66 0 -101 -27 -101 -76c0 -40 26 -60 105 -71c118 -16 160 -62 160 -152zM333 697l-84 -120c-5 -8 -11 -11 -20 -11h-46c-9 0 -15 3 -20 11l-83 120c-8 12 -3 21 11 21h37c9 0 15 -3 20 -11l58 -82l58 82c6 8 12 11 21 11h37
c14 0 19 -9 11 -21z" />
    <glyph glyph-name="uni0162" unicode="&#x162;" horiz-adv-x="493" 
d="M38 664h417c12 0 19 -7 19 -19v-41c0 -12 -7 -19 -19 -19h-164v-566c0 -12 -7 -19 -19 -19h-3l-10 -45c49 -3 73 -26 73 -60c0 -42 -32 -67 -93 -67c-28 0 -54 6 -75 17c-8 5 -10 12 -6 21l9 19c4 9 11 10 20 5c14 -7 31 -12 50 -12c22 0 36 8 36 22c0 19 -19 22 -52 22
c-10 0 -13 4 -11 15l12 63h-2c-12 0 -19 7 -19 19v566h-163c-12 0 -19 7 -19 19v41c0 12 7 19 19 19z" />
    <glyph glyph-name="uni0163" unicode="&#x163;" horiz-adv-x="355" 
d="M328 64l12 -33c4 -11 1 -18 -9 -24c-22 -12 -51 -19 -88 -19c-7 0 -13 0 -20 1l-8 -34c49 -3 73 -26 73 -60c0 -42 -32 -67 -93 -67c-28 0 -54 6 -75 17c-8 5 -10 12 -6 21l9 19c4 9 11 10 20 5c14 -7 31 -12 50 -12c22 0 36 8 36 22c0 19 -19 22 -52 22
c-10 0 -13 4 -11 15l12 60c-59 20 -89 70 -89 149v277h-52c-12 0 -19 7 -19 19v34c0 12 7 19 19 19h52v113c0 12 7 19 19 19h45c12 0 19 -7 19 -19v-113h136c12 0 19 -7 19 -19v-34c0 -12 -7 -19 -19 -19h-136v-275c0 -58 28 -88 80 -88c19 0 35 4 50 12c13 7 22 4 26 -8z
" />
    <glyph glyph-name="Tcaron" unicode="&#x164;" horiz-adv-x="493" 
d="M291 585v-566c0 -12 -7 -19 -19 -19h-52c-12 0 -19 7 -19 19v566h-163c-12 0 -19 7 -19 19v41c0 12 7 19 19 19h417c12 0 19 -7 19 -19v-41c0 -12 -7 -19 -19 -19h-164zM372 860l-84 -120c-5 -8 -11 -11 -20 -11h-46c-9 0 -15 3 -20 11l-83 120c-8 12 -3 21 11 21h37
c9 0 15 -3 20 -11l58 -82l58 82c6 8 12 11 21 11h37c14 0 19 -9 11 -21z" />
    <glyph glyph-name="tcaron" unicode="&#x165;" horiz-adv-x="355" 
d="M328 64l12 -33c4 -11 1 -18 -9 -24c-22 -12 -51 -19 -88 -19c-102 0 -154 54 -154 158v277h-52c-12 0 -19 7 -19 19v34c0 12 7 19 19 19h52v113c0 12 7 19 19 19h45c12 0 19 -7 19 -19v-113h136c12 0 19 -7 19 -19v-34c0 -12 -7 -19 -19 -19h-136v-275
c0 -58 28 -88 80 -88c19 0 35 4 50 12c13 7 22 4 26 -8zM347 717l-28 -162c-2 -10 -8 -15 -19 -15h-25c-12 0 -17 6 -16 18l16 161c1 11 7 16 18 16h38c12 0 18 -7 16 -18z" />
    <glyph glyph-name="Tbar" unicode="&#x166;" horiz-adv-x="493" 
d="M38 664h417c12 0 19 -7 19 -19v-41c0 -12 -7 -19 -19 -19h-164v-191h102c11 0 17 -6 17 -17v-35c0 -11 -6 -17 -17 -17h-102v-306c0 -12 -7 -19 -19 -19h-52c-12 0 -19 7 -19 19v306h-102c-11 0 -17 6 -17 17v35c0 11 6 17 17 17h102v191h-163c-12 0 -19 7 -19 19v41
c0 12 7 19 19 19z" />
    <glyph glyph-name="tbar" unicode="&#x167;" horiz-adv-x="367" 
d="M334 64l12 -33c4 -11 1 -18 -9 -24c-22 -12 -51 -19 -88 -19c-102 0 -154 54 -154 158v93h-43c-12 0 -18 6 -18 18v33c0 12 6 18 18 18h43v115h-52c-12 0 -19 7 -19 19v34c0 12 7 19 19 19h52v113c0 12 7 19 19 19h45c12 0 19 -7 19 -19v-113h136c12 0 19 -7 19 -19v-34
c0 -12 -7 -19 -19 -19h-136v-115h117c12 0 18 -6 18 -18v-33c0 -12 -6 -18 -18 -18h-117v-91c0 -58 28 -88 80 -88c19 0 35 4 50 12c13 7 22 4 26 -8z" />
    <glyph glyph-name="Utilde" unicode="&#x168;" horiz-adv-x="588" 
d="M520 645v-425c0 -151 -80 -232 -226 -232s-226 81 -226 232v425c0 12 7 19 19 19h52c12 0 19 -7 19 -19v-416c0 -111 44 -162 137 -162s137 51 137 162v416c0 12 7 19 19 19h50c12 0 19 -7 19 -19zM189 742h-26c-10 0 -15 6 -14 16c8 65 41 101 90 101c26 0 43 -7 72 -32
c17 -16 26 -21 39 -21c17 0 28 11 33 37c2 9 7 14 16 14h26c10 0 15 -6 14 -16c-8 -65 -41 -101 -90 -101c-26 0 -43 7 -72 32c-17 16 -26 21 -39 21c-17 0 -28 -11 -33 -37c-2 -9 -7 -14 -16 -14z" />
    <glyph glyph-name="utilde" unicode="&#x169;" horiz-adv-x="488" 
d="M426 476v-306c0 -119 -64 -182 -182 -182s-182 63 -182 182v306c0 12 7 19 19 19h45c12 0 19 -7 19 -19v-299c0 -81 31 -117 100 -117s100 36 100 117v299c0 12 7 19 19 19h43c12 0 19 -7 19 -19zM139 579h-26c-10 0 -15 6 -14 16c8 65 41 101 90 101c26 0 43 -7 72 -32
c17 -16 26 -21 39 -21c17 0 28 11 33 37c2 9 7 14 16 14h26c10 0 15 -6 14 -16c-8 -65 -41 -101 -90 -101c-26 0 -43 7 -72 32c-17 16 -26 21 -39 21c-17 0 -28 -11 -33 -37c-2 -9 -7 -14 -16 -14z" />
    <glyph glyph-name="Umacron" unicode="&#x16a;" horiz-adv-x="588" 
d="M520 645v-425c0 -151 -80 -232 -226 -232s-226 81 -226 232v425c0 12 7 19 19 19h52c12 0 19 -7 19 -19v-416c0 -111 44 -162 137 -162s137 51 137 162v416c0 12 7 19 19 19h50c12 0 19 -7 19 -19zM425 811v-32c0 -11 -6 -17 -17 -17h-229c-11 0 -17 6 -17 17v32
c0 11 6 17 17 17h229c11 0 17 -6 17 -17z" />
    <glyph glyph-name="umacron" unicode="&#x16b;" horiz-adv-x="488" 
d="M426 476v-306c0 -119 -64 -182 -182 -182s-182 63 -182 182v306c0 12 7 19 19 19h45c12 0 19 -7 19 -19v-299c0 -81 31 -117 100 -117s100 36 100 117v299c0 12 7 19 19 19h43c12 0 19 -7 19 -19zM375 648v-32c0 -11 -6 -17 -17 -17h-229c-11 0 -17 6 -17 17v32
c0 11 6 17 17 17h229c11 0 17 -6 17 -17z" />
    <glyph glyph-name="Ubreve" unicode="&#x16c;" horiz-adv-x="588" 
d="M520 645v-425c0 -151 -80 -232 -226 -232s-226 81 -226 232v425c0 12 7 19 19 19h52c12 0 19 -7 19 -19v-416c0 -111 44 -162 137 -162s137 51 137 162v416c0 12 7 19 19 19h50c12 0 19 -7 19 -19zM382 864h30c10 0 16 -6 15 -16c-8 -68 -60 -107 -133 -107
s-125 39 -133 107c-1 10 5 16 15 16h30c10 0 14 -4 17 -13c9 -31 35 -46 71 -46s62 15 71 46c3 9 7 13 17 13z" />
    <glyph glyph-name="ubreve" unicode="&#x16d;" horiz-adv-x="488" 
d="M426 476v-306c0 -119 -64 -182 -182 -182s-182 63 -182 182v306c0 12 7 19 19 19h45c12 0 19 -7 19 -19v-299c0 -81 31 -117 100 -117s100 36 100 117v299c0 12 7 19 19 19h43c12 0 19 -7 19 -19zM332 701h30c10 0 16 -6 15 -16c-8 -68 -60 -107 -133 -107
s-125 39 -133 107c-1 10 5 16 15 16h30c10 0 14 -4 17 -13c9 -31 35 -46 71 -46s62 15 71 46c3 9 7 13 17 13z" />
    <glyph glyph-name="Uring" unicode="&#x16e;" horiz-adv-x="588" 
d="M520 645v-425c0 -151 -80 -232 -226 -232s-226 81 -226 232v425c0 12 7 19 19 19h52c12 0 19 -7 19 -19v-416c0 -111 44 -162 137 -162s137 51 137 162v416c0 12 7 19 19 19h50c12 0 19 -7 19 -19zM294 723c-47 0 -82 35 -82 82s35 82 82 82s82 -35 82 -82
s-35 -82 -82 -82zM294 770c21 0 35 14 35 35s-14 35 -35 35s-35 -14 -35 -35s14 -35 35 -35z" />
    <glyph glyph-name="uring" unicode="&#x16f;" horiz-adv-x="488" 
d="M426 476v-306c0 -119 -64 -182 -182 -182s-182 63 -182 182v306c0 12 7 19 19 19h45c12 0 19 -7 19 -19v-299c0 -81 31 -117 100 -117s100 36 100 117v299c0 12 7 19 19 19h43c12 0 19 -7 19 -19zM244 560c-47 0 -82 35 -82 82s35 82 82 82s82 -35 82 -82
s-35 -82 -82 -82zM244 607c21 0 35 14 35 35s-14 35 -35 35s-35 -14 -35 -35s14 -35 35 -35z" />
    <glyph glyph-name="Uhungarumlaut" unicode="&#x170;" horiz-adv-x="588" 
d="M520 645v-425c0 -151 -80 -232 -226 -232s-226 81 -226 232v425c0 12 7 19 19 19h52c12 0 19 -7 19 -19v-416c0 -111 44 -162 137 -162s137 51 137 162v416c0 12 7 19 19 19h50c12 0 19 -7 19 -19zM328 860l-79 -120c-5 -8 -11 -11 -20 -11h-31c-13 0 -18 9 -11 20
l68 120c5 8 11 12 21 12h41c14 0 19 -9 11 -21zM478 860l-79 -120c-5 -8 -11 -11 -20 -11h-31c-13 0 -18 9 -11 20l68 120c5 8 11 12 21 12h41c14 0 19 -9 11 -21z" />
    <glyph glyph-name="uhungarumlaut" unicode="&#x171;" horiz-adv-x="488" 
d="M426 476v-306c0 -119 -64 -182 -182 -182s-182 63 -182 182v306c0 12 7 19 19 19h45c12 0 19 -7 19 -19v-299c0 -81 31 -117 100 -117s100 36 100 117v299c0 12 7 19 19 19h43c12 0 19 -7 19 -19zM278 697l-79 -120c-5 -8 -11 -11 -20 -11h-31c-13 0 -18 9 -11 20l68 120
c5 8 11 12 21 12h41c14 0 19 -9 11 -21zM428 697l-79 -120c-5 -8 -11 -11 -20 -11h-31c-13 0 -18 9 -11 20l68 120c5 8 11 12 21 12h41c14 0 19 -9 11 -21z" />
    <glyph glyph-name="Uogonek" unicode="&#x172;" horiz-adv-x="588" 
d="M451 664h50c12 0 19 -7 19 -19v-425c0 -105 -38 -173 -109 -210c-47 -24 -68 -58 -68 -90c0 -20 16 -36 36 -36c14 0 25 5 35 13c8 7 16 7 22 -1l14 -18c7 -8 6 -16 -2 -23c-20 -17 -41 -27 -73 -27c-57 0 -91 31 -91 80c0 29 9 55 32 79v2c-8 -1 -15 -1 -22 -1
c-146 0 -226 81 -226 232v425c0 12 7 19 19 19h52c12 0 19 -7 19 -19v-416c0 -111 44 -162 137 -162s137 51 137 162v416c0 12 7 19 19 19z" />
    <glyph glyph-name="uogonek" unicode="&#x173;" horiz-adv-x="488" 
d="M345 9c-44 -24 -65 -58 -65 -89c0 -20 16 -36 36 -36c14 0 25 5 35 13c8 7 16 7 22 -1l14 -18c7 -8 6 -16 -2 -23c-20 -17 -41 -27 -73 -27c-57 0 -91 31 -91 80c0 29 9 54 31 78v2h-8c-118 0 -182 63 -182 182v306c0 12 7 19 19 19h45c12 0 19 -7 19 -19v-299
c0 -81 31 -117 100 -117s100 36 100 117v299c0 12 7 19 19 19h43c12 0 19 -7 19 -19v-306c0 -80 -27 -131 -81 -161z" />
    <glyph glyph-name="Wcircumflex" unicode="&#x174;" horiz-adv-x="853" 
d="M753 664h55c14 0 20 -8 16 -21l-167 -626c-3 -12 -9 -17 -22 -17h-62c-13 0 -19 5 -22 17l-124 468h-2l-123 -468c-3 -12 -9 -17 -22 -17h-63c-13 0 -19 5 -22 17l-166 626c-4 13 2 21 16 21h58c11 0 18 -5 21 -16l125 -506h2l133 505c3 12 9 17 22 17h44
c13 0 19 -5 22 -17l133 -503h2l125 504c3 11 10 16 21 16zM425 823l-58 -83c-5 -8 -11 -11 -20 -11h-37c-14 0 -19 9 -11 21l83 120c5 8 11 11 20 11h46c9 0 15 -3 20 -11l84 -120c8 -12 3 -21 -11 -21h-37c-9 0 -15 3 -21 11z" />
    <glyph glyph-name="wcircumflex" unicode="&#x175;" horiz-adv-x="691" 
d="M608 495h46c13 0 20 -8 16 -21l-135 -458c-3 -12 -10 -16 -23 -16h-49c-13 0 -20 4 -23 16l-93 326h-2l-94 -326c-3 -12 -10 -16 -23 -16h-49c-13 0 -20 4 -23 16l-134 458c-4 13 3 21 16 21h50c12 0 18 -5 21 -16l96 -353h2l102 352c3 12 10 17 23 17h32
c13 0 20 -5 23 -17l101 -350h2l97 351c3 11 9 16 21 16zM345 660l-58 -83c-5 -8 -11 -11 -20 -11h-37c-14 0 -19 9 -11 21l83 120c5 8 11 11 20 11h46c9 0 15 -3 20 -11l84 -120c8 -12 3 -21 -11 -21h-37c-9 0 -15 3 -21 11z" />
    <glyph glyph-name="Ycircumflex" unicode="&#x176;" horiz-adv-x="530" 
d="M310 288v-269c0 -12 -7 -19 -19 -19h-52c-12 0 -19 7 -19 19v270l-208 352c-7 13 -2 23 13 23h65c10 0 17 -4 22 -13l155 -277l155 277c5 9 12 13 22 13h61c15 0 20 -10 13 -23zM264 823l-58 -83c-5 -8 -11 -11 -20 -11h-37c-14 0 -19 9 -11 21l83 120c5 8 11 11 20 11
h46c9 0 15 -3 20 -11l84 -120c8 -12 3 -21 -11 -21h-37c-9 0 -15 3 -21 11z" />
    <glyph glyph-name="ycircumflex" unicode="&#x177;" horiz-adv-x="499" 
d="M368 495h45c12 0 19 -7 19 -19v-471c0 -110 -71 -177 -188 -177c-66 0 -121 19 -162 55c-9 8 -10 17 -3 27l19 27c7 11 16 12 26 3c33 -27 70 -40 115 -40c72 0 110 40 110 111v42h-2c-25 -33 -65 -49 -116 -49c-110 0 -169 64 -169 185v287c0 12 7 19 19 19h45
c12 0 19 -7 19 -19v-279c0 -83 32 -121 102 -121c68 0 102 40 102 121v279c0 12 7 19 19 19zM246 660l-58 -83c-5 -8 -11 -11 -20 -11h-37c-14 0 -19 9 -11 21l83 120c5 8 11 11 20 11h46c9 0 15 -3 20 -11l84 -120c8 -12 3 -21 -11 -21h-37c-9 0 -15 3 -21 11z" />
    <glyph glyph-name="Ydieresis" unicode="&#x178;" horiz-adv-x="530" 
d="M310 288v-269c0 -12 -7 -19 -19 -19h-52c-12 0 -19 7 -19 19v270l-208 352c-7 13 -2 23 13 23h65c10 0 17 -4 22 -13l155 -277l155 277c5 9 12 13 22 13h61c15 0 20 -10 13 -23zM182 753c-29 0 -50 21 -50 49c0 29 21 50 50 50c28 0 49 -21 49 -50c0 -28 -21 -49 -49 -49
zM348 753c-28 0 -49 21 -49 49c0 29 21 50 49 50c29 0 50 -21 50 -50c0 -28 -21 -49 -50 -49z" />
    <glyph glyph-name="Zacute" unicode="&#x179;" horiz-adv-x="522" 
d="M483 60v-41c0 -12 -7 -19 -19 -19h-406c-12 0 -19 7 -19 19v50c0 9 2 16 7 24l327 492h-300c-12 0 -19 7 -19 19v41c0 12 7 19 19 19h386c12 0 19 -7 19 -19v-50c0 -9 -2 -16 -7 -24l-327 -492h320c12 0 19 -7 19 -19zM384 860l-84 -120c-6 -8 -12 -11 -21 -11h-41
c-14 0 -18 9 -11 20l75 121c5 8 11 11 20 11h52c14 0 19 -9 10 -21z" />
    <glyph glyph-name="zacute" unicode="&#x17a;" horiz-adv-x="427" 
d="M391 53v-34c0 -12 -7 -19 -19 -19h-317c-12 0 -19 7 -19 19v44c0 9 2 16 8 24l246 336h-220c-12 0 -19 7 -19 19v34c0 12 7 19 19 19h297c12 0 19 -7 19 -19v-44c0 -9 -2 -16 -8 -24l-247 -336h241c12 0 19 -7 19 -19zM336 697l-84 -120c-6 -8 -12 -11 -21 -11h-41
c-14 0 -18 9 -11 20l75 121c5 8 11 11 20 11h52c14 0 19 -9 10 -21z" />
    <glyph glyph-name="Zdotaccent" unicode="&#x17b;" horiz-adv-x="522" 
d="M483 60v-41c0 -12 -7 -19 -19 -19h-406c-12 0 -19 7 -19 19v50c0 9 2 16 7 24l327 492h-300c-12 0 -19 7 -19 19v41c0 12 7 19 19 19h386c12 0 19 -7 19 -19v-50c0 -9 -2 -16 -7 -24l-327 -492h320c12 0 19 -7 19 -19zM264 750c-30 0 -52 22 -52 52c0 31 22 53 52 53
s52 -22 52 -53c0 -30 -22 -52 -52 -52z" />
    <glyph glyph-name="zdotaccent" unicode="&#x17c;" horiz-adv-x="427" 
d="M391 53v-34c0 -12 -7 -19 -19 -19h-317c-12 0 -19 7 -19 19v44c0 9 2 16 8 24l246 336h-220c-12 0 -19 7 -19 19v34c0 12 7 19 19 19h297c12 0 19 -7 19 -19v-44c0 -9 -2 -16 -8 -24l-247 -336h241c12 0 19 -7 19 -19zM216 587c-30 0 -52 22 -52 52c0 31 22 53 52 53
s52 -22 52 -53c0 -30 -22 -52 -52 -52z" />
    <glyph glyph-name="Zcaron" unicode="&#x17d;" horiz-adv-x="522" 
d="M483 60v-41c0 -12 -7 -19 -19 -19h-406c-12 0 -19 7 -19 19v50c0 9 2 16 7 24l327 492h-300c-12 0 -19 7 -19 19v41c0 12 7 19 19 19h386c12 0 19 -7 19 -19v-50c0 -9 -2 -16 -7 -24l-327 -492h320c12 0 19 -7 19 -19zM390 860l-84 -120c-5 -8 -11 -11 -20 -11h-46
c-9 0 -15 3 -20 11l-83 120c-8 12 -3 21 11 21h37c9 0 15 -3 20 -11l58 -82l58 82c6 8 12 11 21 11h37c14 0 19 -9 11 -21z" />
    <glyph glyph-name="zcaron" unicode="&#x17e;" horiz-adv-x="427" 
d="M391 53v-34c0 -12 -7 -19 -19 -19h-317c-12 0 -19 7 -19 19v44c0 9 2 16 8 24l246 336h-220c-12 0 -19 7 -19 19v34c0 12 7 19 19 19h297c12 0 19 -7 19 -19v-44c0 -9 -2 -16 -8 -24l-247 -336h241c12 0 19 -7 19 -19zM342 697l-84 -120c-5 -8 -11 -11 -20 -11h-46
c-9 0 -15 3 -20 11l-83 120c-8 12 -3 21 11 21h37c9 0 15 -3 20 -11l58 -82l58 82c6 8 12 11 21 11h37c14 0 19 -9 11 -21z" />
    <glyph glyph-name="florin" unicode="&#x192;" horiz-adv-x="529" 
d="M390 564c-55 0 -88 -33 -97 -102l-7 -53h146c12 0 19 -7 19 -19v-34c0 -12 -7 -19 -19 -19h-157l-55 -389c-1 -12 -8 -18 -20 -18h-45c-13 0 -19 7 -17 20l54 387h-96c-12 0 -19 7 -19 19v34c0 12 7 19 19 19h106l8 54c16 116 74 173 174 173c37 0 69 -6 98 -20
c11 -5 13 -15 8 -26l-14 -31c-5 -12 -15 -14 -26 -8c-18 9 -37 13 -60 13z" />
    <glyph glyph-name="AEacute" unicode="&#x1fc;" horiz-adv-x="875" 
d="M506 585v-210h263c12 0 19 -7 19 -19v-41c0 -12 -7 -19 -19 -19h-263v-217h307c12 0 19 -7 19 -19v-41c0 -12 -7 -19 -19 -19h-378c-12 0 -19 7 -19 19v113h-241l-66 -119c-5 -9 -12 -13 -22 -13h-60c-15 0 -20 10 -13 23l358 627c6 10 14 14 25 14h416
c12 0 19 -7 19 -19v-41c0 -12 -7 -19 -19 -19h-307zM416 211v357h-2l-195 -357h197zM563 860l-84 -120c-6 -8 -12 -11 -21 -11h-41c-14 0 -18 9 -11 20l75 121c5 8 11 11 20 11h52c14 0 19 -9 10 -21z" />
    <glyph glyph-name="aeacute" unicode="&#x1fd;" horiz-adv-x="735" 
d="M520 507c111 0 175 -68 175 -189v-77c0 -12 -7 -19 -19 -19h-269v-32c0 -91 38 -130 122 -130c39 0 70 13 101 41c9 9 19 8 27 -2l20 -25c7 -9 8 -18 -1 -27c-39 -39 -89 -59 -145 -59c-81 0 -136 28 -163 85h-2c-25 -57 -78 -85 -158 -85c-106 0 -170 58 -170 153
s63 150 178 150h108v14c0 91 -37 130 -114 130c-38 0 -73 -15 -100 -38c-9 -9 -18 -9 -26 2l-21 29c-7 10 -6 19 3 27c42 34 93 52 146 52c77 0 127 -28 153 -83h2c25 55 76 83 153 83zM616 291v18c0 87 -33 126 -104 126c-72 0 -105 -39 -105 -126v-18h209zM324 222h-98
c-66 0 -105 -27 -105 -82c0 -54 35 -80 96 -80c73 0 107 40 107 125v37zM487 697l-84 -120c-6 -8 -12 -11 -21 -11h-41c-14 0 -18 9 -11 20l75 121c5 8 11 11 20 11h52c14 0 19 -9 10 -21z" />
    <glyph glyph-name="Oslashacute" unicode="&#x1fe;" horiz-adv-x="588" 
d="M527 626l-30 -45c23 -38 35 -86 35 -145v-208c0 -156 -84 -240 -238 -240c-64 0 -117 15 -156 43l-20 -31c-7 -10 -15 -11 -25 -5l-27 18c-10 7 -12 15 -5 25l30 45c-23 38 -35 86 -35 145v208c0 156 84 240 238 240c64 0 117 -15 156 -43l20 31c7 10 15 11 25 5l27 -18
c10 -7 12 -15 5 -25zM146 425v-186c0 -22 2 -42 5 -60h2l248 380c-24 25 -60 38 -107 38c-100 0 -148 -56 -148 -172zM442 239v186c0 22 -2 42 -5 60h-2l-248 -380c24 -25 60 -38 107 -38c100 0 148 56 148 172zM414 860l-84 -120c-6 -8 -12 -11 -21 -11h-41
c-14 0 -18 9 -11 20l75 121c5 8 11 11 20 11h52c14 0 19 -9 10 -21z" />
    <glyph glyph-name="oslashacute" unicode="&#x1ff;" horiz-adv-x="475" 
d="M422 456l-20 -30c16 -28 24 -65 24 -108v-142c0 -122 -66 -188 -189 -188c-47 0 -85 10 -115 29l-12 -18c-7 -9 -15 -10 -24 -4l-28 20c-9 7 -11 15 -5 24l20 29c-16 29 -24 65 -24 108v142c0 123 66 189 188 189c47 0 86 -10 116 -29l12 18c7 9 15 10 24 4l28 -20
c9 -7 11 -15 5 -24zM132 309v-124c0 -9 0 -18 1 -26h2l174 254c-18 15 -41 22 -72 22c-72 0 -105 -40 -105 -126zM343 185v124c0 9 0 19 -1 27h-2l-174 -254c17 -15 41 -22 71 -22c73 0 106 40 106 125zM357 697l-84 -120c-6 -8 -12 -11 -21 -11h-41c-14 0 -18 9 -11 20
l75 121c5 8 11 11 20 11h52c14 0 19 -9 10 -21z" />
    <glyph glyph-name="uni0218" unicode="&#x218;" horiz-adv-x="512" 
d="M257 676c90 0 157 -27 203 -81c8 -10 6 -19 -3 -27l-33 -30c-10 -9 -19 -8 -27 2c-31 38 -77 57 -136 57c-78 0 -127 -43 -127 -112c0 -61 34 -92 149 -112c149 -26 203 -80 203 -192c0 -116 -84 -193 -213 -193c-103 0 -180 32 -233 96c-8 9 -7 18 2 26l32 30
c9 9 18 8 26 -1c42 -48 98 -72 168 -72c79 0 128 43 128 112c0 60 -36 91 -148 110c-150 25 -204 82 -204 194c0 116 84 193 213 193zM263 -48c28 0 50 -20 50 -55c0 -44 -24 -83 -62 -99c-6 -3 -11 -1 -15 6l-7 12c-4 7 -2 12 4 16c11 7 19 16 22 27c-25 3 -42 21 -42 47
c0 29 21 46 50 46z" />
    <glyph glyph-name="uni0219" unicode="&#x219;" horiz-adv-x="415" 
d="M388 136c0 -91 -66 -148 -171 -148c-78 0 -134 18 -179 58c-8 8 -8 17 -1 26l21 28c8 10 17 10 27 2c31 -27 75 -42 124 -42c61 0 96 27 96 76c0 44 -27 65 -109 77c-116 17 -156 60 -156 146c0 90 69 148 176 148c55 0 108 -15 145 -42c10 -8 11 -17 4 -27l-19 -28
c-7 -10 -16 -11 -27 -3c-26 18 -59 28 -95 28c-66 0 -101 -27 -101 -76c0 -40 26 -60 105 -71c118 -16 160 -62 160 -152zM211 -48c28 0 50 -20 50 -55c0 -44 -24 -83 -62 -99c-6 -3 -11 -1 -15 6l-7 12c-4 7 -2 12 4 16c11 7 19 16 22 27c-25 3 -42 21 -42 47
c0 29 21 46 50 46z" />
    <glyph glyph-name="uni021A" unicode="&#x21a;" horiz-adv-x="493" 
d="M291 585v-566c0 -12 -7 -19 -19 -19h-52c-12 0 -19 7 -19 19v566h-163c-12 0 -19 7 -19 19v41c0 12 7 19 19 19h417c12 0 19 -7 19 -19v-41c0 -12 -7 -19 -19 -19h-164zM246 -48c28 0 50 -20 50 -55c0 -44 -24 -83 -62 -99c-6 -3 -11 -1 -15 6l-7 12c-4 7 -2 12 4 16
c11 7 19 16 22 27c-25 3 -42 21 -42 47c0 29 21 46 50 46z" />
    <glyph glyph-name="uni021B" unicode="&#x21b;" horiz-adv-x="355" 
d="M328 64l12 -33c4 -11 1 -18 -9 -24c-22 -12 -51 -19 -88 -19c-102 0 -154 54 -154 158v277h-52c-12 0 -19 7 -19 19v34c0 12 7 19 19 19h52v113c0 12 7 19 19 19h45c12 0 19 -7 19 -19v-113h136c12 0 19 -7 19 -19v-34c0 -12 -7 -19 -19 -19h-136v-275
c0 -58 28 -88 80 -88c19 0 35 4 50 12c13 7 22 4 26 -8zM202 -48c28 0 50 -20 50 -55c0 -44 -24 -83 -62 -99c-6 -3 -11 -1 -15 6l-7 12c-4 7 -2 12 4 16c11 7 19 16 22 27c-25 3 -42 21 -42 47c0 29 21 46 50 46z" />
    <glyph glyph-name="uni0237" unicode="&#x237;" horiz-adv-x="217" 
d="M-2 -88c48 0 69 23 69 75v489c0 12 7 19 19 19h45c12 0 19 -7 19 -19v-489c0 -97 -48 -147 -139 -147h-13c-12 0 -19 7 -19 19v34c0 12 7 19 19 19z" />
    <glyph glyph-name="circumflex" unicode="&#x2c6;" horiz-adv-x="500" 
d="M250 660l-58 -83c-5 -8 -11 -11 -20 -11h-37c-14 0 -19 9 -11 21l83 120c5 8 11 11 20 11h46c9 0 15 -3 20 -11l84 -120c8 -12 3 -21 -11 -21h-37c-9 0 -15 3 -21 11z" />
    <glyph glyph-name="caron" unicode="&#x2c7;" horiz-adv-x="500" 
d="M377 697l-84 -120c-5 -8 -11 -11 -20 -11h-46c-9 0 -15 3 -20 11l-83 120c-8 12 -3 21 11 21h37c9 0 15 -3 20 -11l58 -82l58 82c6 8 12 11 21 11h37c14 0 19 -9 11 -21z" />
    <glyph glyph-name="breve" unicode="&#x2d8;" horiz-adv-x="500" 
d="M338 701h30c10 0 16 -6 15 -16c-8 -68 -60 -107 -133 -107s-125 39 -133 107c-1 10 5 16 15 16h30c10 0 14 -4 17 -13c9 -31 35 -46 71 -46s62 15 71 46c3 9 7 13 17 13z" />
    <glyph glyph-name="dotaccent" unicode="&#x2d9;" horiz-adv-x="500" 
d="M250 587c-30 0 -52 22 -52 52c0 31 22 53 52 53s52 -22 52 -53c0 -30 -22 -52 -52 -52z" />
    <glyph glyph-name="ring" unicode="&#x2da;" horiz-adv-x="500" 
d="M250 560c-47 0 -82 35 -82 82s35 82 82 82s82 -35 82 -82s-35 -82 -82 -82zM250 607c21 0 35 14 35 35s-14 35 -35 35s-35 -14 -35 -35s14 -35 35 -35z" />
    <glyph glyph-name="ogonek" unicode="&#x2db;" horiz-adv-x="500" 
d="M331 -104l14 -18c7 -8 6 -16 -2 -23c-20 -17 -41 -27 -73 -27c-57 0 -91 31 -91 80c0 50 27 90 98 125l28 -22c-47 -28 -67 -59 -67 -91c0 -20 16 -36 36 -36c14 0 25 5 35 13c8 7 16 7 22 -1z" />
    <glyph glyph-name="tilde" unicode="&#x2dc;" horiz-adv-x="500" 
d="M145 579h-26c-10 0 -15 6 -14 16c8 65 41 101 90 101c26 0 43 -7 72 -32c17 -16 26 -21 39 -21c17 0 28 11 33 37c2 9 7 14 16 14h26c10 0 15 -6 14 -16c-8 -65 -41 -101 -90 -101c-26 0 -43 7 -72 32c-17 16 -26 21 -39 21c-17 0 -28 -11 -33 -37c-2 -9 -7 -14 -16 -14z
" />
    <glyph glyph-name="hungarumlaut" unicode="&#x2dd;" horiz-adv-x="500" 
d="M284 697l-79 -120c-5 -8 -11 -11 -20 -11h-31c-13 0 -18 9 -11 20l68 120c5 8 11 12 21 12h41c14 0 19 -9 11 -21zM434 697l-79 -120c-5 -8 -11 -11 -20 -11h-31c-13 0 -18 9 -11 20l68 120c5 8 11 12 21 12h41c14 0 19 -9 11 -21z" />
    <glyph glyph-name="uni0394" unicode="&#x394;" horiz-adv-x="587" 
d="M348 647l211 -625c5 -14 -2 -22 -16 -22h-499c-14 0 -21 8 -16 22l211 625c4 11 11 17 23 17h63c11 0 19 -6 23 -17zM293 554h-2l-152 -475h307z" />
    <glyph glyph-name="uni03A9" unicode="&#x3a9;" horiz-adv-x="588" 
d="M532 436v-161c0 -92 -36 -159 -101 -193v-2h82c12 0 19 -7 19 -19v-42c0 -12 -7 -19 -19 -19h-155c-12 0 -19 7 -19 19v49c0 11 5 17 15 22c59 29 88 86 88 175v160c0 116 -48 172 -148 172s-148 -56 -148 -172v-160c0 -89 29 -146 88 -175c10 -5 15 -11 15 -22v-49
c0 -12 -7 -19 -19 -19h-155c-12 0 -19 7 -19 19v42c0 12 7 19 19 19h81v2c-64 34 -100 101 -100 193v161c0 156 84 240 238 240s238 -84 238 -240z" />
    <glyph glyph-name="uni03BC" unicode="&#x3bc;" horiz-adv-x="499" 
d="M373 495h45c12 0 19 -7 19 -19v-303c0 -121 -59 -185 -169 -185c-51 0 -91 16 -116 49h-2v-178c0 -12 -7 -19 -19 -19h-45c-12 0 -19 7 -19 19v617c0 12 7 19 19 19h45c12 0 19 -7 19 -19v-295c0 -81 34 -121 102 -121c70 0 102 38 102 121v295c0 12 7 19 19 19z" />
    <glyph glyph-name="pi" unicode="&#x3c0;" horiz-adv-x="517" 
d="M345 423h-173v-404c0 -12 -7 -19 -19 -19h-45c-12 0 -19 7 -19 19v404h-52c-12 0 -19 7 -19 19v34c0 12 7 19 19 19h443c12 0 19 -7 19 -19v-34c0 -12 -7 -19 -19 -19h-52v-404c0 -12 -7 -19 -19 -19h-45c-12 0 -19 7 -19 19v404z" />
    <glyph glyph-name="uni1E02" unicode="&#x1e02;" horiz-adv-x="564" 
d="M411 341v-2c79 -23 114 -75 114 -163c0 -121 -69 -176 -226 -176h-201c-12 0 -19 7 -19 19v626c0 12 7 19 19 19h183c157 0 226 -53 226 -172c0 -78 -30 -127 -96 -151zM169 376h112c95 0 137 32 137 105c0 72 -42 104 -137 104h-112v-209zM169 79h129
c95 0 137 34 137 109c0 76 -42 109 -137 109h-129v-218zM275 750c-30 0 -52 22 -52 52c0 31 22 53 52 53s52 -22 52 -53c0 -30 -22 -52 -52 -52z" />
    <glyph glyph-name="uni1E03" unicode="&#x1e03;" horiz-adv-x="488" 
d="M264 507c114 0 175 -66 175 -189v-141c0 -123 -66 -189 -188 -189c-123 0 -189 66 -189 189v504c0 12 7 19 19 19h45c12 0 19 -7 19 -19v-224h2c25 33 64 50 117 50zM356 185v124c0 86 -33 126 -105 126c-71 0 -106 -42 -106 -126v-124c0 -85 33 -125 106 -125
c72 0 105 40 105 125zM103 781c-30 0 -52 22 -52 52c0 31 22 53 52 53s52 -22 52 -53c0 -30 -22 -52 -52 -52z" />
    <glyph glyph-name="uni1E0A" unicode="&#x1e0a;" horiz-adv-x="591" 
d="M98 664h199c158 0 238 -77 238 -228v-207c0 -152 -80 -229 -238 -229h-199c-12 0 -19 7 -19 19v626c0 12 7 19 19 19zM445 240v185c0 109 -49 160 -152 160h-124v-506h124c103 0 152 51 152 161zM281 750c-30 0 -52 22 -52 52c0 31 22 53 52 53s52 -22 52 -53
c0 -30 -22 -52 -52 -52z" />
    <glyph glyph-name="uni1E0B" unicode="&#x1e0b;" horiz-adv-x="488" 
d="M362 700h45c12 0 19 -7 19 -19v-504c0 -123 -66 -189 -189 -189c-122 0 -188 66 -188 189v141c0 123 61 189 175 189c52 0 92 -17 117 -50h2v224c0 12 7 19 19 19zM343 185v124c0 84 -35 126 -106 126c-72 0 -105 -40 -105 -126v-124c0 -85 33 -125 105 -125
c73 0 106 40 106 125zM385 781c-30 0 -52 22 -52 52c0 31 22 53 52 53s52 -22 52 -53c0 -30 -22 -52 -52 -52z" />
    <glyph glyph-name="uni1E1E" unicode="&#x1e1e;" horiz-adv-x="505" 
d="M169 369h253c12 0 19 -7 19 -19v-41c0 -12 -7 -19 -19 -19h-253v-271c0 -12 -7 -19 -19 -19h-52c-12 0 -19 7 -19 19v626c0 12 7 19 19 19h368c12 0 19 -7 19 -19v-41c0 -12 -7 -19 -19 -19h-297v-216zM271 750c-30 0 -52 22 -52 52c0 31 22 53 52 53s52 -22 52 -53
c0 -30 -22 -52 -52 -52z" />
    <glyph glyph-name="uni1E1F" unicode="&#x1e1f;" 
d="M257 640c-55 0 -85 -35 -85 -102v-43h136c12 0 19 -7 19 -19v-34c0 -12 -7 -19 -19 -19h-136v-404c0 -12 -7 -19 -19 -19h-45c-12 0 -19 7 -19 19v404h-52c-12 0 -19 7 -19 19v34c0 12 7 19 19 19h52v44c0 111 57 173 161 173c37 0 70 -6 99 -20c11 -6 13 -15 8 -26
l-14 -31c-5 -11 -14 -14 -25 -8c-18 9 -39 13 -61 13zM207 781c-30 0 -52 22 -52 52c0 31 22 53 52 53s52 -22 52 -53c0 -30 -22 -52 -52 -52z" />
    <glyph glyph-name="uni1E40" unicode="&#x1e40;" horiz-adv-x="820" 
d="M623 664h99c12 0 19 -7 19 -19v-626c0 -12 -7 -19 -19 -19h-52c-12 0 -19 7 -19 19v518h-2l-195 -522c-4 -10 -11 -15 -22 -15h-46c-11 0 -18 5 -22 15l-195 522h-2v-518c0 -12 -7 -19 -19 -19h-50c-12 0 -19 7 -19 19v626c0 12 7 19 19 19h101c11 0 18 -5 22 -15
l189 -515h2l189 515c4 10 11 15 22 15zM410 750c-30 0 -52 22 -52 52c0 31 22 53 52 53s52 -22 52 -53c0 -30 -22 -52 -52 -52z" />
    <glyph glyph-name="uni1E41" unicode="&#x1e41;" horiz-adv-x="754" 
d="M518 507c113 0 174 -65 174 -184v-304c0 -12 -7 -19 -19 -19h-45c-12 0 -19 7 -19 19v296c0 82 -30 120 -96 120c-65 0 -95 -38 -95 -120v-296c0 -12 -7 -19 -19 -19h-45c-12 0 -19 7 -19 19v296c0 82 -31 120 -96 120c-64 0 -94 -38 -94 -120v-296c0 -12 -7 -19 -19 -19
h-45c-12 0 -19 7 -19 19v304c0 119 61 184 172 184c67 0 114 -23 141 -67h2c27 44 74 67 141 67zM377 587c-30 0 -52 22 -52 52c0 31 22 53 52 53s52 -22 52 -53c0 -30 -22 -52 -52 -52z" />
    <glyph glyph-name="uni1E56" unicode="&#x1e56;" horiz-adv-x="546" 
d="M98 664h186c161 0 236 -64 236 -203c0 -141 -75 -205 -236 -205h-115v-237c0 -12 -7 -19 -19 -19h-52c-12 0 -19 7 -19 19v626c0 12 7 19 19 19zM169 335h114c101 0 146 39 146 125s-45 125 -146 125h-114v-250zM279 750c-30 0 -52 22 -52 52c0 31 22 53 52 53
s52 -22 52 -53c0 -30 -22 -52 -52 -52z" />
    <glyph glyph-name="uni1E57" unicode="&#x1e57;" horiz-adv-x="488" 
d="M251 507c122 0 188 -66 188 -189v-141c0 -123 -61 -189 -175 -189c-52 0 -92 17 -117 50h-2v-179c0 -12 -7 -19 -19 -19h-45c-12 0 -19 7 -19 19v459c0 123 66 189 189 189zM356 186v124c0 85 -33 125 -105 125c-73 0 -106 -40 -106 -125v-124c0 -84 35 -126 106 -126
c72 0 105 40 105 126zM251 587c-30 0 -52 22 -52 52c0 31 22 53 52 53s52 -22 52 -53c0 -30 -22 -52 -52 -52z" />
    <glyph glyph-name="uni1E60" unicode="&#x1e60;" horiz-adv-x="512" 
d="M257 676c90 0 157 -27 203 -81c8 -10 6 -19 -3 -27l-33 -30c-10 -9 -19 -8 -27 2c-31 38 -77 57 -136 57c-78 0 -127 -43 -127 -112c0 -61 34 -92 149 -112c149 -26 203 -80 203 -192c0 -116 -84 -193 -213 -193c-103 0 -180 32 -233 96c-8 9 -7 18 2 26l32 30
c9 9 18 8 26 -1c42 -48 98 -72 168 -72c79 0 128 43 128 112c0 60 -36 91 -148 110c-150 25 -204 82 -204 194c0 116 84 193 213 193zM257 750c-30 0 -52 22 -52 52c0 31 22 53 52 53s52 -22 52 -53c0 -30 -22 -52 -52 -52z" />
    <glyph glyph-name="uni1E61" unicode="&#x1e61;" horiz-adv-x="415" 
d="M388 136c0 -91 -66 -148 -171 -148c-78 0 -134 18 -179 58c-8 8 -8 17 -1 26l21 28c8 10 17 10 27 2c31 -27 75 -42 124 -42c61 0 96 27 96 76c0 44 -27 65 -109 77c-116 17 -156 60 -156 146c0 90 69 148 176 148c55 0 108 -15 145 -42c10 -8 11 -17 4 -27l-19 -28
c-7 -10 -16 -11 -27 -3c-26 18 -59 28 -95 28c-66 0 -101 -27 -101 -76c0 -40 26 -60 105 -71c118 -16 160 -62 160 -152zM207 587c-30 0 -52 22 -52 52c0 31 22 53 52 53s52 -22 52 -53c0 -30 -22 -52 -52 -52z" />
    <glyph glyph-name="uni1E6A" unicode="&#x1e6a;" horiz-adv-x="493" 
d="M291 585v-566c0 -12 -7 -19 -19 -19h-52c-12 0 -19 7 -19 19v566h-163c-12 0 -19 7 -19 19v41c0 12 7 19 19 19h417c12 0 19 -7 19 -19v-41c0 -12 -7 -19 -19 -19h-164zM246 750c-30 0 -52 22 -52 52c0 31 22 53 52 53s52 -22 52 -53c0 -30 -22 -52 -52 -52z" />
    <glyph glyph-name="uni1E6B" unicode="&#x1e6b;" horiz-adv-x="355" 
d="M328 64l12 -33c4 -11 1 -18 -9 -24c-22 -12 -51 -19 -88 -19c-102 0 -154 54 -154 158v277h-52c-12 0 -19 7 -19 19v34c0 12 7 19 19 19h52v113c0 12 7 19 19 19h45c12 0 19 -7 19 -19v-113h136c12 0 19 -7 19 -19v-34c0 -12 -7 -19 -19 -19h-136v-275
c0 -58 28 -88 80 -88c19 0 35 4 50 12c13 7 22 4 26 -8zM130 713c-30 0 -52 22 -52 52c0 31 22 53 52 53s52 -22 52 -53c0 -30 -22 -52 -52 -52z" />
    <glyph glyph-name="Wgrave" unicode="&#x1e80;" horiz-adv-x="853" 
d="M753 664h55c14 0 20 -8 16 -21l-167 -626c-3 -12 -9 -17 -22 -17h-62c-13 0 -19 5 -22 17l-124 468h-2l-123 -468c-3 -12 -9 -17 -22 -17h-63c-13 0 -19 5 -22 17l-166 626c-4 13 2 21 16 21h58c11 0 18 -5 21 -16l125 -506h2l133 505c3 12 9 17 22 17h44
c13 0 19 -5 22 -17l133 -503h2l125 504c3 11 10 16 21 16zM452 729h-41c-9 0 -15 3 -21 11l-84 120c-9 12 -4 21 10 21h52c9 0 15 -3 20 -11l75 -121c7 -11 3 -20 -11 -20z" />
    <glyph glyph-name="wgrave" unicode="&#x1e81;" horiz-adv-x="691" 
d="M608 495h46c13 0 20 -8 16 -21l-135 -458c-3 -12 -10 -16 -23 -16h-49c-13 0 -20 4 -23 16l-93 326h-2l-94 -326c-3 -12 -10 -16 -23 -16h-49c-13 0 -20 4 -23 16l-134 458c-4 13 3 21 16 21h50c12 0 18 -5 21 -16l96 -353h2l102 352c3 12 10 17 23 17h32
c13 0 20 -5 23 -17l101 -350h2l97 351c3 11 9 16 21 16zM372 566h-41c-9 0 -15 3 -21 11l-84 120c-9 12 -4 21 10 21h52c9 0 15 -3 20 -11l75 -121c7 -11 3 -20 -11 -20z" />
    <glyph glyph-name="Wacute" unicode="&#x1e82;" horiz-adv-x="853" 
d="M753 664h55c14 0 20 -8 16 -21l-167 -626c-3 -12 -9 -17 -22 -17h-62c-13 0 -19 5 -22 17l-124 468h-2l-123 -468c-3 -12 -9 -17 -22 -17h-63c-13 0 -19 5 -22 17l-166 626c-4 13 2 21 16 21h58c11 0 18 -5 21 -16l125 -506h2l133 505c3 12 9 17 22 17h44
c13 0 19 -5 22 -17l133 -503h2l125 504c3 11 10 16 21 16zM546 860l-84 -120c-6 -8 -12 -11 -21 -11h-41c-14 0 -18 9 -11 20l75 121c5 8 11 11 20 11h52c14 0 19 -9 10 -21z" />
    <glyph glyph-name="wacute" unicode="&#x1e83;" horiz-adv-x="691" 
d="M608 495h46c13 0 20 -8 16 -21l-135 -458c-3 -12 -10 -16 -23 -16h-49c-13 0 -20 4 -23 16l-93 326h-2l-94 -326c-3 -12 -10 -16 -23 -16h-49c-13 0 -20 4 -23 16l-134 458c-4 13 3 21 16 21h50c12 0 18 -5 21 -16l96 -353h2l102 352c3 12 10 17 23 17h32
c13 0 20 -5 23 -17l101 -350h2l97 351c3 11 9 16 21 16zM466 697l-84 -120c-6 -8 -12 -11 -21 -11h-41c-14 0 -18 9 -11 20l75 121c5 8 11 11 20 11h52c14 0 19 -9 10 -21z" />
    <glyph glyph-name="Wdieresis" unicode="&#x1e84;" horiz-adv-x="853" 
d="M753 664h55c14 0 20 -8 16 -21l-167 -626c-3 -12 -9 -17 -22 -17h-62c-13 0 -19 5 -22 17l-124 468h-2l-123 -468c-3 -12 -9 -17 -22 -17h-63c-13 0 -19 5 -22 17l-166 626c-4 13 2 21 16 21h58c11 0 18 -5 21 -16l125 -506h2l133 505c3 12 9 17 22 17h44
c13 0 19 -5 22 -17l133 -503h2l125 504c3 11 10 16 21 16zM343 753c-29 0 -50 21 -50 49c0 29 21 50 50 50c28 0 49 -21 49 -50c0 -28 -21 -49 -49 -49zM509 753c-28 0 -49 21 -49 49c0 29 21 50 49 50c29 0 50 -21 50 -50c0 -28 -21 -49 -50 -49z" />
    <glyph glyph-name="wdieresis" unicode="&#x1e85;" horiz-adv-x="691" 
d="M608 495h46c13 0 20 -8 16 -21l-135 -458c-3 -12 -10 -16 -23 -16h-49c-13 0 -20 4 -23 16l-93 326h-2l-94 -326c-3 -12 -10 -16 -23 -16h-49c-13 0 -20 4 -23 16l-134 458c-4 13 3 21 16 21h50c12 0 18 -5 21 -16l96 -353h2l102 352c3 12 10 17 23 17h32
c13 0 20 -5 23 -17l101 -350h2l97 351c3 11 9 16 21 16zM263 590c-29 0 -50 21 -50 49c0 29 21 50 50 50c28 0 49 -21 49 -50c0 -28 -21 -49 -49 -49zM429 590c-28 0 -49 21 -49 49c0 29 21 50 49 50c29 0 50 -21 50 -50c0 -28 -21 -49 -50 -49z" />
    <glyph glyph-name="Ygrave" unicode="&#x1ef2;" horiz-adv-x="530" 
d="M310 288v-269c0 -12 -7 -19 -19 -19h-52c-12 0 -19 7 -19 19v270l-208 352c-7 13 -2 23 13 23h65c10 0 17 -4 22 -13l155 -277l155 277c5 9 12 13 22 13h61c15 0 20 -10 13 -23zM291 729h-41c-9 0 -15 3 -21 11l-84 120c-9 12 -4 21 10 21h52c9 0 15 -3 20 -11l75 -121
c7 -11 3 -20 -11 -20z" />
    <glyph glyph-name="ygrave" unicode="&#x1ef3;" horiz-adv-x="499" 
d="M368 495h45c12 0 19 -7 19 -19v-471c0 -110 -71 -177 -188 -177c-66 0 -121 19 -162 55c-9 8 -10 17 -3 27l19 27c7 11 16 12 26 3c33 -27 70 -40 115 -40c72 0 110 40 110 111v42h-2c-25 -33 -65 -49 -116 -49c-110 0 -169 64 -169 185v287c0 12 7 19 19 19h45
c12 0 19 -7 19 -19v-279c0 -83 32 -121 102 -121c68 0 102 40 102 121v279c0 12 7 19 19 19zM273 566h-41c-9 0 -15 3 -21 11l-84 120c-9 12 -4 21 10 21h52c9 0 15 -3 20 -11l75 -121c7 -11 3 -20 -11 -20z" />
    <glyph glyph-name="uni2007" unicode="&#x2007;" horiz-adv-x="529" 
 />
    <glyph glyph-name="figuredash" unicode="&#x2012;" horiz-adv-x="529" 
d="M482 279h-435c-11 0 -17 6 -17 17v33c0 11 6 17 17 17h435c11 0 17 -6 17 -17v-33c0 -11 -6 -17 -17 -17z" />
    <glyph glyph-name="endash" unicode="&#x2013;" horiz-adv-x="500" 
d="M453 239h-406c-11 0 -17 6 -17 17v33c0 11 6 17 17 17h406c11 0 17 -6 17 -17v-33c0 -11 -6 -17 -17 -17z" />
    <glyph glyph-name="emdash" unicode="&#x2014;" horiz-adv-x="900" 
d="M853 239h-806c-11 0 -17 6 -17 17v33c0 11 6 17 17 17h806c11 0 17 -6 17 -17v-33c0 -11 -6 -17 -17 -17z" />
    <glyph glyph-name="quoteleft" unicode="&#x2018;" horiz-adv-x="233" 
d="M117 459c-32 0 -56 24 -56 63c0 58 32 113 74 149c7 6 13 5 19 -1l14 -14c6 -6 5 -12 -1 -18c-21 -21 -34 -45 -37 -76c24 -5 42 -23 42 -51c0 -32 -24 -52 -55 -52z" />
    <glyph glyph-name="quoteright" unicode="&#x2019;" horiz-adv-x="233" 
d="M116 676c32 0 56 -24 56 -63c0 -58 -32 -113 -74 -149c-7 -6 -13 -5 -19 1l-14 14c-6 6 -5 12 1 18c21 21 34 45 37 76c-24 5 -42 23 -42 51c0 32 24 52 55 52z" />
    <glyph glyph-name="quotesinglbase" unicode="&#x201a;" horiz-adv-x="233" 
d="M116 99c32 0 56 -24 56 -63c0 -58 -32 -113 -74 -149c-7 -6 -13 -5 -19 1l-14 14c-6 6 -5 12 1 18c21 21 34 45 37 76c-24 5 -42 23 -42 51c0 32 24 52 55 52z" />
    <glyph glyph-name="quotedblleft" unicode="&#x201c;" horiz-adv-x="410" 
d="M117 459c-32 0 -56 24 -56 63c0 58 32 113 74 149c7 6 13 5 19 -1l14 -14c6 -6 5 -12 -1 -18c-21 -21 -34 -45 -37 -76c24 -5 42 -23 42 -51c0 -32 -24 -52 -55 -52zM294 459c-32 0 -56 24 -56 63c0 58 32 113 74 149c7 6 13 5 19 -1l14 -14c6 -6 5 -12 -1 -18
c-21 -21 -34 -45 -37 -76c24 -5 42 -23 42 -51c0 -32 -24 -52 -55 -52z" />
    <glyph glyph-name="quotedblright" unicode="&#x201d;" horiz-adv-x="410" 
d="M116 676c32 0 56 -24 56 -63c0 -58 -32 -113 -74 -149c-7 -6 -13 -5 -19 1l-14 14c-6 6 -5 12 1 18c21 21 34 45 37 76c-24 5 -42 23 -42 51c0 32 24 52 55 52zM293 676c32 0 56 -24 56 -63c0 -58 -32 -113 -74 -149c-7 -6 -13 -5 -19 1l-14 14c-6 6 -5 12 1 18
c21 21 34 45 37 76c-24 5 -42 23 -42 51c0 32 24 52 55 52z" />
    <glyph glyph-name="quotedblbase" unicode="&#x201e;" horiz-adv-x="410" 
d="M293 99c32 0 56 -24 56 -63c0 -58 -32 -113 -74 -149c-7 -6 -13 -5 -19 1l-14 14c-6 6 -5 12 1 18c21 21 34 45 37 76c-24 5 -42 23 -42 51c0 32 24 52 55 52zM116 99c32 0 56 -24 56 -63c0 -58 -32 -113 -74 -149c-7 -6 -13 -5 -19 1l-14 14c-6 6 -5 12 1 18
c21 21 34 45 37 76c-24 5 -42 23 -42 51c0 32 24 52 55 52z" />
    <glyph glyph-name="dagger" unicode="&#x2020;" horiz-adv-x="438" 
d="M252 482v-383c0 -10 -6 -16 -16 -16h-34c-10 0 -16 6 -16 16v383h-131c-10 0 -16 6 -16 16v30c0 10 6 16 16 16h131v140c0 10 6 16 16 16h34c10 0 16 -6 16 -16v-140h131c10 0 16 -6 16 -16v-30c0 -10 -6 -16 -16 -16h-131z" />
    <glyph glyph-name="daggerdbl" unicode="&#x2021;" horiz-adv-x="438" 
d="M252 301h131c10 0 16 -6 16 -16v-31c0 -10 -6 -16 -16 -16h-131v-139c0 -10 -6 -16 -16 -16h-34c-10 0 -16 6 -16 16v139h-131c-10 0 -16 6 -16 16v31c0 10 6 16 16 16h131v181h-131c-10 0 -16 6 -16 16v30c0 10 6 16 16 16h131v140c0 10 6 16 16 16h34
c10 0 16 -6 16 -16v-140h131c10 0 16 -6 16 -16v-30c0 -10 -6 -16 -16 -16h-131v-181z" />
    <glyph glyph-name="bullet" unicode="&#x2022;" horiz-adv-x="500" 
d="M250 165c-71 0 -127 56 -127 127c0 72 56 128 127 128s127 -56 127 -128c0 -71 -56 -127 -127 -127z" />
    <glyph glyph-name="ellipsis" unicode="&#x2026;" horiz-adv-x="900" 
d="M733 -12c-31 0 -55 23 -55 55s24 56 55 56c32 0 56 -24 56 -56s-24 -55 -56 -55zM450 -12c-31 0 -55 23 -55 55s24 56 55 56c32 0 56 -24 56 -56s-24 -55 -56 -55zM166 -12c-31 0 -55 23 -55 55s24 56 55 56c32 0 56 -24 56 -56s-24 -55 -56 -55z" />
    <glyph glyph-name="perthousand" unicode="&#x2030;" horiz-adv-x="919" 
d="M646 112v79c0 79 43 123 121 123s121 -44 121 -123v-79c0 -80 -43 -124 -121 -124s-121 44 -121 124zM708 189v-75c0 -49 18 -69 59 -69s59 20 59 69v75c0 48 -18 68 -59 68s-59 -20 -59 -68zM31 434v79c0 79 43 123 121 123s121 -44 121 -123v-79
c0 -80 -43 -124 -121 -124s-121 44 -121 124zM86 18l394 596c4 7 10 10 18 10h39c13 0 17 -8 10 -18l-394 -596c-4 -7 -10 -10 -18 -10h-39c-13 0 -17 8 -10 18zM93 511v-75c0 -49 18 -69 59 -69s59 20 59 69v75c0 48 -18 68 -59 68s-59 -20 -59 -68zM360 112v79
c0 79 43 123 121 123s121 -44 121 -123v-79c0 -80 -43 -124 -121 -124s-121 44 -121 124zM422 189v-75c0 -49 18 -69 59 -69s59 20 59 69v75c0 48 -18 68 -59 68s-59 -20 -59 -68z" />
    <glyph glyph-name="guilsinglleft" unicode="&#x2039;" horiz-adv-x="251" 
d="M102 247l107 -168c7 -12 3 -21 -11 -21h-41c-9 0 -15 3 -20 11l-106 166c-5 8 -5 16 0 24l106 167c5 8 11 11 20 11h41c14 0 18 -9 11 -21z" />
    <glyph glyph-name="guilsinglright" unicode="&#x203a;" horiz-adv-x="251" 
d="M149 248l-107 168c-7 12 -3 21 11 21h41c9 0 15 -3 20 -11l106 -166c5 -8 5 -16 0 -24l-106 -167c-5 -8 -11 -11 -20 -11h-41c-14 0 -18 9 -11 21z" />
    <glyph glyph-name="fraction" unicode="&#x2044;" horiz-adv-x="136" 
d="M-161 18l394 596c4 7 10 10 18 10h36c13 0 17 -8 10 -18l-394 -596c-4 -7 -10 -10 -18 -10h-36c-13 0 -17 8 -10 18z" />
    <glyph glyph-name="zerosuperior" unicode="&#x2070;" 
d="M35 489v134c0 86 47 133 130 133s130 -47 130 -133v-134c0 -86 -47 -133 -130 -133s-130 47 -130 133zM96 621v-130c0 -54 22 -80 69 -80s69 26 69 80v130c0 54 -22 80 -69 80s-69 -26 -69 -80z" />
    <glyph glyph-name="foursuperior" unicode="&#x2074;" 
d="M268 503h30c10 0 15 -5 15 -15v-25c0 -10 -5 -15 -15 -15h-30v-70c0 -10 -5 -15 -15 -15h-31c-10 0 -15 5 -15 15v70h-165c-10 0 -15 5 -15 15v33c0 7 2 12 6 18l166 226c5 6 10 9 18 9h36c10 0 15 -5 15 -15v-231zM207 661h-2l-114 -158h116v158z" />
    <glyph glyph-name="fivesuperior" unicode="&#x2075;" 
d="M180 612c74 0 123 -51 123 -128c0 -78 -54 -128 -137 -128c-51 0 -95 17 -125 48c-6 7 -6 15 0 21l18 20c7 8 14 7 21 0c22 -22 50 -34 83 -34c50 0 79 28 79 73s-29 73 -76 73c-25 0 -48 -8 -64 -21c-6 -5 -11 -7 -19 -6l-20 3c-9 1 -14 7 -13 16l12 186c1 9 6 14 16 14
h188c10 0 15 -5 15 -15v-25c0 -10 -5 -15 -15 -15h-151l-7 -101h2c18 12 43 19 70 19z" />
    <glyph glyph-name="sixsuperior" unicode="&#x2076;" 
d="M183 615c74 0 119 -50 119 -128c0 -80 -51 -131 -130 -131c-81 0 -131 50 -131 129v138c0 84 49 133 131 133c42 0 78 -11 105 -33c7 -6 7 -14 1 -21l-18 -23c-6 -8 -13 -8 -21 -1c-17 15 -39 23 -62 23c-49 0 -75 -28 -75 -81v-34h2c18 19 45 29 79 29zM172 411
c42 0 69 29 69 74c0 47 -27 75 -69 75c-43 0 -70 -29 -70 -75c0 -45 27 -74 70 -74z" />
    <glyph glyph-name="sevensuperior" unicode="&#x2077;" 
d="M308 734v-33c0 -7 -1 -12 -4 -19l-147 -308c-3 -8 -9 -11 -17 -11h-35c-12 0 -16 7 -11 18l151 313h-150v-53c0 -10 -5 -15 -15 -15h-28c-10 0 -15 5 -15 15v93c0 10 5 15 15 15h241c10 0 15 -5 15 -15z" />
    <glyph glyph-name="eightsuperior" unicode="&#x2078;" 
d="M239 564v-2c42 -16 64 -48 64 -92c0 -73 -51 -114 -138 -114s-138 41 -138 114c0 44 22 76 64 92v2c-35 16 -54 46 -54 84c0 68 48 108 128 108s128 -40 128 -108c0 -38 -19 -68 -54 -84zM165 701c-43 0 -68 -21 -68 -57c0 -35 25 -55 68 -55s68 20 68 55
c0 36 -25 57 -68 57zM165 411c49 0 77 23 77 62c0 40 -28 63 -77 63s-77 -23 -77 -63c0 -39 28 -62 77 -62z" />
    <glyph glyph-name="ninesuperior" unicode="&#x2079;" 
d="M158 756c81 0 131 -50 131 -129v-138c0 -84 -49 -133 -131 -133c-42 0 -77 12 -105 34c-7 7 -7 14 -2 21l17 23c6 8 13 9 21 2c18 -16 39 -25 64 -25c49 0 75 28 75 81v34h-2c-18 -19 -45 -29 -80 -29c-73 0 -118 50 -118 128c0 80 51 131 130 131zM158 552
c43 0 70 29 70 75c0 45 -27 74 -70 74c-42 0 -69 -29 -69 -74c0 -47 27 -75 69 -75z" />
    <glyph glyph-name="zeroinferior" unicode="&#x2080;" 
d="M35 -34v134c0 86 47 133 130 133s130 -47 130 -133v-134c0 -86 -47 -133 -130 -133s-130 47 -130 133zM96 98v-130c0 -54 22 -80 69 -80s69 26 69 80v130c0 54 -22 80 -69 80s-69 -26 -69 -80z" />
    <glyph glyph-name="oneinferior" unicode="&#x2081;" 
d="M251 211v-356c0 -10 -5 -15 -15 -15h-31c-10 0 -15 5 -15 15v292l-72 -54c-8 -6 -15 -4 -20 4l-14 21c-5 8 -4 15 4 21l107 81c6 4 11 6 18 6h23c10 0 15 -5 15 -15z" />
    <glyph glyph-name="twoinferior" unicode="&#x2082;" 
d="M128 -105h149c10 0 15 -5 15 -15v-25c0 -10 -5 -15 -15 -15h-217c-10 0 -15 5 -15 15v27c0 8 2 13 8 19l142 144c28 28 38 49 38 74c0 37 -24 59 -66 59c-29 0 -54 -15 -73 -42c-6 -8 -12 -9 -21 -3l-22 16c-7 5 -9 13 -3 21c27 41 71 63 121 63c78 0 125 -42 125 -114
c0 -42 -16 -71 -56 -112l-110 -110v-2z" />
    <glyph glyph-name="threeinferior" unicode="&#x2083;" 
d="M239 41v-2c41 -14 64 -47 64 -92c0 -72 -49 -114 -133 -114c-54 0 -97 17 -127 51c-6 7 -6 14 1 21l18 19c7 8 14 7 21 -1c21 -23 49 -35 83 -35c48 0 76 23 76 62c0 43 -27 63 -88 63h-18c-10 0 -15 5 -15 15v23c0 10 5 15 15 15h15c57 0 82 17 82 55
c0 36 -26 57 -70 57c-31 0 -56 -12 -77 -35c-7 -8 -14 -9 -21 -1l-17 19c-7 7 -7 14 -1 21c31 33 72 51 120 51c79 0 127 -40 127 -108c0 -40 -20 -70 -55 -84z" />
    <glyph glyph-name="fourinferior" unicode="&#x2084;" 
d="M268 -20h30c10 0 15 -5 15 -15v-25c0 -10 -5 -15 -15 -15h-30v-70c0 -10 -5 -15 -15 -15h-31c-10 0 -15 5 -15 15v70h-165c-10 0 -15 5 -15 15v33c0 7 2 12 6 18l166 226c5 6 10 9 18 9h36c10 0 15 -5 15 -15v-231zM207 138h-2l-114 -158h116v158z" />
    <glyph glyph-name="fiveinferior" unicode="&#x2085;" 
d="M180 89c74 0 123 -51 123 -128c0 -78 -54 -128 -137 -128c-51 0 -95 17 -125 48c-6 7 -6 15 0 21l18 20c7 8 14 7 21 0c22 -22 50 -34 83 -34c50 0 79 28 79 73s-29 73 -76 73c-25 0 -48 -8 -64 -21c-6 -5 -11 -7 -19 -6l-20 3c-9 1 -14 7 -13 16l12 186c1 9 6 14 16 14
h188c10 0 15 -5 15 -15v-25c0 -10 -5 -15 -15 -15h-151l-7 -101h2c18 12 43 19 70 19z" />
    <glyph glyph-name="sixinferior" unicode="&#x2086;" 
d="M183 92c74 0 119 -50 119 -128c0 -80 -51 -131 -130 -131c-81 0 -131 50 -131 129v138c0 84 49 133 131 133c42 0 78 -11 105 -33c7 -6 7 -14 1 -21l-18 -23c-6 -8 -13 -8 -21 -1c-17 15 -39 23 -62 23c-49 0 -75 -28 -75 -81v-34h2c18 19 45 29 79 29zM172 -112
c42 0 69 29 69 74c0 47 -27 75 -69 75c-43 0 -70 -29 -70 -75c0 -45 27 -74 70 -74z" />
    <glyph glyph-name="seveninferior" unicode="&#x2087;" 
d="M308 211v-33c0 -7 -1 -12 -4 -19l-147 -308c-3 -8 -9 -11 -17 -11h-35c-12 0 -16 7 -11 18l151 313h-150v-53c0 -10 -5 -15 -15 -15h-28c-10 0 -15 5 -15 15v93c0 10 5 15 15 15h241c10 0 15 -5 15 -15z" />
    <glyph glyph-name="eightinferior" unicode="&#x2088;" 
d="M239 41v-2c42 -16 64 -48 64 -92c0 -73 -51 -114 -138 -114s-138 41 -138 114c0 44 22 76 64 92v2c-35 16 -54 46 -54 84c0 68 48 108 128 108s128 -40 128 -108c0 -38 -19 -68 -54 -84zM165 178c-43 0 -68 -21 -68 -57c0 -35 25 -55 68 -55s68 20 68 55
c0 36 -25 57 -68 57zM165 -112c49 0 77 23 77 62c0 40 -28 63 -77 63s-77 -23 -77 -63c0 -39 28 -62 77 -62z" />
    <glyph glyph-name="nineinferior" unicode="&#x2089;" 
d="M158 233c81 0 131 -50 131 -129v-138c0 -84 -49 -133 -131 -133c-42 0 -77 12 -105 34c-7 7 -7 14 -2 21l17 23c6 8 13 9 21 2c18 -16 39 -25 64 -25c49 0 75 28 75 81v34h-2c-18 -19 -45 -29 -80 -29c-73 0 -118 50 -118 128c0 80 51 131 130 131zM158 29
c43 0 70 29 70 75c0 45 -27 74 -70 74c-42 0 -69 -29 -69 -74c0 -47 27 -75 69 -75z" />
    <glyph glyph-name="Euro" unicode="&#x20ac;" horiz-adv-x="529" 
d="M296 64c56 0 98 21 125 62c6 11 15 13 26 7l34 -21c11 -7 13 -16 7 -26c-39 -64 -105 -98 -193 -98c-134 0 -211 77 -211 215v7h-33c-11 0 -17 6 -17 17v35c0 11 6 17 17 17h33v71h-33c-11 0 -17 6 -17 17v35c0 11 6 17 17 17h33v2c0 138 77 215 211 215
c88 0 154 -34 193 -98c6 -10 4 -19 -7 -26l-34 -21c-11 -6 -20 -4 -26 7c-27 41 -69 62 -125 62c-82 0 -125 -46 -126 -141h196c12 0 17 -7 15 -19l-8 -35c-3 -10 -9 -15 -19 -15h-184v-71h166c12 0 17 -7 15 -19l-8 -35c-2 -10 -8 -15 -18 -15h-155v-2
c0 -97 43 -144 126 -144z" />
    <glyph glyph-name="uni20B9" unicode="&#x20b9;" horiz-adv-x="529" 
d="M439 470h50c12 0 18 -7 15 -19l-7 -36c-2 -10 -8 -15 -18 -15h-39c-12 -105 -88 -153 -250 -153h-8v-2l248 -222c13 -11 8 -23 -9 -23h-68c-10 0 -17 3 -24 9l-268 246c-7 7 -9 14 -7 24l5 25c2 11 8 16 19 16h112c102 0 150 25 162 80h-284c-12 0 -18 7 -15 19l7 36
c2 10 8 15 18 15h274c-12 54 -60 78 -162 78h-121c-13 0 -19 7 -16 20l8 40c2 11 8 16 19 16h409c12 0 18 -7 15 -19l-7 -36c-2 -10 -8 -15 -18 -15h-78v-2c21 -21 33 -47 38 -82z" />
    <glyph glyph-name="uni2113" unicode="&#x2113;" horiz-adv-x="436" 
d="M369 86l19 -32c6 -10 3 -19 -5 -26c-32 -27 -71 -40 -114 -40c-99 0 -156 54 -162 151c-10 -6 -20 -13 -30 -18c-11 -7 -20 -4 -26 7l-17 34c-5 10 -3 19 8 25c23 14 44 27 64 41v258c0 94 54 150 144 150c85 0 136 -53 136 -143c0 -103 -61 -199 -194 -297v-31
c0 -67 27 -101 81 -101c25 0 47 8 69 26c11 9 20 8 27 -4zM251 563c-39 0 -59 -28 -59 -81v-187h2c77 67 110 132 110 198c0 45 -18 70 -53 70z" />
    <glyph glyph-name="uni2117" unicode="&#x2117;" horiz-adv-x="766" 
d="M383 676c196 0 344 -148 344 -344s-148 -344 -344 -344s-344 148 -344 344s148 344 344 344zM383 40c161 0 286 127 286 292s-125 292 -286 292s-286 -127 -286 -292s125 -292 286 -292zM296 516h100c91 0 133 -35 133 -114c0 -81 -42 -116 -133 -116h-56v-123
c0 -10 -5 -15 -15 -15h-29c-10 0 -15 5 -15 15v338c0 10 5 15 15 15zM340 338h56c50 0 73 20 73 63c0 44 -23 63 -73 63h-56v-126z" />
    <glyph glyph-name="trademark" unicode="&#x2122;" horiz-adv-x="769" 
d="M30 664h227c10 0 15 -5 15 -15v-23c0 -10 -5 -15 -15 -15h-84v-286c0 -10 -5 -15 -15 -15h-30c-10 0 -15 5 -15 15v286h-83c-10 0 -15 5 -15 15v23c0 10 5 15 15 15zM641 664h60c10 0 15 -5 15 -15v-324c0 -10 -5 -15 -15 -15h-30c-10 0 -15 5 -15 15v264h-2l-103 -267
c-3 -8 -9 -12 -18 -12h-19c-9 0 -15 4 -18 12l-102 266h-2v-263c0 -10 -5 -15 -15 -15h-28c-10 0 -15 5 -15 15v324c0 10 5 15 15 15h60c9 0 15 -5 18 -13l97 -253h2l97 253c3 8 9 13 18 13z" />
    <glyph glyph-name="uni2126" unicode="&#x2126;" horiz-adv-x="582" 
d="M529 436v-161c0 -92 -36 -159 -101 -193v-2h82c12 0 19 -7 19 -19v-42c0 -12 -7 -19 -19 -19h-155c-12 0 -19 7 -19 19v49c0 11 5 17 15 22c59 29 88 86 88 175v160c0 116 -48 172 -148 172s-148 -56 -148 -172v-160c0 -89 29 -146 88 -175c10 -5 15 -11 15 -22v-49
c0 -12 -7 -19 -19 -19h-155c-12 0 -19 7 -19 19v42c0 12 7 19 19 19h81v2c-64 34 -100 101 -100 193v161c0 156 84 240 238 240s238 -84 238 -240z" />
    <glyph glyph-name="estimated" unicode="&#x212e;" horiz-adv-x="820" 
d="M189 111c55 -64 136 -103 223 -103c93 0 176 45 233 115h54c-68 -82 -172 -135 -289 -135c-200 0 -362 154 -362 344c0 191 162 344 362 344s362 -153 362 -344v-8h-587c-2 0 -4 -2 -4 -4v-189c0 -8 4 -14 8 -20zM185 342h450c4 0 6 2 6 6v189c0 8 -4 16 -10 22
c-57 60 -136 97 -219 97c-87 0 -166 -39 -223 -101c-4 -6 -8 -14 -8 -22v-185c0 -4 2 -6 4 -6z" />
    <glyph glyph-name="onethird" unicode="&#x2153;" horiz-adv-x="796" 
d="M169 18l394 596c4 7 10 10 18 10h36c13 0 17 -8 10 -18l-394 -596c-4 -7 -10 -10 -18 -10h-36c-13 0 -17 8 -10 18zM705 201v-2c41 -14 64 -47 64 -92c0 -72 -49 -114 -133 -114c-54 0 -97 17 -127 51c-6 7 -6 14 1 21l18 19c7 8 14 7 21 -1c21 -23 49 -35 83 -35
c48 0 76 23 76 62c0 43 -27 63 -88 63h-18c-10 0 -15 5 -15 15v23c0 10 5 15 15 15h15c57 0 82 17 82 55c0 36 -26 57 -70 57c-31 0 -56 -12 -77 -35c-7 -8 -14 -9 -21 -1l-17 19c-7 7 -7 14 -1 21c31 33 72 51 120 51c79 0 127 -40 127 -108c0 -40 -20 -70 -55 -84z
M251 609v-356c0 -10 -5 -15 -15 -15h-31c-10 0 -15 5 -15 15v292l-72 -54c-8 -6 -15 -4 -20 4l-14 21c-5 8 -4 15 4 21l107 81c6 4 11 6 18 6h23c10 0 15 -5 15 -15z" />
    <glyph glyph-name="twothirds" unicode="&#x2154;" horiz-adv-x="796" 
d="M189 18l394 596c4 7 10 10 18 10h36c13 0 17 -8 10 -18l-394 -596c-4 -7 -10 -10 -18 -10h-36c-13 0 -17 8 -10 18zM705 201v-2c41 -14 64 -47 64 -92c0 -72 -49 -114 -133 -114c-54 0 -97 17 -127 51c-6 7 -6 14 1 21l18 19c7 8 14 7 21 -1c21 -23 49 -35 83 -35
c48 0 76 23 76 62c0 43 -27 63 -88 63h-18c-10 0 -15 5 -15 15v23c0 10 5 15 15 15h15c57 0 82 17 82 55c0 36 -26 57 -70 57c-31 0 -56 -12 -77 -35c-7 -8 -14 -9 -21 -1l-17 19c-7 7 -7 14 -1 21c31 33 72 51 120 51c79 0 127 -40 127 -108c0 -40 -20 -70 -55 -84z
M128 293h149c10 0 15 -5 15 -15v-25c0 -10 -5 -15 -15 -15h-217c-10 0 -15 5 -15 15v27c0 8 2 13 8 19l142 144c28 28 38 49 38 74c0 37 -24 59 -66 59c-29 0 -54 -15 -73 -42c-6 -8 -12 -9 -21 -3l-22 16c-7 5 -9 13 -3 21c27 41 71 63 121 63c78 0 125 -42 125 -114
c0 -42 -16 -71 -56 -112l-110 -110v-2z" />
    <glyph glyph-name="oneeighth" unicode="&#x215b;" horiz-adv-x="796" 
d="M169 18l394 596c4 7 10 10 18 10h36c13 0 17 -8 10 -18l-394 -596c-4 -7 -10 -10 -18 -10h-36c-13 0 -17 8 -10 18zM705 201v-2c42 -16 64 -48 64 -92c0 -73 -51 -114 -138 -114s-138 41 -138 114c0 44 22 76 64 92v2c-35 16 -54 46 -54 84c0 68 48 108 128 108
s128 -40 128 -108c0 -38 -19 -68 -54 -84zM631 338c-43 0 -68 -21 -68 -57c0 -35 25 -55 68 -55s68 20 68 55c0 36 -25 57 -68 57zM631 48c49 0 77 23 77 62c0 40 -28 63 -77 63s-77 -23 -77 -63c0 -39 28 -62 77 -62zM251 609v-356c0 -10 -5 -15 -15 -15h-31
c-10 0 -15 5 -15 15v292l-72 -54c-8 -6 -15 -4 -20 4l-14 21c-5 8 -4 15 4 21l107 81c6 4 11 6 18 6h23c10 0 15 -5 15 -15z" />
    <glyph glyph-name="threeeighths" unicode="&#x215c;" horiz-adv-x="796" 
d="M174 18l394 596c4 7 10 10 18 10h36c13 0 17 -8 10 -18l-394 -596c-4 -7 -10 -10 -18 -10h-36c-13 0 -17 8 -10 18zM705 201v-2c42 -16 64 -48 64 -92c0 -73 -51 -114 -138 -114s-138 41 -138 114c0 44 22 76 64 92v2c-35 16 -54 46 -54 84c0 68 48 108 128 108
s128 -40 128 -108c0 -38 -19 -68 -54 -84zM631 338c-43 0 -68 -21 -68 -57c0 -35 25 -55 68 -55s68 20 68 55c0 36 -25 57 -68 57zM631 48c49 0 77 23 77 62c0 40 -28 63 -77 63s-77 -23 -77 -63c0 -39 28 -62 77 -62zM239 439v-2c41 -14 64 -47 64 -92
c0 -72 -49 -114 -133 -114c-54 0 -97 17 -127 51c-6 7 -6 14 1 21l18 19c7 8 14 7 21 -1c21 -23 49 -35 83 -35c48 0 76 23 76 62c0 43 -27 63 -88 63h-18c-10 0 -15 5 -15 15v23c0 10 5 15 15 15h15c57 0 82 17 82 55c0 36 -26 57 -70 57c-31 0 -56 -12 -77 -35
c-7 -8 -14 -9 -21 -1l-17 19c-7 7 -7 14 -1 21c31 33 72 51 120 51c79 0 127 -40 127 -108c0 -40 -20 -70 -55 -84z" />
    <glyph glyph-name="fiveeighths" unicode="&#x215d;" horiz-adv-x="796" 
d="M174 18l394 596c4 7 10 10 18 10h36c13 0 17 -8 10 -18l-394 -596c-4 -7 -10 -10 -18 -10h-36c-13 0 -17 8 -10 18zM705 201v-2c42 -16 64 -48 64 -92c0 -73 -51 -114 -138 -114s-138 41 -138 114c0 44 22 76 64 92v2c-35 16 -54 46 -54 84c0 68 48 108 128 108
s128 -40 128 -108c0 -38 -19 -68 -54 -84zM631 338c-43 0 -68 -21 -68 -57c0 -35 25 -55 68 -55s68 20 68 55c0 36 -25 57 -68 57zM631 48c49 0 77 23 77 62c0 40 -28 63 -77 63s-77 -23 -77 -63c0 -39 28 -62 77 -62zM180 487c74 0 123 -51 123 -128
c0 -78 -54 -128 -137 -128c-51 0 -95 17 -125 48c-6 7 -6 15 0 21l18 20c7 8 14 7 21 0c22 -22 50 -34 83 -34c50 0 79 28 79 73s-29 73 -76 73c-25 0 -48 -8 -64 -21c-6 -5 -11 -7 -19 -6l-20 3c-9 1 -14 7 -13 16l12 186c1 9 6 14 16 14h188c10 0 15 -5 15 -15v-25
c0 -10 -5 -15 -15 -15h-151l-7 -101h2c18 12 43 19 70 19z" />
    <glyph glyph-name="seveneighths" unicode="&#x215e;" horiz-adv-x="796" 
d="M134 18l394 596c4 7 10 10 18 10h36c13 0 17 -8 10 -18l-394 -596c-4 -7 -10 -10 -18 -10h-36c-13 0 -17 8 -10 18zM705 201v-2c42 -16 64 -48 64 -92c0 -73 -51 -114 -138 -114s-138 41 -138 114c0 44 22 76 64 92v2c-35 16 -54 46 -54 84c0 68 48 108 128 108
s128 -40 128 -108c0 -38 -19 -68 -54 -84zM631 338c-43 0 -68 -21 -68 -57c0 -35 25 -55 68 -55s68 20 68 55c0 36 -25 57 -68 57zM631 48c49 0 77 23 77 62c0 40 -28 63 -77 63s-77 -23 -77 -63c0 -39 28 -62 77 -62zM308 609v-33c0 -7 -1 -12 -4 -19l-147 -308
c-3 -8 -9 -11 -17 -11h-35c-12 0 -16 7 -11 18l151 313h-150v-53c0 -10 -5 -15 -15 -15h-28c-10 0 -15 5 -15 15v93c0 10 5 15 15 15h241c10 0 15 -5 15 -15z" />
    <glyph glyph-name="partialdiff" unicode="&#x2202;" horiz-adv-x="539" 
d="M277 676c137 0 215 -101 215 -279c0 -255 -97 -409 -258 -409c-115 0 -190 78 -190 197c0 145 91 249 224 249c61 0 107 -21 136 -58h2v27c0 127 -49 197 -140 197c-38 0 -77 -13 -108 -37c-11 -9 -20 -7 -26 4l-19 33c-6 10 -5 18 3 25c44 33 99 51 161 51zM235 64
c78 0 133 68 157 185c-1 66 -44 109 -110 109c-88 0 -152 -70 -152 -171c0 -77 41 -123 105 -123z" />
    <glyph glyph-name="uni2206" unicode="&#x2206;" horiz-adv-x="581" 
d="M345 647l211 -625c5 -14 -2 -22 -16 -22h-499c-14 0 -21 8 -16 22l211 625c4 11 11 17 23 17h63c11 0 19 -6 23 -17zM290 554h-2l-152 -475h307z" />
    <glyph glyph-name="product" unicode="&#x220f;" horiz-adv-x="606" 
d="M545 645v-706c0 -12 -7 -19 -19 -19h-52c-12 0 -19 7 -19 19v646h-304v-646c0 -12 -7 -19 -19 -19h-52c-12 0 -19 7 -19 19v706c0 12 7 19 19 19h446c12 0 19 -7 19 -19z" />
    <glyph glyph-name="summation" unicode="&#x2211;" horiz-adv-x="486" 
d="M128 585l204 -280c7 -9 7 -17 0 -26l-204 -280h328c12 0 19 -7 19 -19v-41c0 -12 -7 -19 -19 -19h-416c-12 0 -19 7 -19 19v50c0 9 2 16 8 24l204 279l-204 279c-6 8 -8 15 -8 24v50c0 12 7 19 19 19h416c12 0 19 -7 19 -19v-41c0 -12 -7 -19 -19 -19h-328z" />
    <glyph glyph-name="minus" unicode="&#x2212;" horiz-adv-x="529" 
d="M488 240h-448c-12 0 -19 7 -19 19v39c0 12 7 19 19 19h448c12 0 19 -7 19 -19v-39c0 -12 -7 -19 -19 -19z" />
    <glyph glyph-name="uni2219" unicode="&#x2219;" horiz-adv-x="233" 
d="M116 257c-31 0 -55 23 -55 55s24 56 55 56c32 0 56 -24 56 -56s-24 -55 -56 -55z" />
    <glyph glyph-name="radical" unicode="&#x221a;" horiz-adv-x="516" 
d="M450 664h41c14 0 20 -8 17 -21l-181 -707c-3 -11 -10 -16 -21 -16h-58c-11 0 -18 5 -22 15l-94 257l-70 -20c-12 -3 -20 1 -23 13l-8 30c-3 12 1 20 13 23l119 32c12 3 20 -1 24 -12l84 -242h2l156 632c3 11 10 16 21 16z" />
    <glyph glyph-name="infinity" unicode="&#x221e;" horiz-adv-x="628" 
d="M456 459c84 0 136 -57 136 -147s-53 -147 -138 -147c-60 0 -105 28 -145 90c-42 -63 -83 -90 -137 -90c-84 0 -136 57 -136 147s53 147 138 147c59 0 103 -28 146 -90c42 63 83 90 136 90zM178 230c37 0 67 22 101 74c-40 67 -68 90 -108 90c-42 0 -67 -30 -67 -82
c0 -51 28 -82 74 -82zM457 230c42 0 67 30 67 82c0 51 -28 82 -74 82c-36 0 -65 -21 -100 -73c40 -68 69 -91 107 -91z" />
    <glyph glyph-name="integral" unicode="&#x222b;" horiz-adv-x="326" 
d="M107 514c0 124 62 190 169 197c12 1 19 -6 19 -18v-35c0 -12 -6 -18 -18 -19c-54 -8 -88 -48 -88 -126c0 -75 8 -154 15 -234c8 -84 15 -169 15 -253c0 -124 -62 -190 -169 -197c-12 -1 -19 6 -19 18v35c0 12 6 18 18 19c54 8 88 48 88 126c0 75 -8 154 -15 234
c-8 84 -15 169 -15 253z" />
    <glyph glyph-name="approxequal" unicode="&#x2248;" horiz-adv-x="529" 
d="M162 389c-32 0 -55 -16 -81 -59c-7 -11 -16 -13 -26 -7l-29 17c-11 7 -13 16 -7 27c39 68 83 98 143 98c41 0 72 -12 121 -41c40 -24 59 -31 84 -31c31 0 55 17 81 59c7 11 15 13 26 7l29 -17c10 -6 13 -15 7 -26c-39 -68 -83 -99 -143 -99c-39 0 -69 10 -121 41
c-39 23 -58 31 -84 31zM162 164c-32 0 -55 -16 -81 -59c-7 -11 -16 -13 -26 -7l-29 17c-11 7 -13 16 -7 27c39 68 83 98 143 98c41 0 72 -12 121 -41c40 -24 59 -31 84 -31c31 0 55 17 81 59c7 11 15 13 26 7l29 -17c10 -6 13 -15 7 -26c-39 -68 -83 -99 -143 -99
c-39 0 -69 10 -121 41c-39 23 -58 31 -84 31z" />
    <glyph glyph-name="notequal" unicode="&#x2260;" horiz-adv-x="529" 
d="M258 205h215c12 0 19 -7 19 -19v-39c0 -12 -7 -19 -19 -19h-259l-60 -105c-6 -9 -13 -13 -23 -13h-37c-15 0 -20 10 -13 23l55 95h-80c-12 0 -19 7 -19 19v39c0 12 7 19 19 19h124l86 148h-210c-12 0 -19 7 -19 19v39c0 12 7 19 19 19h254l60 105c6 9 13 13 23 13h37
c15 0 20 -10 13 -23l-55 -95h85c12 0 19 -7 19 -19v-39c0 -12 -7 -19 -19 -19h-129z" />
    <glyph glyph-name="lessequal" unicode="&#x2264;" horiz-adv-x="529" 
d="M147 343l327 -124c10 -4 15 -11 15 -22v-43c0 -15 -9 -20 -22 -15l-413 164c-10 4 -15 11 -15 22v38c0 11 5 18 15 22l413 163c13 5 22 0 22 -15v-42c0 -11 -5 -18 -15 -22l-327 -124v-2zM58 77h412c12 0 19 -7 19 -19v-39c0 -12 -7 -19 -19 -19h-412c-12 0 -19 7 -19 19
v39c0 12 7 19 19 19z" />
    <glyph glyph-name="greaterequal" unicode="&#x2265;" horiz-adv-x="529" 
d="M61 548l413 -163c10 -4 15 -11 15 -22v-38c0 -11 -5 -18 -15 -22l-413 -164c-13 -5 -22 0 -22 15v43c0 11 5 18 15 22l327 124v2l-327 124c-10 4 -15 11 -15 22v42c0 15 9 20 22 15zM58 77h412c12 0 19 -7 19 -19v-39c0 -12 -7 -19 -19 -19h-412c-12 0 -19 7 -19 19v39
c0 12 7 19 19 19z" />
    <glyph glyph-name="lozenge" unicode="&#x25ca;" horiz-adv-x="515" 
d="M298 660l177 -315c5 -9 5 -17 0 -26l-177 -315c-5 -9 -12 -14 -22 -14h-37c-10 0 -17 5 -22 14l-177 315c-5 9 -5 17 0 26l177 315c5 9 12 14 22 14h37c10 0 17 -5 22 -14zM258 582h-2l-135 -250l136 -250h2l135 250z" />
    <glyph glyph-name="uniE069" unicode="&#xe069;" horiz-adv-x="217" 
d="M108 587c-30 0 -52 22 -52 52c0 31 22 53 52 53c31 0 53 -22 53 -53c0 -30 -22 -52 -53 -52zM131 0h-45c-12 0 -19 7 -19 19v457c0 12 7 19 19 19h45c12 0 19 -7 19 -19v-457c0 -12 -7 -19 -19 -19z" />
    <glyph glyph-name="uniEF01" unicode="&#xef01;" horiz-adv-x="500" 
d="M250 -48c28 0 50 -20 50 -55c0 -44 -24 -83 -62 -99c-6 -3 -11 -1 -15 6l-7 12c-4 7 -2 12 4 16c11 7 19 16 22 27c-25 3 -42 21 -42 47c0 29 21 46 50 46z" />
    <glyph glyph-name="uniEF02" unicode="&#xef02;" horiz-adv-x="500" 
d="M294 682l-28 -162c-2 -10 -8 -15 -19 -15h-25c-12 0 -17 6 -16 18l16 161c1 11 7 16 18 16h38c12 0 18 -7 16 -18z" />
    <glyph glyph-name="uniF8FF" unicode="&#xf8ff;" horiz-adv-x="1000" 
d="M439 210v52h-1l-17 -78h-23l28 126h27v-66h1l28 66h31l-28 -126h-24l17 78h-1l-22 -52h-16zM140 285l-17 -77c-5 -17 -12 -24 -25 -24h-46l28 126h43c11 0 18 -5 18 -15c0 -3 0 -4 -1 -10zM293 184h-24l6 26h-17l-7 -26h-24l23 103c3 15 13 23 26 23h22
c11 0 18 -5 18 -15c0 -3 0 -4 -1 -10zM570 184h-24l6 26h-17l-7 -26h-24l23 103c3 15 13 23 26 23h22c11 0 18 -5 18 -15c0 -3 0 -4 -1 -10zM401 285l-11 -52c-3 -12 -7 -18 -13 -20l6 -29h-23l-4 26h-13l-6 -26h-24l28 126h43c11 0 18 -5 18 -15c0 -3 0 -4 -1 -10zM845 285
l-12 -53c-3 -15 -11 -22 -24 -22h-22l-6 -26h-24l28 126h43c11 0 18 -5 18 -15c0 -3 0 -4 -1 -10zM233 310l-28 -126h-24l6 26h-18l-6 -26h-24l28 126h24l-18 -81h18l18 81h24zM703 310h24l-17 -75c-1 -5 0 -6 4 -6h7c4 0 5 1 6 4l17 77h24l-17 -78c-3 -15 -12 -22 -24 -22
l-14 -26h-24l14 26c-9 0 -18 4 -18 15c0 2 0 5 1 10zM901 242l-4 -19h-26l-4 -20h33l-5 -19h-56l28 126h57l-5 -19h-32l-11 -49h25zM671 291l-24 -107h-24l24 107h-19l4 19h61l-4 -19h-18zM100 291l-20 -88h13c4 0 5 2 6 5l17 77c1 5 0 6 -3 6h-13zM810 233l11 52
c1 5 0 6 -4 6h-12l-14 -62h13c4 0 5 1 6 4zM366 233l11 52c1 5 0 6 -4 6h-12l-14 -62h13c3 0 5 1 6 4zM564 291h-7c-4 0 -5 -1 -6 -5l-13 -57h18l12 56c1 5 0 6 -4 6zM287 291h-7c-4 0 -5 -1 -6 -5l-13 -57h18l12 56c1 5 0 6 -4 6zM987 333v-30h-6v25h-1l-7 -20h-4l-7 20h-1
v-25h-5v30h10l5 -16h1l5 16h10zM952 333v-5h-9v-25h-6v25h-8v5h23z" />
    <glyph glyph-name="zero.numr" 
d="M35 364v134c0 86 47 133 130 133s130 -47 130 -133v-134c0 -86 -47 -133 -130 -133s-130 47 -130 133zM96 496v-130c0 -54 22 -80 69 -80s69 26 69 80v130c0 54 -22 80 -69 80s-69 -26 -69 -80z" />
    <glyph glyph-name="one.numr" 
d="M251 609v-356c0 -10 -5 -15 -15 -15h-31c-10 0 -15 5 -15 15v292l-72 -54c-8 -6 -15 -4 -20 4l-14 21c-5 8 -4 15 4 21l107 81c6 4 11 6 18 6h23c10 0 15 -5 15 -15z" />
    <glyph glyph-name="two.numr" 
d="M128 293h149c10 0 15 -5 15 -15v-25c0 -10 -5 -15 -15 -15h-217c-10 0 -15 5 -15 15v27c0 8 2 13 8 19l142 144c28 28 38 49 38 74c0 37 -24 59 -66 59c-29 0 -54 -15 -73 -42c-6 -8 -12 -9 -21 -3l-22 16c-7 5 -9 13 -3 21c27 41 71 63 121 63c78 0 125 -42 125 -114
c0 -42 -16 -71 -56 -112l-110 -110v-2z" />
    <glyph glyph-name="three.numr" 
d="M239 439v-2c41 -14 64 -47 64 -92c0 -72 -49 -114 -133 -114c-54 0 -97 17 -127 51c-6 7 -6 14 1 21l18 19c7 8 14 7 21 -1c21 -23 49 -35 83 -35c48 0 76 23 76 62c0 43 -27 63 -88 63h-18c-10 0 -15 5 -15 15v23c0 10 5 15 15 15h15c57 0 82 17 82 55
c0 36 -26 57 -70 57c-31 0 -56 -12 -77 -35c-7 -8 -14 -9 -21 -1l-17 19c-7 7 -7 14 -1 21c31 33 72 51 120 51c79 0 127 -40 127 -108c0 -40 -20 -70 -55 -84z" />
    <glyph glyph-name="four.numr" 
d="M268 378h30c10 0 15 -5 15 -15v-25c0 -10 -5 -15 -15 -15h-30v-70c0 -10 -5 -15 -15 -15h-31c-10 0 -15 5 -15 15v70h-165c-10 0 -15 5 -15 15v33c0 7 2 12 6 18l166 226c5 6 10 9 18 9h36c10 0 15 -5 15 -15v-231zM207 536h-2l-114 -158h116v158z" />
    <glyph glyph-name="five.numr" 
d="M180 487c74 0 123 -51 123 -128c0 -78 -54 -128 -137 -128c-51 0 -95 17 -125 48c-6 7 -6 15 0 21l18 20c7 8 14 7 21 0c22 -22 50 -34 83 -34c50 0 79 28 79 73s-29 73 -76 73c-25 0 -48 -8 -64 -21c-6 -5 -11 -7 -19 -6l-20 3c-9 1 -14 7 -13 16l12 186c1 9 6 14 16 14
h188c10 0 15 -5 15 -15v-25c0 -10 -5 -15 -15 -15h-151l-7 -101h2c18 12 43 19 70 19z" />
    <glyph glyph-name="six.numr" 
d="M183 490c74 0 119 -50 119 -128c0 -80 -51 -131 -130 -131c-81 0 -131 50 -131 129v138c0 84 49 133 131 133c42 0 78 -11 105 -33c7 -6 7 -14 1 -21l-18 -23c-6 -8 -13 -8 -21 -1c-17 15 -39 23 -62 23c-49 0 -75 -28 -75 -81v-34h2c18 19 45 29 79 29zM172 286
c42 0 69 29 69 74c0 47 -27 75 -69 75c-43 0 -70 -29 -70 -75c0 -45 27 -74 70 -74z" />
    <glyph glyph-name="seven.numr" 
d="M308 609v-33c0 -7 -1 -12 -4 -19l-147 -308c-3 -8 -9 -11 -17 -11h-35c-12 0 -16 7 -11 18l151 313h-150v-53c0 -10 -5 -15 -15 -15h-28c-10 0 -15 5 -15 15v93c0 10 5 15 15 15h241c10 0 15 -5 15 -15z" />
    <glyph glyph-name="eight.numr" 
d="M239 439v-2c42 -16 64 -48 64 -92c0 -73 -51 -114 -138 -114s-138 41 -138 114c0 44 22 76 64 92v2c-35 16 -54 46 -54 84c0 68 48 108 128 108s128 -40 128 -108c0 -38 -19 -68 -54 -84zM165 576c-43 0 -68 -21 -68 -57c0 -35 25 -55 68 -55s68 20 68 55
c0 36 -25 57 -68 57zM165 286c49 0 77 23 77 62c0 40 -28 63 -77 63s-77 -23 -77 -63c0 -39 28 -62 77 -62z" />
    <glyph glyph-name="nine.numr" 
d="M158 631c81 0 131 -50 131 -129v-138c0 -84 -49 -133 -131 -133c-42 0 -77 12 -105 34c-7 7 -7 14 -2 21l17 23c6 8 13 9 21 2c18 -16 39 -25 64 -25c49 0 75 28 75 81v34h-2c-18 -19 -45 -29 -80 -29c-73 0 -118 50 -118 128c0 80 51 131 130 131zM158 427
c43 0 70 29 70 75c0 45 -27 74 -70 74c-42 0 -69 -29 -69 -74c0 -47 27 -75 69 -75z" />
    <glyph glyph-name="zero.dnom" 
d="M35 126v134c0 86 47 133 130 133s130 -47 130 -133v-134c0 -86 -47 -133 -130 -133s-130 47 -130 133zM96 258v-130c0 -54 22 -80 69 -80s69 26 69 80v130c0 54 -22 80 -69 80s-69 -26 -69 -80z" />
    <glyph glyph-name="one.dnom" 
d="M251 371v-356c0 -10 -5 -15 -15 -15h-31c-10 0 -15 5 -15 15v292l-72 -54c-8 -6 -15 -4 -20 4l-14 21c-5 8 -4 15 4 21l107 81c6 4 11 6 18 6h23c10 0 15 -5 15 -15z" />
    <glyph glyph-name="two.dnom" 
d="M128 55h149c10 0 15 -5 15 -15v-25c0 -10 -5 -15 -15 -15h-217c-10 0 -15 5 -15 15v27c0 8 2 13 8 19l142 144c28 28 38 49 38 74c0 37 -24 59 -66 59c-29 0 -54 -15 -73 -42c-6 -8 -12 -9 -21 -3l-22 16c-7 5 -9 13 -3 21c27 41 71 63 121 63c78 0 125 -42 125 -114
c0 -42 -16 -71 -56 -112l-110 -110v-2z" />
    <glyph glyph-name="three.dnom" 
d="M239 201v-2c41 -14 64 -47 64 -92c0 -72 -49 -114 -133 -114c-54 0 -97 17 -127 51c-6 7 -6 14 1 21l18 19c7 8 14 7 21 -1c21 -23 49 -35 83 -35c48 0 76 23 76 62c0 43 -27 63 -88 63h-18c-10 0 -15 5 -15 15v23c0 10 5 15 15 15h15c57 0 82 17 82 55
c0 36 -26 57 -70 57c-31 0 -56 -12 -77 -35c-7 -8 -14 -9 -21 -1l-17 19c-7 7 -7 14 -1 21c31 33 72 51 120 51c79 0 127 -40 127 -108c0 -40 -20 -70 -55 -84z" />
    <glyph glyph-name="four.dnom" 
d="M268 140h30c10 0 15 -5 15 -15v-25c0 -10 -5 -15 -15 -15h-30v-70c0 -10 -5 -15 -15 -15h-31c-10 0 -15 5 -15 15v70h-165c-10 0 -15 5 -15 15v33c0 7 2 12 6 18l166 226c5 6 10 9 18 9h36c10 0 15 -5 15 -15v-231zM207 298h-2l-114 -158h116v158z" />
    <glyph glyph-name="five.dnom" 
d="M180 249c74 0 123 -51 123 -128c0 -78 -54 -128 -137 -128c-51 0 -95 17 -125 48c-6 7 -6 15 0 21l18 20c7 8 14 7 21 0c22 -22 50 -34 83 -34c50 0 79 28 79 73s-29 73 -76 73c-25 0 -48 -8 -64 -21c-6 -5 -11 -7 -19 -6l-20 3c-9 1 -14 7 -13 16l12 186c1 9 6 14 16 14
h188c10 0 15 -5 15 -15v-25c0 -10 -5 -15 -15 -15h-151l-7 -101h2c18 12 43 19 70 19z" />
    <glyph glyph-name="six.dnom" 
d="M183 252c74 0 119 -50 119 -128c0 -80 -51 -131 -130 -131c-81 0 -131 50 -131 129v138c0 84 49 133 131 133c42 0 78 -11 105 -33c7 -6 7 -14 1 -21l-18 -23c-6 -8 -13 -8 -21 -1c-17 15 -39 23 -62 23c-49 0 -75 -28 -75 -81v-34h2c18 19 45 29 79 29zM172 48
c42 0 69 29 69 74c0 47 -27 75 -69 75c-43 0 -70 -29 -70 -75c0 -45 27 -74 70 -74z" />
    <glyph glyph-name="seven.dnom" 
d="M308 371v-33c0 -7 -1 -12 -4 -19l-147 -308c-3 -8 -9 -11 -17 -11h-35c-12 0 -16 7 -11 18l151 313h-150v-53c0 -10 -5 -15 -15 -15h-28c-10 0 -15 5 -15 15v93c0 10 5 15 15 15h241c10 0 15 -5 15 -15z" />
    <glyph glyph-name="eight.dnom" 
d="M239 201v-2c42 -16 64 -48 64 -92c0 -73 -51 -114 -138 -114s-138 41 -138 114c0 44 22 76 64 92v2c-35 16 -54 46 -54 84c0 68 48 108 128 108s128 -40 128 -108c0 -38 -19 -68 -54 -84zM165 338c-43 0 -68 -21 -68 -57c0 -35 25 -55 68 -55s68 20 68 55
c0 36 -25 57 -68 57zM165 48c49 0 77 23 77 62c0 40 -28 63 -77 63s-77 -23 -77 -63c0 -39 28 -62 77 -62z" />
    <glyph glyph-name="nine.dnom" 
d="M158 393c81 0 131 -50 131 -129v-138c0 -84 -49 -133 -131 -133c-42 0 -77 12 -105 34c-7 7 -7 14 -2 21l17 23c6 8 13 9 21 2c18 -16 39 -25 64 -25c49 0 75 28 75 81v34h-2c-18 -19 -45 -29 -80 -29c-73 0 -118 50 -118 128c0 80 51 131 130 131zM158 189
c43 0 70 29 70 75c0 45 -27 74 -70 74c-42 0 -69 -29 -69 -74c0 -47 27 -75 69 -75z" />
    </font>
</defs>
</svg>
