<?xml version="1.0" encoding="UTF-8" standalone="no"?>
<svg width="16px" height="16px" viewBox="0 0 16 16" version="1.1" xmlns="http://www.w3.org/2000/svg" xmlns:xlink="http://www.w3.org/1999/xlink" xmlns:sketch="http://www.bohemiancoding.com/sketch/ns">
    <!-- Generator: Sketch 3.3.1 (12002) - http://www.bohemiancoding.com/sketch -->
    <title>16</title>
    <desc>Created with Sketch.</desc>
    <defs></defs>
    <g id="Page-1" stroke="none" stroke-width="1" fill="none" fill-rule="evenodd" sketch:type="MSPage">
        <g id="16" sketch:type="MSArtboardGroup" fill="#5949D4">
            <path d="M0,1.99406028 C0,0.892771196 0.894513756,0 1.99406028,0 L14.0059397,0 C15.1072288,0 16,0.894513756 16,1.99406028 L16,14.0059397 C16,15.1072288 15.1054862,16 14.0059397,16 L1.99406028,16 C0.892771196,16 0,15.1054862 0,14.0059397 L0,1.99406028 Z M11.8540627,12.7744353 C10.9733815,13.5837705 9.87848063,14 8.54555779,14 C5.64235135,14 4,12.4744674 4,9.514613 L4,6.46226314 C4,3.52617493 5.61854916,2 8.47415121,2 C9.80707405,2 10.8781728,2.34685794 11.6160408,2.99432609 C11.8302605,3.17931699 11.8302605,3.41055562 11.6636451,3.61867038 L11.1637991,4.2198908 C10.9495793,4.4504871 10.7591618,4.4504871 10.5211399,4.26613853 C10.0212938,3.87303287 9.45004114,3.6649181 8.59316218,3.6649181 C6.83246103,3.6649181 5.97558206,4.5898726 5.97558206,6.67102023 L5.97558206,9.3296221 C5.97558206,11.4101274 6.88006542,12.3350819 8.68837095,12.3350819 C9.52144773,12.3350819 10.1879091,12.0807194 10.7591618,11.5488706 C10.9733815,11.3407558 11.2114035,11.3407558 11.401821,11.5719944 L11.8778649,12.1507333 C12.0444802,12.3582058 12.0444802,12.5894444 11.8540627,12.7744353 Z" id="Rectangle-1-Copy" sketch:type="MSShapeGroup"></path>
        </g>
    </g>
</svg>