<?xml version="1.0" encoding="UTF-8" standalone="no"?>
<svg width="256px" height="256px" viewBox="0 0 256 256" version="1.1" xmlns="http://www.w3.org/2000/svg" xmlns:xlink="http://www.w3.org/1999/xlink" xmlns:sketch="http://www.bohemiancoding.com/sketch/ns">
    <!-- Generator: Sketch 3.3.1 (12002) - http://www.bohemiancoding.com/sketch -->
    <title>256</title>
    <desc>Created with Sketch.</desc>
    <defs></defs>
    <g id="Page-1" stroke="none" stroke-width="1" fill="none" fill-rule="evenodd" sketch:type="MSPage">
        <g id="256" sketch:type="MSArtboardGroup" fill="#5949D4">
            <path d="M0,20.0078954 C0,8.95783988 8.96106958,0 20.0078954,0 L235.992105,0 C247.04216,0 256,8.96106958 256,20.0078954 L256,235.992105 C256,247.04216 247.03893,256 235.992105,256 L20.0078954,256 C8.95783988,256 0,247.03893 0,235.992105 L0,20.0078954 Z M190,206 C175.544682,219.166899 158.030887,226 137,226 C90.2706922,226 64,200.95584 64,152 L64,102 C64,54.0547051 89.8899575,29 136,29 C156.888683,29 174.021743,34.6942512 186,45 C189.25113,48.3604539 189.25113,52.1566213 187,56 L179,65 C175.163947,69.2288299 172.11807,69.2288299 168,66 C160.315295,59.7489562 151.177663,56.3324055 137,56 C109.307426,56.3324055 95.6009775,71.5170753 96,106 L96,149 C95.6009775,183.482925 110.068895,198.667594 139,199 C152.319867,198.667594 162.980438,194.49181 172,186 C175.544682,182.344075 179.352029,182.344075 182,186 L190,196 C192.677742,199.047211 192.677742,202.843379 190,206 Z" id="Rectangle-1" sketch:type="MSShapeGroup"></path>
        </g>
    </g>
</svg>